<svg width="442" height="303" viewBox="0 0 442 303" fill="none" xmlns="http://www.w3.org/2000/svg">
<path d="M340 188.5H96C91.6 188.5 88 184.9 88 180.5V32.5C88 28.1 91.6 24.5 96 24.5H340C344.4 24.5 348 28.1 348 32.5V180.5C348 184.9 344.4 188.5 340 188.5Z" fill="white"/>
<path d="M212.1 60.8L200.2 51.5L215 39.8C181.6 42.7 155.3 70.8 155.3 105C155.3 120.8 160.9 135.3 170.3 146.6H203.6C187.2 139.8 175.7 123.7 175.7 105C175.7 83.1 191.4 64.9 212.1 60.8Z" stroke="#272D3D" stroke-miterlimit="10" stroke-linecap="round" stroke-linejoin="round"/>
<path d="M162.699 170.5L175.699 160.3L162.699 150.1" stroke="#272D3D" stroke-miterlimit="10" stroke-linecap="round" stroke-linejoin="round"/>
<path d="M151.9 170.5H113.1V170.3L125.9 160.3L113.1 150.2V150.1H151.9" stroke="#272D3D" stroke-miterlimit="10" stroke-linecap="round" stroke-linejoin="round"/>
<path d="M232.5 40.6C246.7 43.2 259.3 50.3 268.7 60.5C279.6 72.2 286.2 87.8 286.2 105C286.2 122.4 279.3 138.3 268.2 150C256.3 162.6 239.4 170.4 220.8 170.4H171.3L183.8 160.6L184.3 160.2L175.6 153.4L171.3 150H220.8C245.6 150 265.8 129.8 265.8 105C265.8 93.4 261.4 82.9 254.2 74.9C248.5 68.5 241 63.8 232.5 61.5" stroke="#272D3D" stroke-miterlimit="10" stroke-linecap="round" stroke-linejoin="round"/>
<path d="M219.499 60L208.699 51.5L218.299 44L223.699 39.6" stroke="#272D3D" stroke-miterlimit="10" stroke-linecap="round" stroke-linejoin="round"/>
<path d="M309.899 150.1L322.899 160.3L309.899 170.5" stroke="#272D3D" stroke-miterlimit="10" stroke-linecap="round" stroke-linejoin="round"/>
<path d="M299.1 170.5H245C255.2 167.1 264.3 161.2 271.6 153.5C272.6 152.4 273.6 151.3 274.6 150.1H299.1" stroke="#272D3D" stroke-miterlimit="10" stroke-linecap="round" stroke-linejoin="round"/>
<path d="M232.499 40.6V32.8L223.999 39.5L223.699 39.6L218.299 44L208.699 51.5L219.499 60L223.999 63.5L232.499 70.2V61.5" stroke="#272D3D" stroke-miterlimit="10" stroke-linecap="round" stroke-linejoin="round"/>
<path d="M151.899 150.1V141.6L160.399 148.2L162.699 150.1L175.699 160.3L162.699 170.5L160.399 172.3L151.899 179V170.5" stroke="#272D3D" stroke-miterlimit="10" stroke-linecap="round" stroke-linejoin="round"/>
<path d="M299.1 150.1V141.6L309.9 150.1L322.9 160.3L309.9 170.5L299.1 179V170.5" stroke="#272D3D" stroke-miterlimit="10" stroke-linecap="round" stroke-linejoin="round"/>
<path d="M135 162V156.1H137.1C137.6 156.1 137.9 156.2 138.3 156.3C138.6 156.5 138.8 156.7 139 156.9C139.2 157.2 139.2 157.5 139.2 157.8C139.2 158.1 139.1 158.4 139 158.7C138.9 159 138.6 159.2 138.3 159.3C138 159.5 137.6 159.5 137.1 159.5H135.9V161.9H135V162ZM135.9 158.9H137C137.4 158.9 137.7 158.8 137.9 158.6C138.1 158.4 138.2 158.2 138.2 157.8C138.2 157.5 138.1 157.2 137.9 157C137.7 156.8 137.4 156.7 137 156.7H135.9V158.9Z" fill="#272D3D"/>
<path d="M140.5 162V155.9H141.4V162H140.5Z" fill="#272D3D"/>
<path d="M144.5 162.1C144.1 162.1 143.8 162 143.6 161.9C143.4 161.8 143.2 161.6 143.1 161.4C143 161.2 142.9 161 142.9 160.8C142.9 160.4 143.1 160.1 143.4 159.8C143.7 159.5 144.2 159.4 144.8 159.4H145.9V159.3C145.9 159 145.8 158.7 145.6 158.6C145.4 158.4 145.2 158.4 144.9 158.4C144.6 158.4 144.4 158.5 144.2 158.6C144 158.7 143.9 158.9 143.9 159.1H143C143 158.8 143.1 158.5 143.3 158.3C143.5 158.1 143.7 157.9 144 157.8C144.3 157.7 144.6 157.6 144.9 157.6C145.5 157.6 145.9 157.8 146.3 158.1C146.6 158.4 146.8 158.8 146.8 159.4V162H146L145.9 161.3C145.8 161.5 145.6 161.7 145.4 161.9C145.1 162 144.8 162.1 144.5 162.1ZM144.7 161.4C144.9 161.4 145.1 161.3 145.3 161.2C145.5 161.1 145.6 160.9 145.7 160.7C145.8 160.5 145.9 160.3 145.9 160.1H144.9C144.5 160.1 144.3 160.2 144.1 160.3C143.9 160.4 143.9 160.6 143.9 160.8C143.9 161 144 161.1 144.1 161.3C144.2 161.3 144.4 161.4 144.7 161.4Z" fill="#272D3D"/>
<path d="M148.3 162V157.8H149.1L149.2 158.5C149.3 158.2 149.5 158 149.8 157.9C150.1 157.8 150.3 157.7 150.7 157.7C151.2 157.7 151.6 157.9 151.9 158.2C152.2 158.5 152.3 159 152.3 159.6V162H151.4V159.7C151.4 158.9 151.1 158.5 150.4 158.5C150.1 158.5 149.8 158.6 149.6 158.9C149.4 159.1 149.3 159.5 149.3 159.9V162.1H148.3V162Z" fill="#272D3D"/>
<path d="M203.199 162V156.1H205.099C205.799 156.1 206.399 156.2 206.799 156.5C207.199 156.8 207.599 157.1 207.799 157.5C207.999 157.9 208.099 158.5 208.099 159.1C208.099 159.7 207.999 160.2 207.799 160.7C207.599 161.2 207.199 161.5 206.799 161.7C206.299 161.9 205.799 162.1 205.099 162.1H203.199V162ZM204.099 161.2H205.099C205.599 161.2 206.099 161.1 206.399 160.9C206.699 160.7 206.899 160.5 207.099 160.1C207.299 159.7 207.299 159.4 207.299 158.9C207.299 158.4 207.199 158 207.099 157.7C206.999 157.4 206.699 157.1 206.399 156.9C206.099 156.7 205.699 156.6 205.099 156.6H204.099V161.2Z" fill="#272D3D"/>
<path d="M211.699 162.1C211.299 162.1 210.899 162 210.599 161.8C210.299 161.6 209.999 161.4 209.799 161C209.599 160.7 209.499 160.3 209.499 159.9C209.499 159.5 209.599 159.1 209.799 158.7C209.999 158.4 210.199 158.1 210.499 157.9C210.799 157.7 211.199 157.6 211.599 157.6C211.999 157.6 212.399 157.7 212.699 157.9C212.999 158.1 213.199 158.3 213.399 158.6C213.599 158.9 213.699 159.2 213.699 159.6C213.699 159.7 213.699 159.7 213.699 159.8C213.699 159.9 213.699 159.9 213.699 160H210.399C210.399 160.4 210.599 160.7 210.799 160.9C210.999 161.1 211.299 161.2 211.599 161.2C211.899 161.2 212.099 161.1 212.199 161C212.399 160.9 212.499 160.7 212.599 160.5H213.499C213.399 160.9 213.199 161.2 212.799 161.5C212.599 162 212.199 162.1 211.699 162.1ZM211.699 158.4C211.399 158.4 211.099 158.5 210.899 158.7C210.699 158.9 210.499 159.1 210.499 159.5H212.899C212.899 159.2 212.799 158.9 212.599 158.7C212.199 158.5 211.999 158.4 211.699 158.4Z" fill="#272D3D"/>
<path d="M216.799 162.1C216.299 162.1 215.799 162 215.499 161.7C215.199 161.4 214.999 161.1 214.899 160.7H215.799C215.799 160.9 215.999 161.1 216.099 161.2C216.199 161.3 216.499 161.4 216.799 161.4C217.099 161.4 217.299 161.3 217.399 161.2C217.499 161.1 217.599 161 217.599 160.8C217.599 160.6 217.499 160.4 217.299 160.4C217.099 160.3 216.899 160.3 216.599 160.2C216.399 160.1 216.099 160.1 215.899 160C215.699 159.9 215.499 159.8 215.299 159.6C215.099 159.4 215.099 159.2 215.099 159C215.099 158.6 215.199 158.3 215.499 158.1C215.799 157.9 216.199 157.7 216.699 157.7C217.199 157.7 217.599 157.8 217.799 158C218.099 158.2 218.299 158.5 218.299 159H217.399C217.399 158.8 217.299 158.7 217.099 158.6C216.899 158.5 216.799 158.4 216.499 158.4C216.299 158.4 216.099 158.4 215.999 158.5C215.899 158.6 215.799 158.7 215.799 158.9C215.799 159 215.899 159.2 216.099 159.2C216.299 159.3 216.499 159.4 216.799 159.4C217.099 159.5 217.299 159.5 217.599 159.6C217.799 159.7 217.999 159.8 218.199 160C218.399 160.2 218.399 160.4 218.399 160.7C218.399 161.1 218.299 161.4 217.999 161.7C217.799 162 217.399 162.1 216.799 162.1Z" fill="#272D3D"/>
<path d="M220.499 157C220.299 157 220.199 156.9 220.099 156.8C219.999 156.7 219.899 156.6 219.899 156.4C219.899 156.2 219.999 156.1 220.099 156C220.199 155.9 220.399 155.8 220.499 155.8C220.599 155.8 220.799 155.9 220.899 156C220.999 156.1 221.099 156.2 221.099 156.4C221.099 156.6 220.999 156.7 220.899 156.8C220.799 156.9 220.699 157 220.499 157ZM220.099 162V157.8H220.999V162H220.099Z" fill="#272D3D"/>
<path d="M224.399 160.7C224.199 160.7 223.999 160.7 223.799 160.6L223.399 161C223.499 161 223.499 161.1 223.599 161.1C223.699 161.1 223.799 161.2 223.999 161.2C224.199 161.2 224.399 161.2 224.699 161.3C225.299 161.4 225.699 161.5 225.899 161.7C226.099 161.9 226.299 162.2 226.299 162.6C226.299 162.8 226.199 163.1 226.099 163.3C225.999 163.5 225.799 163.7 225.499 163.8C225.199 163.9 224.899 164 224.399 164C223.799 164 223.299 163.9 222.999 163.7C222.599 163.5 222.499 163.1 222.499 162.7C222.499 162.5 222.499 162.3 222.599 162.2C222.699 162.1 222.799 161.9 222.999 161.7C222.899 161.6 222.799 161.6 222.699 161.5C222.599 161.4 222.499 161.4 222.499 161.3V161.1L223.199 160.4C222.899 160.1 222.699 159.7 222.699 159.3C222.699 159 222.799 158.8 222.899 158.5C222.999 158.3 223.199 158.1 223.499 158C223.799 157.9 224.099 157.8 224.399 157.8C224.599 157.8 224.899 157.8 225.099 157.9H226.699V158.5H225.999C226.099 158.7 226.199 159 226.199 159.3C226.199 159.6 226.099 159.8 225.999 160.1C225.899 160.4 225.699 160.5 225.399 160.6C225.099 160.6 224.699 160.7 224.399 160.7ZM223.299 162.5C223.299 162.7 223.399 162.9 223.599 163C223.799 163.1 224.099 163.2 224.399 163.2C224.699 163.2 224.999 163.1 225.199 163C225.399 162.9 225.499 162.7 225.499 162.5C225.499 162.3 225.399 162.2 225.299 162.1C225.199 162 224.899 161.9 224.599 161.9C224.299 161.9 224.099 161.9 223.899 161.8C223.699 161.9 223.599 162 223.499 162.1C223.399 162.2 223.299 162.4 223.299 162.5ZM224.399 160C224.699 160 224.899 159.9 224.999 159.8C225.199 159.7 225.199 159.5 225.199 159.2C225.199 158.9 225.099 158.7 224.999 158.6C224.799 158.5 224.599 158.4 224.399 158.4C224.099 158.4 223.899 158.5 223.799 158.6C223.599 158.7 223.599 158.9 223.599 159.2C223.599 159.5 223.699 159.7 223.799 159.8C223.899 159.9 224.099 160 224.399 160Z" fill="#272D3D"/>
<path d="M227.899 162V157.8H228.699L228.799 158.5C228.899 158.2 229.099 158 229.399 157.9C229.699 157.8 229.899 157.7 230.299 157.7C230.799 157.7 231.199 157.9 231.499 158.2C231.799 158.5 231.899 159 231.899 159.6V162H230.999V159.7C230.999 158.9 230.699 158.5 229.999 158.5C229.699 158.5 229.399 158.6 229.199 158.9C228.999 159.1 228.899 159.5 228.899 159.9V162.1H227.899V162Z" fill="#272D3D"/>
<path d="M277 162V156.1H277.9V161.3H280.6V162H277Z" fill="#272D3D"/>
<path d="M283.4 162.1C283 162.1 282.7 162 282.5 161.9C282.3 161.8 282.1 161.6 282 161.4C281.9 161.2 281.8 161 281.8 160.8C281.8 160.4 282 160.1 282.3 159.8C282.6 159.6 283.1 159.4 283.7 159.4H284.8V159.3C284.8 159 284.7 158.7 284.5 158.6C284.3 158.4 284.1 158.4 283.8 158.4C283.6 158.4 283.3 158.5 283.2 158.6C283 158.7 282.9 158.9 282.9 159.1H282C282 158.8 282.1 158.5 282.3 158.3C282.5 158.1 282.7 157.9 283 157.8C283.3 157.7 283.6 157.6 283.9 157.6C284.5 157.6 284.9 157.8 285.3 158.1C285.6 158.4 285.8 158.8 285.8 159.4V162H285L284.9 161.3C284.8 161.5 284.6 161.7 284.4 161.9C284.1 162 283.8 162.1 283.4 162.1ZM283.6 161.4C283.8 161.4 284 161.3 284.2 161.2C284.4 161.1 284.5 160.9 284.6 160.7C284.7 160.5 284.8 160.3 284.8 160.1H283.8C283.4 160.1 283.2 160.2 283 160.3C282.8 160.4 282.8 160.6 282.8 160.8C282.8 161 282.9 161.1 283 161.3C283.2 161.3 283.4 161.4 283.6 161.4Z" fill="#272D3D"/>
<path d="M288.8 162.1C288.3 162.1 287.9 161.9 287.6 161.6C287.3 161.3 287.2 160.8 287.2 160.2V157.8H288.1V160.1C288.1 160.9 288.4 161.3 289.1 161.3C289.4 161.3 289.7 161.2 289.9 160.9C290.1 160.7 290.2 160.3 290.2 159.9V157.7H291.1V161.9H290.3L290.2 161.2C290.1 161.5 289.9 161.7 289.6 161.8C289.4 162 289.2 162.1 288.8 162.1Z" fill="#272D3D"/>
<path d="M292.8 162V157.8H293.6L293.7 158.5C293.8 158.2 294 158 294.3 157.9C294.6 157.8 294.8 157.7 295.2 157.7C295.7 157.7 296.1 157.9 296.4 158.2C296.7 158.5 296.8 159 296.8 159.6V162H295.9V159.7C295.9 158.9 295.6 158.5 294.9 158.5C294.6 158.5 294.3 158.6 294.1 158.9C293.9 159.1 293.8 159.5 293.8 159.9V162.1H292.8V162Z" fill="#272D3D"/>
<path d="M300.3 162.1C299.9 162.1 299.5 162 299.2 161.8C298.9 161.6 298.6 161.4 298.4 161C298.2 160.7 298.1 160.3 298.1 159.8C298.1 159.4 298.2 159 298.4 158.6C298.6 158.3 298.8 158 299.2 157.8C299.5 157.6 299.9 157.5 300.3 157.5C300.8 157.5 301.3 157.6 301.6 157.9C302 158.2 302.2 158.5 302.3 159H301.4C301.3 158.8 301.2 158.6 301 158.5C300.8 158.4 300.6 158.3 300.3 158.3C300.1 158.3 299.9 158.4 299.7 158.5C299.5 158.6 299.4 158.8 299.2 159C299.1 159.2 299 159.5 299 159.8C299 160.1 299.1 160.4 299.2 160.6C299.3 160.8 299.5 161 299.7 161.1C299.9 161.2 300.1 161.3 300.3 161.3C300.6 161.3 300.8 161.2 301 161.1C301.2 161 301.3 160.8 301.4 160.5H302.3C302.2 161 302 161.3 301.6 161.6C301.3 162 300.8 162.1 300.3 162.1Z" fill="#272D3D"/>
<path d="M303.8 162V155.9H304.7V158.5C304.8 158.3 305 158.1 305.3 157.9C305.6 157.8 305.8 157.7 306.1 157.7C306.6 157.7 307 157.9 307.3 158.2C307.6 158.5 307.7 159 307.7 159.6V162H306.8V159.7C306.8 158.9 306.5 158.5 305.8 158.5C305.5 158.5 305.2 158.6 305 158.9C304.8 159.1 304.7 159.5 304.7 159.9V162.1H303.8V162Z" fill="#272D3D"/>
<path d="M170 89.6L164.5 87.6L165.1 85.8C165.3 85.2 165.6 84.7 166 84.3C166.4 84 166.8 83.8 167.3 83.7C167.8 83.6 168.3 83.7 168.9 83.9C169.5 84.1 169.9 84.4 170.2 84.7C170.5 85.1 170.7 85.5 170.8 86C170.9 86.5 170.8 87.1 170.6 87.7L170 89.6ZM169.6 88.5L169.9 87.6C170.1 87.1 170.1 86.7 170.1 86.3C170 86 169.9 85.7 169.6 85.4C169.3 85.2 169 85 168.6 84.8C168.2 84.6 167.8 84.6 167.4 84.6C167 84.6 166.7 84.7 166.5 85C166.2 85.2 166 85.6 165.8 86.1L165.5 87L169.6 88.5Z" fill="#272D3D"/>
<path d="M173.1 82.2C172.9 82.6 172.7 82.8 172.4 83C172.1 83.2 171.8 83.3 171.4 83.3C171 83.3 170.7 83.2 170.3 83C169.9 82.8 169.6 82.6 169.4 82.3C169.2 82 169.1 81.7 169 81.3C169 80.9 169.1 80.6 169.2 80.2C169.4 79.8 169.6 79.6 169.9 79.4C170.2 79.2 170.5 79.1 170.9 79.1C171.2 79.1 171.6 79.2 171.9 79.3C172 79.3 172 79.4 172.1 79.4C172.2 79.4 172.2 79.5 172.3 79.5L170.9 82.4C171.3 82.6 171.6 82.6 171.9 82.4C172.2 82.3 172.4 82.1 172.5 81.8C172.6 81.6 172.7 81.4 172.6 81.2C172.6 81 172.5 80.8 172.4 80.7L172.8 79.9C173.1 80.2 173.3 80.5 173.4 80.9C173.4 81.3 173.3 81.7 173.1 82.2ZM169.9 80.6C169.8 80.9 169.7 81.1 169.8 81.4C169.9 81.7 170 81.9 170.3 82.1L171.3 80C171 79.9 170.7 79.9 170.5 80C170.2 80.1 170 80.3 169.9 80.6Z" fill="#272D3D"/>
<path d="M176.1 80.2L171 77L171.4 76.3L172 76.6C171.9 76.4 171.9 76.1 171.9 75.9C171.9 75.6 172 75.3 172.2 75C172.4 74.7 172.7 74.4 173 74.3C173.3 74.1 173.7 74.1 174 74.1C174.4 74.1 174.7 74.2 175.1 74.5C175.5 74.7 175.7 75 175.9 75.3C176.1 75.6 176.2 76 176.2 76.3C176.2 76.7 176.1 77 175.9 77.4C175.7 77.7 175.5 77.9 175.3 78C175.1 78.1 174.8 78.2 174.5 78.2L176.6 79.5L176.1 80.2ZM175.1 77C175.3 76.7 175.4 76.3 175.3 76C175.2 75.7 175 75.4 174.6 75.2C174.4 75.1 174.1 75 173.9 75C173.7 75 173.4 75 173.2 75.1C173 75.2 172.8 75.4 172.7 75.6C172.5 75.9 172.4 76.3 172.5 76.6C172.6 76.9 172.8 77.2 173.2 77.4C173.6 77.6 173.9 77.7 174.2 77.6C174.7 77.5 174.9 77.3 175.1 77Z" fill="#272D3D"/>
<path d="M177.7 74.4L172.9 70.8L173.4 70.1L178.2 73.7L177.7 74.4Z" fill="#272D3D"/>
<path d="M180.4 71.1C180.1 71.4 179.8 71.6 179.5 71.7C179.2 71.8 178.8 71.8 178.4 71.8C178 71.7 177.7 71.6 177.4 71.3C177.1 71 176.8 70.7 176.7 70.3C176.6 69.9 176.5 69.6 176.6 69.2C176.7 68.8 176.8 68.5 177.1 68.2C177.4 67.9 177.7 67.7 178 67.6C178.3 67.5 178.7 67.5 179.1 67.5C179.5 67.6 179.8 67.7 180.1 68C180.4 68.3 180.7 68.6 180.8 69C180.9 69.4 181 69.7 180.9 70.1C180.9 70.5 180.7 70.8 180.4 71.1ZM179.9 70.6C180 70.4 180.1 70.3 180.2 70.1C180.2 69.9 180.2 69.7 180.1 69.5C180 69.3 179.9 69.1 179.6 68.9C179.3 68.7 179.1 68.6 178.9 68.5C178.7 68.4 178.5 68.5 178.3 68.5C178.1 68.6 177.9 68.7 177.8 68.8C177.7 68.9 177.6 69.1 177.5 69.3C177.5 69.5 177.5 69.7 177.6 69.9C177.7 70.1 177.8 70.3 178.1 70.5C178.3 70.7 178.6 70.8 178.8 70.9C179 71 179.2 70.9 179.4 70.9C179.6 70.9 179.7 70.8 179.9 70.6Z" fill="#272D3D"/>
<path d="M184 69.7L183.2 67.4L183 67.6L179.2 66L179.9 65.3L182.9 66.6L181.7 63.5L182.4 62.9L184.6 69L184 69.7Z" fill="#272D3D"/>
<path d="M250.9 62.1L253.8 57.9L252.4 56.9L252.8 56.3L256.4 58.8L256 59.4L254.6 58.4L251.7 62.6L250.9 62.1Z" fill="#272D3D"/>
<path d="M254.7 65.2C254.4 64.9 254.2 64.6 254 64.3C253.9 64 253.9 63.6 253.9 63.2C254 62.8 254.1 62.5 254.4 62.2C254.7 61.9 255 61.6 255.3 61.5C255.6 61.4 256 61.3 256.4 61.4C256.8 61.5 257.1 61.6 257.4 61.9C257.7 62.2 257.9 62.5 258 62.8C258.1 63.1 258.1 63.5 258.1 63.8C258 64.1 257.9 64.4 257.7 64.7L257.6 64.8C257.6 64.8 257.5 64.9 257.5 65L255 62.9C254.8 63.2 254.7 63.5 254.7 63.9C254.7 64.2 254.9 64.5 255.1 64.7C255.3 64.9 255.5 65 255.7 65C255.9 65 256.1 65 256.3 64.9L257 65.5C256.7 65.7 256.3 65.8 255.9 65.8C255.5 65.6 255.1 65.5 254.7 65.2ZM257.1 62.4C256.9 62.2 256.6 62.1 256.3 62.1C256 62.1 255.7 62.2 255.5 62.4L257.3 63.9C257.5 63.6 257.6 63.4 257.5 63.1C257.5 62.9 257.3 62.6 257.1 62.4Z" fill="#272D3D"/>
<path d="M258.4 68.5C258 68.1 257.8 67.7 257.8 67.3C257.7 66.9 257.8 66.5 258.1 66.2L258.7 66.8C258.6 67 258.6 67.2 258.6 67.4C258.6 67.6 258.7 67.8 258.9 68C259.1 68.2 259.3 68.3 259.4 68.3C259.6 68.3 259.7 68.3 259.8 68.2C260 68.1 260 67.9 259.9 67.7C259.8 67.5 259.7 67.3 259.6 67.1C259.5 66.9 259.4 66.7 259.3 66.5C259.2 66.3 259.1 66.1 259.1 65.8C259.1 65.5 259.2 65.4 259.4 65.2C259.7 64.9 260 64.8 260.3 64.9C260.7 64.9 261 65.1 261.4 65.5C261.7 65.8 261.9 66.2 261.9 66.5C261.9 66.9 261.8 67.2 261.6 67.5L261 66.9C261.1 66.8 261.1 66.6 261.1 66.4C261.1 66.2 261 66.1 260.8 65.9C260.6 65.7 260.5 65.7 260.3 65.6C260.1 65.6 260 65.6 259.9 65.7C259.8 65.8 259.8 65.9 259.8 66.1C259.9 66.3 260 66.5 260.1 66.7C260.3 66.9 260.4 67.2 260.5 67.4C260.6 67.6 260.7 67.8 260.6 68.1C260.5 68.4 260.5 68.5 260.3 68.7C260 69 259.7 69.1 259.3 69C259.1 69.1 258.7 68.9 258.4 68.5Z" fill="#272D3D"/>
<path d="M261.5 71.8C261.2 71.5 261.1 71.2 261.1 70.9C261.1 70.6 261.3 70.3 261.7 69.9L263.3 68.6L262.8 68.1L263.4 67.6L263.9 68.1L264.8 67.5L265.3 68.1L264.5 68.8L265.3 69.7L264.7 70.2L263.9 69.3L262.3 70.6C262.1 70.7 262 70.9 262 71C262 71.1 262.1 71.3 262.2 71.5L262.5 71.9L261.9 72.4L261.5 71.8Z" fill="#272D3D"/>
<path d="M163.699 110.6L169.599 109.7L169.899 111.7C169.999 112.2 169.999 112.6 169.799 112.9C169.699 113.2 169.499 113.5 169.299 113.7C169.099 113.9 168.799 114 168.399 114.1C167.999 114.2 167.699 114.1 167.399 114C167.099 113.9 166.799 113.6 166.599 113.2L164.299 114.8L164.099 113.8L166.299 112.3L166.099 111.3L163.699 111.7V110.6ZM166.899 111.1L167.099 112.2C167.199 112.6 167.299 112.9 167.499 113C167.699 113.1 167.999 113.2 168.299 113.2C168.599 113.2 168.899 113 168.999 112.8C169.199 112.6 169.199 112.3 169.099 111.9L168.899 110.8L166.899 111.1Z" fill="#272D3D"/>
<path d="M165.099 118.2C164.999 117.8 164.999 117.4 165.099 117.1C165.199 116.7 165.399 116.4 165.699 116.2C165.999 115.9 166.299 115.8 166.699 115.6C167.099 115.5 167.499 115.5 167.899 115.6C168.299 115.7 168.599 115.9 168.799 116.1C168.999 116.3 169.199 116.7 169.399 117.1C169.499 117.5 169.499 117.9 169.399 118.2C169.299 118.5 169.099 118.8 168.899 119.1C168.599 119.3 168.299 119.5 167.999 119.6C167.899 119.6 167.899 119.6 167.799 119.6C167.699 119.6 167.699 119.6 167.599 119.6L166.799 116.4C166.399 116.5 166.099 116.7 165.999 117C165.899 117.3 165.799 117.6 165.899 117.9C165.999 118.1 166.099 118.3 166.199 118.5C166.399 118.6 166.499 118.7 166.799 118.8L166.999 119.7C166.599 119.7 166.199 119.6 165.899 119.3C165.499 119.1 165.199 118.7 165.099 118.2ZM168.699 117.3C168.599 117 168.499 116.8 168.199 116.6C167.999 116.4 167.699 116.4 167.299 116.4L167.899 118.7C168.199 118.6 168.399 118.4 168.599 118.2C168.699 117.9 168.799 117.6 168.699 117.3Z" fill="#272D3D"/>
<path d="M166.699 122.9L170.099 119.9L170.399 120.8L167.699 123.1L171.299 123L171.599 123.9H167.099L166.699 122.9Z" fill="#272D3D"/>
<path d="M168.199 126.8L171.999 125L172.399 125.8L168.599 127.6L168.199 126.8ZM172.999 125.1C172.899 124.9 172.899 124.8 172.999 124.7C172.999 124.6 173.099 124.4 173.299 124.4C173.399 124.3 173.599 124.3 173.699 124.4C173.799 124.5 173.899 124.6 173.999 124.7C174.099 124.9 174.099 125 173.999 125.1C173.999 125.2 173.899 125.4 173.699 125.4C173.599 125.5 173.399 125.5 173.299 125.4C173.199 125.3 173.099 125.2 172.999 125.1Z" fill="#272D3D"/>
<path d="M170.4 131.1C170.2 130.7 170.1 130.4 170.1 130C170.1 129.6 170.2 129.3 170.4 129C170.6 128.7 170.9 128.4 171.3 128.2C171.7 128 172.1 127.9 172.4 127.9C172.8 127.9 173.1 128 173.4 128.2C173.7 128.4 174 128.7 174.2 129C174.4 129.4 174.5 129.7 174.5 130.1C174.5 130.5 174.4 130.8 174.2 131.1C174 131.4 173.8 131.6 173.4 131.8C173.4 131.8 173.3 131.9 173.2 131.9C173.1 131.9 173.1 132 173 132L171.4 129.1C171.1 129.3 170.9 129.6 170.8 129.9C170.7 130.2 170.8 130.5 170.9 130.8C171 131 171.2 131.2 171.4 131.3C171.6 131.4 171.8 131.4 172 131.4L172.4 132.2C172 132.3 171.6 132.3 171.2 132.1C170.9 131.9 170.6 131.6 170.4 131.1ZM173.6 129.3C173.5 129 173.2 128.9 173 128.7C172.7 128.6 172.4 128.6 172.1 128.7L173.3 130.8C173.6 130.6 173.7 130.4 173.8 130.1C173.8 129.9 173.7 129.6 173.6 129.3Z" fill="#272D3D"/>
<path d="M172.899 135L175.599 131.5L176.099 132.2L173.999 134.7L177.099 133.6L177.699 134.4L175.699 137L178.699 135.8L179.199 136.5L175.099 138L174.599 137.3L176.699 134.6L173.499 135.8L172.899 135Z" fill="#272D3D"/>
<path d="M261.899 142.7L257.399 138.8L258.699 137.3C259.199 136.8 259.599 136.4 260.099 136.2C260.599 136 261.099 136 261.499 136.1C261.999 136.2 262.499 136.5 262.899 136.9C263.399 137.3 263.699 137.7 263.899 138.2C264.099 138.7 264.099 139.1 263.999 139.6C263.899 140.1 263.599 140.6 263.099 141.1L261.899 142.7ZM261.899 141.5L262.599 140.7C262.999 140.3 263.199 139.9 263.199 139.6C263.299 139.2 263.199 138.9 263.099 138.6C262.899 138.3 262.699 138 262.299 137.7C261.999 137.4 261.599 137.2 261.299 137.1C260.999 137 260.599 137 260.299 137.1C259.999 137.2 259.599 137.5 259.299 137.9L258.599 138.7L261.899 141.5Z" fill="#272D3D"/>
<path d="M267.4 135.9C267.2 136.2 266.9 136.5 266.6 136.7C266.3 136.9 265.9 136.9 265.5 136.9C265.1 136.9 264.8 136.7 264.4 136.5C264 136.3 263.8 136 263.6 135.6C263.4 135.2 263.3 134.9 263.4 134.5C263.4 134.1 263.6 133.8 263.8 133.4C264 133.1 264.3 132.8 264.6 132.7C264.9 132.6 265.3 132.5 265.6 132.5C265.9 132.5 266.3 132.6 266.6 132.9L266.7 133C266.8 133 266.8 133.1 266.9 133.1L265.1 135.8C265.5 136 265.8 136.1 266.1 136C266.4 135.9 266.7 135.7 266.8 135.5C266.9 135.3 267 135.1 267 134.9C267 134.7 266.9 134.5 266.8 134.3L267.3 133.6C267.6 133.9 267.7 134.3 267.7 134.7C267.8 135 267.7 135.5 267.4 135.9ZM264.4 133.8C264.2 134 264.2 134.3 264.2 134.6C264.2 134.9 264.4 135.2 264.6 135.4L265.9 133.4C265.6 133.2 265.3 133.2 265.1 133.3C264.8 133.4 264.6 133.5 264.4 133.8Z" fill="#272D3D"/>
<path d="M269.899 131.7L265.399 131.1L265.799 130.3L269.299 130.9L266.899 128.3L267.299 127.5L270.299 130.9L269.899 131.7Z" fill="#272D3D"/>
<path d="M272.6 126.3C272.4 126.7 272.2 127 271.9 127.2C271.6 127.4 271.3 127.6 270.9 127.6C270.5 127.6 270.1 127.6 269.7 127.4C269.3 127.2 269 127 268.7 126.7C268.5 126.4 268.3 126.1 268.3 125.7C268.3 125.3 268.3 125 268.5 124.6C268.7 124.2 268.9 123.9 269.2 123.7C269.5 123.5 269.8 123.4 270.2 123.3C270.5 123.3 270.9 123.3 271.2 123.5C271.3 123.5 271.3 123.5 271.4 123.6C271.5 123.7 271.5 123.7 271.6 123.7L270.3 126.7C270.7 126.8 271 126.8 271.3 126.7C271.6 126.6 271.8 126.3 271.9 126C272 125.8 272 125.5 272 125.3C272 125.1 271.9 124.9 271.7 124.8L272 124C272.3 124.3 272.5 124.6 272.7 125C272.8 125.4 272.8 125.8 272.6 126.3ZM269.2 124.9C269.1 125.2 269.1 125.5 269.1 125.7C269.1 125.9 269.4 126.2 269.7 126.4L270.6 124.2C270.3 124.1 270 124.1 269.7 124.2C269.5 124.4 269.3 124.6 269.2 124.9Z" fill="#272D3D"/>
<path d="M273.799 122.7L267.999 120.8L268.299 119.9L274.099 121.8L273.799 122.7Z" fill="#272D3D"/>
<path d="M275.199 118.1C275.099 118.5 274.899 118.8 274.699 119.1C274.399 119.4 274.099 119.6 273.799 119.7C273.399 119.8 272.999 119.8 272.599 119.7C272.199 119.6 271.799 119.4 271.499 119.2C271.199 118.9 270.999 118.6 270.899 118.3C270.799 117.9 270.799 117.6 270.899 117.2C270.999 116.8 271.199 116.5 271.399 116.2C271.699 115.9 271.999 115.7 272.299 115.6C272.699 115.5 273.099 115.5 273.499 115.6C273.899 115.7 274.299 115.9 274.599 116.1C274.899 116.4 275.099 116.7 275.199 117C275.299 117.3 275.299 117.7 275.199 118.1ZM274.499 117.9C274.499 117.7 274.499 117.5 274.499 117.3C274.399 117.1 274.299 116.9 274.099 116.8C273.899 116.6 273.699 116.5 273.399 116.4C273.099 116.3 272.799 116.3 272.599 116.4C272.399 116.5 272.199 116.6 271.999 116.7C271.899 116.9 271.799 117 271.699 117.2C271.699 117.4 271.699 117.6 271.699 117.8C271.799 118 271.899 118.2 272.099 118.3C272.299 118.5 272.499 118.6 272.799 118.6C273.099 118.7 273.399 118.7 273.599 118.6C273.799 118.5 273.999 118.4 274.199 118.3C274.299 118.3 274.399 118.1 274.499 117.9Z" fill="#272D3D"/>
<path d="M277.8 114.4L271.8 113.7L271.9 112.9H272.6C272.4 112.7 272.3 112.5 272.1 112.3C272 112 271.9 111.7 272 111.4C272 111 272.2 110.6 272.4 110.4C272.6 110.1 272.9 109.9 273.3 109.8C273.7 109.7 274 109.6 274.5 109.7C275 109.8 275.3 109.9 275.6 110.1C275.9 110.3 276.1 110.6 276.3 110.9C276.5 111.2 276.5 111.6 276.5 112C276.5 112.3 276.4 112.6 276.2 112.8C276 113 275.8 113.2 275.6 113.3L278.1 113.6L277.8 114.4ZM275.5 111.9C275.5 111.5 275.5 111.2 275.2 110.9C275 110.6 274.6 110.5 274.2 110.4C273.9 110.4 273.7 110.4 273.4 110.5C273.2 110.6 273 110.7 272.8 110.9C272.7 111.1 272.6 111.3 272.5 111.6C272.5 112 272.5 112.3 272.8 112.6C273 112.9 273.4 113 273.8 113.1C274.2 113.2 274.6 113.1 274.9 112.9C275.3 112.6 275.5 112.3 275.5 111.9Z" fill="#272D3D"/>
<path d="M252.899 112.6C254.099 112.5 255.099 111.6 255.299 110.4C255.599 108.6 255.699 106.8 255.699 105C255.699 103.2 255.499 101.3 255.299 99.6C255.099 98.4 254.099 97.5 252.899 97.4L247.299 97C246.799 95.5 246.199 94 245.499 92.7L249.199 88.4C249.999 87.5 250.099 86.1 249.299 85.1C247.199 82.2 244.599 79.6 241.599 77.4C240.599 76.7 239.199 76.7 238.299 77.5L233.999 81.2C232.599 80.5 231.199 79.9 229.699 79.4L229.299 73.8C229.199 72.6 228.299 71.6 227.099 71.4C225.299 71.1 223.499 71 221.699 71C219.899 71 217.999 71.2 216.299 71.4C215.099 71.6 214.199 72.6 214.099 73.8L213.699 79.4C212.199 79.9 210.699 80.5 209.399 81.2L205.099 77.5C204.199 76.7 202.799 76.6 201.799 77.4C198.899 79.5 196.299 82.1 194.099 85.1C193.399 86.1 193.399 87.5 194.199 88.4L197.899 92.7C197.199 94.1 196.599 95.5 196.099 97L190.499 97.4C189.299 97.5 188.299 98.4 188.099 99.6C187.799 101.4 187.699 103.2 187.699 105C187.699 106.8 187.899 108.7 188.099 110.4C188.299 111.6 189.299 112.5 190.499 112.6L196.099 113C196.599 114.5 197.199 116 197.899 117.3L194.199 121.6C193.399 122.5 193.299 123.9 194.099 124.9C196.199 127.8 198.799 130.4 201.799 132.6C202.799 133.3 204.199 133.3 205.099 132.5L209.399 128.8C210.799 129.5 212.199 130.1 213.699 130.6L214.099 136.2C214.199 137.4 215.099 138.4 216.299 138.6C218.099 138.9 219.899 139 221.699 139C223.499 139 225.399 138.8 227.099 138.6C228.299 138.4 229.199 137.4 229.299 136.2L229.699 130.6C231.199 130.1 232.699 129.5 233.999 128.8L238.299 132.5C239.199 133.3 240.599 133.4 241.599 132.6C244.499 130.5 247.099 127.9 249.299 124.9C249.999 123.9 249.999 122.5 249.199 121.6L245.499 117.3C246.199 115.9 246.799 114.5 247.299 113L252.899 112.6ZM221.799 123.3C211.699 123.3 203.399 115.1 203.399 104.9C203.399 94.7 211.599 86.5 221.799 86.5C231.999 86.5 240.199 94.7 240.199 104.9C240.199 115.1 231.999 123.3 221.799 123.3Z" stroke="#272D3D" stroke-miterlimit="10" stroke-linecap="round" stroke-linejoin="round"/>
<path d="M340 188.5H96C91.6 188.5 88 184.9 88 180.5V32.5C88 28.1 91.6 24.5 96 24.5H340C344.4 24.5 348 28.1 348 32.5V180.5C348 184.9 344.4 188.5 340 188.5Z" stroke="#272D3D" stroke-miterlimit="10" stroke-linecap="round" stroke-linejoin="round"/>
<path d="M78.1999 258.2C77.1999 258.6 75.9999 258 75.5999 257L55.0999 200.6C54.6999 199.6 55.2999 198.4 56.2999 198C57.2999 197.6 58.4999 198.2 58.8999 199.2L79.3999 255.6C79.7999 256.7 79.2999 257.9 78.1999 258.2Z" fill="white"/>
<path d="M54.3001 211.5C53.5001 210.8 53.3001 209.5 54.1001 208.7L92.7001 162.7C93.4001 161.9 94.7001 161.7 95.5001 162.5C96.3001 163.2 96.5001 164.5 95.7001 165.3L57.1001 211.3C56.4001 212.1 55.1001 212.2 54.3001 211.5Z" fill="white"/>
<path d="M102.5 184L110.9 174L113 175.7C115.5 177.8 115.9 181.6 113.7 184.2L113 185C110.9 187.5 107.1 187.9 104.5 185.7L102.5 184Z" fill="white"/>
<path d="M78.1999 258.2C77.1999 258.6 75.9999 258 75.5999 257L55.0999 200.6C54.6999 199.6 55.2999 198.4 56.2999 198C57.2999 197.6 58.4999 198.2 58.8999 199.2L79.3999 255.6C79.7999 256.7 79.2999 257.9 78.1999 258.2Z" stroke="#272D3D" stroke-miterlimit="10" stroke-linecap="round" stroke-linejoin="round"/>
<path d="M54.3001 211.5C53.5001 210.8 53.3001 209.5 54.1001 208.7L92.7001 162.7C93.4001 161.9 94.7001 161.7 95.5001 162.5C96.3001 163.2 96.5001 164.5 95.7001 165.3L57.1001 211.3C56.4001 212.1 55.1001 212.2 54.3001 211.5Z" stroke="#272D3D" stroke-miterlimit="10" stroke-linecap="round" stroke-linejoin="round"/>
<path d="M102.5 184L110.9 174L113 175.7C115.5 177.8 115.9 181.6 113.7 184.2L113 185C110.9 187.5 107.1 187.9 104.5 185.7L102.5 184Z" stroke="#272D3D" stroke-miterlimit="10" stroke-linecap="round" stroke-linejoin="round"/>
<path d="M98.1006 270.4H58.1006C58.1006 260.5 66.2006 252.4 76.1006 252.4H80.1006C90.1006 252.4 98.1006 260.4 98.1006 270.4Z" fill="#DBDCDF"/>
<path d="M101.2 164.2L92.7998 174.2L88.9998 171C86.4998 168.9 86.0998 165.1 88.2998 162.5L88.9998 161.7C91.0998 159.2 94.8998 158.8 97.4998 161L101.2 164.2Z" fill="#DBDCDF"/>
<path d="M124.4 163.7L96.3997 197.1L95.1997 196.1C87.5997 189.7 86.5997 178.4 92.9997 170.7L97.8997 164.9C104.3 157.3 115.6 156.3 123.3 162.7L124.4 163.7Z" fill="#DBDCDF"/>
<path d="M98.1006 270.4H58.1006C58.1006 260.5 66.2006 252.4 76.1006 252.4H80.1006C90.1006 252.4 98.1006 260.4 98.1006 270.4Z" stroke="#272D3D" stroke-miterlimit="10" stroke-linecap="round" stroke-linejoin="round"/>
<path d="M91.3004 172.9L89.1004 171C86.6004 168.9 86.2004 165.1 88.4004 162.5L89.1004 161.7C91.2004 159.2 95.0004 158.8 97.6004 161L99.9004 162.9" stroke="#272D3D" stroke-miterlimit="10" stroke-linecap="round" stroke-linejoin="round"/>
<path d="M124.4 163.7L96.3997 197.1L95.1997 196.1C87.5997 189.7 86.5997 178.4 92.9997 170.7L97.8997 164.9C104.3 157.3 115.6 156.3 123.3 162.7L124.4 163.7Z" stroke="#272D3D" stroke-miterlimit="10" stroke-linecap="round" stroke-linejoin="round"/>
<path d="M59.1006 209.4C61.3097 209.4 63.1006 207.609 63.1006 205.4C63.1006 203.191 61.3097 201.4 59.1006 201.4C56.8914 201.4 55.1006 203.191 55.1006 205.4C55.1006 207.609 56.8914 209.4 59.1006 209.4Z" fill="white"/>
<path d="M59.1006 209.4C61.3097 209.4 63.1006 207.609 63.1006 205.4C63.1006 203.191 61.3097 201.4 59.1006 201.4C56.8914 201.4 55.1006 203.191 55.1006 205.4C55.1006 207.609 56.8914 209.4 59.1006 209.4Z" stroke="#272D3D" stroke-miterlimit="10" stroke-linecap="round" stroke-linejoin="round"/>
<path d="M359 242.6C359.3 248.5 355.8 255.7 354.7 260.8C353.6 266 355.9 267.4 355 270.5H344.7C343.7 268.4 344.4 267.7 346.2 265.4C347.8 263.3 344.3 254.5 344.3 254.5L344.2 255.1C343.1 257.3 343.4 264.8 343.1 267.4C342.7 270 341.4 270.6 341.4 270.6H331.2C331.2 265.9 334.4 266.8 334.7 264.1C335.7 255.3 333.2 254.2 331 244.2C328.8 234.3 331 225.1 331 225.1C331 225.1 358.4 227.2 359 242.6Z" fill="#272D3D"/>
<path d="M359.9 218.1C359.9 218.1 364.3 221.8 367.5 227.9C367.5 227.9 385.1 236.1 386.4 260.9C386.4 260.9 397.4 265.5 411.1 264.1C424.8 262.7 427.6 273.7 427 275.8C426.4 277.9 422.4 279.3 421.1 276.5C419.8 273.7 418 270.9 415.4 270.5H336.4L333 227.2L359.9 218.1Z" fill="#272D3D"/>
<path d="M344.7 270.5C343.7 268.4 344.4 267.7 346.2 265.4C347.8 263.3 344.3 254.5 344.3 254.5" stroke="white" stroke-miterlimit="10" stroke-linecap="round" stroke-linejoin="round"/>
<path d="M359 242.6C359.4 248.5 355.8 255.7 354.7 260.8C353.6 266 355.9 267.4 355 270.5" stroke="white" stroke-miterlimit="10" stroke-linecap="round" stroke-linejoin="round"/>
<path d="M361.1 215C361.8 222 350.8 230.6 343.5 231.4C336.5 232.1 326.2 225.3 325.6 218.3C324.9 211.3 333 204.9 343.6 204C354.2 203.1 360.4 208 361.1 215Z" fill="#272D3D"/>
<path d="M327.6 212.1L326.6 201.3C326.5 200.6 327.1 199.9 327.8 199.9C330.1 199.8 334.8 200.3 339.3 205.8L327.6 212.1Z" fill="#272D3D"/>
<path d="M328.3 201.2C328.3 201.2 333.5 203.7 334.1 208.5" stroke="white" stroke-miterlimit="10" stroke-linecap="round" stroke-linejoin="round"/>
<path d="M344.4 207.4L351.3 199C351.8 198.4 352.6 198.4 353.2 198.9C354.9 200.4 357.9 204.2 357.2 211.2L344.4 207.4Z" fill="#272D3D"/>
<path d="M352.6 200.3C352.6 200.3 354.5 205.8 351.6 209.6" stroke="white" stroke-miterlimit="10" stroke-linecap="round" stroke-linejoin="round"/>
<path d="M335.7 221.4C335.7 221.4 337 222.6 338.8 220.8" stroke="white" stroke-miterlimit="10" stroke-linecap="round" stroke-linejoin="round"/>
<path d="M353.5 226.9C350.2 229.3 346.5 231 343.4 231.4C340.2 231.7 336.4 230.5 333.1 228.4" stroke="white" stroke-miterlimit="10" stroke-linecap="round" stroke-linejoin="round"/>
<path d="M342 221.5C342 221.5 340.7 222.6 338.9 220.8V219.3" stroke="white" stroke-miterlimit="10" stroke-linecap="round" stroke-linejoin="round"/>
<path d="M340.6 218.5C340.6 219 338.9 219.3 338.9 219.3C338.9 219.3 337.3 218.9 337.2 218.4C337 217 338.9 218 338.9 218C338.9 218 340.6 217.2 340.6 218.5Z" fill="white"/>
<path d="M331.2 218.8C331.2 218.8 321 214.2 316 221.3" stroke="#272D3D" stroke-miterlimit="10" stroke-linecap="round" stroke-linejoin="round"/>
<path d="M330.9 216.9C330.9 216.9 321.3 211.1 315.5 217.6" stroke="#272D3D" stroke-miterlimit="10" stroke-linecap="round" stroke-linejoin="round"/>
<path d="M331.2 218.8C331.2 218.8 329.2 217.7 325.5 217.4" stroke="white" stroke-miterlimit="10" stroke-linecap="round" stroke-linejoin="round"/>
<path d="M330.9 216.9C330.9 216.9 329.2 215.7 325.9 214.9" stroke="white" stroke-miterlimit="10" stroke-linecap="round" stroke-linejoin="round"/>
<path d="M359.5 220.5C360.6 221.1 361.7 222 362.6 223.1" stroke="white" stroke-miterlimit="10" stroke-linecap="round" stroke-linejoin="round"/>
<path d="M361.1 216.3C362.5 216.6 364 217 365.5 217.7" stroke="#272D3D" stroke-miterlimit="10" stroke-linecap="round" stroke-linejoin="round"/>
<path d="M347.5 220.5C347.5 220.5 354.2 217.6 359.5 220.5" stroke="white" stroke-miterlimit="10" stroke-linecap="round" stroke-linejoin="round"/>
<path d="M347.7 218.7C347.7 218.7 353.5 214.9 361.1 216.3" stroke="white" stroke-miterlimit="10" stroke-linecap="round" stroke-linejoin="round"/>
<path d="M336.3 214.834C336.422 214.014 336.035 213.277 335.434 213.187C334.834 213.097 334.247 213.688 334.124 214.507C334.001 215.326 334.388 216.064 334.989 216.154C335.59 216.244 336.177 215.653 336.3 214.834Z" fill="white"/>
<path d="M344.623 214.744C344.746 213.925 344.358 213.187 343.758 213.097C343.157 213.007 342.57 213.598 342.447 214.417C342.324 215.237 342.712 215.974 343.312 216.064C343.913 216.154 344.5 215.563 344.623 214.744Z" fill="white"/>
<path d="M341.3 270.5C341.3 270.5 342.7 269.9 343 267.3C343.4 264.7 343 257.3 344.1 255C345.1 252.9 340.1 251.5 340.4 247.4" stroke="white" stroke-miterlimit="10" stroke-linecap="round" stroke-linejoin="round"/>
<path d="M386.4 260.9C386.4 260.9 386.3 263.7 385.9 265.6" stroke="white" stroke-miterlimit="10" stroke-linecap="round" stroke-linejoin="round"/>
<path d="M333.9 270.5C333.9 270.5 334 268.4 335.3 268" stroke="white" stroke-miterlimit="10" stroke-linecap="round" stroke-linejoin="round"/>
<path d="M336.8 270.5C336.8 270.5 336.9 268.4 338.2 268" stroke="white" stroke-miterlimit="10" stroke-linecap="round" stroke-linejoin="round"/>
<path d="M347.2 270.5C347.2 270.5 347.3 268.4 348.6 268" stroke="white" stroke-miterlimit="10" stroke-linecap="round" stroke-linejoin="round"/>
<path d="M350.1 270.5C350.1 270.5 350.2 268.4 351.5 268" stroke="white" stroke-miterlimit="10" stroke-linecap="round" stroke-linejoin="round"/>
<path d="M324.6 203.3L314.6 270.5H235.7L245.9 201.6C246.3 198.7 248.8 196.6 251.7 196.6H318.8C322.3 196.6 325.1 199.7 324.6 203.3Z" fill="white"/>
<path d="M314.6 270.5L324.6 203.3C325.1 199.8 322.4 196.6 318.8 196.6H310H251.7C248.8 196.6 246.3 198.7 245.9 201.6L235.7 270.5" stroke="#272D3D" stroke-miterlimit="10" stroke-linecap="round" stroke-linejoin="round"/>
<path d="M305.8 270.5L315.8 203.3C316.3 199.8 313.6 196.6 310 196.6H251.7C248.8 196.6 246.3 198.7 245.9 201.6L235.7 270.5" stroke="#272D3D" stroke-miterlimit="10" stroke-linecap="round" stroke-linejoin="round"/>
<path d="M179.2 225.7C179.2 225.7 185.3 212.9 188.9 204.8C193 195.5 200 181.5 203 177.9C206 174.3 217.9 170.1 217.9 170.1L222.3 167.7L256.4 164.7C256.4 164.7 279.1 167.1 286 173.4C292.9 179.7 298.2 194 298.2 201.2C298.2 208.4 305.1 270.4 305.1 270.4L221 270.3L222.9 239.7C222.9 239.7 212.7 232.8 210.1 226.9C207.4 220.9 208.9 223.9 208.9 223.9C208.9 223.9 199.4 244.2 196.1 246.6C192.8 249 154.6 260.7 154.6 260.7L149.4 240.7L179.2 225.7Z" fill="#DBDCDF"/>
<path d="M223.801 247.3H224.101C223.901 247.2 223.801 247.3 223.801 247.3Z" fill="#DBDCDF"/>
<path d="M218.5 184C218.5 184 226.4 199.6 225.1 209.5C223.4 222.4 208.8 221.6 213.5 210.2C218.8 197.4 250.9 197.1 248.4 220.8C246.6 237.5 232 229.8 232.8 219.2C233.8 205.9 250.9 190 259.7 195.8C272.8 204.5 247.6 236.4 249.2 244.4" stroke="#272D3D" stroke-miterlimit="10" stroke-linecap="round" stroke-linejoin="round"/>
<path d="M161 240.2C183.4 247.3 194.9 230.5 194.2 218.1C194 214.2 192.5 210.7 189.8 208.5C189.2 208.1 188.6 207.7 187.9 207.3" stroke="#272D3D" stroke-miterlimit="10" stroke-linecap="round" stroke-linejoin="round"/>
<path d="M182.2 220C187.6 221.2 191.5 220.3 194.3 218.1C204.7 210 199.2 184 199.2 184" stroke="#272D3D" stroke-miterlimit="10" stroke-linecap="round" stroke-linejoin="round"/>
<path d="M215.801 234C215.801 234 237.301 226.2 230.301 260.4" stroke="#272D3D" stroke-miterlimit="10" stroke-linecap="round" stroke-linejoin="round"/>
<path d="M253.2 266C253.2 266 254.7 269.4 257.2 270.6" stroke="#272D3D" stroke-miterlimit="10" stroke-linecap="round" stroke-linejoin="round"/>
<path d="M179.2 225.7C179.2 225.7 185.4 214.2 188.5 205.9C191.8 196.9 200 181.5 203 177.9C206 174.3 217.9 170.1 217.9 170.1L222.3 167.7L256.4 164.7C256.4 164.7 279.1 167.1 286 173.4C292.9 179.7 298.2 194 298.2 201.2C298.2 208.4 305.1 270.4 305.1 270.4L221 270.3L222.9 239.7C222.9 239.7 212.7 232.8 210.1 226.9C207.4 220.9 208.9 223.9 208.9 223.9C208.9 223.9 199.4 244.2 196.1 246.6C192.8 249 154.6 260.7 154.6 260.7L149.4 240.7L179.2 225.7Z" stroke="#272D3D" stroke-miterlimit="10" stroke-linecap="round" stroke-linejoin="round"/>
<path d="M250.5 153.6L251.6 165.3L252.4 172.7L239.7 185.4L229.3 177.3L228.5 169.9L227.4 158.4L218.9 160.2C218.9 160.2 208 169 208.6 174.1C209.2 179.2 230 194.8 239.7 185.4C249.1 194.7 272.8 172.3 272.4 167.6C271.9 162.9 262.9 152.5 250.5 153.6Z" fill="#DBDCDF"/>
<path d="M250.5 153.6L251.6 165.3L252.4 172.7L239.7 185.4L229.3 177.3L228.5 169.9L227.4 158.4L218.9 160.2C218.9 160.2 208 169 208.6 174.1C209.2 179.2 230 194.8 239.7 185.4C249.1 194.7 272.8 172.3 272.4 167.6C271.9 162.9 262.9 152.5 250.5 153.6Z" stroke="#272D3D" stroke-miterlimit="10" stroke-linecap="round" stroke-linejoin="round"/>
<path d="M255.8 169.3L239.7 185.5L222.2 171.8" stroke="#272D3D" stroke-miterlimit="10" stroke-linecap="round" stroke-linejoin="round"/>
<path d="M232.001 213.3C231.301 213.3 230.801 212.8 230.801 212.1V186.5C230.801 185.8 231.301 185.3 232.001 185.3C232.701 185.3 233.201 185.8 233.201 186.5V212.1C233.201 212.8 232.601 213.3 232.001 213.3Z" fill="#272D3D"/>
<path d="M244.9 217.7C244.2 217.7 243.7 217.2 243.7 216.5V186.5C243.7 185.8 244.2 185.3 244.9 185.3C245.6 185.3 246.1 185.8 246.1 186.5V216.5C246.1 217.1 245.6 217.7 244.9 217.7Z" fill="#272D3D"/>
<path d="M227.3 247.6H217.7C217.7 247.6 202.8 242.2 199.8 242.8C197 243.3 187 250 185 251.3C184.8 251.4 184.6 251.7 184.5 251.9C184.1 253 184.6 254.2 185.7 254.6L185.9 254.7L185.8 255C185.7 255.4 185.6 255.8 185.6 256.2C185.7 257 186.4 257.6 187.2 257.5C187.7 257.5 188.1 257.2 188.3 256.8L187.9 257.5C187.7 257.8 187.7 258.1 187.7 258.4V259C187.7 259.7 188.2 260.3 188.8 260.5C189.4 260.7 190.1 260.5 190.5 260C191.8 258.6 194.5 255.8 196.4 255.5C198.4 255.3 200.5 255.2 202.5 255.2C203.4 255.2 204.1 255.7 204.4 256.5C203.3 256.6 195.6 260.6 192.8 262.1C191.9 262.5 191.3 263.4 191.2 264.3C191.1 265.2 191.5 266 193.2 265.7C196.8 264.8 203.4 261.8 203.4 261.8C203.4 261.8 206.8 260.8 209 262.4C212.1 264.6 213.5 265.4 216.1 264.5C217.7 264 219.2 263.2 220.7 262.3L228.9 261.8C229.1 261.7 234 249.5 227.3 247.6Z" fill="white"/>
<path d="M227.3 247.6H217.7C217.7 247.6 202.8 242.2 199.8 242.8C197 243.3 187 250 185 251.3C184.8 251.4 184.6 251.7 184.5 251.9C184.1 253 184.6 254.2 185.7 254.6L185.9 254.7L185.8 255C185.7 255.4 185.6 255.8 185.6 256.2C185.7 257 186.4 257.6 187.2 257.5C187.7 257.5 188.1 257.2 188.3 256.8L187.9 257.5C187.7 257.8 187.7 258.1 187.7 258.4V259C187.7 259.7 188.2 260.3 188.8 260.5C189.4 260.7 190.1 260.5 190.5 260C191.8 258.6 194.5 255.8 196.4 255.5C198.4 255.3 200.5 255.2 202.5 255.2C203.4 255.2 204.1 255.7 204.4 256.5C203.3 256.6 195.6 260.6 192.8 262.1C191.9 262.5 191.3 263.4 191.2 264.3C191.1 265.2 191.5 266 193.2 265.7C196.8 264.8 203.4 261.8 203.4 261.8C203.4 261.8 206.8 260.8 209 262.4C212.1 264.6 213.5 265.4 216.1 264.5C217.7 264 219.2 263.2 220.7 262.3L228.9 261.8C229.1 261.7 234 249.5 227.3 247.6Z" stroke="#272D3D" stroke-miterlimit="10" stroke-linecap="round" stroke-linejoin="round"/>
<path d="M188.3 256.8C188.3 256.8 192.9 247.4 204.6 250.1" stroke="#272D3D" stroke-miterlimit="10" stroke-linecap="round" stroke-linejoin="round"/>
<path d="M185.9 254.6C185.9 254.6 193.9 243.3 203.1 246.5" stroke="#272D3D" stroke-miterlimit="10" stroke-linecap="round" stroke-linejoin="round"/>
<path d="M197.6 270.5H115.2C113.8 270.5 112.6 269.5 112.3 268.1L101.7 212.6C101.4 210.8 102.7 209.1 104.6 209.1H183.4C184.8 209.1 186 210.1 186.3 211.5L197.6 270.5Z" fill="#272D3D"/>
<path d="M191.6 269.4L180.6 211.5C180.3 210.1 179.1 209.1 177.7 209.1" stroke="white" stroke-miterlimit="10" stroke-linecap="round" stroke-linejoin="round"/>
<path d="M143.501 244.6C145.931 244.6 147.901 242.63 147.901 240.2C147.901 237.77 145.931 235.8 143.501 235.8C141.071 235.8 139.101 237.77 139.101 240.2C139.101 242.63 141.071 244.6 143.501 244.6Z" stroke="white" stroke-miterlimit="10" stroke-linecap="round" stroke-linejoin="round"/>
<path d="M223.9 264.7C225.5 264.7 226.8 266 226.8 267.6V270.5H197.6L196.5 264.7H223.9Z" fill="#272D3D"/>
<path d="M299 210.8C298.5 194.7 293.6 177.9 284.3 175.8C268.8 172.4 265 215 265 215C265.6 230.6 268.9 242.4 268.9 242.4C260.4 242.5 239.6 246 239.6 246L224.1 247.3C225.1 247.4 227.8 248.6 226.7 261.9L224.5 262C224.5 262 225 264.1 226.5 265.2C228 266.3 239.6 265.7 239.6 265.7C239.6 265.7 293.7 267.4 299.2 262.5C304.8 257.6 299.5 226.9 299 210.8Z" fill="#DBDCDF"/>
<path d="M266.399 176.2C266.399 176.2 272.599 175.6 279.899 170" stroke="#272D3D" stroke-miterlimit="10" stroke-linecap="round" stroke-linejoin="round"/>
<path d="M280.8 265.5C280.8 265.5 284 256.6 301.6 255.2" stroke="#272D3D" stroke-miterlimit="10" stroke-linecap="round" stroke-linejoin="round"/>
<path d="M295.1 188.4C295.1 188.4 270.9 215.8 280.8 225.6C290.7 235.5 300.2 223.1 300.2 223.1" stroke="#272D3D" stroke-miterlimit="10" stroke-linecap="round" stroke-linejoin="round"/>
<path d="M223.8 247.3H224.1C223.9 247.2 223.8 247.3 223.8 247.3Z" stroke="#272D3D" stroke-miterlimit="10" stroke-linecap="round" stroke-linejoin="round"/>
<path d="M265 215C265.6 230.6 268.9 242.4 268.9 242.4C260.4 242.5 239.6 246 239.6 246L224.1 247.3C225.1 247.4 227.8 248.6 226.7 261.9L224.5 262C224.5 262 225 264.1 226.5 265.2C228 266.3 239.6 265.7 239.6 265.7C239.6 265.7 293.7 267.4 299.2 262.5C304.8 257.6 299.5 226.9 299 210.8C298.5 194.7 293.6 177.9 284.3 175.8C278.9 174.6 274.9 179.1 272 185.5" stroke="#272D3D" stroke-miterlimit="10" stroke-linecap="round" stroke-linejoin="round"/>
<path d="M268.899 242.3C268.899 242.3 282.199 247.6 285.699 253.2" stroke="#272D3D" stroke-miterlimit="10" stroke-linecap="round" stroke-linejoin="round"/>
<path d="M239.6 245.9C239.6 245.9 242 246.2 239.6 265.7" stroke="#272D3D" stroke-miterlimit="10" stroke-linecap="round" stroke-linejoin="round"/>
<path d="M252.4 172.7L239.7 185.5L229.3 177.4L228.5 170L225.8 143L249.2 140.7L251.6 165.3L252.4 172.7Z" fill="white"/>
<path d="M252.4 172.7L239.7 185.5L229.3 177.4L228.5 170L225.8 143L249.2 140.7L251.6 165.3L252.4 172.7Z" stroke="#272D3D" stroke-miterlimit="10" stroke-linecap="round" stroke-linejoin="round"/>
<path d="M228.499 170C238.299 168.3 241.899 161.2 241.899 161.2L227.899 163.6L228.499 170Z" fill="#272D3D"/>
<path d="M210.2 128.8C210.2 128.8 207.1 126.5 208.1 119.2L207.4 118.2C207.4 118.2 207.4 117 207.8 116.1L207 115.4C207 115.4 207.3 113.7 208.9 111.6L207.8 110.5C207.8 110.5 208.1 107.6 213.7 104.4C213.7 104.4 213.6 103.1 215.7 100.4L216.7 101C216.7 101 218.4 97.9 219.7 96.3L220.7 97C220.7 97 225.8 92.1 227 93.2C227.7 93.8 225.8 96 225.8 96C225.8 96 228.6 94.5 231.5 93.9C234.4 93.3 236.5 93.4 236.8 94C237.1 94.5 236.1 94.8 236.1 94.8C236.1 94.8 243.7 95 248.6 98.8C253.5 102.6 253.6 104.1 253.6 104.1L252.9 104.4C252.9 104.4 255.9 109.5 255.5 110.9C255.1 112.3 253.6 110 253.6 110C253.6 110 256.4 114.7 255.3 115.6C255.3 115.6 254.9 130.5 249.9 134.8L210.2 128.8Z" fill="#272D3D"/>
<path d="M210.9 137.7C211 148.4 214.9 163.8 227.5 165.8C240.1 167.8 249.6 152.5 251.9 139C254.2 125.5 250.9 101.5 230.2 103.1C209.4 104.7 210.2 121.1 210.9 137.7Z" fill="white"/>
<path d="M233.6 136.5C234.539 136.5 235.3 135.739 235.3 134.8C235.3 133.861 234.539 133.1 233.6 133.1C232.662 133.1 231.9 133.861 231.9 134.8C231.9 135.739 232.662 136.5 233.6 136.5Z" fill="#272D3D"/>
<path d="M214.5 138.1C215.439 138.1 216.2 137.339 216.2 136.4C216.2 135.461 215.439 134.7 214.5 134.7C213.561 134.7 212.8 135.461 212.8 136.4C212.8 137.339 213.561 138.1 214.5 138.1Z" fill="#272D3D"/>
<path d="M229.5 134.9C229.5 134.9 231 133.1 233.5 132.9C236.8 132.6 238.6 134.2 238.6 134.2" stroke="#272D3D" stroke-miterlimit="10" stroke-linecap="round" stroke-linejoin="round"/>
<path d="M210.9 136C210.9 136 212.1 134.6 214.6 134.5C217.9 134.3 219.7 135.9 219.7 135.9" stroke="#272D3D" stroke-miterlimit="10" stroke-linecap="round" stroke-linejoin="round"/>
<path d="M222.2 153.5C222.2 153.5 229.5 156.7 237 149.7" stroke="#272D3D" stroke-miterlimit="10" stroke-linecap="round" stroke-linejoin="round"/>
<path d="M226.4 158.7C226.4 158.7 228 157.7 230.5 158.4" stroke="#272D3D" stroke-miterlimit="10" stroke-linecap="round" stroke-linejoin="round"/>
<path d="M241.8 160.6C237.7 164.5 232.8 166.8 227.8 166.1C215.2 164.3 210.3 147.5 210.9 138.8C211.1 136 210.2 129.2 210.2 128.3C210.3 115.3 214 104.6 230.4 103.4C251.1 101.8 254.7 126.5 252.4 140" stroke="#272D3D" stroke-miterlimit="10" stroke-linecap="round" stroke-linejoin="round"/>
<path d="M220.3 131.8C220.3 132 220.2 132.1 220 132.1C218.7 131.9 213.7 131.8 211.4 131.9C211 131.9 210.7 132 210.3 132C210.3 131.1 210.3 130.2 210.3 129.3C214.2 128.9 218.6 129 219.4 129.2C219.5 129.2 219.6 129.3 219.6 129.4L220.3 131.8Z" fill="#272D3D"/>
<path d="M222.1 129.3C222.1 129.3 224.9 134.2 221.9 146.4C221.6 147.6 225.8 151.3 229.3 147.8" stroke="#272D3D" stroke-miterlimit="10" stroke-linecap="round" stroke-linejoin="round"/>
<path d="M252.8 140C256.059 140 258.7 137.359 258.7 134.1C258.7 130.842 256.059 128.2 252.8 128.2C249.542 128.2 246.9 130.842 246.9 134.1C246.9 137.359 249.542 140 252.8 140Z" fill="white"/>
<path d="M249.301 129.4C250.201 128.8 251.201 128.4 252.301 128.3C255.501 128 258.401 130.5 258.601 133.7C258.901 136.9 256.401 139.8 253.201 140C252.401 140.1 251.701 140 251.001 139.8" stroke="#272D3D" stroke-miterlimit="10" stroke-linecap="round" stroke-linejoin="round"/>
<path d="M251.801 135.5L254.601 132.8" stroke="#272D3D" stroke-miterlimit="10" stroke-linecap="round" stroke-linejoin="round"/>
<path d="M210.6 133.6C210.6 133.6 210.5 126.7 211.3 121C212.2 115.4 213.5 114.6 215.6 114.4C217.7 114.2 217.3 114.9 224 114.5C230.7 114.1 234.2 112.3 236.3 112.7C239.5 113.3 243.5 116.7 244.7 122.7C245.5 126.6 246.8 133.2 246.8 133.2C246.8 133.2 253.4 131.7 253.4 124.7C253.4 117.7 250.2 102.7 241.3 101.8C232.4 100.9 216.5 99.8 213.1 105.2C209.8 110.6 206.3 121 210.6 133.6Z" fill="#272D3D"/>
<path d="M227.6 128.1L227.8 130.4C227.8 130.6 228 130.7 228.2 130.7C229.5 130.3 234 129.8 236.4 129.6C240.3 129.3 242.7 131.1 242.7 131.1C242.7 131.1 240.5 126.8 237 126.8C232.8 126.9 228.6 127.6 227.8 127.9C227.7 127.9 227.6 128 227.6 128.1Z" fill="#272D3D"/>
<path d="M236.2 148.3L237.9 151.3" stroke="#272D3D" stroke-miterlimit="10" stroke-linecap="round" stroke-linejoin="round"/>
<path d="M221.9 151.9L221.8 154.4" stroke="#272D3D" stroke-miterlimit="10" stroke-linecap="round" stroke-linejoin="round"/>
<path d="M249.5 148.3C249.5 148.3 251.9 143.5 252 139.9" stroke="#272D3D" stroke-miterlimit="10" stroke-linecap="round" stroke-linejoin="round"/>
<path d="M220 102C220 102 219 103.4 218.9 105.1" stroke="white" stroke-miterlimit="10" stroke-linecap="round" stroke-linejoin="round"/>
<path d="M212.3 108C212.3 108 213.7 106.5 216.5 106.8" stroke="white" stroke-miterlimit="10" stroke-linecap="round" stroke-linejoin="round"/>
<path d="M216.2 108.7C216.2 108.7 213.6 110.2 212.1 112.9" stroke="white" stroke-miterlimit="10" stroke-linecap="round" stroke-linejoin="round"/>
<path d="M221 107.7C221 107.7 224.1 101 231.1 98.1" stroke="white" stroke-miterlimit="10" stroke-linecap="round" stroke-linejoin="round"/>
<path d="M224.9 107.2C224.9 107.2 232 101 238.9 100.5" stroke="white" stroke-miterlimit="10" stroke-linecap="round" stroke-linejoin="round"/>
<path d="M232 107.7C232 107.7 238 105.2 243.6 104.9" stroke="white" stroke-miterlimit="10" stroke-linecap="round" stroke-linejoin="round"/>
<path d="M0.5 270.5H441.5" stroke="#272D3D" stroke-miterlimit="10" stroke-linecap="round" stroke-linejoin="round"/>
</svg>
