<svg width="252" height="268" viewBox="0 0 252 268" fill="none" xmlns="http://www.w3.org/2000/svg">
<path d="M18.5996 251.5C20.5996 238.3 26.7996 198.6 32.0996 182L65.2996 193.7L51.9996 251.5" fill="white"/>
<path d="M18.5996 251.5C20.5996 238.3 26.7996 198.6 32.0996 182L65.2996 193.7L51.9996 251.5" stroke="#272D3D" stroke-miterlimit="10" stroke-linecap="round" stroke-linejoin="round"/>
<path d="M18.5996 251.5C20.5996 238.3 26.7996 198.6 32.0996 182L65.2996 193.7L51.9996 251.5" stroke="#272D3D" stroke-miterlimit="10" stroke-linecap="round" stroke-linejoin="round"/>
<path d="M198 251.5L184.7 193.7L217.9 182C223.3 198.6 229.5 238.3 231.4 251.5" fill="white"/>
<path d="M198 251.5L184.7 193.7L217.9 182C223.3 198.6 229.5 238.3 231.4 251.5" stroke="#272D3D" stroke-miterlimit="10" stroke-linecap="round" stroke-linejoin="round"/>
<path d="M198 251.5L184.7 193.7L217.9 182C223.3 198.6 229.5 238.3 231.4 251.5" stroke="#272D3D" stroke-miterlimit="10" stroke-linecap="round" stroke-linejoin="round"/>
<path d="M146.301 96.5V128.7C141.701 131.2 134.701 132.8 131.801 133.4C131.501 133.4 131.201 133.5 130.901 133.6C130.801 133.6 130.601 133.7 130.501 133.7C126.801 134.9 123.501 149.8 123.001 152C123.001 152.2 122.901 152.3 122.901 152.3C122.901 152.3 118.601 134.8 114.001 134.5C114.001 134.5 109.701 133.1 106.301 130.9V96.5H146.301Z" fill="white"/>
<path d="M146.301 96.5V128.7C141.701 131.2 134.701 132.8 131.801 133.4C131.501 133.4 131.201 133.5 130.901 133.6C130.801 133.6 130.601 133.7 130.501 133.7C126.801 134.9 123.501 149.8 123.001 152C123.001 152.2 122.901 152.3 122.901 152.3C122.901 152.3 118.601 134.8 114.001 134.5C114.001 134.5 109.701 133.1 106.301 130.9V96.5H146.301Z" stroke="#272D3D" stroke-miterlimit="10" stroke-linecap="round" stroke-linejoin="round"/>
<path d="M92.2533 80.856C96.0197 79.4171 97.523 74.1936 95.611 69.1889C93.699 64.1842 89.0958 61.2936 85.3294 62.7325C81.563 64.1714 80.0597 69.395 81.9717 74.3996C83.8837 79.4043 88.4869 82.2949 92.2533 80.856Z" fill="white"/>
<path d="M162.394 74.4326C164.306 69.4279 162.803 64.2044 159.036 62.7655C155.27 61.3265 150.667 64.2172 148.755 69.2218C146.843 74.2265 148.346 79.45 152.113 80.8889C155.879 82.3278 160.482 79.4372 162.394 74.4326Z" fill="white"/>
<path d="M99.7006 78.7C94.2006 78.7 89.4006 65.5 88.5006 60.1C87.2006 52.8 85.9006 42.7 86.4006 34.8C87.4006 20.8 95.3006 16.6 98.3006 16.6C98.3006 16.6 102.301 11.6 107.301 9.59998C107.301 9.59998 107.301 11.6 108.301 12.6C108.301 12.6 113.301 6.59998 120.301 4.59998C120.301 4.59998 120.301 6.59998 121.301 8.59998C121.301 8.59998 127.501 3.79998 137.301 6.59998C144.301 8.59998 145.301 12.6 145.301 12.6C145.301 12.6 152.601 14 155.601 20C158.601 26 158.601 32.6 158.601 32.6C158.601 32.6 159.601 54.6 155.501 63.3C150.401 74.3 148.601 78.4 142.901 78.5L99.7006 78.7Z" fill="#272D3D"/>
<path d="M162.394 74.4326C164.306 69.4279 162.803 64.2044 159.036 62.7655C155.27 61.3265 150.667 64.2172 148.755 69.2218C146.843 74.2265 148.346 79.45 152.113 80.8889C155.879 82.3278 160.482 79.4372 162.394 74.4326Z" stroke="#272D3D" stroke-miterlimit="10" stroke-linecap="round" stroke-linejoin="round"/>
<path d="M92.2533 80.856C96.0197 79.4171 97.523 74.1936 95.611 69.1889C93.699 64.1842 89.0958 61.2936 85.3294 62.7325C81.563 64.1714 80.0597 69.395 81.9717 74.3996C83.8837 79.4043 88.4869 82.2949 92.2533 80.856Z" stroke="#272D3D" stroke-miterlimit="10" stroke-linecap="round" stroke-linejoin="round"/>
<path d="M146.301 96.5H106.301V109.8C110.801 112.6 116.201 114.2 122.301 114.5C129.301 114.5 137.201 113.7 142.301 109.3C143.901 107.9 145.201 106.4 146.301 104.6V96.5Z" fill="#272D3D"/>
<path d="M153.301 64.5C153.301 89.5 149.301 98.5 142.301 104.5C137.201 108.9 129.301 114.5 122.301 114.5C103.301 113.5 91.3008 96 91.3008 68.5C91.3008 22 104.601 21.5 122.301 21.5C140.001 21.5 153.301 17.5 153.301 64.5Z" fill="white"/>
<path d="M153.301 64.5C153.301 89.5 149.301 98.5 142.301 104.5C137.201 108.9 129.301 114.5 122.301 114.5C103.301 113.5 91.3008 96 91.3008 68.5C91.3008 22 104.601 21.5 122.301 21.5C140.001 21.5 153.301 17.5 153.301 64.5Z" stroke="#272D3D" stroke-miterlimit="10" stroke-linecap="round" stroke-linejoin="round"/>
<path d="M90 58.3C90 58.3 92.6 51.4 93.6 45.4C94.6 39.4 96.5 34.6 103.5 34.6C110.5 34.6 112.4 37.3 122.4 36.3C132.4 35.3 135.6 32.2 140.6 34.2C145.6 36.2 148 44.1 149.3 49.5C150.6 54.7 153.3 67.3 153.3 67.3V31.5C153.3 31.5 148.3 17.5 121.3 17.5C94.3 17.5 91.3 33.5 91.3 33.5L90 58.3Z" fill="#272D3D"/>
<path d="M125.601 55.1V57.8C125.601 58.1 125.801 58.3 126.101 58.2C128.001 57.7 134.801 56.1 138.101 56.1C142.001 56.1 146.501 58.1 146.501 58.1C146.501 58.1 144.101 53.1 137.601 53.1C131.901 53.1 127.101 54.4 125.901 54.8C125.701 54.8 125.601 54.9 125.601 55.1Z" fill="#272D3D"/>
<path d="M113.7 55.5V58.1C113.7 58.4 113.5 58.5 113.2 58.5C111.4 58.1 105.1 56.9 101.7 56.9C97.8002 56.9 94.2002 58 94.2002 58C94.2002 58 96.6002 53 102.4 53.5C107.9 54 112.2 54.8 113.4 55.1C113.5 55.1 113.7 55.3 113.7 55.5Z" fill="#272D3D"/>
<path d="M127.601 64.8C127.601 64.8 130.601 62.4 134.601 62.4C139.901 62.4 142.301 64.8 142.301 64.8" stroke="#272D3D" stroke-miterlimit="10" stroke-linecap="round" stroke-linejoin="round"/>
<path d="M134.9 68C136.281 68 137.4 66.8807 137.4 65.5C137.4 64.1193 136.281 63 134.9 63C133.52 63 132.4 64.1193 132.4 65.5C132.4 66.8807 133.52 68 134.9 68Z" fill="#272D3D"/>
<path d="M96.9004 65.0999C96.9004 65.0999 99.9004 62.7 103.9 62.7C109.2 62.7 111.6 65.0999 111.6 65.0999" stroke="#272D3D" stroke-miterlimit="10" stroke-linecap="round" stroke-linejoin="round"/>
<path d="M104.2 68.1999C105.581 68.1999 106.7 67.0807 106.7 65.6999C106.7 64.3192 105.581 63.2 104.2 63.2C102.819 63.2 101.7 64.3192 101.7 65.6999C101.7 67.0807 102.819 68.1999 104.2 68.1999Z" fill="#272D3D"/>
<path d="M120.3 65.2C120.3 65.2 117.7 77.4 115.2 84.3C114.5 86.1 119.6 87.9 124.8 85.6" stroke="#272D3D" stroke-miterlimit="10" stroke-linecap="round" stroke-linejoin="round"/>
<path d="M109.9 94.1C109.9 94.1 120.6 100.4 133.8 93.2" stroke="#272D3D" stroke-miterlimit="10" stroke-linecap="round" stroke-linejoin="round"/>
<path d="M143.818 87.3207C144.143 86.5589 143.913 85.7303 143.304 85.4698C142.694 85.2094 141.937 85.6157 141.611 86.3775C141.285 87.1392 141.515 87.9679 142.125 88.2283C142.734 88.4888 143.492 88.0824 143.818 87.3207Z" fill="#272D3D"/>
<path d="M117.801 103.8C117.801 103.8 120.501 102.3 124.301 103.5" stroke="#272D3D" stroke-miterlimit="10" stroke-linecap="round" stroke-linejoin="round"/>
<path d="M133.8 95C133.8 95 134.5 92.9 133.2 91.2" stroke="#272D3D" stroke-miterlimit="10" stroke-linecap="round" stroke-linejoin="round"/>
<path d="M158.6 69.5L152.9 74.9" stroke="#272D3D" stroke-miterlimit="10" stroke-linecap="round" stroke-linejoin="round"/>
<path d="M91.3008 74.8L85.8008 69.5" stroke="#272D3D" stroke-miterlimit="10" stroke-linecap="round" stroke-linejoin="round"/>
<path d="M105.5 30.7C105.5 30.7 98.9001 27.4 101.5 19.2" stroke="white" stroke-miterlimit="10" stroke-linecap="round" stroke-linejoin="round"/>
<path d="M118.8 28.5C118.8 28.5 114.6 17.9 119.6 11.8" stroke="white" stroke-miterlimit="10" stroke-linecap="round" stroke-linejoin="round"/>
<path d="M131.4 26.2C131.4 26.2 132.9 18.6 139.7 16.9" stroke="white" stroke-miterlimit="10" stroke-linecap="round" stroke-linejoin="round"/>
<path d="M145.601 34.8C145.601 34.8 152.501 38 155.601 32.5" stroke="white" stroke-miterlimit="10" stroke-linecap="round" stroke-linejoin="round"/>
<path d="M186.5 251.5V228.5L235 215.2C235 215.2 225.5 180.5 220.2 167C214.9 153.5 202.4 139.8 194.5 136.3C186.9 132.9 160.7 124.9 159.3 124.5H159.2H150.7C149.5 129.3 136.1 132.5 131.8 133.4C131.5 133.4 131.2 133.5 130.9 133.6C130.8 133.6 130.6 133.7 130.5 133.7C126.8 134.9 123.5 149.8 123 152C123 152.2 122.9 152.3 122.9 152.3C122.9 152.3 118.6 134.7 114 134.5C114 134.5 102.1 130.6 102.1 125.6C102.1 125.2 102.1 124.8 102.2 124.4H96.2C96.2 124.4 95.1 124.8 93.3 125.4C85.7 128 65.3 135 57.8 137.8C48.5 141.2 40.8 150.4 35.5 162.4C30.2 174.4 17 214.6 17 214.6L63.4 226.2L63.3 251.6H186.5V251.5Z" fill="#DCDDE0"/>
<path d="M186.5 251.5V228.5L192.3 226.9L208.5 222.5L225.8 217.7L235 215.2C235 215.2 225.5 180.5 220.2 167C216.5 157.7 209.4 148.3 202.8 142.2C201.7 141.2 200.6 140.3 199.6 139.5C197.8 138.1 196.1 137 194.5 136.3C186.9 132.9 160.7 124.9 159.3 124.5H159.2H150.7C150.7 124.6 150.6 124.8 150.6 124.9C150.5 125 150.5 125.2 150.4 125.3C150.4 125.3 150.4 125.3 150.4 125.4C150.4 125.5 150.3 125.6 150.2 125.7C150.2 125.7 150.2 125.7 150.2 125.8C150.1 125.9 150.1 126 150 126.1C150 126.1 150 126.1 149.9 126.2L149.8 126.3C149.8 126.3 149.8 126.4 149.7 126.4C149.6 126.5 149.4 126.7 149.3 126.8C149.2 126.9 149.1 127 149 127.1C148.9 127.2 148.8 127.2 148.8 127.3C148.7 127.3 148.7 127.4 148.6 127.5C148.5 127.6 148.3 127.7 148.1 127.8C148 127.9 148 127.9 147.9 127.9C147.5 128.2 147.1 128.4 146.6 128.6C145.6 129.1 144.5 129.6 143.4 130C143.2 130.1 143 130.2 142.8 130.3C139.5 131.6 135.9 132.5 133.5 133C133.3 133 133.2 133.1 133 133.1C132.7 133.2 132.4 133.2 132.1 133.3C131.8 133.3 131.5 133.4 131.2 133.5C131.1 133.5 130.9 133.6 130.8 133.6C130.7 133.6 130.6 133.7 130.5 133.7C130.5 133.7 130.4 133.7 130.4 133.8C130.3 133.9 130.2 133.9 130.1 134C130.1 134 130.1 134 130 134.1C129.9 134.2 129.7 134.3 129.6 134.4C129.4 134.6 129.2 134.8 129.1 135C129 135.2 128.9 135.3 128.7 135.5C128.6 135.6 128.6 135.7 128.5 135.8C128.4 136 128.3 136.2 128.2 136.4C128 136.7 127.8 137.1 127.7 137.4C127.6 137.5 127.6 137.6 127.5 137.7C127.3 138.2 127.1 138.7 126.9 139.2C126.8 139.3 126.8 139.4 126.8 139.5C126.6 140.1 126.4 140.6 126.2 141.2C126.1 141.6 125.9 141.9 125.8 142.3C125.8 142.4 125.8 142.4 125.8 142.5C125.7 142.7 125.7 142.9 125.6 143.1C125.3 144.2 125 145.2 124.7 146.2C124.6 146.4 124.6 146.6 124.5 146.8C124.4 147 124.4 147.1 124.4 147.3C124.4 147.4 124.3 147.5 124.3 147.6C124.2 148 124.1 148.4 124 148.8C123.9 149 123.9 149.2 123.9 149.3C123.6 150.3 123.5 151.1 123.4 151.6C123.4 151.7 123.4 151.7 123.4 151.8C123.4 152 123.3 152.1 123.3 152.1C123.3 152.1 122.6 149.4 121.6 146.2C119.9 141.1 117.2 134.5 114.4 134.4C114.4 134.4 110.1 133 106.7 130.8C106.3 130.5 105.9 130.2 105.5 129.9C105.4 129.8 105.2 129.7 105.1 129.6C104.5 129.1 103.9 128.6 103.5 128C103.4 127.9 103.3 127.8 103.2 127.7C103.1 127.6 103 127.5 103 127.3C102.9 127.1 102.8 126.9 102.7 126.7C102.7 126.6 102.6 126.5 102.6 126.4C102.6 126.3 102.5 126.2 102.5 126.1C102.5 125.9 102.4 125.7 102.4 125.6C102.4 125.2 102.4 124.8 102.5 124.4H96.5C96.5 124.4 95.4 124.8 93.6 125.4C88 127.3 75.6 131.6 66.4 134.8C65.1 135.3 63.9 135.7 62.7 136.1C60.9 136.7 59.4 137.3 58.2 137.7C48.9 141.1 41.2 150.3 35.9 162.3C30.6 174.3 17 214.6 17 214.6L24.4 216.4L58.2 224.8L63.5 226.1L63.4 251.5" stroke="#272D3D" stroke-miterlimit="10" stroke-linecap="round" stroke-linejoin="round"/>
<path d="M186.5 228.5V196" stroke="#272D3D" stroke-miterlimit="10" stroke-linecap="round" stroke-linejoin="round"/>
<path d="M63.4004 226.1V193.6" stroke="#272D3D" stroke-miterlimit="10" stroke-linecap="round" stroke-linejoin="round"/>
<path d="M130.9 133.5C131.2 133.4 131.5 133.4 131.8 133.3C131.7 133.3 131.7 133.3 131.6 133.4C131.1 133.5 130.7 133.6 130.6 133.6H130.5C130.6 133.6 130.7 133.6 130.9 133.5C130.9 133.6 130.9 133.6 130.9 133.5Z" fill="#DCDDE0"/>
<path d="M141.8 148.8C137.3 137 135 133.3 131.8 133.4C134.7 132.8 141.7 131.1 146.3 128.7C149 127.2 150.9 125.5 150.7 123.5C150.4 120.2 146.3 118.3 146.3 118.3V113.9C146.3 113.9 152.6 114 157.1 119.9C167 132.6 141.8 148.8 141.8 148.8Z" fill="#DCDDE0"/>
<path d="M114 134.5C114 134.5 107.8 135.1 106.6 147.3C106.6 147.3 92.7002 144.5 92.7002 129.7C92.7002 117.1 106.3 114.4 106.3 114.4V119.7C106.3 119.7 102 121 102.1 125.6C102.1 127.6 104 129.4 106.3 130.9C109.7 133.1 114 134.5 114 134.5Z" fill="#DCDDE0"/>
<path d="M130.9 133.5C131.2 133.4 131.5 133.4 131.8 133.3C131.7 133.3 131.7 133.3 131.6 133.4C131.1 133.5 130.7 133.6 130.6 133.6H130.5C130.6 133.6 130.7 133.6 130.9 133.5ZM130.9 133.5C130.9 133.6 130.9 133.6 130.9 133.5Z" stroke="#272D3D" stroke-miterlimit="10" stroke-linecap="round" stroke-linejoin="round"/>
<path d="M141.8 148.8C137.3 137 135 133.3 131.8 133.4C134.7 132.8 141.7 131.1 146.3 128.7C149 127.2 150.9 125.5 150.7 123.5C150.4 120.2 146.3 118.3 146.3 118.3V113.9C146.3 113.9 152.6 114 157.1 119.9C167 132.6 141.8 148.8 141.8 148.8Z" stroke="#272D3D" stroke-miterlimit="10" stroke-linecap="round" stroke-linejoin="round"/>
<path d="M114 134.5C114 134.5 107.8 135.1 106.6 147.3C106.6 147.3 92.7002 144.5 92.7002 129.7C92.7002 117.1 106.3 114.4 106.3 114.4V119.7C106.3 119.7 102 121 102.1 125.6C102.1 127.6 104 129.4 106.3 130.9C109.7 133.1 114 134.5 114 134.5Z" stroke="#272D3D" stroke-miterlimit="10" stroke-linecap="round" stroke-linejoin="round"/>
<path d="M130.5 133.7C130.7 133.6 130.8 133.6 130.9 133.6" stroke="#272D3D" stroke-miterlimit="10" stroke-linecap="round" stroke-linejoin="round"/>
<path d="M130.9 133.6C131.1 133.5 131.3 133.5 131.6 133.5C131.7 133.5 131.8 133.5 131.9 133.5" stroke="#272D3D" stroke-miterlimit="10" stroke-linecap="round" stroke-linejoin="round"/>
<path d="M123 152V182.8H130.5" stroke="#272D3D" stroke-miterlimit="10" stroke-linecap="round" stroke-linejoin="round"/>
<path d="M132.5 175.4C134.433 175.4 136 173.833 136 171.9C136 169.967 134.433 168.4 132.5 168.4C130.567 168.4 129 169.967 129 171.9C129 173.833 130.567 175.4 132.5 175.4Z" stroke="#272D3D" stroke-miterlimit="10" stroke-linecap="round" stroke-linejoin="round"/>
<path d="M132.5 158.1C134.433 158.1 136 156.533 136 154.6C136 152.667 134.433 151.1 132.5 151.1C130.567 151.1 129 152.667 129 154.6C129 156.533 130.567 158.1 132.5 158.1Z" stroke="#272D3D" stroke-miterlimit="10" stroke-linecap="round" stroke-linejoin="round"/>
<path d="M106.3 119.8V131C104 129.5 102.1 127.7 102.1 125.7C102.1 121 106.3 119.8 106.3 119.8Z" fill="#272D3D"/>
<path d="M150.8 123.5C151 125.5 149.1 127.2 146.4 128.7V118.3C146.3 118.3 150.4 120.2 150.8 123.5Z" fill="#272D3D"/>
<path d="M147.2 197.9H143.2L151.2 183.9H155.2L147.2 197.9Z" fill="white"/>
<path d="M202.2 182.4H198.2L206.2 168.4H210.2L202.2 182.4Z" fill="white"/>
<path d="M46.4004 214H42.4004L50.4004 200H54.4004L46.4004 214Z" fill="white"/>
<path d="M108.6 160H104.6L112.6 146H116.6L108.6 160Z" fill="white"/>
<path d="M77.2998 156.9H73.2998L81.2998 142.9H85.2998L77.2998 156.9Z" fill="white"/>
<path d="M87.0996 243.7H83.0996L91.0996 229.7H95.0996L87.0996 243.7Z" fill="white"/>
<path d="M166.2 243.7H162.2L170.2 229.7H174.2L166.2 243.7Z" fill="white"/>
<path d="M98.9996 208.9L95.0996 209.5L101.1 194.5L105 193.9L98.9996 208.9Z" fill="white"/>
<path d="M75.9002 217.7L72.2002 219.2L74.5002 203.2L78.2002 201.7L75.9002 217.7Z" fill="white"/>
<path d="M65.9998 135L64.4998 145.3L60.7998 146.8L62.2998 136.3C63.4998 135.8 64.7998 135.4 65.9998 135Z" fill="white"/>
<path d="M115.2 186.9L111.8 189.1L110.8 173.1L114.2 170.9L115.2 186.9Z" fill="white"/>
<path d="M38.4996 193.8L35.0996 196L34.0996 179.9L37.4996 177.7L38.4996 193.8Z" fill="white"/>
<path d="M114.2 222.3L110.6 220.7L123.6 211.2L127.2 212.8L114.2 222.3Z" fill="white"/>
<path d="M120.4 246.9L116.8 245.2L129.8 235.7L133.5 237.4L120.4 246.9Z" fill="white"/>
<path d="M206.6 215.4L210.2 213.8L197.2 204.3L193.5 205.9L206.6 215.4Z" fill="white"/>
<path d="M68.6 183.9L72.2 182.3L59.2 172.8L55.5 174.4L68.6 183.9Z" fill="white"/>
<path d="M167.1 146.6L163.4 144.9L176.4 135.4L180.1 137.1L167.1 146.6Z" fill="white"/>
<path d="M145.8 230.4L142.9 233.1L139.3 217.4L142.2 214.7L145.8 230.4Z" fill="white"/>
<path d="M154.8 171.1L151.8 173.8L148.2 158.1L151.2 155.3L154.8 171.1Z" fill="white"/>
<path d="M91.7998 181.9L88.8998 184.6L85.2998 168.9L88.1998 166.2L91.7998 181.9Z" fill="white"/>
<path d="M171 207.2L167.4 208.9L168.9 192.8L172.5 191.1L171 207.2Z" fill="white"/>
<path d="M49.3002 168.8L45.7002 170.5L47.1002 154.4L50.8002 152.8L49.3002 168.8Z" fill="white"/>
<path d="M202.8 142.2L202.1 150L198.5 151.7L199.6 139.5C200.6 140.3 201.7 141.2 202.8 142.2Z" fill="white"/>
<path d="M65.9998 135L64.4998 145.3L60.7998 146.8L62.2998 136.3C63.4998 135.8 64.7998 135.4 65.9998 135Z" stroke="#272D3D" stroke-miterlimit="10" stroke-linecap="round" stroke-linejoin="round"/>
<path d="M202.8 142.2L202.1 150L198.5 151.7L199.6 139.5C200.6 140.3 201.7 141.2 202.8 142.2Z" stroke="#272D3D" stroke-miterlimit="10" stroke-linecap="round" stroke-linejoin="round"/>
<path d="M219.5 203.2L215.9 204.9L217.3 188.8L221 187.1L219.5 203.2Z" fill="white"/>
<path d="M184.4 170.1L180.8 171.8L182.2 155.7L185.9 154.1L184.4 170.1Z" fill="white"/>
<path d="M147.2 197.9H143.2L151.2 183.9H155.2L147.2 197.9Z" stroke="#272D3D" stroke-miterlimit="10" stroke-linecap="round" stroke-linejoin="round"/>
<path d="M202.2 182.4H198.2L206.2 168.4H210.2L202.2 182.4Z" stroke="#272D3D" stroke-miterlimit="10" stroke-linecap="round" stroke-linejoin="round"/>
<path d="M46.4004 214H42.4004L50.4004 200H54.4004L46.4004 214Z" stroke="#272D3D" stroke-miterlimit="10" stroke-linecap="round" stroke-linejoin="round"/>
<path d="M108.6 160H104.6L112.6 146H116.6L108.6 160Z" stroke="#272D3D" stroke-miterlimit="10" stroke-linecap="round" stroke-linejoin="round"/>
<path d="M77.2998 156.9H73.2998L81.2998 142.9H85.2998L77.2998 156.9Z" stroke="#272D3D" stroke-miterlimit="10" stroke-linecap="round" stroke-linejoin="round"/>
<path d="M87.0996 243.7H83.0996L91.0996 229.7H95.0996L87.0996 243.7Z" stroke="#272D3D" stroke-miterlimit="10" stroke-linecap="round" stroke-linejoin="round"/>
<path d="M166.2 243.7H162.2L170.2 229.7H174.2L166.2 243.7Z" stroke="#272D3D" stroke-miterlimit="10" stroke-linecap="round" stroke-linejoin="round"/>
<path d="M98.9996 208.9L95.0996 209.5L101.1 194.5L105 193.9L98.9996 208.9Z" stroke="#272D3D" stroke-miterlimit="10" stroke-linecap="round" stroke-linejoin="round"/>
<path d="M75.9002 217.7L72.2002 219.2L74.5002 203.2L78.2002 201.7L75.9002 217.7Z" stroke="#272D3D" stroke-miterlimit="10" stroke-linecap="round" stroke-linejoin="round"/>
<path d="M115.2 186.9L111.8 189.1L110.8 173.1L114.2 170.9L115.2 186.9Z" stroke="#272D3D" stroke-miterlimit="10" stroke-linecap="round" stroke-linejoin="round"/>
<path d="M38.4996 193.8L35.0996 196L34.0996 179.9L37.4996 177.7L38.4996 193.8Z" stroke="#272D3D" stroke-miterlimit="10" stroke-linecap="round" stroke-linejoin="round"/>
<path d="M114.2 222.3L110.6 220.7L123.6 211.2L127.2 212.8L114.2 222.3Z" stroke="#272D3D" stroke-miterlimit="10" stroke-linecap="round" stroke-linejoin="round"/>
<path d="M120.4 246.9L116.8 245.2L129.8 235.7L133.5 237.4L120.4 246.9Z" stroke="#272D3D" stroke-miterlimit="10" stroke-linecap="round" stroke-linejoin="round"/>
<path d="M206.6 215.4L210.2 213.8L197.2 204.3L193.5 205.9L206.6 215.4Z" stroke="#272D3D" stroke-miterlimit="10" stroke-linecap="round" stroke-linejoin="round"/>
<path d="M68.6 183.9L72.2 182.3L59.2 172.8L55.5 174.4L68.6 183.9Z" stroke="#272D3D" stroke-miterlimit="10" stroke-linecap="round" stroke-linejoin="round"/>
<path d="M167.1 146.6L163.4 144.9L176.4 135.4L180.1 137.1L167.1 146.6Z" stroke="#272D3D" stroke-miterlimit="10" stroke-linecap="round" stroke-linejoin="round"/>
<path d="M145.8 230.4L142.9 233.1L139.3 217.4L142.2 214.7L145.8 230.4Z" stroke="#272D3D" stroke-miterlimit="10" stroke-linecap="round" stroke-linejoin="round"/>
<path d="M154.8 171.1L151.8 173.8L148.2 158.1L151.2 155.3L154.8 171.1Z" stroke="#272D3D" stroke-miterlimit="10" stroke-linecap="round" stroke-linejoin="round"/>
<path d="M91.7998 181.9L88.8998 184.6L85.2998 168.9L88.1998 166.2L91.7998 181.9Z" stroke="#272D3D" stroke-miterlimit="10" stroke-linecap="round" stroke-linejoin="round"/>
<path d="M171 207.2L167.4 208.9L168.9 192.8L172.5 191.1L171 207.2Z" stroke="#272D3D" stroke-miterlimit="10" stroke-linecap="round" stroke-linejoin="round"/>
<path d="M49.3002 168.8L45.7002 170.5L47.1002 154.4L50.8002 152.8L49.3002 168.8Z" stroke="#272D3D" stroke-miterlimit="10" stroke-linecap="round" stroke-linejoin="round"/>
<path d="M219.5 203.2L215.9 204.9L217.3 188.8L221 187.1L219.5 203.2Z" stroke="#272D3D" stroke-miterlimit="10" stroke-linecap="round" stroke-linejoin="round"/>
<path d="M184.4 170.1L180.8 171.8L182.2 155.7L185.9 154.1L184.4 170.1Z" stroke="#272D3D" stroke-miterlimit="10" stroke-linecap="round" stroke-linejoin="round"/>
<path d="M55.5 138.9C55.5 138.9 62.9 138.2 63.4 164.6" stroke="#272D3D" stroke-miterlimit="10" stroke-linecap="round" stroke-linejoin="round"/>
<path d="M186.5 172.8C186.5 172.8 189.1 139.3 199.6 139.5" stroke="#272D3D" stroke-miterlimit="10" stroke-linecap="round" stroke-linejoin="round"/>
<path d="M0.5 251.5H251.5" stroke="#272D3D" stroke-miterlimit="10" stroke-linecap="round" stroke-linejoin="round"/>
</svg>
