<svg width="442" height="303" viewBox="0 0 442 303" fill="none" xmlns="http://www.w3.org/2000/svg">
<path d="M383.701 181.6L386.701 153.4L363.601 151L360.601 179.4L383.701 181.6Z" fill="white"/>
<path d="M383.701 181.6L386.701 153.4L363.601 151L360.601 179.4L383.701 181.6Z" stroke="#272D3D" stroke-miterlimit="10" stroke-linecap="round" stroke-linejoin="round"/>
<path d="M386.4 156.7L386.1 159.2C380.3 163.6 371.2 166.7 366.8 165.4C365.3 164.9 363.8 163.9 362.4 162.6L362.8 159C364.3 160.7 366 161.9 367.8 162.5C372 163.7 380.6 160.9 386.4 156.7Z" fill="#272D3D"/>
<path d="M396.6 147.5C400.135 147.5 403 144.635 403 141.1C403 137.565 400.135 134.7 396.6 134.7C393.066 134.7 390.2 137.565 390.2 141.1C390.2 144.635 393.066 147.5 396.6 147.5Z" fill="white"/>
<path d="M396.6 147.5C400.135 147.5 403 144.635 403 141.1C403 137.565 400.135 134.7 396.6 134.7C393.066 134.7 390.2 137.565 390.2 141.1C390.2 144.635 393.066 147.5 396.6 147.5Z" stroke="#272D3D" stroke-miterlimit="10" stroke-linecap="round" stroke-linejoin="round"/>
<path d="M358.201 128.2C356.601 127.7 359.001 113.6 362.001 108.5C365.001 103.4 374.801 98.6 379.401 98.7C384.001 98.8 387.501 97.6 390.801 98.6C390.801 98.6 389.801 101 390.101 101.5C390.101 101.5 392.701 100.6 393.701 101C393.701 101 392.601 101.9 392.701 102.5C392.701 102.5 395.701 102.1 396.501 102.5C396.501 102.5 395.801 103.2 395.701 103.9C395.701 103.9 400.301 105.3 402.501 109.8C404.701 114.3 405.601 118.7 404.301 124.4C403.001 130.1 399.601 139.1 396.101 139.3L358.201 128.2Z" fill="#272D3D"/>
<path d="M361.3 139.5C364.835 139.5 367.7 136.635 367.7 133.1C367.7 129.565 364.835 126.7 361.3 126.7C357.766 126.7 354.9 129.565 354.9 133.1C354.9 136.635 357.766 139.5 361.3 139.5Z" fill="white"/>
<path d="M361.3 139.5C364.835 139.5 367.7 136.635 367.7 133.1C367.7 129.565 364.835 126.7 361.3 126.7C357.766 126.7 354.9 129.565 354.9 133.1C354.9 136.635 357.766 139.5 361.3 139.5Z" stroke="#272D3D" stroke-miterlimit="10" stroke-linecap="round" stroke-linejoin="round"/>
<path d="M361.2 114C359.3 121.6 355.8 139.9 356.7 146.3C357.6 152.7 362.4 160.8 367.7 162.4C373 164 385.1 159.2 390 153.5C394.4 148.3 399.9 126.4 399.9 126.4C399.9 126.4 402.3 112 387.1 107.4C371.9 102.8 362.8 107.8 361.2 114Z" stroke="#272D3D" stroke-miterlimit="10" stroke-linecap="round" stroke-linejoin="round"/>
<path d="M361.2 114C359.3 121.6 355.8 139.9 356.7 146.3C357.6 152.7 362.4 160.8 367.7 162.4C373 164 385.1 159.2 390 153.5C394.4 148.3 399.9 126.4 399.9 126.4C399.9 126.4 402.3 112 387.1 107.4C371.9 102.8 362.8 107.8 361.2 114Z" fill="white"/>
<path d="M361.2 114C359.3 121.6 355.8 139.9 356.7 146.3C357.6 152.7 362.4 160.8 367.7 162.4C373 164 385.1 159.2 390 153.5C394.4 148.3 399.9 126.4 399.9 126.4C399.9 126.4 402.3 112 387.1 107.4C371.9 102.8 362.8 107.8 361.2 114Z" stroke="#272D3D" stroke-miterlimit="10" stroke-linecap="round" stroke-linejoin="round"/>
<path d="M357.601 127.7C357.601 127.7 358.501 127.9 360.901 121.8C363.301 115.7 366.301 109.5 370.601 109.8C375.701 110.2 374.601 111.4 381.001 113.8C385.401 115.5 390.201 114.8 392.801 116.4C397.101 119 395.401 126.6 395.101 129.5C394.501 134.5 396.201 139.3 396.201 139.3C396.201 139.3 401.201 132.6 402.001 125.9C402.801 119.1 400.201 107.7 386.801 104.2C373.401 100.7 362.801 106.5 360.901 113.3C359.201 120.1 357.601 127.7 357.601 127.7Z" fill="#272D3D"/>
<path d="M370.901 156C370.901 156 369.401 156 367.801 157.1" stroke="#272D3D" stroke-miterlimit="10" stroke-linecap="round" stroke-linejoin="round"/>
<path d="M364.5 148.5C364.5 148.5 366.2 150.4 370.3 151.1C373.7 151.7 378.3 151.2 378.3 151.2" stroke="#272D3D" stroke-miterlimit="10" stroke-linecap="round" stroke-linejoin="round"/>
<path d="M377.9 149C377.9 149 378.5 150.7 378.3 153.1" stroke="#272D3D" stroke-miterlimit="10" stroke-linecap="round" stroke-linejoin="round"/>
<path d="M372.401 126.9L371.901 128.7C371.901 128.8 371.701 128.9 371.601 128.9C370.601 128.5 366.401 126.7 364.201 126.3C361.601 125.8 359.101 126.2 359.101 126.2C359.101 126.2 361.301 122.9 365.101 124C368.701 125.1 371.601 126.3 372.301 126.7C372.401 126.7 372.401 126.8 372.401 126.9Z" fill="#272D3D"/>
<path d="M378.8 128.4L378.2 130.4C378.2 130.6 378.3 130.7 378.4 130.7C379.7 130.7 384.4 131 386.6 131.6C389.1 132.3 391.6 134.4 391.6 134.4C391.6 134.4 391.1 130.4 386.8 129.2C383.1 128.2 379.7 128.2 378.9 128.2C378.9 128.2 378.9 128.3 378.8 128.4Z" fill="#272D3D"/>
<path d="M390.5 136.1C390.5 136.1 385.6 132.4 377.2 132.7C377.2 132.7 374.9 141.7 382 143.2C388.9 144.8 390.5 136.1 390.5 136.1Z" stroke="#272D3D" stroke-width="1.5" stroke-miterlimit="10" stroke-linecap="round" stroke-linejoin="round"/>
<path d="M371.101 131.6C371.101 131.6 366.201 127.9 357.801 128.2C357.801 128.2 355.501 137.2 362.601 138.7C369.601 140.2 371.101 131.6 371.101 131.6Z" stroke="#272D3D" stroke-width="1.5" stroke-miterlimit="10" stroke-linecap="round" stroke-linejoin="round"/>
<path d="M371.101 131.6C371.101 131.6 373.801 130.5 377.201 132.8" stroke="#272D3D" stroke-width="1.5" stroke-miterlimit="10" stroke-linecap="round" stroke-linejoin="round"/>
<path d="M374.201 129.7C374.201 129.7 372.301 137.6 369.201 143.1C368.601 144.2 370.901 146.2 374.301 146.1" stroke="#272D3D" stroke-miterlimit="10" stroke-linecap="round" stroke-linejoin="round"/>
<path d="M382.301 137.8C383.239 137.8 384.001 137.039 384.001 136.1C384.001 135.161 383.239 134.4 382.301 134.4C381.362 134.4 380.601 135.161 380.601 136.1C380.601 137.039 381.362 137.8 382.301 137.8Z" fill="#272D3D"/>
<path d="M378.301 134.8C378.301 134.8 380.301 133.5 382.801 134.1C386.101 134.8 387.401 136.8 387.401 136.8" stroke="#272D3D" stroke-miterlimit="10" stroke-linecap="round" stroke-linejoin="round"/>
<path d="M364 133.6C364.939 133.6 365.7 132.839 365.7 131.9C365.7 130.961 364.939 130.2 364 130.2C363.061 130.2 362.3 130.961 362.3 131.9C362.3 132.839 363.061 133.6 364 133.6Z" fill="#272D3D"/>
<path d="M360 130.5C360 130.5 362 129.2 364.5 129.8C367.8 130.5 369.1 132.5 369.1 132.5" stroke="#272D3D" stroke-miterlimit="10" stroke-linecap="round" stroke-linejoin="round"/>
<path d="M390.5 136.1L397.1 136.8" stroke="#272D3D" stroke-width="1.5" stroke-miterlimit="10" stroke-linecap="round" stroke-linejoin="round"/>
<path d="M395.2 142.4L399.6 140.9" stroke="#272D3D" stroke-miterlimit="10" stroke-linecap="round" stroke-linejoin="round"/>
<path d="M390 112.7C390 112.7 392.1 112.3 394.3 112.7C394.3 112.7 393.7 113.5 393.7 114.5C393.7 114.5 395.9 113.8 398.9 114.6" stroke="white" stroke-miterlimit="10" stroke-linecap="round" stroke-linejoin="round"/>
<path d="M381.6 100.5C381.6 100.5 375.2 102.1 374.7 106.7C374.7 106.7 378.3 103.9 387.6 104.7C387.6 104.7 386.7 105.2 385.3 107C385.3 107 389 106.7 391.6 108.2C391.6 108.2 388.5 109.3 387.5 110.5" stroke="white" stroke-miterlimit="10" stroke-linecap="round" stroke-linejoin="round"/>
<path d="M410.7 197.9C407.2 192.2 388.1 177.1 388.1 177.1L384.8 171.4C384.9 173.9 378.4 180.7 368.6 177.4C359.2 174.2 362.2 164.7 362.2 164.7L357.1 168.3L335.3 164.7L332 270.5H386.7L410.7 197.9Z" fill="#DCDDE0"/>
<path d="M348 225.6L380.9 237.5" stroke="#272D3D" stroke-miterlimit="10" stroke-linecap="round" stroke-linejoin="round"/>
<path d="M410.7 197.9C407.2 192.2 388.1 177.1 388.1 177.1L384.8 171.4C384.9 173.9 378.4 180.7 368.6 177.4C359.2 174.2 362.2 164.7 362.2 164.7L357.1 168.3L348 166.8" stroke="#272D3D" stroke-miterlimit="10" stroke-linecap="round" stroke-linejoin="round"/>
<path d="M357.1 168.3C355.8 171.7 356.5 178.2 366.6 182.2C376.7 186.2 385.9 181.6 388.2 177.1" stroke="#272D3D" stroke-miterlimit="10" stroke-linecap="round" stroke-linejoin="round"/>
<path d="M367.1 206.8L380.2 212.7L376.3 223.8L368.1 225.9L363.6 219.5L367.1 206.8Z" stroke="#272D3D" stroke-miterlimit="10" stroke-linecap="round" stroke-linejoin="round"/>
<path d="M397.4 198.6C397.4 198.6 386.9 189.2 364.6 181.5C357.7 179.1 352.3 177.4 348.1 176.2" stroke="#272D3D" stroke-miterlimit="10" stroke-linecap="round" stroke-linejoin="round"/>
<path d="M348 190.3C371.4 198.5 389.6 208 389.6 208" stroke="#272D3D" stroke-miterlimit="10" stroke-linecap="round" stroke-linejoin="round"/>
<path d="M348 207.1C353.4 209.3 359.5 211.9 365 214.3" stroke="#272D3D" stroke-miterlimit="10" stroke-linecap="round" stroke-linejoin="round"/>
<path d="M380.2 251.4L348 242.9" stroke="#272D3D" stroke-miterlimit="10" stroke-linecap="round" stroke-linejoin="round"/>
<path d="M352 256.2L348 255.6" stroke="#272D3D" stroke-miterlimit="10" stroke-linecap="round" stroke-linejoin="round"/>
<path d="M97.3994 234.5H93.3994H61.3994H57.3994V242.5H61.3994V262.5C61.3994 266.9 64.9994 270.5 69.3994 270.5H85.3994C89.7994 270.5 93.3994 266.9 93.3994 262.5V242.5H97.3994V234.5Z" fill="#DCDDE0"/>
<path d="M97.3994 234.5H93.3994H61.3994H57.3994V242.5H61.3994V262.5C61.3994 266.9 64.9994 270.5 69.3994 270.5H85.3994C89.7994 270.5 93.3994 266.9 93.3994 262.5V242.5H97.3994V234.5Z" stroke="#272D3D" stroke-miterlimit="10" stroke-linecap="round" stroke-linejoin="round"/>
<path d="M86.2 220.9C77.9 224.7 63 220.7 55.8 204.9C51.9 196.4 52.9 184.1 54.5 174.7C55.5 175.5 56.7 175.9 57.9 175.2C59.7 174.1 58.1 169.4 56.5 165.8C56.8 164.6 57.1 163.6 57.3 162.8C57.6 161.6 59 161 60.1 161.5C63 162.9 68.6 165.7 74.4 169.7C72.9 172.7 71.5 177.3 74.6 179.3C77.9 181.4 78.6 176.4 78.7 172.9C82.6 175.9 86.3 179.5 89.2 183.5C87.6 185.7 84.4 190.7 86.3 195.6C87.8 199.5 91.4 196.5 94 193.5C97.5 205.8 93.6 217.5 86.2 220.9Z" fill="#272D3D" stroke="#272D3D" stroke-miterlimit="10" stroke-linecap="round" stroke-linejoin="round"/>
<path d="M67.5998 226C60.8998 232.2 49.1998 229.9 37.8998 220.6C37.3998 220.2 36.8998 219.8 36.3998 219.3C38.4998 215.1 42.3998 212.8 39.9998 210.7C37.6998 208.7 34.5998 212.6 32.6998 215.4C29.9998 212.1 27.7998 208.6 25.9998 205.1C27.7998 203.2 30.1998 202.1 29.3998 200.1C28.7998 198.7 26.1998 199.7 23.9998 200.9C22.4998 197.4 21.3998 194.2 20.6998 191.7C20.2998 190.5 21.0998 189.3 22.2998 189.1C25.3998 188.7 30.4998 188.6 36.1998 189.2C36.4998 191.6 37.4998 194.6 39.8998 194.6C41.9998 194.6 42.8998 192.2 43.3998 190.3C48.6998 191.3 53.7998 192.9 57.4998 195.1C72.1998 204.3 75.4998 218.8 67.5998 226Z" fill="#272D3D" stroke="#272D3D" stroke-miterlimit="10" stroke-linecap="round" stroke-linejoin="round"/>
<path d="M52.8994 192.9C54.4994 193.5 55.9994 194.3 57.3994 195.1C68.7994 202.2 73.3994 212.5 71.1994 220.1" stroke="white" stroke-miterlimit="10" stroke-linecap="round" stroke-linejoin="round"/>
<path d="M66.7998 226.7C68.3998 229.2 69.6998 231.8 70.7998 234.5" stroke="#272D3D" stroke-miterlimit="10" stroke-linecap="round" stroke-linejoin="round"/>
<path d="M79.7002 222.3C80.1002 226.3 80.2002 230.4 80.2002 234.5" stroke="#272D3D" stroke-miterlimit="10" stroke-linecap="round" stroke-linejoin="round"/>
<path d="M21 189.9C21 189.9 52.5 203.8 66.8 226.6" stroke="white" stroke-miterlimit="10" stroke-linecap="round" stroke-linejoin="round"/>
<path d="M58.2998 161.6C58.2998 161.6 76.4998 187.3 79.6998 222.3" stroke="white" stroke-miterlimit="10" stroke-linecap="round" stroke-linejoin="round"/>
<path d="M31.5 205.5C31.5 205.5 42 204.2 48.1 206.6" stroke="white" stroke-miterlimit="10" stroke-linecap="round" stroke-linejoin="round"/>
<path d="M47.3994 221.5C47.3994 221.5 55.0994 218 61.0994 218.9" stroke="white" stroke-miterlimit="10" stroke-linecap="round" stroke-linejoin="round"/>
<path d="M48.9002 195.6C48.9002 195.6 48.3002 202.6 55.4002 212.9" stroke="white" stroke-miterlimit="10" stroke-linecap="round" stroke-linejoin="round"/>
<path d="M57.7998 181.4C57.7998 181.4 69.6998 187.9 73.0998 191.8" stroke="white" stroke-miterlimit="10" stroke-linecap="round" stroke-linejoin="round"/>
<path d="M81.8002 182.6C81.8002 182.6 76.3002 195.7 77.6002 208.2" stroke="white" stroke-miterlimit="10" stroke-linecap="round" stroke-linejoin="round"/>
<path d="M69.3994 242.5H93.3994" stroke="#272D3D" stroke-miterlimit="10" stroke-linecap="round" stroke-linejoin="round"/>
<path d="M348 70.5H88V270.5H348V70.5Z" fill="white"/>
<path d="M332 86.5H104V270.5H332V86.5Z" fill="white"/>
<path d="M348 70.5H88V270.5H348V70.5Z" stroke="#272D3D" stroke-miterlimit="10" stroke-linecap="round" stroke-linejoin="round"/>
<path d="M332 86.5H104V270.5H332V86.5Z" stroke="#272D3D" stroke-miterlimit="10" stroke-linecap="round" stroke-linejoin="round"/>
<path d="M104 100.5H332" stroke="#272D3D" stroke-miterlimit="10" stroke-linecap="round" stroke-linejoin="round"/>
<path d="M104 114.5H332" stroke="#272D3D" stroke-miterlimit="10" stroke-linecap="round" stroke-linejoin="round"/>
<path d="M110.8 107.5H126.5" stroke="#272D3D" stroke-miterlimit="10" stroke-linecap="round" stroke-linejoin="round"/>
<path d="M110.8 93.5H145" stroke="#272D3D" stroke-miterlimit="10" stroke-linecap="round" stroke-linejoin="round"/>
<path d="M110.8 125.5H126.5" stroke="#272D3D" stroke-miterlimit="10" stroke-linecap="round" stroke-linejoin="round"/>
<path d="M110.8 141.6H126.5" stroke="#272D3D" stroke-miterlimit="10" stroke-linecap="round" stroke-linejoin="round"/>
<path d="M110.8 157.7H126.5" stroke="#272D3D" stroke-miterlimit="10" stroke-linecap="round" stroke-linejoin="round"/>
<path d="M110.8 173.8H126.5" stroke="#272D3D" stroke-miterlimit="10" stroke-linecap="round" stroke-linejoin="round"/>
<path d="M110.8 189.9H126.5" stroke="#272D3D" stroke-miterlimit="10" stroke-linecap="round" stroke-linejoin="round"/>
<path d="M110.8 206.1H126.5" stroke="#272D3D" stroke-miterlimit="10" stroke-linecap="round" stroke-linejoin="round"/>
<path d="M110.8 222.2H126.5" stroke="#272D3D" stroke-miterlimit="10" stroke-linecap="round" stroke-linejoin="round"/>
<path d="M110.8 238.3H126.5" stroke="#272D3D" stroke-miterlimit="10" stroke-linecap="round" stroke-linejoin="round"/>
<path d="M110.8 254.4H126.5" stroke="#272D3D" stroke-miterlimit="10" stroke-linecap="round" stroke-linejoin="round"/>
<path d="M224.5 107.5H235.2" stroke="#272D3D" stroke-miterlimit="10" stroke-linecap="round" stroke-linejoin="round"/>
<path d="M226.5 125.5H233.2" stroke="#272D3D" stroke-miterlimit="10" stroke-linecap="round" stroke-linejoin="round"/>
<path d="M226.5 141.6H233.2" stroke="#272D3D" stroke-miterlimit="10" stroke-linecap="round" stroke-linejoin="round"/>
<path d="M226.5 157.7H233.2" stroke="#272D3D" stroke-miterlimit="10" stroke-linecap="round" stroke-linejoin="round"/>
<path d="M226.5 173.8H233.2" stroke="#272D3D" stroke-miterlimit="10" stroke-linecap="round" stroke-linejoin="round"/>
<path d="M226.5 189.9H233.2" stroke="#272D3D" stroke-miterlimit="10" stroke-linecap="round" stroke-linejoin="round"/>
<path d="M226.5 206.1H233.2" stroke="#272D3D" stroke-miterlimit="10" stroke-linecap="round" stroke-linejoin="round"/>
<path d="M226.5 222.2H233.2" stroke="#272D3D" stroke-miterlimit="10" stroke-linecap="round" stroke-linejoin="round"/>
<path d="M226.5 238.3H233.2" stroke="#272D3D" stroke-miterlimit="10" stroke-linecap="round" stroke-linejoin="round"/>
<path d="M226.5 254.4H233.2" stroke="#272D3D" stroke-miterlimit="10" stroke-linecap="round" stroke-linejoin="round"/>
<path d="M247.2 107.5H257.9" stroke="#272D3D" stroke-miterlimit="10" stroke-linecap="round" stroke-linejoin="round"/>
<path d="M249.2 125.5H255.9" stroke="#272D3D" stroke-miterlimit="10" stroke-linecap="round" stroke-linejoin="round"/>
<path d="M249.2 141.6H255.9" stroke="#272D3D" stroke-miterlimit="10" stroke-linecap="round" stroke-linejoin="round"/>
<path d="M249.2 157.7H255.9" stroke="#272D3D" stroke-miterlimit="10" stroke-linecap="round" stroke-linejoin="round"/>
<path d="M249.2 173.8H255.9" stroke="#272D3D" stroke-miterlimit="10" stroke-linecap="round" stroke-linejoin="round"/>
<path d="M249.2 189.9H255.9" stroke="#272D3D" stroke-miterlimit="10" stroke-linecap="round" stroke-linejoin="round"/>
<path d="M249.2 206.1H255.9" stroke="#272D3D" stroke-miterlimit="10" stroke-linecap="round" stroke-linejoin="round"/>
<path d="M249.2 222.2H255.9" stroke="#272D3D" stroke-miterlimit="10" stroke-linecap="round" stroke-linejoin="round"/>
<path d="M249.2 238.3H255.9" stroke="#272D3D" stroke-miterlimit="10" stroke-linecap="round" stroke-linejoin="round"/>
<path d="M249.2 254.4H255.9" stroke="#272D3D" stroke-miterlimit="10" stroke-linecap="round" stroke-linejoin="round"/>
<path d="M292.6 107.5H303.3" stroke="#272D3D" stroke-miterlimit="10" stroke-linecap="round" stroke-linejoin="round"/>
<path d="M310.3 93.5H317" stroke="#272D3D" stroke-miterlimit="10" stroke-linecap="round" stroke-linejoin="round"/>
<path d="M299.3 93.5H306" stroke="#272D3D" stroke-miterlimit="10" stroke-linecap="round" stroke-linejoin="round"/>
<path d="M288.3 93.5H295" stroke="#272D3D" stroke-miterlimit="10" stroke-linecap="round" stroke-linejoin="round"/>
<path d="M294.6 125.5H301.3" stroke="#272D3D" stroke-miterlimit="10" stroke-linecap="round" stroke-linejoin="round"/>
<path d="M294.6 141.6H301.3" stroke="#272D3D" stroke-miterlimit="10" stroke-linecap="round" stroke-linejoin="round"/>
<path d="M294.6 157.7H301.3" stroke="#272D3D" stroke-miterlimit="10" stroke-linecap="round" stroke-linejoin="round"/>
<path d="M294.6 173.8H301.3" stroke="#272D3D" stroke-miterlimit="10" stroke-linecap="round" stroke-linejoin="round"/>
<path d="M294.6 189.9H301.3" stroke="#272D3D" stroke-miterlimit="10" stroke-linecap="round" stroke-linejoin="round"/>
<path d="M294.6 206.1H301.3" stroke="#272D3D" stroke-miterlimit="10" stroke-linecap="round" stroke-linejoin="round"/>
<path d="M294.6 222.2H301.3" stroke="#272D3D" stroke-miterlimit="10" stroke-linecap="round" stroke-linejoin="round"/>
<path d="M294.6 238.3H301.3" stroke="#272D3D" stroke-miterlimit="10" stroke-linecap="round" stroke-linejoin="round"/>
<path d="M294.6 254.4H301.3" stroke="#272D3D" stroke-miterlimit="10" stroke-linecap="round" stroke-linejoin="round"/>
<path d="M315.3 107.5H326" stroke="#272D3D" stroke-miterlimit="10" stroke-linecap="round" stroke-linejoin="round"/>
<path d="M317.3 125.5H324" stroke="#272D3D" stroke-miterlimit="10" stroke-linecap="round" stroke-linejoin="round"/>
<path d="M317.3 141.6H324" stroke="#272D3D" stroke-miterlimit="10" stroke-linecap="round" stroke-linejoin="round"/>
<path d="M317.3 157.7H324" stroke="#272D3D" stroke-miterlimit="10" stroke-linecap="round" stroke-linejoin="round"/>
<path d="M317.3 173.8H324" stroke="#272D3D" stroke-miterlimit="10" stroke-linecap="round" stroke-linejoin="round"/>
<path d="M317.3 189.9H324" stroke="#272D3D" stroke-miterlimit="10" stroke-linecap="round" stroke-linejoin="round"/>
<path d="M317.3 206.1H324" stroke="#272D3D" stroke-miterlimit="10" stroke-linecap="round" stroke-linejoin="round"/>
<path d="M317.3 222.2H324" stroke="#272D3D" stroke-miterlimit="10" stroke-linecap="round" stroke-linejoin="round"/>
<path d="M317.3 238.3H324" stroke="#272D3D" stroke-miterlimit="10" stroke-linecap="round" stroke-linejoin="round"/>
<path d="M317.3 254.4H324" stroke="#272D3D" stroke-miterlimit="10" stroke-linecap="round" stroke-linejoin="round"/>
<path d="M269.9 107.5H280.6" stroke="#272D3D" stroke-miterlimit="10" stroke-linecap="round" stroke-linejoin="round"/>
<path d="M271.9 125.5H278.6" stroke="#272D3D" stroke-miterlimit="10" stroke-linecap="round" stroke-linejoin="round"/>
<path d="M271.9 141.6H278.6" stroke="#272D3D" stroke-miterlimit="10" stroke-linecap="round" stroke-linejoin="round"/>
<path d="M271.9 157.7H278.6" stroke="#272D3D" stroke-miterlimit="10" stroke-linecap="round" stroke-linejoin="round"/>
<path d="M271.9 173.8H278.6" stroke="#272D3D" stroke-miterlimit="10" stroke-linecap="round" stroke-linejoin="round"/>
<path d="M271.9 189.9H278.6" stroke="#272D3D" stroke-miterlimit="10" stroke-linecap="round" stroke-linejoin="round"/>
<path d="M271.9 206.1H278.6" stroke="#272D3D" stroke-miterlimit="10" stroke-linecap="round" stroke-linejoin="round"/>
<path d="M271.9 222.2H278.6" stroke="#272D3D" stroke-miterlimit="10" stroke-linecap="round" stroke-linejoin="round"/>
<path d="M271.9 238.3H278.6" stroke="#272D3D" stroke-miterlimit="10" stroke-linecap="round" stroke-linejoin="round"/>
<path d="M271.9 254.4H278.6" stroke="#272D3D" stroke-miterlimit="10" stroke-linecap="round" stroke-linejoin="round"/>
<path d="M189.5 107.5H212.5" stroke="#272D3D" stroke-miterlimit="10" stroke-linecap="round" stroke-linejoin="round"/>
<path d="M189.5 125.5H212.5" stroke="#272D3D" stroke-miterlimit="10" stroke-linecap="round" stroke-linejoin="round"/>
<path d="M189.5 141.6H204.5" stroke="#272D3D" stroke-miterlimit="10" stroke-linecap="round" stroke-linejoin="round"/>
<path d="M189.5 157.7H212.5" stroke="#272D3D" stroke-miterlimit="10" stroke-linecap="round" stroke-linejoin="round"/>
<path d="M189.5 173.8H212.5" stroke="#272D3D" stroke-miterlimit="10" stroke-linecap="round" stroke-linejoin="round"/>
<path d="M189.5 189.9H204.5" stroke="#272D3D" stroke-miterlimit="10" stroke-linecap="round" stroke-linejoin="round"/>
<path d="M189.5 206.1H212.5" stroke="#272D3D" stroke-miterlimit="10" stroke-linecap="round" stroke-linejoin="round"/>
<path d="M189.5 222.2H212.5" stroke="#272D3D" stroke-miterlimit="10" stroke-linecap="round" stroke-linejoin="round"/>
<path d="M189.5 238.3H204.5" stroke="#272D3D" stroke-miterlimit="10" stroke-linecap="round" stroke-linejoin="round"/>
<path d="M189.5 254.4H212.5" stroke="#272D3D" stroke-miterlimit="10" stroke-linecap="round" stroke-linejoin="round"/>
<path d="M138.5 107.5H177.5" stroke="#272D3D" stroke-miterlimit="10" stroke-linecap="round" stroke-linejoin="round"/>
<path d="M138.5 125.5H177.5" stroke="#272D3D" stroke-miterlimit="10" stroke-linecap="round" stroke-linejoin="round"/>
<path d="M138.5 141.6H169.5" stroke="#272D3D" stroke-miterlimit="10" stroke-linecap="round" stroke-linejoin="round"/>
<path d="M138.5 157.7H169.5" stroke="#272D3D" stroke-miterlimit="10" stroke-linecap="round" stroke-linejoin="round"/>
<path d="M138.5 173.8H177.5" stroke="#272D3D" stroke-miterlimit="10" stroke-linecap="round" stroke-linejoin="round"/>
<path d="M138.5 189.9H165.5" stroke="#272D3D" stroke-miterlimit="10" stroke-linecap="round" stroke-linejoin="round"/>
<path d="M138.5 206.1H177.5" stroke="#272D3D" stroke-miterlimit="10" stroke-linecap="round" stroke-linejoin="round"/>
<path d="M138.5 222.2H165.5" stroke="#272D3D" stroke-miterlimit="10" stroke-linecap="round" stroke-linejoin="round"/>
<path d="M138.5 238.3H177.5" stroke="#272D3D" stroke-miterlimit="10" stroke-linecap="round" stroke-linejoin="round"/>
<path d="M138.5 254.4H165.5" stroke="#272D3D" stroke-miterlimit="10" stroke-linecap="round" stroke-linejoin="round"/>
<path d="M132.5 100.5V270.5" stroke="#272D3D" stroke-miterlimit="10" stroke-linecap="round" stroke-linejoin="round"/>
<path d="M183.5 100.5V270.5" stroke="#272D3D" stroke-miterlimit="10" stroke-linecap="round" stroke-linejoin="round"/>
<path d="M218.5 100.5V270.5" stroke="#272D3D" stroke-miterlimit="10" stroke-linecap="round" stroke-linejoin="round"/>
<path d="M241.2 100.5V270.5" stroke="#272D3D" stroke-miterlimit="10" stroke-linecap="round" stroke-linejoin="round"/>
<path d="M263.9 100.5V270.5" stroke="#272D3D" stroke-miterlimit="10" stroke-linecap="round" stroke-linejoin="round"/>
<path d="M286.6 100.5V270.5" stroke="#272D3D" stroke-miterlimit="10" stroke-linecap="round" stroke-linejoin="round"/>
<path d="M309.3 100.5V270.5" stroke="#272D3D" stroke-miterlimit="10" stroke-linecap="round" stroke-linejoin="round"/>
<path d="M323.5 96C324.881 96 326 94.8807 326 93.5C326 92.1193 324.881 91 323.5 91C322.119 91 321 92.1193 321 93.5C321 94.8807 322.119 96 323.5 96Z" stroke="#272D3D" stroke-miterlimit="10" stroke-linecap="round" stroke-linejoin="round"/>
<path d="M239 91.5H197V95.5H239V91.5Z" stroke="#272D3D" stroke-miterlimit="10" stroke-linecap="round" stroke-linejoin="round"/>
<path d="M141.7 54C141.7 54 165.7 75 196.5 75C227.3 75 253.8 64.5 253.8 48C253.8 31.5 220.8 28.5 220.8 51.8C220.8 75.1 248.8 85 277.3 72.8C331.6 49.5 339.2 60.4 358.8 52.3" stroke="#272D3D" stroke-miterlimit="10" stroke-linecap="round" stroke-linejoin="round" stroke-dasharray="4 4"/>
<path d="M397.2 21.9L381 54.4L375.3 44.8L365.7 50.4L367.4 37.5L355.9 29.8L397.2 21.9Z" fill="white"/>
<path d="M355.9 29.8L367.4 37.5L397.2 21.9L355.9 29.8Z" stroke="#272D3D" stroke-miterlimit="10" stroke-linecap="round" stroke-linejoin="round"/>
<path d="M397.201 21.9L373.601 41.8L381.001 54.4L397.201 21.9Z" stroke="#272D3D" stroke-miterlimit="10" stroke-linecap="round" stroke-linejoin="round"/>
<path d="M367.4 37.5L365.7 50.4L373.6 41.8" stroke="#272D3D" stroke-miterlimit="10" stroke-linecap="round" stroke-linejoin="round"/>
<path d="M375.4 44.8L365.7 50.4" stroke="#272D3D" stroke-miterlimit="10" stroke-linecap="round" stroke-linejoin="round"/>
<path d="M412.1 226.8L410.1 240.5L401.8 261.6C398.8 269.8 391.9 270.6 391.9 270.6H312.9C312.9 270.6 310.5 270.9 310.1 270C309.7 269.2 310.5 268.4 310.6 268.3C310.4 268.4 308.3 269.5 307.9 268.1C307.6 266.7 309.4 265.8 309.7 265.7C309.4 265.8 307.2 266.2 307 264.8C306.9 263.8 307.9 263.1 308.6 262.8C308.8 262.8 309 262.7 309.2 262.6C309.1 262.6 308.9 262.7 308.6 262.8C307.4 263.2 306.7 262.9 306.6 262.5C306.3 261.6 308 260 310.5 258.4C312 257.4 315 256.3 318.3 255.5C318.3 255.5 320.8 253 324.8 253C332.8 253 334.5 256.7 334.5 256.7C337.1 257.6 339.3 258.5 340.1 258.6C341.8 258.8 343.8 258.7 343.8 258.7C349.6 256.8 366.2 252 381.4 251.4L387.6 220.5L412.1 226.8Z" fill="white"/>
<path d="M381.4 251.3L387.6 220.4L412.1 226.7L410.1 240.4L401.8 261.5C398.8 269.6 391.9 270.5 391.9 270.5H342.5H312.9C312.9 270.5 310.5 270.8 310.1 269.9C309.7 269 310.6 268.2 310.6 268.2C310.6 268.2 308.3 269.5 307.9 268C307.5 266.5 309.7 265.6 309.7 265.6C309.7 265.6 307.2 266.3 307 264.7C306.8 263.1 309.2 262.4 309.2 262.4C307.7 263.2 306.7 262.8 306.6 262.3C306.3 261.4 308 259.8 310.5 258.2C313 256.6 319.5 254.5 325.1 254.5C330.7 254.5 338.3 258.2 340 258.4C341.7 258.6 343.7 258.5 343.7 258.5C350.2 256.4 370.5 250.5 387 251.2" stroke="#272D3D" stroke-miterlimit="10" stroke-linecap="round" stroke-linejoin="round"/>
<path d="M309.199 262.5C309.199 262.5 315.799 258.8 320.499 259.1" stroke="#272D3D" stroke-miterlimit="10" stroke-linecap="round" stroke-linejoin="round"/>
<path d="M309.8 265.7C309.8 265.7 316.6 263 321.3 263" stroke="#272D3D" stroke-miterlimit="10" stroke-linecap="round" stroke-linejoin="round"/>
<path d="M310.699 268.2C310.699 268.2 316.199 266.5 321.899 266.5" stroke="#272D3D" stroke-miterlimit="10" stroke-linecap="round" stroke-linejoin="round"/>
<path d="M334.399 256.7C334.399 256.7 332.699 253.1 324.699 253.1C320.699 253.1 318.199 255.6 318.199 255.6" stroke="#272D3D" stroke-miterlimit="10" stroke-linecap="round" stroke-linejoin="round"/>
<path d="M380.6 241.6L410.5 248.3C410.5 248.3 426.1 199 406.6 196.3C386.7 193.6 380.5 235.8 380.6 241.6Z" fill="#DCDDE0"/>
<path d="M389.6 208L416.4 212" stroke="#272D3D" stroke-miterlimit="10" stroke-linecap="round" stroke-linejoin="round"/>
<path d="M377.699 219.7C381.299 221.3 383.599 222.3 383.599 222.3L414.999 229.2" stroke="#272D3D" stroke-miterlimit="10" stroke-linecap="round" stroke-linejoin="round"/>
<path d="M380.6 241.6L410.5 248.3C410.5 248.3 426.1 199 406.6 196.3C386.7 193.6 380.5 235.8 380.6 241.6Z" stroke="#272D3D" stroke-miterlimit="10" stroke-linecap="round" stroke-linejoin="round"/>
<path d="M383.699 222.3L414.999 229.2" stroke="#272D3D" stroke-miterlimit="10" stroke-linecap="round" stroke-linejoin="round"/>
<path d="M380.899 237.5L411.599 244.7" stroke="#272D3D" stroke-miterlimit="10" stroke-linecap="round" stroke-linejoin="round"/>
<path d="M88 92.5C100.15 92.5 110 82.6503 110 70.5C110 58.3497 100.15 48.5 88 48.5C75.8497 48.5 66 58.3497 66 70.5C66 82.6503 75.8497 92.5 88 92.5Z" fill="white"/>
<path d="M88 86.5C96.8366 86.5 104 79.3366 104 70.5C104 61.6634 96.8366 54.5 88 54.5C79.1634 54.5 72 61.6634 72 70.5C72 79.3366 79.1634 86.5 88 86.5Z" stroke="#272D3D" stroke-miterlimit="10" stroke-linecap="round" stroke-linejoin="round"/>
<path d="M88 92.5C100.15 92.5 110 82.6503 110 70.5C110 58.3497 100.15 48.5 88 48.5C75.8497 48.5 66 58.3497 66 70.5C66 82.6503 75.8497 92.5 88 92.5Z" stroke="#272D3D" stroke-miterlimit="10" stroke-linecap="round" stroke-linejoin="round"/>
<path d="M79.2998 65.3L89.4998 75.5L108.8 56.2" stroke="#272D3D" stroke-width="2" stroke-linecap="square"/>
<path d="M0.5 270.5H441.5" stroke="#272D3D" stroke-miterlimit="10" stroke-linecap="round" stroke-linejoin="round"/>
</svg>
