<svg width="160" height="90" viewBox="0 0 160 90" fill="none" xmlns="http://www.w3.org/2000/svg">
<path d="M1 1H159V89H1V1Z" stroke="#DCDDE0" stroke-linejoin="round"/>
<path fill-rule="evenodd" clip-rule="evenodd" d="M63.182 45.9165V48.6837C61.9647 49.9899 60.3979 52.048 58.6455 52.048C57.0333 52.048 55.6821 51.5593 55.6821 49.9121C55.6821 48.4054 57.049 45.9165 63.182 45.9165ZM63.182 44.5845C60.1329 44.3767 54 45.0804 54 49.8772C54 52.1906 56.0769 53.4974 58.3901 53.4974C60.2125 53.4974 61.9711 51.9257 63.182 50.5373V53.1924H64.8644V41.9921C64.8644 40.7304 64.7241 37.7351 59.6425 37.7351C57.8904 37.7351 55.8227 38.5579 54.9114 39.2237V40.9062C56.6286 39.5744 57.8904 39.2423 59.6777 39.2423C63.5326 39.242 63.182 41.8158 63.182 44.5845ZM69.7458 33.1536V38.0198H66.2301V39.5619H69.746V49.9214C69.746 51.9884 71.113 53.4315 73.4258 53.4315C74.1942 53.4315 75.1559 53.213 75.9917 52.9326V51.3426C75.2834 51.6099 74.5504 51.8135 73.7765 51.8135C71.7088 51.8135 71.4282 50.5515 71.4282 48.9043V39.5619H75.9202V38.0198H71.4282V33.1536H69.7458ZM83.5191 48.8758C86.5862 48.8938 89.4362 46.8837 89.4362 43.4962C89.4362 41.6034 88.42 40.3768 87.2634 39.2205H90.8383V37.8188H84.4247C81.0253 37.8188 77.9414 39.4306 77.9414 43.4962C77.9414 44.7765 78.4179 46.5708 79.9265 47.7114C78.7531 48.1169 77.7235 48.7718 77.7235 50.2927C77.7235 51.3958 78.6424 52.066 79.677 52.3722C78.175 52.8867 76.9368 53.9254 76.9368 55.7036C76.9368 58.9648 81.1653 59.5371 83.7588 59.5371C87.0182 59.5371 90.8028 58.5906 90.8028 55.127C90.8028 50.8781 85.6269 51.4658 82.6755 51.1715C81.9431 51.1267 79.1831 51.075 79.1831 50.0588C79.1831 49.1123 80.34 48.517 80.9358 48.3418L80.9989 48.3247C81.792 48.6567 82.6624 48.8711 83.5191 48.8758ZM84.0395 52.6099C85.8968 52.6099 89.2265 52.745 89.2265 55.1944C89.2265 57.6836 85.7568 58.1847 83.794 58.1847C81.9721 58.1847 78.4324 57.8471 78.4324 55.4308C78.4321 52.8801 82.4971 52.6099 84.0395 52.6099ZM87.789 43.391C87.789 45.599 85.8965 47.5124 83.6188 47.5124C81.4108 47.5124 79.378 45.6687 79.378 43.391C79.378 41.183 81.2708 39.2554 83.5482 39.2554C85.7565 39.2554 87.789 41.113 87.789 43.391ZM94.4103 52.6796V51.5486H94.912C95.0125 51.5486 95.0889 51.5588 95.1418 51.5791C95.1941 51.5994 95.2359 51.6352 95.2679 51.6863C95.299 51.738 95.3144 51.7947 95.3144 51.8571C95.3144 51.937 95.2888 52.0047 95.2365 52.0596C95.1842 52.1145 95.1043 52.15 94.996 52.1645C95.0358 52.1837 95.0657 52.2026 95.0863 52.2211C95.1299 52.261 95.1714 52.3115 95.2107 52.3716L95.4076 52.6793H95.2194L95.0695 52.4437C95.0357 52.3902 94.9996 52.3384 94.9611 52.2883C94.9402 52.2591 94.9147 52.2336 94.8856 52.2127C94.8646 52.1988 94.8414 52.1886 94.817 52.1825C94.7895 52.1777 94.7615 52.1757 94.7336 52.1767H94.5605V52.679H94.4103V52.6796ZM94.5602 52.0483H94.8818C94.9498 52.0483 95.0038 52.041 95.0419 52.0268C95.0779 52.0147 95.1088 51.991 95.1299 51.9594C95.1498 51.9292 95.1603 51.8938 95.1601 51.8577C95.1608 51.8328 95.1559 51.808 95.1459 51.7852C95.136 51.7623 95.121 51.7419 95.1023 51.7255C95.0631 51.6909 95.0018 51.6738 94.9178 51.6738H94.5605V52.0483H94.5602Z" fill="#272D3D"/>
<path fill-rule="evenodd" clip-rule="evenodd" d="M94.8463 51.2532C95.3257 51.2532 95.7167 51.6449 95.7167 52.1242C95.7167 52.6036 95.3257 52.9946 94.8463 52.9946C94.3664 52.9946 93.9753 52.6036 93.9753 52.1242C93.9753 51.6449 94.3664 51.2532 94.8463 51.2532ZM94.8463 51.0888C95.4166 51.0888 95.8817 51.5542 95.8817 52.1242C95.8817 52.6942 95.4163 53.1591 94.8463 53.1591C94.2763 53.1591 93.8109 52.6942 93.8109 52.1242C93.8109 51.5542 94.276 51.0888 94.8463 51.0888ZM105.246 33.1465H93.749V44.6433H105.246V33.1465ZM103.917 34.475H95.0779V43.3147H103.917V34.475Z" fill="#272D3D"/>
<path fill-rule="evenodd" clip-rule="evenodd" d="M99.4979 37.7939C99.7897 37.7945 100.069 37.9107 100.276 38.117C100.482 38.3234 100.598 38.6032 100.599 38.895C100.599 39.5013 100.105 39.996 99.4979 39.996C98.8913 39.996 98.3965 39.5013 98.3965 38.895C98.397 38.6031 98.5132 38.3233 98.7197 38.1169C98.9261 37.9105 99.206 37.7944 99.4979 37.7939Z" fill="#272D3D"/>
</svg>
