<svg width="16" height="16" viewBox="0 0 16 16" fill="none" xmlns="http://www.w3.org/2000/svg">
<path d="M15.5 0.5L15.9642 0.685695C16.0385 0.499987 15.995 0.287878 15.8536 0.146447C15.7121 0.00501531 15.5 -0.0385217 15.3143 0.0357617L15.5 0.5ZM0.5 6.5L0.314305 6.03576C0.131491 6.10889 0.00861469 6.28249 0.000431955 6.47922C-0.00775075 6.67595 0.100284 6.85916 0.276393 6.94721L0.5 6.5ZM9.5 15.5L9.05279 15.7236C9.14084 15.8997 9.32405 16.0078 9.52078 15.9996C9.71751 15.9914 9.89111 15.8685 9.96424 15.6857L9.5 15.5ZM15.3143 0.0357617L0.314305 6.03576L0.685695 6.96424L15.6857 0.964238L15.3143 0.0357617ZM0.276393 6.94721L6.27639 9.94721L6.72361 9.05279L0.723607 6.05279L0.276393 6.94721ZM6.05279 9.72361L9.05279 15.7236L9.94721 15.2764L6.94721 9.27639L6.05279 9.72361ZM9.96424 15.6857L15.9642 0.685695L15.0358 0.314305L9.03576 15.3143L9.96424 15.6857ZM15.1464 0.146447L6.14645 9.14645L6.85355 9.85355L15.8536 0.853553L15.1464 0.146447Z" fill="white"/>
</svg>
