<svg width="252" height="268" viewBox="0 0 252 268" fill="none" xmlns="http://www.w3.org/2000/svg">
<path d="M112.4 21.3C112.4 21.3 129.4 -0.499969 152.1 7.90003C174.8 16.4 170.6 30.9 177.3 45.3C184 59.7 193.2 73.7 195 89.5C196.8 105.3 187.5 117.2 190.9 125.8C194.3 134.4 217.6 142.2 217.3 164.6C217 187 179.1 200.1 132.8 197.5C104.3 195.9 75.7996 189.6 65.1996 168.9C56.6996 152.2 55.6996 134 59.3996 118.4C63.4996 101.1 77.3996 89 79.4996 71.9C80.9996 59.4 79.4996 42.9 87.5996 32.4C95.6996 21.9 112.4 21.3 112.4 21.3Z" fill="#272D3D"/>
<path d="M173.805 77.5516C175.717 72.5469 174.214 67.3234 170.448 65.8845C166.681 64.4456 162.078 67.3362 160.166 72.3409C158.254 77.3455 159.757 82.5691 163.524 84.008C167.29 85.4469 171.893 82.5563 173.805 77.5516Z" fill="white"/>
<path d="M132.899 148.2C140.799 148.2 147.799 144.9 151.299 140.1V104.8H114.699V140.4C118.299 145.1 125.099 148.2 132.899 148.2Z" fill="white"/>
<path d="M132.899 148.2C140.799 148.2 147.799 144.9 151.299 140.1V104.8H114.699V140.4C118.299 145.1 125.099 148.2 132.899 148.2Z" stroke="#272D3D" stroke-miterlimit="10" stroke-linecap="round" stroke-linejoin="round"/>
<path d="M173.805 77.5516C175.717 72.5469 174.214 67.3234 170.448 65.8845C166.681 64.4456 162.078 67.3362 160.166 72.3409C158.254 77.3455 159.757 82.5691 163.524 84.008C167.29 85.4469 171.893 82.5563 173.805 77.5516Z" stroke="#272D3D" stroke-miterlimit="10" stroke-linecap="round" stroke-linejoin="round"/>
<path d="M170 72.6L164.3 78.1" stroke="#272D3D" stroke-miterlimit="10" stroke-linecap="round" stroke-linejoin="round"/>
<path d="M132.599 24C150.299 24 167.099 37.6 164.699 73.3C162.999 98.4 149.699 117.3 133.099 117.3C116.499 117.3 103.399 96.6 101.499 73.3C98.4994 37.7 114.899 24 132.599 24Z" fill="white"/>
<path d="M132.599 24C150.299 24 167.099 37.6 164.699 73.3C162.999 98.4 149.699 117.3 133.099 117.3C116.499 117.3 103.399 96.6 101.499 73.3C98.4994 37.7 114.899 24 132.599 24Z" stroke="#272D3D" stroke-miterlimit="10" stroke-linecap="round" stroke-linejoin="round"/>
<path d="M132.599 24C150.299 24 167.099 37.6 164.699 73.3C162.999 98.4 149.699 117.3 133.099 117.3C116.499 117.3 103.399 96.6 101.499 73.3C98.4994 37.7 114.899 24 132.599 24Z" stroke="#272D3D" stroke-miterlimit="10" stroke-linecap="round" stroke-linejoin="round"/>
<path d="M154.599 39.7C148.299 33.8 140.399 31.2 132.599 31.2C124.499 31.2 116.599 34.1 110.799 40.6C110.799 40.6 104.699 38.6 106.499 33.5C108.299 28.4 116.999 20.5 131.899 20.5C146.799 20.5 158.899 27.6 160.299 33C161.699 38.4 154.599 39.7 154.599 39.7Z" fill="#272D3D"/>
<path d="M148 70.9C149.381 70.9 150.5 69.7807 150.5 68.4C150.5 67.0193 149.381 65.9 148 65.9C146.619 65.9 145.5 67.0193 145.5 68.4C145.5 69.7807 146.619 70.9 148 70.9Z" fill="#272D3D"/>
<path d="M117.1 70.9C118.48 70.9 119.6 69.7807 119.6 68.4C119.6 67.0193 118.48 65.9 117.1 65.9C115.719 65.9 114.6 67.0193 114.6 68.4C114.6 69.7807 115.719 70.9 117.1 70.9Z" fill="#272D3D"/>
<path d="M126.999 59C126.899 60 125.999 60.8 124.999 60.7C121.799 60.3 115.199 59.4 112.399 59.3C109.699 59.2 104.899 60.3 104.899 60.3C104.899 60.3 107.099 55.9 113.499 56C117.799 56.1 122.899 56.8 125.399 57.1C126.399 57.3 127.099 58.1 126.999 59Z" fill="#272D3D"/>
<path d="M138.899 58.9C138.899 59.9 139.799 60.7 140.899 60.6C144.199 60.3 150.699 59.7 153.499 59.7C156.199 59.7 160.899 60.9 160.899 60.9C160.899 60.9 158.799 56.4 152.399 56.3C148.099 56.2 142.999 56.7 140.499 57C139.599 57.1 138.899 57.9 138.899 58.9Z" fill="#272D3D"/>
<path d="M132.399 65.5C132.399 65.5 132.499 70 131.299 74.9C130.199 79.4 128.199 82.8 128.199 84.2C128.199 87.5 131.099 88 135.899 88" stroke="#272D3D" stroke-miterlimit="10" stroke-linecap="round" stroke-linejoin="round"/>
<path d="M120.899 95.1C120.899 95.1 123.399 97.9 133.299 97.9C142.499 97.9 145.199 95 145.199 95" stroke="#272D3D" stroke-miterlimit="10" stroke-linecap="round" stroke-linejoin="round"/>
<path d="M107.6 66.8C107.6 66.8 108 67.5 109.7 67.7C109.7 67.7 112.7 65.3 116.7 65.3C122 65.3 124.4 67.7 124.4 67.7" stroke="#272D3D" stroke-miterlimit="10" stroke-linecap="round" stroke-linejoin="round"/>
<path d="M110.5 64.9C110.5 64.9 110.5 65.8 111.9 66.5" stroke="#272D3D" stroke-miterlimit="10" stroke-linecap="round" stroke-linejoin="round"/>
<path d="M157.499 66.8C157.499 66.8 157.099 67.5 155.399 67.7C155.399 67.7 152.399 65.3 148.399 65.3C143.099 65.3 140.699 67.7 140.699 67.7" stroke="#272D3D" stroke-miterlimit="10" stroke-linecap="round" stroke-linejoin="round"/>
<path d="M154.599 64.9C154.599 64.9 154.599 65.8 153.199 66.5" stroke="#272D3D" stroke-miterlimit="10" stroke-linecap="round" stroke-linejoin="round"/>
<path d="M121.8 93C121.8 93 119.9 94.9 120.5 97.5" stroke="#272D3D" stroke-miterlimit="10" stroke-linecap="round" stroke-linejoin="round"/>
<path d="M144.6 93C144.6 93 146.3 94.4 145.6 97.5" stroke="#272D3D" stroke-miterlimit="10" stroke-linecap="round" stroke-linejoin="round"/>
<path d="M130.6 104.6C130.6 104.6 133.4 103.4 136.1 104.4" stroke="#272D3D" stroke-miterlimit="10" stroke-linecap="round" stroke-linejoin="round"/>
<path d="M115.8 29.7C115.8 29.7 119.4 55.4 97.0997 69.4L87.2997 79.8C87.2997 79.8 82.1997 62.4 89.7997 47.2C99.4997 27.8 115.8 29.7 115.8 29.7Z" fill="#272D3D"/>
<path d="M143.399 26.4C143.399 26.4 144.299 46.3001 154.199 62.4001C163.999 78.5001 167.599 78.7001 163.299 90.5001C158.999 102.3 175.799 106.6 175.799 106.6C175.799 106.6 176.799 88.3001 178.099 75.3001C179.499 62.3001 166.699 20.8 143.399 26.4Z" fill="#272D3D"/>
<path d="M117.8 25C117.8 25 125.4 13.2 137.9 20.5C150.4 27.8 149.6 43.3 154.6 53.1C159.6 63 170.7 73 171.2 84.7C171.7 96.4 156.5 111.8 162 133.8" stroke="white" stroke-miterlimit="10" stroke-linecap="round" stroke-linejoin="round"/>
<path d="M108.4 32C108.4 32 107 46.5 99.6996 54.3C92.3996 62.1 86.7996 70.9 86.2996 79C85.5996 90.7 88.8996 100.4 87.8996 114.4C86.2996 136.1 75.5996 147.1 75.5996 147.1" stroke="white" stroke-miterlimit="10" stroke-linecap="round" stroke-linejoin="round"/>
<path d="M102.3 90.9C102.3 90.9 94.1995 112.9 105.3 132.3" stroke="white" stroke-miterlimit="10" stroke-linecap="round" stroke-linejoin="round"/>
<path d="M178.199 94.1C178.199 94.1 182.699 97.4 181.299 110.5C179.899 123.6 176.899 128.3 178.599 141.8" stroke="white" stroke-miterlimit="10" stroke-linecap="round" stroke-linejoin="round"/>
<path d="M96.5327 59.5714C97.2779 54.2662 96.4189 49.76 94.614 49.5065C92.8091 49.253 90.7419 53.3482 89.9967 58.6534C89.2516 63.9586 90.1106 68.4648 91.9155 68.7183C93.7203 68.9718 95.7875 64.8766 96.5327 59.5714Z" fill="white"/>
<path d="M103.1 84C99.3998 85.4 94.7998 82.5 92.8998 77.5C90.9998 72.5 92.4998 67.3 96.1998 65.9C97.6998 65.3 99.3998 65.4 101 66.2C101 68.5 101.1 70.8 101.3 73.3C101.7 76.9 102.3 80.5 103.1 84Z" fill="white"/>
<path d="M103.1 84C99.3998 85.4 94.7998 82.5 92.8998 77.5C90.9998 72.5 92.4998 67.3 96.1998 65.9C97.6998 65.3 99.3998 65.4 101 66.2C101 68.5 101.1 70.8 101.3 73.3C101.7 76.9 102.3 80.5 103.1 84Z" stroke="#272D3D" stroke-miterlimit="10" stroke-linecap="round" stroke-linejoin="round"/>
<path d="M101.7 77.4L96.7998 72.6" stroke="#272D3D" stroke-miterlimit="10" stroke-linecap="round" stroke-linejoin="round"/>
<path d="M151.3 108.5V112.9C146.4 115.9 140.4 117.1 133.8 117.2C140.3 117 146.3 113.8 151.3 108.5Z" fill="#272D3D"/>
<path d="M235.1 251.5C235.1 251.5 230.3 215.8 227.4 196.2C224.5 176.6 220.1 164.9 212.6 159.2C205.1 153.5 170 139.9 153.6 131.1C153.6 131.1 152.8 128.2 153.3 125.1C153.3 125.1 147.4 129 131.9 129C116.4 129 112.1 125.1 112.1 125.1C112.6 128.2 111.8 131.1 111.8 131.1C95.4998 139.9 61.2998 154.5 53.7998 160.2C46.2998 165.9 40.8998 176.5 37.9998 196.2C35.1998 215.9 30.2998 251.5 30.2998 251.5H235.1Z" fill="#DCDDE0"/>
<path d="M235.1 251.5C235.1 251.5 230.3 215.8 227.4 196.2C224.5 176.6 220.1 164.9 212.6 159.2C205.1 153.5 170 139.9 153.6 131.1C153.6 131.1 152.8 128.2 153.3 125.1C153.3 125.1 147.4 129 131.9 129C116.4 129 112.1 125.1 112.1 125.1C112.6 128.2 111.8 131.1 111.8 131.1C95.4998 139.9 61.2998 154.5 53.7998 160.2C46.2998 165.9 40.8998 176.5 37.9998 196.2C35.1998 215.9 30.2998 251.5 30.2998 251.5H235.1Z" stroke="#272D3D" stroke-miterlimit="10" stroke-linecap="round" stroke-linejoin="round"/>
<path d="M179.3 143.6C172 153.6 148.4 186.9 139.5 224.3C127 184.2 100.9 149 91.7998 141C93.6998 140.1 95.5998 139.2 97.4998 138.3C103.1 143 119.4 160.3 138.9 205C154.7 163.7 168.5 147 174 141.1C175.7 141.9 177.5 142.8 179.3 143.6Z" fill="white"/>
<path d="M179.3 143.6C172 153.6 148.4 186.9 139.5 224.3C127 184.2 100.9 149 91.7998 141C93.6998 140.1 95.5998 139.2 97.4998 138.3C103.1 143 119.4 160.3 138.9 205C154.7 163.7 168.5 147 174 141.1C175.7 141.9 177.5 142.8 179.3 143.6Z" stroke="#272D3D" stroke-miterlimit="10" stroke-linecap="round" stroke-linejoin="round"/>
<path d="M60.2998 156.4C60.2998 156.4 75.4998 159.5 75.4998 188.7" stroke="#272D3D" stroke-miterlimit="10" stroke-linecap="round" stroke-linejoin="round"/>
<path d="M77 207.8V251.5" stroke="#272D3D" stroke-miterlimit="10" stroke-linecap="round" stroke-linejoin="round"/>
<path d="M209.6 157.2C205.1 160.2 197.2 169.1 197.2 188.7" stroke="#272D3D" stroke-miterlimit="10" stroke-linecap="round" stroke-linejoin="round"/>
<path d="M195.7 207.8V251.5" stroke="#272D3D" stroke-miterlimit="10" stroke-linecap="round" stroke-linejoin="round"/>
<path d="M0.5 251.5H251.5" stroke="#272D3D" stroke-miterlimit="10" stroke-linecap="round" stroke-linejoin="round"/>
</svg>
