<svg width="72" height="78" viewBox="0 0 72 78" fill="none" xmlns="http://www.w3.org/2000/svg">
<path d="M45 15H12V49M45 15L41 11M45 15L41 19" stroke="#272D3D" stroke-linejoin="round"/>
<path d="M27 63H60V29M27 63L31 67M27 63L31 59" stroke="#272D3D" stroke-linejoin="round"/>
<path d="M60 1C56.6863 1 54 3.68629 54 7V9C54 11.2208 55.2066 13.1599 57 14.1973V17H55C51.6863 17 49 19.6863 49 23V28C49 28.5523 49.4477 29 50 29H70C70.5523 29 71 28.5523 71 28V23C71 19.6863 68.3137 17 65 17H63V14.1973C64.7934 13.1599 66 11.2208 66 9V7C66 3.68629 63.3137 1 60 1Z" stroke="#272D3D" stroke-linejoin="round"/>
<path d="M12 49C8.68629 49 6 51.6863 6 55V57C6 59.2208 7.2066 61.1599 9 62.1973V65H7C3.68629 65 1 67.6863 1 71V76C1 76.5523 1.44772 77 2 77H22C22.5523 77 23 76.5523 23 76V71C23 67.6863 20.3137 65 17 65H15V62.1973C16.7934 61.1599 18 59.2208 18 57V55C18 51.6863 15.3137 49 12 49Z" stroke="#272D3D" stroke-linejoin="round"/>
<path d="M36 40V39.5C35.7239 39.5 35.5 39.7239 35.5 40H36ZM41.5 34C41.5 37.0376 39.0376 39.5 36 39.5V40.5C39.5899 40.5 42.5 37.5899 42.5 34H41.5ZM30.5 34C30.5 30.9624 32.9624 28.5 36 28.5V27.5C32.4101 27.5 29.5 30.4101 29.5 34H30.5ZM36 28.5C39.0376 28.5 41.5 30.9624 41.5 34H42.5C42.5 30.4101 39.5899 27.5 36 27.5V28.5ZM35.5 40V46H36.5V40H35.5Z" fill="#272D3D"/>
</svg>
