<svg width="160" height="90" viewBox="0 0 160 90" fill="none" xmlns="http://www.w3.org/2000/svg">
<path d="M1 1H159V89H1V1Z" stroke="#DCDDE0" stroke-linejoin="round"/>
<path d="M76.2533 37.8463C75.6379 37.827 75.1379 38.3078 75.1187 38.904C75.1187 38.9232 75.1187 38.9616 75.1187 38.9809V44.4424C72.4841 42.327 68.6187 42.7501 66.5033 45.3847C65.6379 46.4809 65.1572 47.827 65.1572 49.2309C65.0995 52.6155 67.7918 55.404 71.1764 55.4616C74.561 55.5193 77.3495 52.827 77.4072 49.4424C77.4072 49.3655 77.4072 49.3078 77.4072 49.2309V38.9809C77.4072 38.6732 77.2918 38.3847 77.0802 38.1732C76.8495 37.9616 76.561 37.8463 76.2533 37.8463ZM74.811 50.7116C74.4264 51.6347 73.6956 52.3655 72.7725 52.7693C71.811 53.1732 70.7341 53.1732 69.7725 52.7693C68.8495 52.3847 68.1379 51.6347 67.7533 50.7309C67.3495 49.7886 67.3495 48.7116 67.7533 47.7501C68.1379 46.827 68.8687 46.0963 69.7725 45.7116C70.7341 45.3078 71.811 45.3078 72.7725 45.7116C73.6956 46.1155 74.4264 46.8463 74.811 47.7693C75.2148 48.6924 75.2148 49.7693 74.811 50.7116Z" fill="#0091E2"/>
<path d="M89.0409 44.9039C86.6563 42.5193 82.7716 42.5193 80.387 44.9039C79.2332 46.0578 78.5986 47.6155 78.5986 49.2309C78.5409 52.6155 81.2332 55.4039 84.6178 55.4616C88.0024 55.5193 90.7909 52.827 90.8486 49.4424C90.8486 49.3655 90.8486 49.3078 90.8486 49.2309C90.8486 48.4232 90.6947 47.6347 90.387 46.8847C90.0793 46.1347 89.6178 45.4616 89.0409 44.9039ZM88.2524 50.6924C88.0601 51.1539 87.7716 51.5578 87.4255 51.9039C87.0793 52.2501 86.6563 52.5386 86.214 52.7309C85.2524 53.1347 84.1755 53.1347 83.214 52.7309C82.2909 52.3462 81.5601 51.5962 81.1755 50.6924C80.7716 49.7501 80.7716 48.6732 81.1755 47.7116C81.5601 46.7886 82.2909 46.077 83.214 45.6732C84.1755 45.2693 85.2524 45.2693 86.214 45.6732C86.6755 45.8655 87.0793 46.1539 87.4255 46.5001C87.7716 46.8462 88.0601 47.2693 88.2524 47.7116C88.6563 48.6924 88.6563 49.7693 88.2524 50.6924Z" fill="#0091E2"/>
<path d="M114.37 44.2308C114.37 44.077 114.331 43.9231 114.273 43.7885C114.216 43.6539 114.12 43.5385 114.023 43.4231C113.927 43.327 113.793 43.2308 113.658 43.1731C113.523 43.1154 113.37 43.077 113.216 43.077C113.004 43.077 112.793 43.1347 112.6 43.25L106.062 47.5V39C106.062 38.6923 105.947 38.4039 105.735 38.1923C105.523 37.9808 105.235 37.8462 104.927 37.8462C104.293 37.8462 103.793 38.3462 103.773 38.9808C103.773 38.9808 103.773 38.9808 103.773 39V54.1923C103.773 54.5 103.889 54.7885 104.1 55C104.312 55.2308 104.6 55.3462 104.908 55.3462C105.216 55.3462 105.504 55.2308 105.716 55C105.927 54.7885 106.062 54.5 106.043 54.1923V50.25L107.37 49.3847L112.427 55.0577C112.639 55.25 112.908 55.3654 113.197 55.3462C113.35 55.3462 113.504 55.327 113.639 55.25C113.773 55.1924 113.889 55.1154 114.004 55C114.1 54.8847 114.197 54.7693 114.254 54.6347C114.312 54.5 114.35 54.3462 114.35 54.1923C114.35 53.9039 114.235 53.6154 114.043 53.4039L109.35 48.1154L113.927 45.1347C114.235 44.9423 114.389 44.5962 114.37 44.2308Z" fill="#0091E2"/>
<path d="M95.3863 46.5001C95.7324 46.154 96.1555 45.8655 96.6171 45.6732C97.0978 45.4809 97.5978 45.3655 98.1171 45.3655C98.5786 45.3655 99.0209 45.4424 99.444 45.5963C99.8671 45.7694 100.271 46.0001 100.617 46.3078C100.829 46.4809 101.098 46.5578 101.367 46.5578C101.675 46.5771 101.982 46.4617 102.194 46.2309C102.406 46.0194 102.521 45.7117 102.521 45.404C102.521 45.0771 102.386 44.7501 102.117 44.5386C101.021 43.5578 99.5979 43.0194 98.1171 43.0578C94.7324 43.0578 91.9824 45.8078 91.9824 49.1925C91.9824 52.5771 94.7132 55.3078 98.0786 55.3271C99.5594 55.3271 100.982 54.8078 102.098 53.8463C102.329 53.6348 102.463 53.3271 102.463 53.0001C102.482 52.3848 102.002 51.8848 101.406 51.8655C101.386 51.8655 101.348 51.8655 101.329 51.8655C101.059 51.8655 100.809 51.9425 100.598 52.0963C100.252 52.404 99.8671 52.6348 99.444 52.8078C99.0209 52.9617 98.5594 53.0386 98.1171 53.0386C97.5978 53.0386 97.0978 52.9424 96.6171 52.7309C96.1555 52.5386 95.7517 52.2501 95.3863 51.904C93.8863 50.404 93.8863 47.9809 95.3671 46.4809C95.3863 46.5194 95.3863 46.5194 95.3863 46.5001Z" fill="#0091E2"/>
<path d="M137.081 43.8655C136.85 43.6539 136.6 43.5001 136.311 43.4039C135.985 43.2886 135.638 43.2116 135.292 43.1732C134.946 43.1347 134.6 43.1155 134.254 43.1155C133.561 43.1155 132.85 43.2309 132.196 43.4809C131.542 43.7116 130.946 44.0578 130.408 44.4809V44.2501C130.388 43.6155 129.85 43.1347 129.215 43.1539C128.619 43.1732 128.138 43.6539 128.119 44.2501V54.2309C128.138 54.8655 128.677 55.3462 129.311 55.327C129.908 55.3078 130.388 54.827 130.408 54.2309V49.2501C130.408 48.7309 130.504 48.2309 130.715 47.7501C130.908 47.2886 131.177 46.8847 131.542 46.5386C131.888 46.1924 132.311 45.9039 132.754 45.7116C133.235 45.5193 133.735 45.4039 134.254 45.4039C134.773 45.4039 135.273 45.5001 135.754 45.6732C135.908 45.7501 136.061 45.7886 136.235 45.7886C136.388 45.7886 136.542 45.7693 136.677 45.6924C136.811 45.6347 136.927 45.5578 137.042 45.4424C137.138 45.3462 137.235 45.2116 137.292 45.077C137.35 44.9424 137.388 44.7886 137.388 44.6347C137.408 44.3462 137.292 44.077 137.081 43.8655Z" fill="#0091E2"/>
<path d="M126.466 46.8847C125.485 44.6155 123.254 43.1347 120.793 43.1155C117.408 43.1155 114.677 45.8463 114.658 49.2309C114.658 52.6155 117.408 55.3655 120.793 55.3655C122.254 55.3655 123.677 54.8462 124.793 53.8847C124.812 53.8655 124.831 53.8463 124.831 53.8463C124.927 53.7693 125.024 53.6732 125.081 53.5578C125.447 53.0193 125.312 52.3078 124.793 51.9424C124.35 51.6539 123.774 51.7116 123.389 52.077C123.35 52.1155 123.235 52.2116 123.235 52.2309L123.216 52.2501C122.889 52.5193 122.524 52.7501 122.12 52.8847C121.697 53.0386 121.254 53.1155 120.793 53.0962C120.37 53.0962 119.966 53.0386 119.562 52.9039C119.177 52.7693 118.812 52.5962 118.485 52.3462C118.158 52.1155 117.87 51.827 117.639 51.5001C117.389 51.1732 117.216 50.7886 117.101 50.4039H125.754C126.062 50.4039 126.35 50.2886 126.562 50.077C126.793 49.8655 126.908 49.577 126.889 49.2693C126.908 48.4424 126.754 47.6347 126.466 46.8847ZM117.101 48.1155C117.216 47.7116 117.389 47.3463 117.639 47.0193C117.87 46.6924 118.158 46.4039 118.485 46.1732C118.812 45.9424 119.177 45.7501 119.562 45.6155C119.947 45.4809 120.37 45.4232 120.774 45.4232C121.177 45.4232 121.6 45.4809 121.985 45.6155C122.754 45.8655 123.427 46.3655 123.908 47.0193C124.158 47.3463 124.331 47.7309 124.466 48.1155H117.101Z" fill="#0091E2"/>
<path d="M133.175 53.6924C132.733 53.6924 132.387 54.0578 132.387 54.5001C132.387 54.9424 132.752 55.2885 133.194 55.2885C133.637 55.2885 133.983 54.9232 133.983 54.5001C133.983 54.0385 133.617 53.6924 133.175 53.6924ZM133.175 55.1155C132.829 55.1347 132.541 54.8655 132.521 54.5193C132.502 54.1732 132.771 53.8847 133.117 53.8655C133.464 53.8462 133.752 54.1155 133.771 54.4616C133.771 54.4808 133.771 54.4808 133.771 54.5001C133.791 54.827 133.521 55.1155 133.194 55.1155C133.194 55.1155 133.194 55.1155 133.175 55.1155Z" fill="#0091E2"/>
<path d="M133.369 54.5C133.465 54.4808 133.523 54.4038 133.523 54.3077C133.523 54.2308 133.504 54.1731 133.446 54.1346C133.369 54.0961 133.273 54.0769 133.177 54.0769C133.081 54.0769 132.965 54.0769 132.869 54.0961V54.8846H133.042V54.5769H133.119C133.215 54.5769 133.273 54.6154 133.292 54.6923C133.311 54.75 133.331 54.8269 133.35 54.8846H133.542C133.504 54.8269 133.485 54.75 133.485 54.6923C133.504 54.6154 133.446 54.5384 133.369 54.5ZM133.138 54.4423H133.042V54.2115C133.081 54.2115 133.119 54.2115 133.138 54.2115C133.254 54.2115 133.311 54.2692 133.311 54.3269C133.331 54.4038 133.235 54.4615 133.138 54.4423Z" fill="#0091E2"/>
<path d="M63.0602 40.423C62.9448 40.3269 61.9064 39.5384 59.6756 39.5384C59.0987 39.5384 58.5025 39.5961 57.9256 39.6923C57.5025 36.75 55.0602 35.3269 54.964 35.25L54.3679 34.9038L53.9833 35.4615C53.5025 36.2115 53.1371 37.0577 52.9256 37.923C52.5217 39.5961 52.7717 41.173 53.6179 42.5192C52.5987 43.0961 50.9448 43.2307 50.5987 43.25H23.291C22.5794 43.25 22.0025 43.8269 22.0025 44.5384C21.964 46.923 22.3679 49.3077 23.1948 51.5576C24.1371 54.0192 25.541 55.8461 27.3487 56.9615C29.3871 58.2115 32.714 58.923 36.464 58.923C38.1564 58.923 39.8487 58.7692 41.5217 58.4615C43.8487 58.0384 46.0794 57.2307 48.1371 56.0577C49.8294 55.0769 51.3487 53.8269 52.6371 52.3653C54.8102 49.923 56.0987 47.1923 57.041 44.7692C57.1756 44.7692 57.291 44.7692 57.4256 44.7692C59.791 44.7692 61.2525 43.8269 62.0602 43.0192C62.5987 42.5192 63.0025 41.9038 63.291 41.2115L63.464 40.7115L63.0602 40.423Z" fill="#0091E2"/>
<path d="M25.8308 42.4614H29.4847C29.6578 42.4614 29.8116 42.3268 29.8116 42.1345V38.8652C29.8116 38.6922 29.677 38.5383 29.4847 38.5383H25.8308C25.6578 38.5383 25.5039 38.6729 25.5039 38.8652V42.1345C25.5231 42.3268 25.6578 42.4614 25.8308 42.4614Z" fill="#0091E2"/>
<path d="M30.8679 42.4614H34.5218C34.6949 42.4614 34.8487 42.3268 34.8487 42.1345V38.8652C34.8487 38.6922 34.7141 38.5383 34.5218 38.5383H30.8679C30.6949 38.5383 30.541 38.6729 30.541 38.8652V42.1345C30.5602 42.3268 30.6949 42.4614 30.8679 42.4614Z" fill="#0091E2"/>
<path d="M36.0027 42.4614H39.6565C39.8296 42.4614 39.9835 42.3268 39.9835 42.1345V38.8652C39.9835 38.6922 39.8489 38.5383 39.6565 38.5383H36.0027C35.8296 38.5383 35.6758 38.6729 35.6758 38.8652V42.1345C35.6758 42.3268 35.8104 42.4614 36.0027 42.4614Z" fill="#0091E2"/>
<path d="M41.0593 42.4614H44.7132C44.8863 42.4614 45.0401 42.3268 45.0401 42.1345V38.8652C45.0401 38.6922 44.9055 38.5383 44.7132 38.5383H41.0593C40.8863 38.5383 40.7324 38.6729 40.7324 38.8652V42.1345C40.7324 42.3268 40.8863 42.4614 41.0593 42.4614Z" fill="#0091E2"/>
<path d="M30.8679 37.7883H34.5218C34.6949 37.7883 34.8487 37.6345 34.8487 37.4614V34.1922C34.8487 34.0191 34.7141 33.8652 34.5218 33.8652H30.8679C30.6949 33.8652 30.541 33.9999 30.541 34.1922V37.4614C30.5602 37.6345 30.6949 37.7883 30.8679 37.7883Z" fill="#0091E2"/>
<path d="M36.0027 37.7883H39.6565C39.8296 37.7883 39.9835 37.6345 39.9835 37.4614V34.1922C39.9835 34.0191 39.8489 33.8652 39.6565 33.8652H36.0027C35.8296 33.8652 35.6758 33.9999 35.6758 34.1922V37.4614C35.6758 37.6345 35.8104 37.7883 36.0027 37.7883Z" fill="#0091E2"/>
<path d="M41.0593 37.7883H44.7132C44.8863 37.7883 45.0401 37.6345 45.0401 37.4614V34.1922C45.0401 34.0191 44.8863 33.8652 44.7132 33.8652H41.0593C40.8863 33.8652 40.7324 33.9999 40.7324 34.1922V37.4614C40.7324 37.6345 40.8863 37.7883 41.0593 37.7883Z" fill="#0091E2"/>
<path d="M41.0593 33.0962H44.7132C44.8863 33.0962 45.0401 32.9616 45.0401 32.7693V29.5C45.0401 29.3269 44.8863 29.1731 44.7132 29.1731H41.0593C40.8863 29.1731 40.7324 29.3077 40.7324 29.5V32.7693C40.7324 32.9423 40.8863 33.0962 41.0593 33.0962Z" fill="#0091E2"/>
<path d="M46.157 42.4614H49.8108C49.9839 42.4614 50.1378 42.3268 50.1378 42.1345V38.8652C50.1378 38.6922 50.0032 38.5383 49.8108 38.5383H46.157C45.9839 38.5383 45.8301 38.6729 45.8301 38.8652V42.1345C45.8493 42.3268 45.9839 42.4614 46.157 42.4614Z" fill="#0091E2"/>
</svg>
