<svg width="252" height="268" viewBox="0 0 252 268" fill="none" xmlns="http://www.w3.org/2000/svg">
<path d="M251.5 251.5H231.9H198.5H0.5" stroke="#272D3D" stroke-miterlimit="10" stroke-linecap="round" stroke-linejoin="round"/>
<path d="M228 251.5H194.6L189 197.5L223.3 190C226 204.1 227.4 234 228 251.5Z" fill="white" stroke="#272D3D" stroke-miterlimit="10" stroke-linecap="round" stroke-linejoin="round"/>
<path d="M228 251.5C227.4 234 226.1 204.1 223.3 189.9L189 197.5L194.6 251.5" stroke="#272D3D" stroke-miterlimit="10" stroke-linecap="round" stroke-linejoin="round"/>
<path d="M23.5 251.5H57L62.6 197.5L28.3 190C25.5 204.1 24.1 234 23.5 251.5Z" fill="white" stroke="#272D3D" stroke-miterlimit="10" stroke-linecap="round" stroke-linejoin="round"/>
<path d="M23.5 251.5C24.1 234 25.5 204.1 28.2 189.9L62.5 197.5L56.9 251.5" stroke="#272D3D" stroke-miterlimit="10" stroke-linecap="round" stroke-linejoin="round"/>
<path d="M235.9 238.4L186.1 244.3V251.6H65.8V244.3L16 238.4C16 238.4 20.3 197.7 33.7 172.7C47 147.7 54.5 149.5 83.2 137.2C87.7 135.2 91.8 133.6 95.6 132.3L101.6 127.8C101.9 128.5 102.2 129.3 102.6 130C103 130.7 103.5 131.3 104 131.9C107.9 136.6 115.4 139.7 123.9 139.7C132.6 139.7 140.2 136.4 144 131.6C144.6 130.8 145.1 130 145.6 129.2C146 128.4 146.3 127.6 146.5 126.7L153.9 131.6C158.4 133.1 163.3 134.9 168.7 137.2C197.4 149.5 204.9 147.7 218.2 172.7C231.5 197.7 235.9 238.4 235.9 238.4Z" fill="#DCDDE0"/>
<path d="M153.9 131.6C158.4 133.1 163.3 134.9 168.7 137.2C197.4 149.5 204.9 147.7 218.2 172.7C231.5 197.7 235.9 238.4 235.9 238.4L186.1 244.3V251.6H124H65.7004V244.3L15.9004 238.4C15.9004 238.4 20.2004 197.7 33.6004 172.7C46.9004 147.7 54.4004 149.5 83.1004 137.2C87.6004 135.3 91.7004 133.6 95.5004 132.3" stroke="#272D3D" stroke-miterlimit="10" stroke-linecap="round" stroke-linejoin="round"/>
<path d="M46.4004 154.8C46.4004 154.8 60.1004 167.3 62.4004 192.5C64.7004 217.7 65.8004 244.3 65.8004 244.3" stroke="#272D3D" stroke-miterlimit="10" stroke-linecap="round" stroke-linejoin="round"/>
<path d="M205.6 154.8C205.6 154.8 191.9 167.3 189.6 192.5C187.3 217.7 186.2 244.3 186.2 244.3" stroke="#272D3D" stroke-miterlimit="10" stroke-linecap="round" stroke-linejoin="round"/>
<path d="M95.6006 132.3C99.1006 141.5 110.701 148.3 124.601 148.3C138.801 148.3 150.701 141.2 153.901 131.6" stroke="#272D3D" stroke-miterlimit="10" stroke-linecap="round" stroke-linejoin="round"/>
<path d="M101.7 127.8C102 128.5 102.3 129.3 102.7 130C106.1 135.7 114.3 139.7 124 139.7C134.1 139.7 142.6 135.3 145.7 129.2C146.1 128.4 146.4 127.6 146.6 126.7" stroke="#272D3D" stroke-miterlimit="10" stroke-linecap="round" stroke-linejoin="round"/>
<path d="M104.1 126V131.9C103.6 131.3 103.1 130.6 102.7 130C102.3 129.3 101.9 128.6 101.7 127.8L104.1 126Z" fill="#272D3D"/>
<path d="M146.601 126.6C146.401 127.4 146.101 128.3 145.701 129.1C145.301 129.9 144.801 130.8 144.101 131.5V125L146.601 126.6Z" fill="#272D3D"/>
<path d="M192.5 177.8H59.5002L35.7002 169.2" stroke="#272D3D" stroke-miterlimit="10" stroke-linecap="round" stroke-linejoin="round"/>
<path d="M192.5 177.8L216.3 169.2" stroke="#272D3D" stroke-miterlimit="10" stroke-linecap="round" stroke-linejoin="round"/>
<path d="M193.4 147.2H133.9" stroke="#272D3D" stroke-miterlimit="10" stroke-linecap="round" stroke-linejoin="round"/>
<path d="M115.5 147.2H58.5" stroke="#272D3D" stroke-miterlimit="10" stroke-linecap="round" stroke-linejoin="round"/>
<path d="M147.301 194.8H173.001V217.2L160.101 224.2L147.301 217.2V194.8Z" fill="#DCDDE0"/>
<path d="M147.301 194.8H173.001V217.2L160.101 224.2L147.301 217.2V194.8Z" stroke="#272D3D" stroke-miterlimit="10" stroke-linecap="round" stroke-linejoin="round"/>
<path d="M188.2 209H173" stroke="#272D3D" stroke-miterlimit="10" stroke-linecap="round" stroke-linejoin="round"/>
<path d="M23.5 199.7L63.8 209H147.3" stroke="#272D3D" stroke-miterlimit="10" stroke-linecap="round" stroke-linejoin="round"/>
<path d="M228.2 198.9L188.2 209" stroke="#272D3D" stroke-miterlimit="10" stroke-linecap="round" stroke-linejoin="round"/>
<path d="M95.6006 132.3L104.101 126" stroke="#272D3D" stroke-miterlimit="10" stroke-linecap="round" stroke-linejoin="round"/>
<path d="M153.901 131.6L144.101 125" stroke="#272D3D" stroke-miterlimit="10" stroke-linecap="round" stroke-linejoin="round"/>
<path d="M65.6006 238H186.401" stroke="#272D3D" stroke-miterlimit="10" stroke-linecap="round" stroke-linejoin="round"/>
<path d="M65.5004 238L16.9004 232.3" stroke="#272D3D" stroke-miterlimit="10" stroke-linecap="round" stroke-linejoin="round"/>
<path d="M186.4 238L235.1 232.3" stroke="#272D3D" stroke-miterlimit="10" stroke-linecap="round" stroke-linejoin="round"/>
<path d="M124 139.6C132.7 139.6 140.3 136.3 144.1 131.5V96.2999H104.1V131.9C108 136.5 115.5 139.6 124 139.6Z" fill="white"/>
<path d="M124 139.6C132.7 139.6 140.3 136.3 144.1 131.5V96.2999H104.1V131.9C108 136.5 115.5 139.6 124 139.6Z" stroke="#272D3D" stroke-miterlimit="10" stroke-linecap="round" stroke-linejoin="round"/>
<path d="M163.722 73.446C165.634 68.4414 164.131 63.2178 160.365 61.7789C156.598 60.34 151.995 63.2306 150.083 68.2353C148.171 73.2399 149.674 78.4635 153.441 79.9024C157.207 81.3413 161.81 78.4507 163.722 73.446Z" fill="white"/>
<path d="M163.722 73.446C165.634 68.4414 164.131 63.2178 160.365 61.7789C156.598 60.34 151.995 63.2306 150.083 68.2353C148.171 73.2399 149.674 78.4635 153.441 79.9024C157.207 81.3413 161.81 78.4507 163.722 73.446Z" stroke="#272D3D" stroke-miterlimit="10" stroke-linecap="round" stroke-linejoin="round"/>
<path d="M159.899 68.5L154.199 73.9" stroke="#272D3D" stroke-miterlimit="10" stroke-linecap="round" stroke-linejoin="round"/>
<path d="M89.7669 79.8658C93.5333 78.4269 95.0367 73.2033 93.1247 68.1987C91.2127 63.194 86.6095 60.3034 82.8431 61.7423C79.0767 63.1812 77.5734 68.4047 79.4854 73.4094C81.3973 78.4141 86.0006 81.3047 89.7669 79.8658Z" fill="white"/>
<path d="M89.7669 79.8658C93.5333 78.4269 95.0367 73.2033 93.1247 68.1987C91.2127 63.194 86.6095 60.3034 82.8431 61.7423C79.0767 63.1812 77.5734 68.4047 79.4854 73.4094C81.3973 78.4141 86.0006 81.3047 89.7669 79.8658Z" stroke="#272D3D" stroke-miterlimit="10" stroke-linecap="round" stroke-linejoin="round"/>
<path d="M87.3993 65C84.5993 65 80.6993 38.9 83.3993 29C86.0993 19.1 102.199 4.29997 109.999 4.39997C117.799 4.49997 124.399 2.19997 126.799 2.49997C126.799 2.49997 126.499 4.19997 127.199 4.89997C127.199 4.89997 131.699 3.39997 133.499 3.49997C133.499 3.49997 132.099 5.09997 132.499 5.99997C132.499 5.99997 136.599 4.59997 138.199 4.89997C138.199 4.89997 137.699 5.99997 137.799 7.19997C137.799 7.19997 142.599 5.59997 148.299 12C153.999 18.4 158.499 23.2 159.099 33C159.699 42.8 159.899 62.7 154.399 64.8L87.3993 65Z" fill="#272D3D"/>
<path d="M88.2994 73.3L83.3994 68.5" stroke="#272D3D" stroke-miterlimit="10" stroke-linecap="round" stroke-linejoin="round"/>
<path d="M85.7991 42.7C86.4991 55.5 88.5991 86.4 93.0991 95.9C97.5991 105.4 114.399 115.9 123.399 115.9C132.399 115.9 147.499 105.4 151.199 97.2C155.799 87 154.499 43.9 154.499 43.9C154.499 43.9 148.999 19.9 122.999 20.1C96.9991 20.3 85.1991 32.3 85.7991 42.7Z" fill="white"/>
<path d="M85.7991 42.7C86.4991 55.5 88.5991 86.4 93.0991 95.9C97.5991 105.4 114.399 115.9 123.399 115.9C132.399 115.9 147.499 105.4 151.199 97.2C155.799 87 154.499 43.9 154.499 43.9C154.499 43.9 148.999 19.9 122.999 20.1C96.9991 20.3 85.1991 32.3 85.7991 42.7Z" stroke="#272D3D" stroke-miterlimit="10" stroke-linecap="round" stroke-linejoin="round"/>
<path d="M144.099 110.7V105.9C137.899 111.3 129.299 115.8 123.399 115.8C129.299 115.8 137.899 114.2 144.099 110.7Z" fill="#272D3D"/>
<path d="M120.199 62.5C120.199 62.5 120.199 75.5 117.299 85.2C116.699 87.1 121.099 89.5 126.299 88" stroke="#272D3D" stroke-miterlimit="10" stroke-linecap="round" stroke-linejoin="round"/>
<path d="M121 105.4C121 105.4 122.8 106.4 124.1 108.7" stroke="#272D3D" stroke-miterlimit="10" stroke-linecap="round" stroke-linejoin="round"/>
<path d="M109.3 93.4C109.3 93.4 112.6 96.5 122.5 96.3C131.7 96.1 136.1 92.4 136.1 92.4" stroke="#272D3D" stroke-miterlimit="10" stroke-linecap="round" stroke-linejoin="round"/>
<path d="M128.8 64.4C128.8 64.4 131.8 62 135.8 62C141.1 62 143.5 64.4 143.5 64.4" stroke="#272D3D" stroke-miterlimit="10" stroke-linecap="round" stroke-linejoin="round"/>
<path d="M136.1 67.5C137.48 67.5 138.6 66.3807 138.6 65C138.6 63.6193 137.48 62.5 136.1 62.5C134.719 62.5 133.6 63.6193 133.6 65C133.6 66.3807 134.719 67.5 136.1 67.5Z" fill="#272D3D"/>
<path d="M97.5996 64.4C97.5996 64.4 100.6 62 104.6 62C109.9 62 112.3 64.4 112.3 64.4" stroke="#272D3D" stroke-miterlimit="10" stroke-linecap="round" stroke-linejoin="round"/>
<path d="M105 67.5C106.381 67.5 107.5 66.3807 107.5 65C107.5 63.6193 106.381 62.5 105 62.5C103.619 62.5 102.5 63.6193 102.5 65C102.5 66.3807 103.619 67.5 105 67.5Z" fill="#272D3D"/>
<path d="M87.0993 61.9C87.0993 61.9 91.3993 59.5 92.4993 48.8C93.5993 38.1 97.0993 29.5 101.599 29.2C109.899 28.5 111.399 31.7 122.499 31.1C130.099 30.7 137.099 28.2 141.899 29.6C149.799 31.8 149.699 43.8 150.399 48.6C151.599 56.8 154.499 62.7 154.499 62.7C154.499 62.7 157.799 50.4 156.099 39.4C154.399 28.4 145.199 11.6 122.599 11.9C99.9993 12.2 82.3993 23.2 82.5993 34.8C82.8993 46.3 87.0993 61.9 87.0993 61.9Z" fill="#272D3D"/>
<path d="M92.2 60.9999C92.2 60.9999 102.2 55.8999 116.8 59.9999C116.8 59.9999 117.4 78.2999 104.3 78.2999C91.6999 78.2999 92.2 60.9999 92.2 60.9999Z" stroke="#272D3D" stroke-width="2" stroke-miterlimit="10" stroke-linecap="round" stroke-linejoin="round"/>
<path d="M149.899 60.9999C149.899 60.9999 139.899 55.8999 125.299 59.9999C125.299 59.9999 124.699 78.2999 137.799 78.2999C150.399 78.2999 149.899 60.9999 149.899 60.9999Z" stroke="#272D3D" stroke-width="2" stroke-miterlimit="10" stroke-linecap="round" stroke-linejoin="round"/>
<path d="M116.8 60.1C116.8 60.1 120.2 58 125.3 60.1" stroke="#272D3D" stroke-width="2" stroke-miterlimit="10" stroke-linecap="round" stroke-linejoin="round"/>
<path d="M92.1996 61L87.0996 61.9" stroke="#272D3D" stroke-width="2" stroke-miterlimit="10" stroke-linecap="round" stroke-linejoin="round"/>
<path d="M149.899 61L154.499 62" stroke="#272D3D" stroke-width="2" stroke-miterlimit="10" stroke-linecap="round" stroke-linejoin="round"/>
<path d="M126.3 54V57.2999C126.3 57.5999 126.5 57.8 126.8 57.7C128.7 57.2 136 55.5 139.5 55.5C143.6 55.5 148.3 57.5999 148.3 57.5999C148.3 57.5999 145.7 51.7 138.9 51.7C132.9 51.7 127.8 53.1999 126.6 53.5999C126.4 53.6999 126.3 53.9 126.3 54Z" fill="#272D3D"/>
<path d="M115.3 53.7L115.2 56.8C115.2 57 115 57.2 114.7 57.2C112.8 56.9 105.5 55.9 101.8 56.2C97.4996 56.5 93.5996 58.2 93.5996 58.2C93.5996 58.2 95.7996 52 102.2 52.1C108.4 52.3 113.6 53.1 114.9 53.3C115.2 53.3 115.3 53.5 115.3 53.7Z" fill="#272D3D"/>
<path d="M133.6 89.5C133.6 89.5 136.1 91.5 138 95.2" stroke="#272D3D" stroke-miterlimit="10" stroke-linecap="round" stroke-linejoin="round"/>
<path d="M110.3 91.6C110.3 91.6 109 93.4 107.1 97.1" stroke="#272D3D" stroke-miterlimit="10" stroke-linecap="round" stroke-linejoin="round"/>
<path d="M110.3 8.79999C110.3 8.79999 100.6 15.1 102.4 23.2C102.4 23.2 106.8 16.5 122.7 12.4C122.7 12.4 121.5 13.8 120.2 17.7C120.2 17.7 126.2 15 131.3 16.1C131.3 16.1 126.7 19.7 125.9 22.2" stroke="white" stroke-miterlimit="10" stroke-linecap="round" stroke-linejoin="round"/>
<path d="M131.399 24.3C131.399 24.3 134.599 22.4 138.499 21.9C138.499 21.9 137.899 23.6 138.499 25.3C138.499 25.3 141.799 22.9 147.199 22.4" stroke="white" stroke-miterlimit="10" stroke-linecap="round" stroke-linejoin="round"/>
</svg>
