<svg width="16" height="16" viewBox="0 0 16 16" fill="none" xmlns="http://www.w3.org/2000/svg">
<g clip-path="url(#clip0)">
<path d="M7.99498 3.88623C7.18244 3.88623 6.38815 4.12718 5.71255 4.5786C5.03695 5.03002 4.51039 5.67164 4.19944 6.42232C3.8885 7.17301 3.80714 7.99904 3.96566 8.79597C4.12418 9.59289 4.51545 10.3249 5.09 10.8995C5.66455 11.474 6.39657 11.8653 7.19349 12.0238C7.99042 12.1823 8.81645 12.101 9.56714 11.79C10.3178 11.4791 10.9594 10.9525 11.4109 10.2769C11.8623 9.60131 12.1032 8.80702 12.1032 7.99449C12.1032 7.45498 11.997 6.92076 11.7905 6.42232C11.584 5.92389 11.2814 5.471 10.9 5.08951C10.5185 4.70802 10.0656 4.40541 9.56714 4.19895C9.0687 3.99249 8.53448 3.88623 7.99498 3.88623ZM7.99498 10.663C7.4672 10.663 6.95128 10.5065 6.51245 10.2132C6.07362 9.92002 5.7316 9.50326 5.52963 9.01566C5.32766 8.52807 5.27481 7.99152 5.37778 7.47389C5.48074 6.95626 5.73489 6.48078 6.10808 6.10759C6.48127 5.7344 6.95675 5.48025 7.47438 5.37729C7.99202 5.27432 8.52856 5.32717 9.01616 5.52914C9.50375 5.73111 9.92051 6.07313 10.2137 6.51196C10.5069 6.95079 10.6634 7.46671 10.6634 7.99449C10.6634 8.70221 10.3823 9.38094 9.88187 9.88138C9.38143 10.3818 8.7027 10.663 7.99498 10.663Z" fill="#272D3D"/>
<path d="M12.2647 4.69296C12.7938 4.69296 13.2227 4.26402 13.2227 3.73491C13.2227 3.20579 12.7938 2.77686 12.2647 2.77686C11.7356 2.77686 11.3066 3.20579 11.3066 3.73491C11.3066 4.26402 11.7356 4.69296 12.2647 4.69296Z" fill="#272D3D"/>
<path d="M15.5778 2.76049C15.3722 2.22949 15.058 1.74725 14.6554 1.34462C14.2527 0.94198 13.7705 0.627807 13.2395 0.422192C12.6176 0.188691 11.9605 0.0624066 11.2963 0.0487145C10.4411 0.0108254 10.1705 0 8 0C5.8295 0 5.55345 0 4.70365 0.0487145C4.03947 0.0624066 3.38242 0.188691 2.76049 0.422192C2.22949 0.627807 1.74725 0.94198 1.34462 1.34462C0.94198 1.74725 0.627807 2.22949 0.422192 2.76049C0.188691 3.38242 0.0624065 4.03947 0.0487145 4.70365C0.0108254 5.55886 0 5.8295 0 8C0 10.1705 0 10.4466 0.0487145 11.2963C0.0624065 11.9605 0.188691 12.6176 0.422192 13.2395C0.627807 13.7705 0.94198 14.2527 1.34462 14.6554C1.74725 15.058 2.22949 15.3722 2.76049 15.5778C3.38081 15.8206 4.0379 15.956 4.70365 15.9784C5.55886 16.0162 5.8295 16.0271 8 16.0271C10.1705 16.0271 10.4465 16.0271 11.2963 15.9784C11.9605 15.9647 12.6176 15.8384 13.2395 15.6049C13.7705 15.3993 14.2527 15.0851 14.6554 14.6824C15.058 14.2798 15.3722 13.7976 15.5778 13.2666C15.8113 12.6446 15.9376 11.9876 15.9513 11.3234C15.9892 10.4682 16 10.1976 16 8.02706C16 5.85656 16 5.58051 15.9513 4.73072C15.9407 4.05742 15.8143 3.39096 15.5778 2.76049ZM14.4953 11.2314C14.4906 11.7434 14.3972 12.2507 14.2192 12.7307C14.086 13.0764 13.8818 13.3904 13.6198 13.6523C13.3579 13.9143 13.0439 14.1185 12.6982 14.2517C12.2233 14.4279 11.7217 14.5212 11.2152 14.5277C10.3708 14.5656 10.1326 14.5765 7.96752 14.5765C5.80244 14.5765 5.58051 14.5765 4.71989 14.5277C4.21338 14.5212 3.71174 14.4279 3.23681 14.2517C2.88995 14.1194 2.5748 13.9156 2.31183 13.6536C2.04886 13.3915 1.84395 13.0771 1.71042 12.7307C1.53424 12.2558 1.44087 11.7541 1.43437 11.2476C1.39648 10.4032 1.38566 10.1651 1.38566 8C1.38566 5.83491 1.38566 5.61299 1.43437 4.75237C1.43901 4.24039 1.53241 3.7331 1.71042 3.25305C1.84395 2.90666 2.04886 2.59223 2.31183 2.3302C2.5748 2.06816 2.88995 1.86437 3.23681 1.73207C3.71174 1.55589 4.21338 1.46252 4.71989 1.45602C5.56428 1.41813 5.80244 1.40731 7.96752 1.40731C10.1326 1.40731 10.3545 1.40731 11.2152 1.45602C11.7217 1.46252 12.2233 1.55589 12.6982 1.73207C13.0439 1.8653 13.3579 2.06948 13.6198 2.33145C13.8818 2.59341 14.086 2.90736 14.2192 3.25305C14.3954 3.72798 14.4888 4.22962 14.4953 4.73613C14.5332 5.58051 14.544 5.81867 14.544 7.98376C14.544 10.1489 14.544 10.3816 14.5061 11.2314H14.4953Z" fill="#272D3D"/>
</g>
<defs>
<clipPath id="clip0">
<rect width="16" height="16" fill="white"/>
</clipPath>
</defs>
</svg>
