<svg width="160" height="90" viewBox="0 0 160 90" fill="none" xmlns="http://www.w3.org/2000/svg">
<path d="M1 1H159V89H1V1Z" stroke="#DCDDE0" stroke-linejoin="round"/>
<path fill-rule="evenodd" clip-rule="evenodd" d="M92.4254 49.4128C92.4254 49.726 91.6425 50.1957 91.4859 50.1957C90.3898 50.8221 88.824 51.2918 87.8845 50.3523C86.945 49.4128 87.2582 47.5338 88.1977 46.9075C88.6674 46.5943 89.4503 46.4377 90.0767 46.4377C90.703 46.4377 91.7991 46.2812 92.4254 46.2812V49.4128ZM85.2226 40.0178L85.6923 41.7402C86.4752 41.5836 86.7884 41.2705 87.8845 41.1139C88.6674 40.9573 89.6069 40.8007 90.5464 40.9573C91.4859 41.1139 91.9557 41.4271 92.2688 42.0534C92.4254 42.3666 92.582 42.8363 92.582 43.1495V44.5587C92.582 44.5587 89.9201 44.7153 89.4503 44.8719C86.7884 45.1851 84.1265 46.5943 84.5962 49.8826C84.9094 51.9182 86.0055 52.8577 88.0411 53.1708C89.1372 53.3274 89.9201 53.1708 90.8596 52.7011C91.3293 52.5445 91.6425 52.3879 91.9557 52.0747C92.4254 51.7616 92.7386 51.4484 92.8952 51.2918L93.2083 52.7011H95.4005C95.4005 52.2313 95.4005 47.0641 95.4005 46.4377C95.4005 45.3416 95.4005 44.4021 95.4005 43.3061C95.4005 42.21 95.4005 41.4271 94.7742 40.8007C93.3649 38.452 90.2332 38.6086 87.5713 39.2349C86.945 39.2349 85.5357 39.7046 85.2226 40.0178Z" fill="#ED1E24"/>
<path fill-rule="evenodd" clip-rule="evenodd" d="M118.105 49.5694C117.949 49.726 117.792 49.8826 117.479 50.0392C116.853 50.5089 116.07 50.8221 115.287 50.9787C112.938 51.2918 112.312 48.7865 113.095 47.5338C113.877 46.1246 116.383 46.2812 117.949 46.2812L118.105 49.5694ZM110.746 40.0178C110.746 40.331 111.059 41.4271 111.215 41.7402C111.685 41.5836 112.468 41.2705 113.408 41.1139C114.817 40.8007 117.009 40.6441 117.792 42.0534C118.105 42.6797 118.262 44.4021 118.105 44.5587C117.949 44.7153 116.853 44.7153 116.539 44.7153C114.974 44.8719 113.721 44.8719 112.468 45.6548C111.059 46.4377 109.963 47.6904 110.119 49.8826C110.433 51.9182 111.529 52.8577 113.564 53.1708C115.13 53.3274 116.226 53.0142 117.479 52.2313C117.949 51.9182 118.262 51.605 118.418 51.4484L118.732 52.8577H120.924V43.4626C120.924 42.3666 120.767 41.5836 120.297 40.8007C118.888 38.452 115.6 38.6086 113.095 39.2349C112.468 39.2349 111.215 39.7046 110.746 40.0178Z" fill="#ED1E24"/>
<path fill-rule="evenodd" clip-rule="evenodd" d="M101.195 52.701H104.639C104.796 52.701 104.953 52.0747 105.109 51.9181C105.266 51.6049 105.266 51.4483 105.422 51.1352C105.579 50.6654 105.892 50.0391 106.049 49.5693C106.832 47.3771 107.614 44.8718 108.084 42.6796C108.241 42.0533 108.867 39.3914 108.867 38.9216H106.362C105.735 38.9216 106.049 38.9216 105.892 40.0177C105.735 41.2704 105.422 42.3665 105.266 43.4626C105.109 44.2455 103.543 49.4127 103.387 49.7259L102.604 46.9074C102.291 45.9679 102.134 45.0284 101.821 44.2455L100.412 40.4875C100.255 40.0177 100.098 39.548 99.9419 39.0782H96.9668C96.9668 39.3914 99.0024 45.4981 99.159 45.9679C99.4721 47.064 99.9419 48.1601 100.255 49.4127C100.412 50.5088 100.881 51.6049 101.195 52.701Z" fill="#ED1E24"/>
<path fill-rule="evenodd" clip-rule="evenodd" d="M79.4292 38.7651V50.6655C79.4292 52.8577 78.6463 55.363 76.4541 56.1459C76.6107 56.4591 77.5502 57.3986 77.8634 57.7118C78.6463 57.5552 79.7424 56.9288 80.0555 56.4591C80.6819 55.8328 81.1516 55.363 81.6214 54.4235C82.5609 52.5445 82.4043 50.5089 82.4043 48.1602C82.4043 43.4626 82.4043 38.7651 82.4043 34.0676C82.0911 34.0676 80.0555 34.0676 79.4292 34.0676V38.7651Z" fill="#ED1E24"/>
<path fill-rule="evenodd" clip-rule="evenodd" d="M55.3148 40.8007L54.3753 39.3915C54.0622 38.9217 53.749 38.452 53.4358 37.9822C52.9661 37.0427 52.3398 35.9466 52.0266 34.8505C51.5568 32.8149 52.8095 31.4057 53.9056 30.153C54.0622 29.8399 54.3753 29.6833 54.5319 29.5267C55.7846 28.274 57.3504 26.7082 58.6031 25.4555C59.8558 24.2028 60.6387 22.7936 60.7953 20.758C60.9519 19.6619 60.6387 17.4698 59.8558 17C60.0123 18.5658 60.1689 19.6619 59.5426 21.3843C58.7597 23.2633 57.507 24.3594 56.0978 25.4555C55.0017 26.395 53.1227 27.9609 52.1832 28.9004C51.4003 29.5267 50.3042 30.6228 49.991 31.7189C49.3647 33.2847 49.991 34.3808 50.7739 35.4769C51.0871 35.9466 51.4003 36.4164 51.87 36.8861C52.3398 37.5125 52.6529 37.8256 52.9661 38.2954C53.2793 38.7651 53.749 39.2349 54.2188 39.548C54.2188 39.8612 55.0017 40.6441 55.3148 40.8007Z" fill="#ED1E24"/>
<path fill-rule="evenodd" clip-rule="evenodd" d="M69.0945 54.5801C69.5642 55.363 69.0945 55.6761 68.4682 55.9893C65.6497 57.242 56.4112 57.5551 53.4361 57.5551C50.461 57.5551 47.4859 57.5552 44.5109 56.9288C44.0411 56.7722 42.0055 56.4591 41.8489 55.9893C41.8489 55.6761 42.1621 55.363 42.3187 55.2064C42.945 54.7366 44.1977 54.5801 44.9806 54.4235C45.2938 54.4235 45.7635 54.2669 45.9201 54.2669C44.5109 54.1103 40.1265 54.7366 39.187 56.1459C38.5607 57.0854 39.6568 57.3986 40.2831 57.7117C42.7884 58.4947 48.1123 58.6512 50.9308 58.8078C55.1585 58.8078 65.1799 58.8078 68.7813 56.3025C68.9379 56.1459 69.4077 55.8327 69.4077 55.5196C69.7208 55.0498 69.2511 54.7366 69.0945 54.5801Z" fill="#3C8ACE"/>
<path fill-rule="evenodd" clip-rule="evenodd" d="M57.0379 42.5232C57.5076 42.3667 58.7603 41.2706 59.0734 40.9574C59.5432 40.4877 60.3261 39.5482 60.3261 38.6087C60.3261 37.6692 59.6998 36.4165 59.3866 35.7902C58.1339 33.9111 57.1944 32.8151 58.7603 30.7795C59.5432 29.9966 60.1695 29.5268 60.7959 28.9005C61.5788 28.1176 62.988 27.1781 64.0841 26.5517L65.1802 25.7688C64.5539 25.9254 62.988 26.5517 62.3617 26.7083C61.5788 27.0215 60.4827 27.4912 59.8564 27.961C57.1944 29.5268 54.8457 31.8756 55.7852 35.0072C56.4115 37.1994 58.4471 38.4521 58.2905 40.0179C58.2905 41.114 57.351 42.0535 57.0379 42.5232Z" fill="#ED1E24"/>
<path fill-rule="evenodd" clip-rule="evenodd" d="M62.3613 53.0142C61.5784 52.701 60.9521 52.3879 60.3257 51.9181C59.856 51.6049 60.0126 51.7615 59.5428 51.7615C57.5072 52.2313 54.0624 52.2313 51.7136 52.2313C51.0873 52.2313 49.5215 52.2313 49.2083 51.6049C49.0517 51.2918 49.2083 50.9786 49.3649 50.822C47.9556 51.1352 46.3898 52.3879 48.4254 53.3274C50.7741 54.4234 55.4716 54.4234 57.977 53.9537C58.7599 54.1103 62.0481 53.3274 62.3613 53.0142Z" fill="#3C8ACE"/>
<path fill-rule="evenodd" clip-rule="evenodd" d="M62.9877 48.3168C62.3614 48.1603 61.8916 47.8471 61.4219 47.5339C61.1087 47.2208 61.2653 47.3773 60.4824 47.3773C57.9771 47.8471 50.6176 48.4734 48.4255 47.6905C48.1123 47.5339 47.7991 47.3773 47.7991 47.0642C47.7991 46.751 48.1123 46.4378 48.2689 46.2812C46.5464 46.4378 44.9806 48.1603 47.1728 48.9432C49.6781 49.8827 55.3151 49.8827 57.9771 49.5695C59.0731 49.2563 62.3614 48.63 62.9877 48.3168Z" fill="#3C8ACE"/>
<path fill-rule="evenodd" clip-rule="evenodd" d="M64.7097 42.6798C64.3965 42.6798 63.9267 42.8363 63.6136 42.8363C63.3004 42.8363 62.8307 42.9929 62.5175 42.9929C60.1687 43.3061 57.6634 43.6193 55.4712 43.7758C53.7488 43.9324 47.0157 44.089 45.9196 43.1495C45.9196 42.6798 46.3894 42.5232 46.546 42.3666C47.642 41.7403 48.8947 41.5837 49.9908 41.1139C48.425 40.9573 44.5104 42.0534 43.1011 42.9929C41.5353 43.9324 44.1972 44.4022 45.1367 44.4022C50.7737 45.1851 56.0976 44.7153 61.578 43.9324C62.5175 43.7758 62.6741 43.9324 63.3004 43.4627C63.7702 43.3061 64.3965 42.9929 64.7097 42.6798Z" fill="#3C8ACE"/>
<path fill-rule="evenodd" clip-rule="evenodd" d="M45.2939 59.5907C46.8598 60.2171 50.3046 60.6868 52.027 60.8434C54.5324 61 57.1943 61 59.6996 60.8434C62.9879 60.6868 66.7459 60.2171 69.5644 58.8078C70.1907 58.4946 71.4434 57.7117 71.6 56.7722C71.4434 56.9288 71.2868 57.0854 70.9737 57.242C65.963 60.6868 54.5324 60.3736 48.5822 59.9039L45.2939 59.5907Z" fill="#3C8ACE"/>
<path fill-rule="evenodd" clip-rule="evenodd" d="M65.8064 41.427C67.059 41.1139 68.4683 41.2704 69.2512 42.0534C70.0341 42.8363 70.0341 44.2455 69.5644 45.3416C68.7814 46.7509 67.059 48.1601 65.6498 48.943C65.3366 49.0996 65.18 49.2562 65.0234 49.4128C65.9629 49.2562 68.1551 48.3167 68.938 47.8469C70.0341 47.2206 71.1302 46.2811 71.6 45.0284C72.2263 43.306 71.2868 41.8968 70.1907 41.2704C69.5644 40.9573 68.7814 40.6441 67.9985 40.8007C67.2156 40.6441 66.1195 40.9573 65.8064 41.427Z" fill="#3C8ACE"/>
</svg>
