<svg width="160" height="90" viewBox="0 0 160 90" fill="none" xmlns="http://www.w3.org/2000/svg">
<path d="M1 1H159V89H1V1Z" stroke="#DCDDE0" stroke-linejoin="round"/>
<path d="M50.7937 42.4198C50.7937 48.7598 45.769 53.8994 39.5706 53.8994C33.3723 53.8994 28.3477 48.7598 28.3477 42.4198C28.3477 36.0798 33.3723 30.9402 39.5706 30.9402C45.769 30.9402 50.7937 36.0799 50.7937 42.4199" fill="#D33833"/>
<path d="M28.8057 45.263C28.8057 45.263 27.9933 33.2915 39.024 32.9496L38.2545 31.667L32.269 33.6763L30.5587 35.6432L29.0622 38.5078L28.207 41.8427L28.4636 44.0658" fill="#EF3D3A"/>
<path d="M31.8849 34.5888C29.9158 36.6035 28.6972 39.3853 28.6972 42.4629C28.6972 45.5395 29.9158 48.3217 31.8849 50.3362C33.855 52.3505 36.57 53.5936 39.5716 53.5936C42.5733 53.5936 45.2885 52.3506 47.2585 50.3362C49.2274 48.3218 50.4462 45.5397 50.4462 42.4629C50.4462 39.3853 49.2273 36.6035 47.2585 34.5888C45.2885 32.5748 42.5734 31.3319 39.5716 31.3316C36.57 31.3318 33.855 32.5748 31.8849 34.5888ZM31.3866 50.8234C29.2938 48.6833 28 45.7256 28 42.4629C28 39.1996 29.2938 36.2421 31.3864 34.1018C33.4786 31.9609 36.3747 30.6341 39.5715 30.6345C42.7683 30.6341 45.6647 31.9609 47.7565 34.1018C49.8495 36.2421 51.1435 39.1999 51.1431 42.4629C51.1434 45.7255 49.8495 48.6832 47.7565 50.8234C45.6647 52.9641 42.7683 54.2909 39.5715 54.2909C36.3748 54.2909 33.4786 52.9641 31.3866 50.8234Z" fill="#231F20"/>
<path d="M44.2952 42.4836L42.5849 42.7401L40.2762 42.9967L38.7798 43.0394L37.3261 42.9967L36.2145 42.6546L35.2312 41.5858L34.4616 39.4053L34.2905 38.9349L33.2644 38.593L32.6659 37.6096L32.2383 36.1987L32.7086 34.9587L33.8202 34.5739L34.7181 35.0016L35.1456 35.9421L35.6586 35.8566L35.8297 35.6429L35.6586 34.6595L35.6159 33.4195L35.8725 31.7094L35.8625 30.7326L36.6421 29.4863L38.0102 28.5029L40.4044 27.4768L43.0553 27.8616L45.3641 29.529L46.4329 31.2393L47.1171 32.4791L47.288 35.5574L46.775 38.2083L45.8344 40.5598L44.9366 41.7997" fill="#F0D6B7"/>
<path d="M42.842 49.8801L36.7281 50.1366V51.1627L37.2412 54.7541L36.9846 55.0534L32.7091 53.5997L32.4099 53.0867L31.9823 48.2554L30.999 45.348L30.7852 44.664L34.2056 42.3127L35.2744 41.885L36.215 43.0394L37.0274 43.7663L37.9679 44.0655L38.3955 44.1938L38.9086 46.417L39.2934 46.8873L40.2767 46.5453L39.5927 47.8707L43.3124 49.6236L42.842 49.8802" fill="#335061"/>
<path d="M32.7081 34.9586L33.8198 34.5738L34.7176 35.0014L35.1451 35.942L35.6581 35.8564L35.7864 35.3433L35.5299 34.3601L35.7864 32.0085L35.5726 30.7258L36.3422 29.828L38.0096 28.5026L37.5394 27.8613L35.1878 29.0157L34.2045 29.7853L33.6487 30.9824L32.7936 32.1367L32.5371 33.505L32.7081 34.9586Z" fill="#6D6B6D"/>
<path d="M34.4611 30.9397C34.4611 30.9397 35.1024 29.3579 37.6677 28.5883C40.233 27.8187 37.7959 28.0324 37.7959 28.0324L35.0168 29.1015L33.948 30.1702L33.4776 31.0253L34.4611 30.9397ZM33.1784 34.6594C33.1784 34.6594 32.2806 31.6665 35.7008 31.239L35.5726 30.7259L33.2211 31.2819L32.5371 33.505L32.7081 34.9586L33.1784 34.6594Z" fill="#DCD9D8"/>
<path d="M34.5468 38.6355L35.1066 38.0931C35.1066 38.0931 35.3592 38.1225 35.4019 38.4217C35.4446 38.7211 35.5729 41.4146 37.4115 42.8683C37.579 43.001 36.0432 42.6544 36.0432 42.6544L34.675 40.5169L34.5468 38.6355ZM42.414 37.8232C42.414 37.8232 42.5137 36.5273 42.8628 36.6269C43.2118 36.7265 43.2118 37.0756 43.2118 37.0756C43.2118 37.0756 42.3641 37.6239 42.414 37.8232ZM45.9625 33.0775C45.9625 33.0775 45.2576 33.2263 45.1929 33.8471C45.128 34.468 45.9625 33.9753 46.0908 33.9324L45.9625 33.0775ZM40.7891 33.1203C40.7891 33.1203 39.8486 33.2485 39.8486 33.8471C39.8486 34.4455 40.9174 34.4029 41.2168 34.1464L40.7891 33.1203ZM34.9744 35.8993C34.9744 35.8993 33.3497 34.9159 33.1787 35.8564C33.0076 36.7971 32.6228 37.4811 33.4353 38.4646L32.8793 38.2934L32.3663 36.9681L32.1953 35.6854L33.1787 34.6592L34.2902 34.7448L34.9316 35.2579L34.9744 35.8992V35.8993ZM35.744 33.2057C35.744 33.2057 36.4707 29.4432 40.1477 28.7165C43.175 28.1182 44.7651 28.8447 45.3639 29.5288C45.3639 29.5288 42.6703 26.3222 40.105 27.3056C37.5397 28.2888 35.6584 30.0845 35.7011 31.2389C35.774 33.2049 35.744 33.2057 35.744 33.2057ZM45.6632 29.9562C45.6632 29.9562 44.4234 29.9135 44.3805 31.0252C44.3805 31.0252 44.3804 31.1962 44.4661 31.3671C44.4661 31.3671 45.4496 30.2555 46.048 30.8541" fill="#F7E4CD"/>
<path d="M40.2335 31.483C40.2335 31.483 40.0201 29.7767 38.5655 30.7687C37.6247 31.4101 37.7103 32.3079 37.8812 32.4789C38.0524 32.65 38.0058 32.9944 38.136 32.758C38.266 32.5215 38.2233 31.752 38.6937 31.5383C39.1639 31.3245 39.9349 31.0857 40.2335 31.483Z" fill="#F7E4CD"/>
<path d="M36.213 43.0392L32.1941 44.8349C32.1941 44.8349 33.8615 51.462 33.0064 53.5142L32.408 53.3006L32.3651 50.778L31.2536 45.9895L30.7832 44.664L34.9732 41.8423L36.213 43.0392ZM36.6263 46.7047L37.1964 47.4002V49.9655H36.5124C36.5124 49.9655 36.4268 48.1698 36.4268 47.9561C36.4268 47.7423 36.5124 46.9727 36.5124 46.9727L36.6263 46.7047ZM36.6407 50.3505L34.7167 50.4359L35.2725 50.8207L36.6407 51.0344" fill="#49728B"/>
<path d="M43.2266 49.9229L44.8086 49.8801L45.1934 53.8135L43.5687 54.0273L43.2266 49.9229Z" fill="#335061"/>
<path d="M43.6543 49.923L46.0484 49.7947C46.0484 49.7947 47.0319 47.3149 47.0319 47.1867C47.0319 47.0584 47.887 43.5952 47.887 43.5952L45.9631 41.5859L45.5783 41.2439L44.5521 42.27V46.2462L43.6543 49.923Z" fill="#335061"/>
<path d="M44.7211 49.6236L43.2246 49.9229L43.4385 51.1202C43.9942 51.3767 44.9349 50.6925 44.9349 50.6925L44.7211 49.6236ZM44.7639 42.1417L47.7568 44.365L47.8422 43.3389L45.5764 41.2439L44.7639 42.1417Z" fill="#49728B"/>
<path d="M38.1248 58.3461L37.2396 54.754L36.7994 52.1037L36.7266 50.1365L40.7328 49.9233L43.2253 49.9229L42.9988 54.4125L43.3836 57.8756L43.3407 58.5169L40.0915 58.7735L38.1248 58.3461Z" fill="white"/>
<path d="M42.67 49.8801C42.67 49.8801 42.4562 54.3265 43.0975 57.4904C43.0975 57.4904 41.8149 58.3029 39.9336 58.5166L43.5251 58.3883L43.9527 58.1318L43.4396 51.1201L43.3114 49.6235" fill="#DCD9D8"/>
<path d="M45.2662 53.4719L46.9337 53.0015L50.0975 52.8305L50.5679 51.3767L49.7127 48.8543L48.7295 48.7261L47.3613 49.1536L46.0486 49.7945L45.3517 49.6666L44.8086 49.8799" fill="white"/>
<path d="M45.2363 52.6165C45.2363 52.6165 46.3478 52.1035 46.519 52.1463L46.0486 49.7947L46.6044 49.5811C46.6044 49.5811 46.9892 51.8042 46.9892 52.0608C46.9892 52.0608 49.3835 52.189 49.5973 52.189C49.5973 52.189 50.1104 51.2057 49.9821 50.1796L50.4524 51.5477L50.4952 52.3173L49.8111 53.3434L49.0415 53.5144L47.7588 53.4717L47.3312 52.9159L45.835 53.1296L45.3646 53.3007" fill="#DCD9D8"/>
<path d="M43.5548 49.5814L42.6143 47.1873L41.6309 45.7764C41.6309 45.7764 41.8446 45.1777 42.1439 45.1777H43.1273L44.0679 45.5198L43.9825 47.1017L43.5548 49.5814Z" fill="white"/>
<path d="M43.7391 48.7685C43.7391 48.7685 42.542 46.4599 42.542 46.1179C42.542 46.1179 42.7558 45.6048 43.0551 45.7331C43.3543 45.8613 43.9956 46.2032 43.9956 46.2032V45.391L42.542 45.0916L41.5586 45.2198L43.226 49.1533L43.5681 49.1962" fill="#DCD9D8"/>
<path d="M38.509 43.1254L37.3246 42.9966L36.2129 42.6545V43.0393L36.7561 43.6384L38.4663 44.408" fill="white"/>
<path d="M36.599 43.2534C36.599 43.2534 37.9243 43.8093 38.352 43.681L38.3944 44.1935L37.1975 43.9375L36.4707 43.4245L36.599 43.2534Z" fill="#DCD9D8"/>
<path d="M45.2606 45.323C44.5351 45.3017 43.8797 45.2155 43.3058 45.0537C43.3448 44.8184 43.2717 44.5875 43.3304 44.418C43.4903 44.3028 43.7585 44.3046 44.0002 44.2776C43.7911 44.1748 43.4975 44.1343 43.2562 44.1935C43.2504 44.0302 43.1771 43.9291 43.1328 43.8013C43.5407 43.6556 44.5036 42.7013 45.0453 43.0174C45.3033 43.1677 45.413 44.0262 45.433 44.4437C45.4498 44.7902 45.4017 45.1396 45.2607 45.323" fill="#D33833"/>
<path d="M45.2606 45.323C44.5351 45.3017 43.8797 45.2155 43.3058 45.0537C43.3448 44.8184 43.2717 44.5875 43.3304 44.418C43.4903 44.3028 43.7585 44.3046 44.0002 44.2776C43.7911 44.1748 43.4975 44.1343 43.2562 44.1935C43.2504 44.0302 43.1771 43.9291 43.1328 43.8013C43.5407 43.6556 44.5036 42.7013 45.0453 43.0174C45.3033 43.1677 45.413 44.0262 45.433 44.4437C45.4498 44.7902 45.4017 45.1396 45.2607 45.323H45.2606Z" stroke="#D33833" stroke-width="6.14065"/>
<path d="M41.7928 44.1371C41.7908 44.192 41.7885 44.2473 41.7863 44.3027C41.5598 44.4515 41.1942 44.4496 40.9455 44.5747C41.312 44.5907 41.6005 44.679 41.85 44.8034L41.8339 45.2182C41.4188 45.5024 41.0395 45.9257 40.5507 46.1923C40.3195 46.3184 39.5082 46.6427 39.2624 46.5854C39.1233 46.553 39.1107 46.3805 39.0551 46.2176C38.9366 45.8692 38.6637 45.3146 38.6398 44.7898C38.6097 44.1272 38.5427 43.0169 39.2567 43.1533C39.8328 43.2631 40.5029 43.5286 40.9489 43.7723C41.2215 43.9211 41.3792 44.1053 41.7928 44.1371Z" fill="#D33833"/>
<path d="M41.7928 44.1371C41.7908 44.192 41.7885 44.2473 41.7863 44.3027C41.5598 44.4515 41.1942 44.4496 40.9455 44.5747C41.312 44.5907 41.6005 44.679 41.85 44.8034L41.8339 45.2182C41.4188 45.5024 41.0395 45.9257 40.5507 46.1923C40.3195 46.3184 39.5082 46.6427 39.2624 46.5854C39.1233 46.553 39.1107 46.3805 39.0551 46.2176C38.9366 45.8692 38.6637 45.3146 38.6398 44.7898C38.6097 44.1272 38.5427 43.0169 39.2567 43.1533C39.8328 43.2631 40.5029 43.5286 40.9489 43.7723C41.2215 43.9211 41.3792 44.1053 41.7928 44.1371V44.1371Z" stroke="#D33833" stroke-width="6.14065"/>
<path d="M42.2046 44.9278C42.141 44.567 42.0678 44.4639 42.0961 44.1489C43.0589 43.5072 43.2396 45.2515 42.2045 44.9278" fill="#D33833"/>
<path d="M42.2046 44.9278C42.141 44.567 42.0678 44.4639 42.0961 44.1489C43.0589 43.5072 43.2396 45.2515 42.2045 44.9278H42.2046Z" stroke="#D33833" stroke-width="6.14065"/>
<path d="M43.5988 45.2203C43.5988 45.2203 43.2995 44.7927 43.5134 44.6645C43.7271 44.5362 43.941 44.6646 44.0693 44.4507C44.1976 44.2371 44.0693 44.1088 44.112 43.8523C44.1549 43.5958 44.3688 43.5529 44.5823 43.5102C44.7961 43.4675 45.3948 43.3819 45.4802 43.5958L45.2237 42.8262L44.7106 42.655L43.0859 43.5958L43.0005 44.0659V45.0067L43.5988 45.2203ZM39.1096 46.6312C39.0581 45.9641 39.0039 45.2977 38.9433 44.6311C38.8529 43.6358 39.1824 43.8094 40.0453 43.8094C40.177 43.8094 40.8566 43.9666 40.9053 44.0659C41.1385 44.5423 40.5153 44.4364 41.174 44.7955C41.7297 45.0986 42.7119 44.6115 42.4873 43.9377C42.3616 43.7879 41.8324 43.891 41.6427 43.7928L40.6407 43.2733C40.2157 43.0527 39.2336 42.7315 38.7804 43.0395C37.6325 43.8204 38.8529 45.771 39.2624 46.5855" fill="#EF3D3A"/>
<path d="M40.2332 31.4831C39.0679 31.2117 38.4889 31.9708 38.1357 32.758C37.8203 32.6816 37.9459 32.2527 38.0255 32.0341C38.2341 31.4605 39.0747 30.697 39.7615 30.8005C40.057 30.845 40.457 31.1152 40.2332 31.4831ZM45.9111 32.8102L45.9664 32.8122C46.2297 33.3593 46.4576 33.9389 46.7896 34.4218C46.5673 34.9401 45.1047 35.3988 45.1271 34.4681C45.4434 34.3298 45.9894 34.4398 46.2698 34.2633C46.1078 33.8183 45.8738 33.4395 45.9111 32.8102ZM40.8299 32.8243C41.0797 33.2824 41.1611 33.7636 41.5162 34.1098C41.6762 34.2657 41.9872 34.4557 41.833 34.8891C41.797 34.9913 41.5337 35.2192 41.3815 35.2639C40.8263 35.4278 39.5324 35.2978 39.9706 34.6055C40.43 34.6269 41.047 34.9037 41.3902 34.5705C41.1268 34.149 40.657 33.3155 40.8299 32.8243ZM45.7026 37.4796C44.8666 38.0168 43.9344 38.6006 42.5645 38.4652C42.2718 38.2107 42.1602 37.6444 42.4446 37.2704C42.5926 37.5249 42.4996 37.9929 42.912 38.0634C43.6893 38.1964 44.5941 37.5879 45.1533 37.375C45.4998 36.7906 45.1232 36.5756 44.811 36.1994C44.1717 35.4286 43.3139 34.4733 43.345 33.3194C43.6035 33.1321 43.6257 33.6055 43.6629 33.6917C43.9968 34.473 44.8369 35.4724 45.4502 36.1411C45.6008 36.3058 45.8487 36.4639 45.8763 36.5727C45.9558 36.8896 45.6694 37.2689 45.7027 37.4796H45.7026ZM34.6811 36.9142C34.4191 36.7646 34.3566 36.1058 34.049 36.0872C33.6095 36.0604 33.6896 36.9416 33.6913 37.457C33.3888 37.1824 33.3355 36.3364 33.5578 35.9021C33.3043 35.7777 33.1912 36.0394 33.0508 36.1315C33.2314 34.8194 34.9702 35.523 34.6812 36.9142H34.6811ZM46.2349 38.026C45.8458 38.7668 45.2953 39.5825 44.1533 39.6062C44.1301 39.367 44.1123 39.003 44.1546 38.8588C45.0276 38.7751 45.5665 38.3308 46.2349 38.026ZM40.7641 38.5062C41.4923 38.8894 42.8309 38.9304 43.8209 38.9014C43.8739 39.1183 43.8727 39.3862 43.8747 39.6508C42.6022 39.7142 41.0977 39.3994 40.7641 38.5062ZM40.6256 39.2204C41.1293 40.485 42.8603 40.3394 44.3201 40.3045C44.2558 40.4687 44.1165 40.6626 43.9434 40.7328C43.4755 40.9231 42.1854 41.0675 41.5358 40.7225C41.1239 40.5037 40.8595 40.009 40.6338 39.719C40.5249 39.5789 39.9822 39.2211 40.6256 39.2203" fill="#231F20"/>
<path d="M45.6429 46.1957C45.0519 47.208 44.4865 48.2477 43.7852 49.1407C44.0791 48.2762 44.2049 46.8295 44.2494 45.7265C44.8644 45.4388 45.391 45.7914 45.6429 46.1957Z" fill="#81B0C4"/>
<path d="M48.823 49.834C48.1612 49.9665 47.6963 50.6096 47.0508 50.5683C47.4055 50.0681 48.0272 49.8573 48.823 49.834ZM49.1149 50.8695C48.5756 50.9267 47.9421 51.0139 47.395 50.9689C47.6539 50.5733 48.6517 50.7098 49.1149 50.8695ZM49.3018 51.7625C48.6956 51.7756 47.9422 51.7635 47.3662 51.7153C47.7069 51.3491 48.9087 51.5793 49.3018 51.7625Z" fill="#231F20"/>
<path d="M44.5008 54.2058C44.5876 54.967 44.8893 55.7384 44.8517 56.5721C44.5166 56.685 44.324 56.784 43.8748 56.7834C43.8431 56.0748 43.7483 54.9916 43.7767 54.3162C43.9977 54.3308 44.3233 54.1584 44.5008 54.2058Z" fill="#DCD9D8"/>
<path d="M43.5236 42.9862C43.2192 43.1848 42.96 43.4331 42.6677 43.6452C42.0194 43.6773 41.6657 43.6003 41.1895 43.228C41.1973 43.1983 41.2451 43.2116 41.2469 43.1749C41.9408 43.484 42.8229 43.0487 43.5236 42.9861" fill="#F0D6B7"/>
<path d="M39.8828 47.7163C40.0735 46.8903 40.8205 46.4624 41.4988 46.0073C42.1991 46.8959 42.6249 48.0388 43.0938 49.1416C41.9858 48.8076 40.8538 48.2657 39.8828 47.7163Z" fill="#81B0C4"/>
<path d="M43.7787 54.3162C43.7503 54.9917 43.8451 56.0749 43.8768 56.7835C44.326 56.7841 44.5184 56.6853 44.8536 56.5721C44.8915 55.7384 44.5896 54.9671 44.5027 54.2058C44.3252 54.1585 43.9996 54.3309 43.7787 54.3162ZM36.7865 50.4749C37.0827 53.197 37.5115 55.4853 38.298 57.8958C40.044 58.4259 42.1486 58.4721 43.6918 57.9938C43.4085 56.6333 43.5322 54.9769 43.3667 53.525C43.2418 52.4337 43.3055 51.3358 43.1344 50.2224C41.2645 49.8335 38.6215 50.1316 36.7865 50.4749ZM43.5763 50.2398C43.5606 51.4087 43.6286 52.5619 43.7179 53.7325C44.1669 53.6652 44.4716 53.6201 44.8885 53.5287C44.7532 52.4018 44.7698 51.1337 44.4939 50.1369C44.1752 50.1398 43.8943 50.1332 43.5764 50.2398H43.5763ZM45.8538 50.0512C45.6406 50.0024 45.3926 50.0492 45.1891 50.0532C45.2848 51.0063 45.5169 52.0581 45.5986 53.0583C45.9189 53.0683 46.09 52.9172 46.3535 52.8664C46.3675 51.9883 46.2765 50.7785 45.8538 50.0512ZM49.302 53.2018C49.9696 53.0397 50.3893 52.222 50.2026 51.3822C50.0774 50.8178 49.8542 49.7551 49.6153 49.3941C49.4388 49.1273 48.9603 48.7776 48.5782 49.0221C47.9566 49.4202 46.8615 49.5357 46.4084 50.0174C46.6357 50.7742 46.7062 51.8136 46.8 52.7725C47.5764 52.8211 48.5317 52.5589 49.1776 52.8372C48.7267 52.9831 48.1417 52.9842 47.7523 53.197C48.0707 53.3508 48.816 53.3198 49.302 53.2018ZM43.0936 49.1416C42.6247 48.0389 42.1988 46.896 41.4986 46.0074C40.8203 46.4624 40.0733 46.8902 39.8826 47.7164C40.8536 48.2657 41.9856 48.8076 43.0936 49.1416ZM44.2495 45.7267C44.2051 46.8296 44.0793 48.2763 43.7853 49.1406C44.4866 48.2479 45.0521 47.2081 45.6431 46.1959C45.3912 45.7914 44.8646 45.4388 44.2495 45.7266V45.7267ZM42.9392 45.2611C42.6735 45.2323 42.4481 45.5664 42.1025 45.422C42.0235 45.5095 41.9516 45.6043 41.8709 45.6898C42.6338 46.6092 42.9804 47.9136 43.5697 48.9942C43.8859 47.9563 43.8495 46.8192 43.9191 45.6864C43.4847 45.7138 43.2436 45.2934 42.9392 45.2611ZM42.0967 44.149C42.0682 44.4639 42.1415 44.567 42.205 44.9279C43.24 45.2514 43.0593 43.5071 42.0967 44.1491V44.149ZM40.9487 43.7722C40.5028 43.5285 39.8326 43.2629 39.2566 43.1531C38.5425 43.0164 38.6095 44.1272 38.6398 44.7897C38.6636 45.3144 38.9363 45.8691 39.0549 46.2175C39.1107 46.3803 39.1231 46.5529 39.2622 46.5853C39.5081 46.6425 40.3192 46.3182 40.5505 46.1921C41.0393 45.9256 41.4186 45.5023 41.8338 45.2181C41.8392 45.0798 41.8444 44.9415 41.85 44.8032C41.6003 44.6791 41.3119 44.5906 40.9455 44.5746C41.194 44.4494 41.5597 44.4513 41.7863 44.3025C41.7883 44.2471 41.7907 44.192 41.7926 44.137C41.379 44.1054 41.2214 43.9212 40.9487 43.7722ZM36.6887 42.9982C36.3185 43.374 37.7269 43.8862 38.1755 43.9139C38.1729 43.6759 38.3109 43.4519 38.2832 43.2813C37.7505 43.1878 37.0505 43.2495 36.6886 42.9982H36.6887ZM41.2488 43.1747C41.2469 43.2114 41.1991 43.1981 41.1913 43.228C41.6675 43.6002 42.0213 43.6772 42.6695 43.645C42.9619 43.4329 43.2211 43.1848 43.5254 42.9861C42.8247 43.0487 41.9426 43.4839 41.2488 43.1747ZM45.4343 44.444C45.4143 44.0263 45.3046 43.1679 45.0465 43.0177C44.5048 42.7013 43.542 43.6559 43.1342 43.8016C43.1785 43.9293 43.2518 44.0304 43.2573 44.1938C43.4986 44.1345 43.7924 44.175 44.0014 44.2779C43.7598 44.3049 43.4916 44.3032 43.3317 44.4182C43.273 44.5876 43.3461 44.8185 43.3071 45.0539C43.8809 45.2158 44.5363 45.302 45.2618 45.3233C45.4028 45.1396 45.4509 44.7902 45.4342 44.4439L45.4343 44.444ZM36.0656 43.3617C35.9494 43.2788 35.163 42.2557 35.0554 42.2982C33.6325 42.8593 32.302 43.8297 31.1129 44.7474C32.2466 47.1798 32.7042 50.1598 32.785 53.032C34.0835 53.6395 35.2242 54.5151 36.9863 54.6064C36.7823 53.1637 36.5961 51.8765 36.4804 50.5183C36.0377 50.3315 35.4025 50.5267 34.9882 50.4603C34.9848 49.9611 35.6211 50.2415 35.674 49.9059C35.7139 49.6519 35.3238 49.6327 35.4508 49.2327C35.7749 49.3505 35.9449 49.6105 36.2903 49.7083C36.606 49.0177 36.286 47.7958 36.3313 47.2186C36.34 47.1102 36.3855 46.6183 36.6282 46.7045C36.8431 46.7808 36.616 48.0131 36.6395 48.5594C36.6609 49.0627 36.5786 49.5496 36.7825 49.8657C38.4854 49.6338 40.2156 49.4839 42.058 49.4335C41.6527 49.2595 41.1712 49.095 40.6433 48.7975C40.357 48.6362 39.4548 48.3004 39.3722 48.0286C39.2406 47.5955 39.7179 47.3647 39.7996 46.9934C38.9401 47.4623 38.7724 46.5441 38.5691 45.8938C38.3849 45.3047 38.2799 44.8646 38.2348 44.5248C37.4944 44.1718 36.7028 43.8144 36.0656 43.3617ZM44.6823 42.4219C45.8678 41.8471 46.0815 44.5705 45.6167 45.4478C45.6886 45.7095 45.9357 45.8096 46.0364 46.0449C45.3749 47.2301 44.6401 48.3364 43.965 49.5075C44.4672 49.1949 45.1844 49.4516 45.7754 49.2178C45.9914 49.1323 46.1477 48.6379 46.3112 48.2423C46.7611 47.1539 47.2332 45.7819 47.4434 44.7433C47.4908 44.5068 47.6201 43.9911 47.5912 43.7805C47.5395 43.4034 47.0279 43.1238 46.7676 42.8906C46.2881 42.4599 45.9862 42.081 45.486 41.6783C45.2834 41.9774 44.8481 42.1785 44.6823 42.4219ZM33.3542 31.9084C32.7891 32.5299 32.9074 33.6947 32.9758 34.5233C33.997 33.8807 35.3522 34.5739 35.3394 35.6666C35.8269 35.6536 35.5215 35.0576 35.4334 34.6737C35.1453 33.4198 35.9189 32.0575 35.4685 30.9109C34.5939 30.9772 33.8754 31.3344 33.3542 31.9084ZM37.3962 28.3009C36.1175 28.6634 34.4784 29.5926 33.9529 30.7415C34.3599 30.6823 34.6423 30.4771 35.0437 30.4518C35.1955 30.4419 35.3942 30.5153 35.5685 30.472C35.916 30.3858 36.2091 29.6068 36.4713 29.3169C36.7268 29.0338 37.034 28.9128 37.2443 28.6547C37.3792 28.5896 37.5789 28.5942 37.5866 28.3913C37.528 28.3287 37.4663 28.281 37.3962 28.3009ZM44.0536 28.6418C42.7262 27.8931 40.4793 27.3297 39.0674 28.0334C37.9281 28.6017 36.388 29.5415 35.8628 30.7325C36.3533 31.8821 35.7175 32.9352 35.677 34.1021C35.6554 34.7229 35.9693 35.265 35.9933 35.9409C35.8254 36.2179 35.3127 36.252 34.9577 36.233C34.8382 35.6351 34.6291 34.963 34.0132 34.8955C33.142 34.8001 32.5051 35.5213 32.4654 36.2749C32.4185 37.161 33.146 38.6298 34.1771 38.5279C34.5752 38.4885 34.6733 38.0892 35.1072 38.0934C35.3424 38.5627 34.7443 38.71 34.6828 39.0457C34.6668 39.1324 34.7324 39.4713 34.7705 39.6303C34.9578 40.404 35.3753 41.4054 35.7863 41.9946C36.3077 42.7421 37.3326 42.8545 38.4351 42.9278C38.6319 42.5036 39.3572 42.5386 39.8299 42.6496C39.2635 42.4252 38.7369 41.8814 38.3004 41.4C37.7992 40.8478 37.2915 40.2553 37.2658 39.5334C38.2131 40.8475 38.9958 41.9955 40.7183 42.5734C42.0218 43.0106 43.544 42.3731 44.5453 41.6698C44.9608 41.3774 45.209 40.9136 45.5043 40.4891C46.6094 38.8993 47.1252 36.6299 47.0119 34.4306C46.9653 33.5234 46.9672 32.6195 46.663 32.0093C46.3449 31.3711 45.269 30.8002 44.6392 31.3774C44.5225 30.7569 45.1629 30.373 45.9151 30.5965C45.3789 29.9038 44.816 29.0721 44.0536 28.6418ZM46.5266 49.1086C47.5639 48.593 49.5019 47.7207 50.1523 49.1105C50.3923 49.6229 50.6737 50.4888 50.7981 51.0178C50.9736 51.7638 50.6078 53.3321 49.8407 53.5825C49.1635 53.8036 48.3731 53.7902 47.5572 53.6262C47.4612 53.5462 47.3542 53.407 47.2794 53.2618C46.6968 53.2392 46.1512 53.2932 45.691 53.5326C45.7346 53.9633 45.4432 54.0325 45.1701 54.1213C44.9675 54.9243 45.5753 55.9732 45.4298 56.7054C45.326 57.2271 44.6842 57.3078 44.2124 57.4053C44.197 57.6952 44.2331 57.9373 44.2652 58.1825C44.1575 58.58 43.6736 58.8063 43.215 58.8617C41.7069 59.0428 39.4168 59.1244 37.9661 58.6026C37.5613 57.6095 37.2423 56.4016 36.9051 55.2679C35.4902 55.4191 34.3458 54.6574 33.2671 54.1585C32.8935 53.9853 32.3767 53.8899 32.2373 53.5926C32.102 53.3046 32.1573 52.753 32.1238 52.2318C32.0384 50.9009 31.9652 49.617 31.6138 48.2542C31.456 47.6427 31.1808 47.1029 30.9889 46.5138C30.8116 45.9677 30.5018 45.2927 30.4208 44.7481C30.3011 43.941 31.061 43.896 31.547 43.5462C32.2984 43.0055 32.8881 42.7062 33.7017 42.2181C33.9427 42.0734 34.6693 41.7076 34.752 41.539C34.9163 41.2049 34.47 40.7339 34.3506 40.4719C34.1618 40.0577 34.0634 39.7059 34.0363 39.2971C33.3538 39.1893 32.8364 38.783 32.5238 38.325C32.0068 37.5671 31.6482 36.1646 32.0955 35.0977C32.1306 35.0138 32.3057 34.8486 32.3315 34.7196C32.3823 34.4655 32.2356 34.1275 32.2266 33.8573C32.1796 32.4709 32.4611 31.2763 33.3945 30.858C33.7734 29.3484 35.1297 28.8465 36.4075 28.0963C36.8851 27.8159 37.4116 27.6367 37.9555 27.4366C39.9061 26.7188 42.8989 26.8539 44.5179 28.0784C45.2043 28.5976 46.3016 29.6939 46.6941 30.4876C47.7307 32.5829 47.6571 36.085 46.9321 38.6339C46.8346 38.9762 46.6932 39.4792 46.4958 39.8904C46.3582 40.1774 45.9304 40.7518 45.9823 41.0053C46.0358 41.2672 46.9578 41.9672 47.1553 42.1578C47.5114 42.5011 48.1876 42.9569 48.2423 43.3903C48.3012 43.8513 48.0391 44.482 47.9062 44.9272C47.4628 46.4122 47.0298 47.7848 46.5266 49.1086Z" fill="#231F20"/>
<path d="M39.6052 38.8298C39.6615 38.7549 39.9708 38.6412 40.4038 38.8496C40.4038 38.8496 39.8907 38.935 39.9335 39.7905L39.7197 39.7477C39.7196 39.7477 39.4986 38.9721 39.6052 38.8298Z" fill="#F7E4CD"/>
<path d="M43.3549 46.1821C43.3549 46.2444 43.3302 46.3042 43.2861 46.3483C43.242 46.3924 43.1822 46.4172 43.1198 46.4172C43.0575 46.4172 42.9977 46.3924 42.9536 46.3483C42.9095 46.3042 42.8848 46.2444 42.8848 46.1821C42.8848 46.1198 42.9095 46.06 42.9536 46.0159C42.9977 45.9718 43.0575 45.947 43.1198 45.947C43.1822 45.947 43.242 45.9718 43.2861 46.0159C43.3302 46.06 43.3549 46.1198 43.3549 46.1821ZM43.5901 47.2723C43.5901 47.3347 43.5653 47.3945 43.5211 47.4386C43.477 47.4827 43.4172 47.5075 43.3548 47.5075C43.2924 47.5074 43.2326 47.4826 43.1885 47.4385C43.1444 47.3944 43.1196 47.3345 43.1196 47.2721C43.1197 47.2098 43.1445 47.1499 43.1886 47.1059C43.2327 47.0618 43.2926 47.037 43.3549 47.0371C43.4173 47.0371 43.4771 47.0619 43.5212 47.106C43.5653 47.1501 43.59 47.21 43.59 47.2723" fill="#1D1919"/>
<path d="M68.2334 37.7073C67.993 37.7375 67.7885 37.7675 67.6202 37.7976C67.4293 37.8327 67.2398 37.8748 67.052 37.9239C66.8054 37.99 66.6476 38.1075 66.5786 38.2758C66.5094 38.4444 66.4749 38.6369 66.4749 38.8535V45.9111C66.4749 46.5611 66.344 47.1567 66.0825 47.6982C65.8209 48.2397 65.4616 48.694 65.0047 49.0609C64.5418 49.4221 64.0247 49.6943 63.4536 49.8777C62.8822 50.0611 62.2721 50.153 61.6229 50.153C60.4985 50.153 59.5922 49.8825 58.9037 49.3413C58.2151 48.8002 57.8711 48.0578 57.8711 47.1137C57.8711 46.5546 58.0289 46.0917 58.3445 45.7249C58.6602 45.3582 59.0945 45.1748 59.6477 45.1748C60.1707 45.1748 60.5869 45.3281 60.8967 45.6347C61.2064 45.9415 61.3611 46.3201 61.3611 46.771C61.3611 47.1559 61.2272 47.512 60.9599 47.8397C60.6923 48.1675 60.3871 48.4696 60.0444 48.7461V48.8633C60.0987 48.9836 60.2162 49.0858 60.3972 49.17C60.5778 49.2542 60.7618 49.2962 60.9488 49.2962C61.6722 49.2962 62.2404 49.0375 62.6534 48.52C63.0664 48.0027 63.2731 47.2204 63.2731 46.1733V38.9438C63.2731 38.7272 63.2398 38.5467 63.1733 38.4023C63.1066 38.258 62.9466 38.1314 62.6931 38.0233C62.5118 37.945 62.2929 37.8788 62.0361 37.8247C61.7794 37.7706 61.5662 37.7315 61.3972 37.7073V37.0039H68.2333V37.7073H68.2334ZM78.9294 47.6459C78.719 47.9886 78.4651 48.3118 78.1674 48.6156C77.8699 48.9191 77.5314 49.1792 77.1526 49.3956C76.7497 49.6241 76.3424 49.7968 75.9307 49.9141C75.5188 50.0314 75.0453 50.09 74.5101 50.09C73.6203 50.09 72.852 49.9638 72.206 49.7112C71.5597 49.4587 71.026 49.1192 70.6052 48.6922C70.1844 48.2653 69.8702 47.7618 69.6628 47.1816C69.4554 46.6015 69.3517 45.9718 69.3517 45.2923C69.3517 44.6791 69.4644 44.0914 69.6899 43.5291C69.912 42.9723 70.2379 42.4627 70.6503 42.0276C71.0592 41.6007 71.5748 41.2549 72.1971 40.9904C72.8194 40.726 73.5152 40.5936 74.2848 40.5936C75.1265 40.5936 75.8179 40.6959 76.3591 40.9002C76.9003 41.1047 77.3482 41.3873 77.7029 41.748C78.0456 42.0907 78.2951 42.495 78.4515 42.9608C78.6078 43.4269 78.6859 43.9154 78.6859 44.4264V45.0127H72.5894C72.5894 46.2452 72.8269 47.1833 73.3019 47.8265C73.7769 48.4699 74.5315 48.7914 75.5655 48.7914C76.1307 48.7914 76.6387 48.6368 77.0897 48.327C77.5407 48.0173 77.9255 47.6252 78.2441 47.1501L78.9294 47.6459ZM75.4843 44.2189C75.4843 43.8582 75.4663 43.4883 75.4303 43.1096C75.3942 42.731 75.331 42.4211 75.2407 42.1807C75.1385 41.8981 74.9986 41.6847 74.8215 41.5404C74.6441 41.3961 74.4201 41.3239 74.1495 41.3239C73.6866 41.3239 73.3168 41.5584 73.0402 42.0273C72.7637 42.4962 72.6134 43.2389 72.5893 44.2549L75.4843 44.2189ZM91.6998 49.8012H86.2796V49.1429C86.3938 49.131 86.5321 49.1158 86.6944 49.0977C86.8568 49.0797 86.9799 49.0498 87.0641 49.0075C87.1903 48.9416 87.2806 48.8452 87.3347 48.719C87.3888 48.5928 87.4158 48.4064 87.4158 48.1599V43.9392C87.4158 43.3259 87.3027 42.8646 87.0767 42.5548C86.8506 42.2452 86.5174 42.0904 86.0772 42.0904C85.8361 42.0904 85.6117 42.1264 85.4037 42.1986C85.1958 42.2708 84.9922 42.3761 84.7931 42.5143C84.6183 42.6346 84.4781 42.7578 84.3726 42.8841C84.2809 42.9931 84.1919 43.1044 84.1059 43.2179V48.0607C84.1059 48.2712 84.1359 48.4472 84.196 48.5883C84.2561 48.7297 84.3552 48.8364 84.4936 48.9084C84.5897 48.9626 84.7101 49.0108 84.8543 49.0527C84.9986 49.095 85.1398 49.1248 85.2782 49.143V49.8012H79.7949V49.1429C79.9472 49.1307 80.099 49.1142 80.2503 49.0932C80.4036 49.0722 80.5346 49.0437 80.6427 49.0075C80.8351 48.9416 80.9674 48.8393 81.0396 48.7009C81.1117 48.5627 81.1479 48.3823 81.1479 48.1598V42.9108C81.1479 42.7245 81.0996 42.5411 81.0035 42.3608C80.9074 42.1804 80.7811 42.0331 80.6249 41.9188C80.5165 41.8467 80.3798 41.7867 80.2144 41.7384C80.049 41.6904 79.8673 41.6574 79.6688 41.6393V40.981L83.9707 40.7465L84.106 40.8818V42.1894H84.1421C84.3456 42.0081 84.5501 41.8278 84.7553 41.6483C84.9957 41.438 85.2182 41.2666 85.4227 41.1343C85.6449 40.9899 85.9367 40.8668 86.2974 40.7645C86.6581 40.6622 87.0429 40.6111 87.4518 40.6111C88.4317 40.6111 89.1666 40.8893 89.6568 41.4454C90.1468 42.0015 90.3917 42.7396 90.3917 43.6595V48.0787C90.3917 48.3013 90.4247 48.4787 90.4908 48.6107C90.557 48.7431 90.6804 48.8483 90.8607 48.9264C90.9567 48.9686 91.0756 49.0107 91.2168 49.0526C91.3581 49.0949 91.5189 49.1247 91.6994 49.1429V49.8011L91.6998 49.8012ZM104.109 49.8012H99.8583C99.3357 48.8839 98.8582 48.1056 98.4259 47.467C98.0227 46.8711 97.6141 46.2789 97.2003 45.6903L96.669 46.1398V48.1058C96.669 48.3223 96.7005 48.4996 96.7636 48.6378C96.8267 48.7761 96.9485 48.8784 97.1289 48.9444C97.2371 48.9927 97.3633 49.0347 97.5077 49.0706C97.6521 49.1066 97.7963 49.131 97.9405 49.1428V49.8011H92.34V49.1428C92.4918 49.1308 92.6432 49.1142 92.794 49.0931C92.9453 49.0721 93.0785 49.0435 93.1934 49.0074C93.387 48.9414 93.5188 48.8391 93.5885 48.7007C93.6582 48.5626 93.6928 48.3821 93.6928 48.1597V38.1039C93.6928 37.9055 93.6491 37.6997 93.562 37.4862C93.4748 37.2729 93.3469 37.112 93.1788 37.0037C93.0645 36.9316 92.8932 36.8716 92.6647 36.8233C92.4362 36.7752 92.2288 36.7453 92.0423 36.7332V36.0748L96.5333 35.8403L96.6688 35.9846V45.2915C97.1131 44.8946 97.613 44.4347 98.1684 43.9116C98.7239 43.3887 99.1697 42.9558 99.5062 42.6131C99.7046 42.4088 99.8141 42.254 99.8353 42.1488C99.8562 42.0436 99.8669 41.979 99.8669 41.9548C99.8669 41.8466 99.7718 41.7564 99.5821 41.6844C99.3922 41.6122 99.1065 41.5489 98.725 41.4948V40.8545H103.307V41.4769C102.706 41.6454 102.248 41.8032 101.933 41.9503C101.618 42.0977 101.275 42.2946 100.902 42.541C100.658 42.7023 100.419 42.8726 100.187 43.0514C99.9561 43.2293 99.6909 43.4509 99.3912 43.7163C99.9793 44.5698 100.522 45.3597 101.021 46.0869C101.519 46.8141 102.041 47.5832 102.587 48.3944C102.773 48.6769 103.004 48.8662 103.28 48.9623C103.557 49.0586 103.833 49.1188 104.109 49.1427V49.8012H104.109ZM109.908 49.8012H104.208V49.1429C104.365 49.131 104.518 49.1158 104.668 49.0977C104.819 49.0797 104.948 49.0498 105.056 49.0075C105.249 48.9355 105.384 48.8318 105.462 48.6964C105.54 48.5611 105.579 48.3824 105.579 48.1598V42.9108C105.579 42.7004 105.531 42.5155 105.435 42.3562C105.339 42.1971 105.218 42.0692 105.074 41.9729C104.966 41.9009 104.802 41.8317 104.583 41.7656C104.363 41.6994 104.163 41.6573 103.983 41.6394V40.981L108.402 40.7465L108.537 40.8818V48.0426C108.537 48.2529 108.583 48.4318 108.673 48.5792C108.763 48.7266 108.892 48.8363 109.061 48.9083C109.181 48.9625 109.313 49.0107 109.457 49.0526C109.602 49.0949 109.752 49.1247 109.908 49.1429V49.8011V49.8012ZM108.591 37.5001C108.591 37.9571 108.416 38.3463 108.064 38.6679C107.712 38.9896 107.296 39.1505 106.815 39.1505C106.328 39.1505 105.909 38.9896 105.557 38.6679C105.205 38.3463 105.029 37.9569 105.029 37.5001C105.029 37.0431 105.205 36.6524 105.557 36.3276C105.908 36.0029 106.328 35.8405 106.815 35.8405C107.302 35.8405 107.72 36.003 108.068 36.3276C108.417 36.6524 108.591 37.0431 108.591 37.5001ZM122.642 49.8012H117.222V49.1429C117.336 49.131 117.475 49.1158 117.637 49.0977C117.799 49.0797 117.923 49.0498 118.007 49.0075C118.133 48.9416 118.223 48.8452 118.277 48.719C118.331 48.5928 118.359 48.4064 118.359 48.1599V43.9392C118.359 43.3259 118.245 42.8646 118.019 42.5548C117.793 42.2452 117.46 42.0904 117.02 42.0904C116.779 42.0904 116.554 42.1264 116.346 42.1986C116.138 42.2708 115.935 42.3761 115.736 42.5143C115.561 42.6346 115.421 42.7578 115.315 42.8841C115.224 42.9931 115.135 43.1044 115.049 43.2179V48.0607C115.049 48.2712 115.079 48.4472 115.139 48.5883C115.199 48.7297 115.298 48.8364 115.436 48.9084C115.532 48.9626 115.653 49.0108 115.797 49.0527C115.941 49.095 116.083 49.1248 116.221 49.143V49.8012H110.738V49.1429C110.89 49.1307 111.042 49.1142 111.193 49.0932C111.346 49.0722 111.477 49.0437 111.585 49.0075C111.778 48.9416 111.91 48.8393 111.982 48.7009C112.054 48.5627 112.091 48.3823 112.091 48.1598V42.9108C112.091 42.7245 112.042 42.5411 111.946 42.3608C111.85 42.1804 111.724 42.0331 111.568 41.9188C111.459 41.8467 111.322 41.7867 111.157 41.7384C110.992 41.6904 110.81 41.6574 110.612 41.6393V40.981L114.913 40.7465L115.049 40.8818V42.1894H115.085C115.288 42.0081 115.493 41.8278 115.698 41.6483C115.938 41.438 116.161 41.2666 116.365 41.1343C116.588 40.9899 116.879 40.8668 117.24 40.7645C117.601 40.6622 117.986 40.6111 118.394 40.6111C119.374 40.6111 120.109 40.8893 120.599 41.4454C121.089 42.0015 121.334 42.7396 121.334 43.6595V48.0787C121.334 48.3013 121.367 48.4787 121.434 48.6107C121.5 48.7431 121.623 48.8483 121.803 48.9264C121.899 48.9686 122.018 49.0107 122.16 49.0526C122.301 49.0949 122.462 49.1247 122.642 49.1429V49.8011L122.642 49.8012ZM127.657 50.1079C127.077 50.1085 126.501 50.0219 125.948 49.8509C125.392 49.6795 124.96 49.4978 124.654 49.3053L124.383 49.9185H123.68L123.562 46.5545H124.221C124.311 46.825 124.461 47.1303 124.672 47.4699C124.882 47.8095 125.123 48.1147 125.393 48.3854C125.676 48.6559 125.999 48.8844 126.363 49.0708C126.727 49.2573 127.116 49.3505 127.531 49.3505C128.078 49.3505 128.485 49.2437 128.753 49.0303C129.02 48.8169 129.154 48.4877 129.154 48.0428C129.154 47.8024 129.094 47.604 128.974 47.4475C128.853 47.2913 128.688 47.1559 128.478 47.0417C128.243 46.9214 127.986 46.8192 127.707 46.7349C127.427 46.651 127.083 46.5488 126.674 46.4283C126.265 46.3081 125.915 46.1862 125.623 46.063C125.332 45.9399 125.03 45.7459 124.717 45.4813C124.446 45.2468 124.23 44.9644 124.068 44.6337C123.905 44.3031 123.824 43.9093 123.824 43.4522C123.824 42.6046 124.181 41.9191 124.893 41.396C125.606 40.8729 126.539 40.6114 127.693 40.6114C128.24 40.6114 128.744 40.6671 129.204 40.7783C129.664 40.8896 130.05 41.0112 130.363 41.1436L130.552 40.6116H131.238L131.382 43.6868H130.751C130.54 43.0617 130.179 42.5222 129.668 42.0681C129.157 41.6142 128.607 41.3871 128.018 41.3871C127.555 41.3871 127.191 41.4833 126.927 41.6757C126.662 41.8682 126.53 42.1356 126.53 42.4784C126.53 42.9354 126.723 43.2661 127.11 43.4704C127.498 43.675 128.039 43.8672 128.735 44.0476C129.81 44.3242 130.596 44.7014 131.094 45.1794C131.593 45.6575 131.842 46.2662 131.842 47.0056C131.842 47.9917 131.455 48.7553 130.683 49.2963C129.91 49.8374 128.901 50.1079 127.657 50.1079H127.657Z" fill="black"/>
</svg>
