<svg width="160" height="90" viewBox="0 0 160 90" fill="none" xmlns="http://www.w3.org/2000/svg">
<path d="M1 1H159V89H1V1Z" stroke="#DCDDE0" stroke-linejoin="round"/>
<path d="M62 27H98V63H62V27Z" fill="#F7DF1E"/>
<path d="M71.465 57.0842L74.2198 55.4169C74.7514 56.3592 75.2349 57.1566 76.3946 57.1566C77.5062 57.1566 78.2073 56.7218 78.2073 55.0303V43.5275H81.5903V55.0781C81.5903 58.5821 79.5363 60.1771 76.5396 60.1771C73.8333 60.1771 72.2623 58.7755 71.4648 57.0839L71.465 57.0842ZM83.4278 56.7216L86.1824 55.1268C86.9076 56.311 87.85 57.1809 89.5173 57.1809C90.9192 57.1809 91.813 56.48 91.813 55.5134C91.813 54.3535 90.8947 53.9426 89.3481 53.2662L88.5025 52.9034C86.0617 51.8646 84.4427 50.5596 84.4427 47.8047C84.4427 45.2673 86.3759 43.334 89.3966 43.334C91.5474 43.334 93.094 44.0832 94.2055 46.0406L91.5713 47.7323C90.9912 46.6932 90.3632 46.2825 89.3965 46.2825C88.4057 46.2825 87.7773 46.9108 87.7773 47.7323C87.7773 48.7472 88.4057 49.1582 89.8555 49.7866L90.7012 50.149C93.577 51.3815 95.196 52.638 95.196 55.4651C95.196 58.5102 92.8037 60.1775 89.5897 60.1775C86.4483 60.1775 84.4184 58.6793 83.4277 56.7218" fill="black"/>
</svg>
