<svg width="160" height="90" viewBox="0 0 160 90" fill="none" xmlns="http://www.w3.org/2000/svg">
<path d="M1 1H159V89H1V1Z" stroke="#DCDDE0" stroke-linejoin="round"/>
<path d="M37.7644 27.6247C37.4624 27.6426 37.1671 27.7209 36.896 27.855L25.1484 33.4616C24.8454 33.6059 24.5788 33.8167 24.3687 34.0783C24.1585 34.34 24.0101 34.6457 23.9345 34.9727L21.0575 47.5587C20.9896 47.8506 20.9818 48.1532 21.0344 48.4482C21.0871 48.7432 21.1992 49.0244 21.3638 49.2747C21.4038 49.3362 21.446 49.3953 21.4905 49.4521L29.6171 59.5504C29.8287 59.8103 30.0957 60.0196 30.3986 60.163C30.7015 60.3065 31.0326 60.3805 31.3677 60.3797H44.396C44.7324 60.3804 45.0648 60.3056 45.3685 60.1609C45.6723 60.0162 45.9398 59.8052 46.1512 59.5435L54.2709 49.4406C54.481 49.1798 54.6292 48.8747 54.7042 48.5483C54.7792 48.2219 54.7791 47.8827 54.7039 47.5564L51.8062 34.9565C51.7306 34.6295 51.5822 34.3238 51.372 34.0622C51.1618 33.8006 50.8953 33.5897 50.5923 33.4455L38.8539 27.855C38.5156 27.6885 38.1411 27.6094 37.7644 27.6247Z" fill="#326CE5"/>
<path d="M37.8814 31.9092C37.6869 31.9228 37.5055 32.0123 37.3762 32.1583C37.247 32.3043 37.1803 32.4953 37.1904 32.69V32.8881C37.2098 33.1125 37.2421 33.3355 37.2871 33.5561C37.3516 33.9783 37.3748 34.4056 37.3562 34.8323C37.3158 34.9731 37.2359 35.0994 37.1259 35.1962L37.1098 35.4956C36.6826 35.5311 36.2585 35.5965 35.8406 35.6914C34.0824 36.0876 32.4829 37.0005 31.2475 38.3128L30.9941 38.1331C30.8551 38.1743 30.7054 38.1594 30.5772 38.0916C30.2346 37.8382 29.9176 37.552 29.6305 37.237C29.4865 37.0648 29.3326 36.901 29.1698 36.7464L29.0132 36.622C28.8742 36.5101 28.7031 36.4455 28.5248 36.4378C28.4185 36.4323 28.3125 36.452 28.2152 36.4952C28.118 36.5385 28.0323 36.604 27.9651 36.6865C27.8508 36.847 27.8048 37.0462 27.8372 37.2405C27.8696 37.4348 27.9777 37.6084 28.1379 37.7231L28.283 37.8382C28.4705 37.963 28.6651 38.0768 28.8657 38.1792C29.2395 38.3869 29.5921 38.6307 29.9184 38.907C30.0022 39.0264 30.0509 39.1668 30.0589 39.3125L30.2893 39.5129C29.0468 41.3771 28.5366 43.6345 28.8565 45.8519L28.5617 45.9372C28.4849 46.0596 28.3818 46.1635 28.2599 46.2412C27.8477 46.3511 27.4257 46.4206 26.9999 46.4485C26.7741 46.4532 26.5488 46.4709 26.325 46.5015L26.1408 46.5476H26.1177C25.9878 46.5649 25.8652 46.6181 25.7638 46.7012C25.6624 46.7843 25.5862 46.8941 25.5438 47.0182C25.5014 47.1422 25.4944 47.2757 25.5236 47.4035C25.5529 47.5313 25.6172 47.6484 25.7093 47.7417C25.8015 47.835 25.9179 47.9007 26.0454 47.9315C26.1729 47.9622 26.3064 47.9568 26.431 47.9158H26.4448L26.636 47.8928C26.8506 47.8281 27.0613 47.7512 27.2671 47.6624C27.663 47.5031 28.0734 47.3828 28.4926 47.3031C28.6377 47.312 28.7773 47.3615 28.8957 47.4459L29.202 47.3929C29.8876 49.5207 31.3291 51.3235 33.2538 52.4605L33.1248 52.73C33.1842 52.853 33.2059 52.9909 33.187 53.1262C33.0124 53.5296 32.7996 53.9153 32.5513 54.2779C32.4146 54.4579 32.2885 54.6455 32.1735 54.84L32.0813 55.0289C32.0154 55.1416 31.9821 55.2705 31.9852 55.4011C31.9882 55.5318 32.0275 55.6589 32.0987 55.7685C32.1698 55.8781 32.27 55.9657 32.3881 56.0216C32.5062 56.0776 32.6375 56.0996 32.7673 56.0852C32.8972 56.0709 33.0205 56.0207 33.1234 55.9403C33.2264 55.8599 33.3051 55.7525 33.3505 55.6301L33.4381 55.4504C33.518 55.2395 33.5857 55.0241 33.6408 54.8054C33.8251 54.3447 33.9287 53.8495 34.1844 53.5431C34.2679 53.4648 34.373 53.4134 34.4861 53.3957L34.6474 53.1078C36.7333 53.9099 39.0417 53.9157 41.1316 53.1239L41.2698 53.3934C41.4133 53.4158 41.5423 53.4935 41.6291 53.6099C41.8276 53.9872 41.9889 54.383 42.1105 54.7916C42.1664 55.0104 42.2349 55.2257 42.3156 55.4366L42.4031 55.6162C42.4486 55.7387 42.5272 55.8461 42.6302 55.9265C42.7332 56.0069 42.8565 56.0571 42.9864 56.0714C43.1162 56.0858 43.2475 56.0638 43.3656 56.0078C43.4837 55.9519 43.5839 55.8643 43.655 55.7547C43.7262 55.6451 43.7654 55.5179 43.7685 55.3873C43.7715 55.2567 43.7382 55.1278 43.6723 55.015L43.5801 54.8262C43.4651 54.6325 43.339 54.4456 43.2024 54.2664C42.9593 53.9159 42.7511 53.5425 42.5805 53.1516C42.5636 53.0801 42.5613 53.006 42.5736 52.9336C42.5858 52.8612 42.6124 52.792 42.6519 52.73C42.6067 52.6382 42.5675 52.5435 42.5344 52.4467C44.4565 51.3022 45.8924 49.4927 46.57 47.3607L46.8695 47.4137C46.9767 47.3156 47.1181 47.2635 47.2634 47.2686C47.6825 47.3482 48.093 47.4686 48.4888 47.6279C48.6943 47.7213 48.905 47.8029 49.1199 47.8721C49.1706 47.8859 49.2443 47.8951 49.3042 47.9112H49.318C49.4426 47.9522 49.5761 47.9577 49.7036 47.9269C49.8311 47.8962 49.9475 47.8305 50.0397 47.7372C50.1319 47.6439 50.1962 47.5268 50.2255 47.399C50.2547 47.2711 50.2478 47.1376 50.2053 47.0136C50.1627 46.8892 50.0861 46.7792 49.9843 46.696C49.8825 46.6129 49.7594 46.5598 49.629 46.543L49.4217 46.4969C49.1979 46.4663 48.9726 46.4486 48.7468 46.4439C48.321 46.416 47.899 46.3465 47.4868 46.2366C47.3592 46.1654 47.2539 46.0601 47.1827 45.9326L46.8994 45.8496C47.203 43.634 46.6825 41.3839 45.4367 39.5267L45.6855 39.2963C45.6754 39.1514 45.7226 39.0084 45.8168 38.8978C46.1406 38.6194 46.4909 38.3733 46.8626 38.163C47.0632 38.0607 47.2578 37.9468 47.4453 37.8221L47.5997 37.6977C47.7129 37.6273 47.804 37.5262 47.8622 37.4061C47.9205 37.2861 47.9436 37.1521 47.9289 37.0194C47.9142 36.8868 47.8623 36.7611 47.7792 36.6567C47.6961 36.5524 47.5851 36.4737 47.4591 36.4297C47.3332 36.3857 47.1973 36.3783 47.0673 36.4082C46.9373 36.4382 46.8184 36.5043 46.7243 36.599L46.5677 36.7234C46.4049 36.878 46.2511 37.0418 46.107 37.214C45.8285 37.5324 45.52 37.8232 45.1856 38.0824C45.0506 38.1371 44.9031 38.1531 44.7595 38.1285L44.4923 38.3197C42.9515 36.7042 40.8765 35.7032 38.6531 35.5026C38.6531 35.4104 38.6393 35.24 38.637 35.1893C38.5174 35.1072 38.4347 34.9815 38.4066 34.8392C38.3921 34.413 38.4191 33.9863 38.4872 33.5654C38.5323 33.3447 38.5646 33.1217 38.584 32.8974V32.697C38.5941 32.5022 38.5274 32.3113 38.3981 32.1652C38.2689 32.0192 38.0875 31.9297 37.8929 31.9161L37.8814 31.9092ZM37.0015 37.3591L36.7942 41.0446H36.7781C36.7733 41.1566 36.7382 41.2651 36.6766 41.3587C36.615 41.4523 36.5292 41.5275 36.4283 41.5762C36.3273 41.6249 36.2151 41.6453 36.1035 41.6352C35.9919 41.6252 35.8851 41.5851 35.7945 41.5192L32.7724 39.3769C33.7346 38.4319 34.9416 37.7745 36.2575 37.4789C36.5041 37.4263 36.7532 37.3863 37.0038 37.3591H37.0015ZM38.7613 37.3591C40.3486 37.5561 41.8272 38.2691 42.9697 39.3885L39.9753 41.5168C39.8847 41.5893 39.7757 41.6348 39.6606 41.6484C39.5455 41.6619 39.4289 41.6429 39.324 41.5935C39.2191 41.544 39.1303 41.4662 39.0674 41.3688C39.0046 41.2713 38.9704 41.1582 38.9686 41.0423L38.7613 37.3591ZM31.6713 40.7659L34.4355 43.2306V43.2467C34.5198 43.3204 34.5826 43.4156 34.6171 43.5222C34.6517 43.6288 34.6567 43.7427 34.6316 43.8519C34.6066 43.961 34.5524 44.0614 34.4749 44.1422C34.3973 44.223 34.2993 44.2814 34.1913 44.3109V44.3224L30.644 45.3429C30.4681 43.7447 30.8296 42.1335 31.6713 40.7636V40.7659ZM44.0708 40.7659C44.9105 42.1322 45.2817 43.7351 45.1281 45.3314L41.5761 44.3086V44.2948C41.4681 44.2652 41.3701 44.2069 41.2926 44.1261C41.215 44.0452 41.1609 43.9449 41.1358 43.8357C41.1108 43.7266 41.1158 43.6126 41.1503 43.5061C41.1849 43.3995 41.2476 43.3043 41.332 43.2306L44.0731 40.7751L44.0708 40.7659ZM37.3148 43.4264H38.4435L39.1345 44.3017L38.8811 45.3982L37.8676 45.8865L36.8495 45.3982L36.6099 44.2994L37.3148 43.4264ZM40.9381 46.4209C40.9855 46.4154 41.0335 46.4154 41.0809 46.4209L44.7388 47.0382C44.2003 48.5583 43.17 49.8553 41.8111 50.7237L40.3968 47.2962C40.3578 47.2044 40.3415 47.1046 40.3493 47.0052C40.357 46.9058 40.3884 46.8097 40.4411 46.7251C40.4937 46.6404 40.5659 46.5696 40.6516 46.5187C40.7373 46.4677 40.834 46.4381 40.9335 46.4324L40.9381 46.4209ZM34.7948 46.437C34.8965 46.4386 34.9963 46.4652 35.0853 46.5145C35.1743 46.5638 35.2498 46.6342 35.3051 46.7196C35.3604 46.805 35.3939 46.9027 35.4025 47.004C35.4111 47.1054 35.3946 47.2073 35.3545 47.3008V47.3146L33.9471 50.7053C32.6047 49.8424 31.5832 48.5619 31.0402 47.0612L34.6658 46.4439C34.7064 46.4399 34.7473 46.4399 34.7879 46.4439L34.7948 46.437ZM37.8584 47.925C37.9736 47.9216 38.0876 47.9501 38.1876 48.0074C38.2876 48.0647 38.3698 48.1486 38.425 48.2498H38.4389L40.2263 51.4746C39.9918 51.5533 39.7535 51.6202 39.5123 51.675C38.1974 51.976 36.8248 51.905 35.548 51.47L37.3309 48.2452C37.3844 48.1521 37.4611 48.0745 37.5535 48.02C37.646 47.9655 37.7511 47.936 37.8584 47.9342V47.925Z" fill="white" stroke="white" stroke-width="0.053987"/>
<path d="M62.1236 44.6563L62.8031 43.9146C63.0365 43.6566 63.263 43.4017 63.4826 43.1499L64.1045 42.4312C64.298 42.2039 64.4646 42.0058 64.6044 41.8369H67.2487C66.7205 42.4435 66.206 43.0217 65.7054 43.5714C65.2033 44.1212 64.6535 44.6893 64.0562 45.276C64.3839 45.5773 64.6917 45.8997 64.9775 46.2411C65.2954 46.6143 65.6025 46.9982 65.8989 47.3928C66.1953 47.7875 66.4686 48.1867 66.7189 48.5906C66.9677 48.9899 67.1766 49.3538 67.3455 49.6824H64.7887C64.6351 49.4214 64.4539 49.1342 64.245 48.821C64.0362 48.5062 63.8212 48.1975 63.6001 47.895C63.3697 47.5878 63.1286 47.2861 62.8768 46.9897C62.6473 46.7243 62.3953 46.4792 62.1236 46.2572V49.6986H59.8984V38.4647L62.1236 38.1053V44.6586V44.6563ZM75.092 49.4199C74.611 49.5514 74.1226 49.6537 73.6293 49.7262C73.0074 49.8229 72.379 49.8707 71.7497 49.869C71.1825 49.8858 70.6172 49.7943 70.0843 49.5995C69.6741 49.4438 69.3114 49.1843 69.0316 48.8463C68.765 48.5076 68.5763 48.1144 68.4788 47.6946C68.3653 47.21 68.3104 46.7135 68.3152 46.2158V41.8392H70.5404V45.9393C70.5404 46.6565 70.6348 47.174 70.8237 47.4919C71.0126 47.8097 71.3658 47.9687 71.8833 47.9687C72.0368 47.9687 72.2057 47.961 72.39 47.9457C72.5743 47.9303 72.7332 47.9126 72.8668 47.8927V41.8346H75.092V49.4199ZM84.4854 45.762C84.4933 46.3412 84.3998 46.9173 84.209 47.4642C84.0385 47.9495 83.766 48.3925 83.4097 48.7634C83.0481 49.1306 82.61 49.4137 82.1267 49.5926C81.5719 49.7946 80.9848 49.893 80.3945 49.8828C80.1258 49.8828 79.8447 49.8706 79.5514 49.846C79.2597 49.8214 78.971 49.7892 78.6853 49.7492C78.4013 49.7093 78.1302 49.6617 77.8722 49.6064C77.6142 49.5512 77.3839 49.4936 77.1812 49.4337V38.4624L79.4063 38.103V42.0189C79.6562 41.9093 79.9162 41.8244 80.1826 41.7655C80.4671 41.704 80.7576 41.6739 81.0487 41.6757C81.5567 41.6653 82.061 41.7643 82.5275 41.9659C82.9467 42.1532 83.3154 42.4374 83.6032 42.7951C83.9046 43.1787 84.1276 43.6178 84.2597 44.0874C84.415 44.6318 84.4911 45.1958 84.4854 45.762ZM82.2165 45.7021C82.2165 44.2694 81.689 43.553 80.6341 43.553C80.4046 43.5531 80.1761 43.5833 79.9545 43.6428C79.7618 43.6911 79.5777 43.7688 79.4086 43.8732V47.9111C79.5161 47.9311 79.6543 47.9487 79.8232 47.9641C79.9922 47.9794 80.1764 47.9871 80.3761 47.9871C80.6403 48.0054 80.9049 47.9576 81.1462 47.8483C81.3874 47.7389 81.5977 47.5713 81.7581 47.3606C82.0852 46.8715 82.2452 46.2897 82.2142 45.7021H82.2165ZM85.826 45.8219C85.8126 45.1972 85.9214 44.5759 86.1462 43.9929C86.3371 43.5056 86.6238 43.0615 86.9893 42.6869C87.332 42.3465 87.7413 42.0807 88.1917 41.906C88.6356 41.7283 89.1094 41.6368 89.5875 41.6365C90.7024 41.6365 91.5831 41.9774 92.2296 42.6592C92.8746 43.3411 93.197 44.3438 93.197 45.6675C93.197 45.7965 93.1924 45.9386 93.1832 46.0937C93.174 46.2472 93.164 46.3839 93.1533 46.5037H88.1087C88.1284 46.7216 88.1963 46.9323 88.3075 47.1208C88.4186 47.3092 88.5702 47.4706 88.7514 47.5932C89.2045 47.883 89.7368 48.024 90.274 47.9963C90.6774 47.9965 91.08 47.9587 91.4764 47.8835C91.8066 47.8272 92.1295 47.7345 92.4392 47.607L92.7387 49.4129C92.585 49.4859 92.4255 49.546 92.2618 49.5926C92.0437 49.6568 91.8223 49.7091 91.5985 49.7492C91.3528 49.7953 91.0917 49.8337 90.8153 49.8644C90.5375 49.8939 90.2584 49.9085 89.9791 49.9082C89.3506 49.9218 88.7251 49.8155 88.1364 49.5949C87.6457 49.4071 87.2022 49.1138 86.8372 48.7357C86.491 48.3668 86.2313 47.9254 86.0771 47.4435C85.9061 46.9209 85.8206 46.3741 85.8237 45.8242L85.826 45.8219ZM91.0502 44.9696C91.0406 44.7821 91.0081 44.5964 90.9535 44.4168C90.9012 44.2427 90.8151 44.0807 90.7001 43.94C90.5809 43.797 90.4335 43.6802 90.2671 43.5967C90.0642 43.5013 89.8416 43.4555 89.6175 43.4631C89.3965 43.4573 89.177 43.5006 88.9748 43.5898C88.8037 43.669 88.6514 43.7836 88.528 43.9261C88.4063 44.0694 88.3125 44.2343 88.2516 44.4122C88.1871 44.594 88.1392 44.7814 88.1087 44.9719H91.0502V44.9696ZM99.6467 43.8064C99.4471 43.7572 99.2167 43.705 98.9557 43.6497C98.6705 43.5932 98.3803 43.5654 98.0896 43.5668C97.9223 43.5687 97.7554 43.581 97.5897 43.6037C97.4412 43.6201 97.2941 43.6478 97.1498 43.6866V49.6755H94.9246V42.2515C95.384 42.0957 95.8515 41.965 96.3251 41.8599C96.9205 41.73 97.5286 41.6674 98.1379 41.6734C98.2577 41.6734 98.4021 41.681 98.571 41.6964C98.7399 41.7118 98.9088 41.7317 99.0777 41.7563C99.2467 41.7809 99.4156 41.8116 99.5845 41.8484C99.7325 41.877 99.8775 41.9194 100.018 41.9751L99.6467 43.8064ZM101.213 42.1064C101.694 41.9751 102.182 41.8728 102.676 41.8001C103.298 41.7033 103.928 41.6555 104.558 41.6572C105.126 41.6405 105.692 41.7295 106.228 41.9198C106.637 42.0704 107 42.3253 107.28 42.6592C107.546 42.9916 107.735 43.3786 107.833 43.7925C107.947 44.2716 108.002 44.7628 107.997 45.2552V49.6917H105.769V45.5224C105.769 44.8053 105.675 44.2985 105.486 44.0022C105.297 43.7042 104.944 43.5553 104.426 43.5553C104.273 43.5553 104.104 43.563 103.92 43.5783C103.735 43.5937 103.576 43.6113 103.443 43.6313V49.6894H101.218V42.1064H101.213ZM109.632 45.8219C109.619 45.1972 109.728 44.5759 109.952 43.9929C110.143 43.5056 110.43 43.0615 110.795 42.6869C111.135 42.3477 111.542 42.0819 111.989 41.906C112.433 41.7283 112.906 41.6369 113.384 41.6365C114.499 41.6365 115.38 41.9774 116.026 42.6592C116.671 43.3411 116.994 44.3438 116.994 45.6675C116.994 45.7965 116.989 45.9386 116.978 46.0937C116.967 46.2472 116.957 46.3839 116.948 46.5037H111.903C111.923 46.7216 111.991 46.9323 112.102 47.1208C112.213 47.3092 112.365 47.4706 112.546 47.5932C112.999 47.883 113.531 48.024 114.069 47.9963C114.472 47.9965 114.875 47.9587 115.271 47.8835C115.601 47.8272 115.924 47.7345 116.234 47.607L116.533 49.4129C116.38 49.4859 116.22 49.546 116.056 49.5926C115.838 49.6568 115.617 49.7091 115.393 49.7492C115.147 49.7953 114.886 49.8337 114.61 49.8644C114.332 49.8939 114.053 49.9085 113.774 49.9082C113.145 49.9218 112.52 49.8155 111.931 49.5949C111.44 49.4071 110.997 49.1138 110.632 48.7357C110.286 48.3644 110.028 47.9205 109.876 47.4366C109.708 46.9158 109.625 46.3714 109.63 45.8242L109.632 45.8219ZM114.856 44.9696C114.847 44.7821 114.814 44.5964 114.76 44.4168C114.707 44.2427 114.621 44.0807 114.506 43.94C114.387 43.797 114.24 43.6802 114.073 43.5967C113.87 43.5013 113.648 43.4555 113.424 43.4631C113.203 43.4573 112.983 43.5005 112.781 43.5898C112.61 43.669 112.457 43.7836 112.334 43.9261C112.212 44.0694 112.119 44.2343 112.058 44.4122C111.993 44.594 111.945 44.7814 111.915 44.9719H114.856V44.9696ZM118.646 39.879L120.871 39.5196V41.8231H123.543V43.6658H120.871V46.43C120.852 46.8184 120.937 47.2047 121.117 47.5495C121.281 47.8259 121.612 47.9641 122.108 47.9641C122.356 47.9634 122.603 47.9411 122.847 47.8973C123.083 47.857 123.314 47.7945 123.538 47.7107L123.851 49.4429C123.56 49.5595 123.261 49.6542 122.955 49.7262C122.558 49.813 122.152 49.8532 121.746 49.846C121.233 49.8618 120.721 49.7781 120.24 49.5995C119.868 49.4537 119.539 49.2159 119.284 48.9085C119.036 48.5968 118.865 48.2316 118.784 47.842C118.685 47.388 118.637 46.9245 118.641 46.4599V39.879H118.646ZM124.727 45.8219C124.713 45.1972 124.822 44.5759 125.047 43.9929C125.238 43.5056 125.524 43.0615 125.89 42.6869C126.233 42.3466 126.642 42.0808 127.092 41.906C127.536 41.7283 128.01 41.6369 128.488 41.6365C129.603 41.6365 130.484 41.9774 131.13 42.6592C131.775 43.3411 132.098 44.3415 132.098 45.6606C132.098 45.7896 132.092 45.9317 132.082 46.0868C132.071 46.2403 132.061 46.377 132.052 46.4968H127.007C127.027 46.7149 127.095 46.9257 127.207 47.1142C127.318 47.3026 127.47 47.4639 127.652 47.5863C128.105 47.8761 128.637 48.017 129.175 47.9894C129.578 47.9896 129.981 47.9518 130.377 47.8765C130.707 47.8203 131.03 47.7276 131.34 47.6001L131.639 49.406C131.486 49.479 131.326 49.5391 131.162 49.5857C130.944 49.6499 130.723 49.7022 130.499 49.7423C130.253 49.7884 129.992 49.8268 129.716 49.8575C129.438 49.887 129.159 49.9016 128.88 49.9013C128.251 49.9149 127.626 49.8086 127.037 49.588C126.546 49.4002 126.103 49.1069 125.738 48.7288C125.388 48.3608 125.125 47.9193 124.968 47.4366C124.801 46.9156 124.719 46.3712 124.724 45.8242L124.727 45.8219ZM129.955 44.9696C129.946 44.7821 129.913 44.5964 129.859 44.4168C129.806 44.2427 129.72 44.0807 129.605 43.94C129.486 43.797 129.339 43.6802 129.172 43.5967C128.969 43.5013 128.747 43.4555 128.523 43.4631C128.302 43.4573 128.082 43.5005 127.88 43.5898C127.705 43.6669 127.549 43.7808 127.422 43.9238C127.3 44.0671 127.206 44.232 127.145 44.4099C127.081 44.5917 127.033 44.7791 127.002 44.9696H129.955ZM136.066 48.0908C136.36 48.1087 136.655 48.068 136.933 47.971C137.017 47.9292 137.086 47.8627 137.131 47.7803C137.177 47.698 137.196 47.6038 137.186 47.5103C137.176 47.4114 137.141 47.3167 137.083 47.2359C137.025 47.155 136.947 47.0908 136.857 47.0496C136.538 46.867 136.203 46.7128 135.857 46.5889C135.534 46.4707 135.217 46.3362 134.908 46.1858C134.642 46.0585 134.398 45.8898 134.185 45.686C133.985 45.49 133.828 45.2547 133.724 44.9949C133.607 44.6853 133.552 44.356 133.56 44.0252C133.547 43.6898 133.615 43.3562 133.758 43.0524C133.901 42.7486 134.114 42.4834 134.38 42.2792C134.927 41.8492 135.678 41.6342 136.633 41.6342C137.097 41.6321 137.56 41.6745 138.015 41.7609C138.371 41.8234 138.721 41.9159 139.061 42.0373L138.674 43.7695C138.397 43.6778 138.116 43.6009 137.831 43.5392C137.495 43.4664 137.152 43.4317 136.808 43.4355C136.111 43.4355 135.762 43.6298 135.762 44.0183C135.762 44.0972 135.777 44.1755 135.806 44.2486C135.847 44.3303 135.909 44.3995 135.986 44.449C136.102 44.529 136.224 44.5992 136.352 44.6586C136.506 44.7354 136.702 44.8183 136.942 44.9074C137.357 45.0561 137.761 45.2347 138.151 45.4418C138.432 45.5889 138.686 45.7811 138.904 46.0108C139.082 46.2047 139.215 46.4361 139.291 46.688C139.371 46.9689 139.409 47.2599 139.404 47.5518C139.423 47.8952 139.352 48.2376 139.199 48.5456C139.046 48.8536 138.816 49.1167 138.531 49.3093C137.948 49.7055 137.125 49.9051 136.062 49.9082C135.477 49.9202 134.893 49.8598 134.323 49.7285C133.995 49.6519 133.673 49.5518 133.36 49.4291L133.733 47.6232C134.11 47.7721 134.499 47.8892 134.896 47.9733C135.281 48.053 135.673 48.0924 136.066 48.0908Z" fill="black"/>
</svg>
