<svg width="252" height="268" viewBox="0 0 252 268" fill="none" xmlns="http://www.w3.org/2000/svg">
<path d="M251.5 251.5H231.9H198.5H0.5" stroke="#272D3D" stroke-miterlimit="10" stroke-linecap="round" stroke-linejoin="round"/>
<path d="M120.8 135.5C120.8 135.5 120.2 137.9 127.3 138.1C134.4 138.3 152.7 123 160.8 117.5C168.9 112 168.1 113.4 156.8 99.3C145.5 85.2 140.5 84.3 120.8 84.3C101 84.3 95.9998 85.2 84.7998 99.3C73.5998 113.4 72.6998 112 80.7998 117.5C88.8998 123 107.2 138.4 114.3 138.1C121.4 137.8 120.8 135.5 120.8 135.5Z" fill="#DCDDE0"/>
<path d="M230.3 251.1H83.9998C54.8998 251.1 30.6998 250.1 24.7998 244.8C18.9998 239.5 19.4998 224.1 20.9998 191.2C22.4998 158.2 32.2998 140.3 46.9998 126.3C57.3998 116.4 77.4998 112.2 97.2998 110.5L120.8 135.5L144.6 110.1C184.1 112.1 191.4 120.9 211.8 147.6C231.4 173.3 241.3 220 241.6 234.2C241.9 248.4 234.5 251.1 230.3 251.1Z" fill="#DCDDE0"/>
<path d="M166.1 112.9C187.8 117.2 195.8 127.1 211.8 148C231.4 173.6 241.3 220.4 241.6 234.6C241.9 248.9 234.5 251.5 230.2 251.5C225.9 251.5 113.1 251.5 83.9002 251.5C54.7002 251.5 30.6002 250.5 24.7002 245.2C18.9002 239.9 19.4002 224.5 20.9002 191.6C22.4002 158.6 32.2002 140.7 46.9002 126.7C53.5002 120.4 64.0002 116.4 75.8002 113.9" stroke="#272D3D" stroke-miterlimit="10" stroke-linecap="round" stroke-linejoin="round"/>
<path d="M137.2 227.8C165.091 227.8 187.7 217.95 187.7 205.8C187.7 193.65 165.091 183.8 137.2 183.8C109.31 183.8 86.7002 193.65 86.7002 205.8C86.7002 217.95 109.31 227.8 137.2 227.8Z" fill="#272D3D"/>
<path d="M205.99 221.982C207.717 213.993 199.49 205.436 187.615 202.868C175.739 200.301 164.712 204.696 162.985 212.685C161.258 220.674 169.485 229.232 181.36 231.799C193.236 234.367 204.263 229.971 205.99 221.982Z" fill="#272D3D"/>
<path d="M93.5002 90.1C90.8002 92.3 88.0002 95.2 84.7002 99.3C73.4002 113.4 72.6002 112 80.7002 117.5C88.8002 123 107.1 138.4 114.2 138.1C120.3 137.9 120.7 136.1 120.7 135.6C120.7 135.5 120.7 135.5 120.7 135.5V135.6C120.7 136.1 121.1 137.9 127.2 138.1C134.3 138.4 152.6 123 160.7 117.5C168.8 112 168 113.4 156.7 99.3C152.8 94.4 149.6 91.1 146.3 88.9" stroke="#272D3D" stroke-miterlimit="10" stroke-linecap="round" stroke-linejoin="round"/>
<path d="M41.7002 132.1C41.7002 132.1 47.6002 135.7 51.8002 145.3" stroke="#272D3D" stroke-miterlimit="10" stroke-linecap="round" stroke-linejoin="round"/>
<path d="M58 159.7C58 159.7 66.5 179.4 68.5 217.9" stroke="#272D3D" stroke-miterlimit="10" stroke-linecap="round" stroke-linejoin="round"/>
<path d="M142.4 244.9C142.4 244.9 166.1 245.8 182.4 240.3C198.7 234.8 178.5 214.5 178.5 214.5L141 227.8L142.4 244.9Z" fill="white"/>
<path d="M193 138.7C193 138.7 180 170 182.7 212.7" stroke="#272D3D" stroke-miterlimit="10" stroke-linecap="round" stroke-linejoin="round"/>
<path d="M141.2 202.4C141.2 202.4 113.7 177.4 80.1003 186.4L77.4004 204.4C77.4004 204.4 123.5 218.7 133.6 217.2C143.7 215.7 141.2 202.4 141.2 202.4Z" fill="white"/>
<path d="M85.0996 190.3C85.0996 190.3 92.2996 187.5 107.6 191.6" stroke="#272D3D" stroke-miterlimit="10" stroke-linecap="round" stroke-linejoin="round"/>
<path d="M104.6 198.1C104.6 198.1 93.7996 194.3 83.5996 195.1" stroke="#272D3D" stroke-miterlimit="10" stroke-linecap="round" stroke-linejoin="round"/>
<path d="M86.7002 202.2C86.7002 202.2 92.9002 201.4 101.7 204.8" stroke="#272D3D" stroke-miterlimit="10" stroke-linecap="round" stroke-linejoin="round"/>
<path d="M140.1 201.1L133.8 217.1C133.8 217.1 172.9 251.5 197.7 251.5C222.5 251.5 220.6 220.3 220.6 220.3C220.6 220.3 195.9 208.5 174.4 205.3C153 202.2 140.1 201.1 140.1 201.1Z" fill="#DCDDE0"/>
<path d="M220.7 220.3C220.7 220.3 196 208.5 174.5 205.3C153 202.1 140.1 201.1 140.1 201.1L133.8 217.1C133.8 217.1 172.9 251.5 197.7 251.5H216.6" stroke="#272D3D" stroke-miterlimit="10" stroke-linecap="round" stroke-linejoin="round"/>
<path d="M156.8 202.9L147.3 227.8C139.3 221.8 133.9 217.1 133.9 217.1L140.1 201.1C140.1 201.1 146.2 201.6 156.8 202.9Z" stroke="#272D3D" stroke-miterlimit="10" stroke-linecap="round" stroke-linejoin="round"/>
<path d="M114.5 169.3C113.7 169.3 113 168.6 113 167.8V135.5C113 134.7 113.7 134 114.5 134C115.3 134 116 134.7 116 135.5V167.8C116 168.7 115.3 169.3 114.5 169.3Z" fill="#272D3D"/>
<path d="M130.8 174.8C130 174.8 129.3 174.1 129.3 173.3V135.5C129.3 134.7 130 134 130.8 134C131.6 134 132.3 134.7 132.3 135.5V173.3C132.3 174.2 131.7 174.8 130.8 174.8Z" fill="#272D3D"/>
<path d="M156.8 202.9C156.8 202.9 184.2 174.8 177.2 156C166.5 127.3 135.4 137.1 123.3 153C153.7 160.2 133.7 193.4 120.7 173.7C116.4 167.3 118.2 159.6 123.3 153C119.7 152.1 115.5 151.7 110.4 151.6C103.3 151.6 97.5996 152.5 92.9996 154.1C94.1996 160.7 93.7996 166.9 90.6996 172.2C78.7996 192.2 66.6996 163.1 92.9996 154.1C90.3996 139.9 80.0996 124.3 72.5996 114.5" stroke="#272D3D" stroke-miterlimit="10" stroke-linecap="round" stroke-linejoin="round"/>
<path d="M23.4996 170.1C29.5996 174.7 30.5996 182.6 29.1996 191.2C27.6996 200.5 23.4996 210.4 20.0996 217.3" stroke="#272D3D" stroke-miterlimit="10" stroke-linecap="round" stroke-linejoin="round"/>
<path d="M20.9004 193.3C23.3004 192.9 26.1004 192.2 29.2004 191.2C41.7004 187.1 60.1004 177.3 67.3004 151.7C71.8004 135.5 63.8004 124.6 50.8004 123.6" stroke="#272D3D" stroke-miterlimit="10" stroke-linecap="round" stroke-linejoin="round"/>
<path d="M169.1 113.5C169.1 113.5 159.7 130 171.5 137.3C183.3 144.6 184.7 130.4 194.9 127.6" stroke="#272D3D" stroke-miterlimit="10" stroke-linecap="round" stroke-linejoin="round"/>
<path d="M215.5 153.2C215.5 153.2 190 188.8 204.2 202.1C218.4 215.4 234.1 195.8 234.1 195.8" stroke="#272D3D" stroke-miterlimit="10" stroke-linecap="round" stroke-linejoin="round"/>
<path d="M240.9 226.3C240.9 226.3 188.5 228 188.5 250.2" stroke="#272D3D" stroke-miterlimit="10" stroke-linecap="round" stroke-linejoin="round"/>
<path d="M58.8008 231.278C64.2036 229.024 67.0662 223.56 65.1946 219.075C63.323 214.589 57.4259 212.781 52.023 215.035C46.6202 217.29 43.7575 222.754 45.6291 227.239C47.5007 231.724 53.3979 233.533 58.8008 231.278Z" fill="#272D3D"/>
<path d="M98.5993 202.9C101.199 212 88.6993 226.3 79.0993 229.1C69.8993 231.9 54.5994 225.3 51.8994 216.2C49.2994 207.1 58.3993 196.5 72.2993 192.6C86.2993 188.7 95.9993 193.8 98.5993 202.9Z" fill="#272D3D"/>
<path d="M53.2995 207.4L49.1996 193.2C48.8996 192.3 49.4996 191.3 50.4996 191C53.4996 190.3 59.9996 189.8 67.3996 196L53.2995 207.4Z" fill="#272D3D"/>
<path d="M74.2998 199.4L79.4998 185.6C79.7998 184.7 80.8998 184.2 81.7998 184.6C84.5998 185.8 90.1998 189.1 92.4998 198.4L74.2998 199.4Z" fill="#272D3D"/>
<path d="M51.5 192.8C51.5 192.8 59.1 194.9 61.1 201.1" stroke="white" stroke-miterlimit="10" stroke-linecap="round" stroke-linejoin="round"/>
<path d="M81.0996 186.4C81.0996 186.4 86.9996 191.6 85.9996 198" stroke="white" stroke-miterlimit="10" stroke-linecap="round" stroke-linejoin="round"/>
<path d="M66.7998 218.3C66.7998 218.3 68.9998 219.3 70.5998 216.2" stroke="white" stroke-miterlimit="10" stroke-linecap="round" stroke-linejoin="round"/>
<path d="M74.9 215.8C74.9 215.8 73.7 217.8 70.6 216.3L70 214.4" stroke="white" stroke-miterlimit="10" stroke-linecap="round" stroke-linejoin="round"/>
<path d="M71.8999 212.5C72.0999 213.1 70.0998 214.3 70.0998 214.3C70.0998 214.3 67.7998 214.5 67.5998 213.9C66.7998 212.1 69.5998 212.7 69.5998 212.7C69.5998 212.7 71.3999 210.9 71.8999 212.5Z" fill="white"/>
<path d="M59.6996 215.4C59.6996 215.4 44.8996 211.8 40.0996 222.6" stroke="#272D3D" stroke-miterlimit="10" stroke-linecap="round" stroke-linejoin="round"/>
<path d="M58.8997 213C58.8997 213 44.6996 207.6 38.5996 217.8" stroke="#272D3D" stroke-miterlimit="10" stroke-linecap="round" stroke-linejoin="round"/>
<path d="M56.2 222.6C56.2 222.6 54.4 225 51.5 224.1" stroke="white" stroke-miterlimit="10" stroke-linecap="round" stroke-linejoin="round"/>
<path d="M59.6992 215.4C59.6992 215.4 56.7992 214.5 51.6992 214.9" stroke="white" stroke-miterlimit="10" stroke-linecap="round" stroke-linejoin="round"/>
<path d="M58.8992 213C58.8992 213 56.3992 211.8 51.6992 211.6" stroke="white" stroke-miterlimit="10" stroke-linecap="round" stroke-linejoin="round"/>
<path d="M81.8994 213.7C81.8994 213.7 93.7994 205.6 102.699 213.4" stroke="white" stroke-miterlimit="10" stroke-linecap="round" stroke-linejoin="round"/>
<path d="M81.6992 211.2C81.6992 211.2 87.4992 200.9 98.9992 204" stroke="white" stroke-miterlimit="10" stroke-linecap="round" stroke-linejoin="round"/>
<path d="M66.3 209.3C66.3 209.3 64.8 210.5 62.8 210.5C60.1 210.5 59 209.3 59 209.3" stroke="white" stroke-miterlimit="10" stroke-linecap="round" stroke-linejoin="round"/>
<path d="M80.8994 205.9C80.8994 205.9 79.7994 207.5 77.8994 208.1C75.3994 208.9 73.8994 208.1 73.8994 208.1" stroke="white" stroke-miterlimit="10" stroke-linecap="round" stroke-linejoin="round"/>
<path d="M79.9994 226.3C79.9994 226.3 63.6994 243.6 65.5994 254C67.4994 264.4 69.1994 268.8 75.2994 267.8C81.3994 266.9 79.2994 254 79.5994 251.4C80.0994 247.2 92.2994 238.2 98.2994 232.9C104.299 227.6 107.499 223.1 107.499 223.1L96.1994 213.6L79.9994 226.3Z" fill="#272D3D"/>
<path d="M77.1992 229.6C77.1992 229.6 82.2992 222.3 92.3992 216.7" stroke="white" stroke-miterlimit="10" stroke-linecap="round" stroke-linejoin="round"/>
<path d="M71.1992 262.4C71.1992 262.4 71.4992 265.3 72.8992 267.3" stroke="white" stroke-miterlimit="10" stroke-linecap="round" stroke-linejoin="round"/>
<path d="M74.2998 262C74.2998 262 74.8998 265 76.0998 266.9" stroke="white" stroke-miterlimit="10" stroke-linecap="round" stroke-linejoin="round"/>
<path d="M94.2002 251.5C119.8 251.5 142.4 244.9 142.4 244.9L140.6 224.3" stroke="#272D3D" stroke-miterlimit="10" stroke-linecap="round" stroke-linejoin="round"/>
<path d="M125.5 224.3L129.3 247.9" stroke="#272D3D" stroke-miterlimit="10" stroke-linecap="round" stroke-linejoin="round"/>
<path d="M120.801 135.5L140.801 114.2V89.9H100.801V114.1L120.801 135.5Z" fill="white"/>
<path d="M158.263 72.629C160.175 67.6243 158.672 62.4008 154.906 60.9619C151.139 59.523 146.536 62.4136 144.624 67.4182C142.712 72.4229 144.215 77.6464 147.982 79.0854C151.748 80.5243 156.351 77.6336 158.263 72.629Z" fill="white"/>
<path d="M158.263 72.629C160.175 67.6243 158.672 62.4008 154.906 60.9619C151.139 59.523 146.536 62.4136 144.624 67.4182C142.712 72.4229 144.215 77.6464 147.982 79.0854C151.748 80.5243 156.351 77.6336 158.263 72.629Z" stroke="#272D3D" stroke-miterlimit="10" stroke-linecap="round" stroke-linejoin="round"/>
<path d="M154.401 67.7L148.801 73.1" stroke="#272D3D" stroke-miterlimit="10" stroke-linecap="round" stroke-linejoin="round"/>
<path d="M89.4847 79.0422C93.2511 77.6033 94.7544 72.3797 92.8424 67.3751C90.9305 62.3704 86.3273 59.4798 82.5609 60.9187C78.7945 62.3576 77.2912 67.5811 79.2031 72.5858C81.1151 77.5904 85.7183 80.4811 89.4847 79.0422Z" fill="white"/>
<path d="M89.4847 79.0422C93.2511 77.6033 94.7544 72.3797 92.8424 67.3751C90.9305 62.3704 86.3273 59.4798 82.5609 60.9187C78.7945 62.3576 77.2912 67.5811 79.2031 72.5858C81.1151 77.5904 85.7183 80.4811 89.4847 79.0422Z" stroke="#272D3D" stroke-miterlimit="10" stroke-linecap="round" stroke-linejoin="round"/>
<path d="M100.801 114.1V89.9H140.801V114.2" stroke="#272D3D" stroke-miterlimit="10" stroke-linecap="round" stroke-linejoin="round"/>
<path d="M87.3004 65.2C87.3004 65.2 82.0004 62.4 81.6004 50L80.2005 48.5C80.2005 48.5 79.9004 46.5 80.3004 45L79.0005 44C79.0005 44 79.0005 41.1 81.0005 37.2L79.0005 35.7C79.0005 35.7 78.6005 30.8 86.5005 24.1C86.5005 24.1 86.0005 22.1 88.5005 17L90.1004 17.7C90.1004 17.7 91.9005 12.2 93.5005 9.19997L95.3004 9.99997C95.3004 9.99997 101.7 0.599971 103.8 1.99997C105.1 2.79997 102.7 6.89997 102.7 6.89997C102.7 6.89997 106.6 3.59997 110.9 1.89997C115.2 0.199971 118.4 -0.200029 119 0.499971C119.6 1.29997 118.1 1.99997 118.1 1.99997C118.1 1.99997 129.7 0.199971 138.1 5.19997C146.5 10.2 147.1 12.4 147.1 12.4L146.2 13.1C146.2 13.1 152.1 20.7 151.8 23.1C151.5 25.5 148.7 22.2 148.7 22.2C148.7 22.2 154.1 29.1 152.8 31C152.8 31 155.9 55.5 149.6 64L87.3004 65.2Z" fill="#272D3D"/>
<path d="M88.0006 72.4L83.1006 67.7" stroke="#272D3D" stroke-miterlimit="10" stroke-linecap="round" stroke-linejoin="round"/>
<path d="M149.2 45.3C150 59.5 150.8 71.9 147.8 84.3C142.5 105.4 127.3 109.9 120.9 109.9C111.9 109.9 102.1 105 92.9004 88.8C84.3004 73.8 87.1004 56.4 87.3004 41.7C87.3004 41.7 87.0004 24.4 96.4004 18.7C105.7 13 134.4 11.9 141.1 18C147.8 24.1 149.2 45.3 149.2 45.3Z" fill="white"/>
<path d="M149.2 45.3C150 59.5 150.8 71.9 147.8 84.3C142.5 105.4 127.3 109.9 120.9 109.9C111.9 109.9 102.1 105 92.9004 88.8C84.3004 73.8 87.1004 56.4 87.3004 41.7C87.3004 41.7 87.0004 24.4 96.4004 18.7C105.7 13 134.4 11.9 141.1 18C147.8 24.1 149.2 45.3 149.2 45.3Z" stroke="#272D3D" stroke-miterlimit="10" stroke-linecap="round" stroke-linejoin="round"/>
<path d="M140.8 99.2999V104C133.7 108.9 124.9 109.8 122 110C126.6 109.6 134.6 107.2 140.8 99.2999Z" fill="#272D3D"/>
<path d="M124.801 57.0999C124.801 57.0999 127.801 54.7 131.801 54.7C137.101 54.7 139.501 57.0999 139.501 57.0999" stroke="#272D3D" stroke-miterlimit="10" stroke-linecap="round" stroke-linejoin="round"/>
<path d="M132.101 59.7C133.481 59.7 134.601 58.5807 134.601 57.2C134.601 55.8192 133.481 54.7 132.101 54.7C130.72 54.7 129.601 55.8192 129.601 57.2C129.601 58.5807 130.72 59.7 132.101 59.7Z" fill="#272D3D"/>
<path d="M94.8008 57.0999C94.8008 57.0999 97.8008 54.7 101.801 54.7C107.101 54.7 109.501 57.0999 109.501 57.0999" stroke="#272D3D" stroke-miterlimit="10" stroke-linecap="round" stroke-linejoin="round"/>
<path d="M102.2 59.7C103.581 59.7 104.7 58.5807 104.7 57.2C104.7 55.8192 103.581 54.7 102.2 54.7C100.819 54.7 99.7002 55.8192 99.7002 57.2C99.7002 58.5807 100.819 59.7 102.2 59.7Z" fill="#272D3D"/>
<path d="M122.801 46.5V49.8C122.801 50.1 123.001 50.3 123.301 50.2C125.301 49.8 131.701 49.4 135.201 49.4C140.801 49.4 144.101 52.2 144.101 52.2C144.101 52.2 141.401 45.7 136.401 45.5C130.401 45.2 124.301 45.8 123.101 46.1C122.901 46.2 122.801 46.3 122.801 46.5Z" fill="#272D3D"/>
<path d="M113.9 46.1L114.9 49.6C114.9 49.9 114.7 50.1 114.4 50C112.4 49.6 104.8 49.3 101.3 49.5C97.4004 49.6 91.4004 52.3 91.4004 52.3C91.4004 52.3 94.2004 46 99.7004 45.5C105.7 45 112.4 45.4 113.6 45.7C113.8 45.7 113.9 45.9 113.9 46.1Z" fill="#272D3D"/>
<path d="M113.5 46.1C113.5 46.1 117.8 53.6 113.1 72.2C112.6 74.1 119.1 79.7 124.4 74.4" stroke="#272D3D" stroke-miterlimit="10" stroke-linecap="round" stroke-linejoin="round"/>
<path d="M133.9 83.6C133.9 83.6 133.7 84.1 133.2 84.9C133.1 85 133 85.2 132.9 85.3C132.5 85.8 132 86.5 131.3 87.1C131.2 87.2 131 87.4 130.8 87.5C128.8 89.2 125.6 90.8 120.6 91C115.1 91.2 111.2 89.3 108.7 87.5C108.5 87.4 108.3 87.2 108.2 87.1C107.4 86.5 106.8 85.8 106.4 85.3C106.3 85.2 106.2 85.1 106.1 85C105.7 84.5 105.5 84.2 105.5 84.2C105.5 84.2 110 82.7 119.7 82.7C129.4 82.7 133.9 83.6 133.9 83.6Z" stroke="#272D3D" stroke-miterlimit="10" stroke-linecap="round" stroke-linejoin="round"/>
<path d="M107.2 81L103.5 87.7" stroke="#272D3D" stroke-miterlimit="10" stroke-linecap="round" stroke-linejoin="round"/>
<path d="M132.101 79.7L135.801 86.4" stroke="#272D3D" stroke-miterlimit="10" stroke-linecap="round" stroke-linejoin="round"/>
<path d="M133 85.2C132.6 85.7 132.1 86.4 131.4 87C131.3 87.1 131.1 87.3 130.9 87.4C128.7 87.6 124.6 87.9 120.5 87.9C120.2 87.9 120 87.9 119.7 87.9C115.5 87.9 111.2 87.6 108.8 87.4C108.6 87.3 108.4 87.1 108.3 87C107.5 86.4 106.9 85.7 106.5 85.2L107.2 85.3C107.3 85.3 113.6 85.9 119.7 86C125.8 86.1 132.2 85.3 132.3 85.3L133 85.2Z" fill="#272D3D"/>
<path d="M117.301 98.3C117.301 98.3 119.301 97.1 122.801 97.5" stroke="#272D3D" stroke-miterlimit="10" stroke-linecap="round" stroke-linejoin="round"/>
<path d="M87.1 62.5C87.1 62.5 89.6 48.9 90.9 40.2C92.2 31.6 96.1 26.2 99.4 25.8C102.7 25.4 107.3 27.5 117.5 26.9C127.7 26.3 132.6 24.6 135.7 25.7C138.7 26.8 142.8 34.5 144.7 43.6C145.9 49.5 149.7 61.5 149.7 61.5C149.7 61.5 151.5 59.4 151.6 48.7C151.7 38 149.2 15.4 135.7 14C122.2 12.6 97.9 11 92.7 19.2C87.5 27.4 83.3 43.3 87.1 62.5Z" fill="#272D3D"/>
<path d="M102 10.8C102 10.8 99.8 13.9 99.5 17.9" stroke="white" stroke-miterlimit="10" stroke-linecap="round" stroke-linejoin="round"/>
<path d="M83.3008 31.6C83.3008 31.6 85.1008 27.2 91.4008 25.6" stroke="white" stroke-miterlimit="10" stroke-linecap="round" stroke-linejoin="round"/>
<path d="M90.3002 31.6C90.3002 31.6 86.0002 36.9 84.7002 43.7" stroke="white" stroke-miterlimit="10" stroke-linecap="round" stroke-linejoin="round"/>
<path d="M105.5 17.9C105.5 17.9 108.9 10.1 117.5 3.79999" stroke="white" stroke-miterlimit="10" stroke-linecap="round" stroke-linejoin="round"/>
<path d="M109.5 18.4C109.5 18.4 118.9 10.8 128.8 8.5" stroke="white" stroke-miterlimit="10" stroke-linecap="round" stroke-linejoin="round"/>
<path d="M116.301 20.3L130.501 15.4" stroke="white" stroke-miterlimit="10" stroke-linecap="round" stroke-linejoin="round"/>
<path d="M147.301 107.2L144.601 110.1L120.801 135.5" stroke="#272D3D" stroke-miterlimit="10" stroke-linecap="round" stroke-linejoin="round"/>
<path d="M94.2002 107.2L97.3002 110.5L120.8 135.5" stroke="#272D3D" stroke-miterlimit="10" stroke-linecap="round" stroke-linejoin="round"/>
</svg>
