<svg width="69" height="40" viewBox="0 0 69 40" fill="none" xmlns="http://www.w3.org/2000/svg">
<g clip-path="url(#clip0)">
<path d="M48.2 39.8002V27.3002H44V25.2002H55.2V27.3002H50.9V39.7002H48.2V39.8002Z" fill="#272D3D"/>
<path d="M32 39.8002V25.2002H41.4V27.3002H34.7V31.4002H40.1V33.5002H34.7V39.7002H32V39.8002Z" fill="#272D3D"/>
<path d="M21.0998 39.9998C19.5998 39.9998 18.3998 39.6998 17.2998 38.9998C16.1998 38.3998 15.3998 37.4998 14.6998 36.2998C14.0998 35.1998 13.7998 33.8998 13.7998 32.3998C13.7998 30.8998 14.0998 29.5998 14.6998 28.4998C15.2998 27.3998 16.1998 26.4998 17.2998 25.7998C18.3998 25.1998 19.6998 24.7998 21.0998 24.7998C22.4998 24.7998 23.7998 25.0998 24.8998 25.7998C25.9998 26.3998 26.7998 27.2998 27.4998 28.4998C28.0998 29.5998 28.3998 30.8998 28.3998 32.3998C28.3998 33.8998 28.0998 35.1998 27.4998 36.2998C26.8998 37.3998 25.9998 38.2998 24.8998 38.9998C23.7998 39.6998 22.4998 39.9998 21.0998 39.9998ZM21.0998 37.5998C22.4998 37.5998 23.5998 37.0998 24.3998 36.1998C25.1998 35.2998 25.5998 33.9998 25.5998 32.3998C25.5998 30.7998 25.1998 29.5998 24.3998 28.5998C23.5998 27.6998 22.4998 27.1998 21.0998 27.1998C19.6998 27.1998 18.5998 27.6998 17.7998 28.5998C16.9998 29.4998 16.5998 30.7998 16.5998 32.3998C16.5998 33.9998 16.9998 35.1998 17.7998 36.1998C18.5998 37.1998 19.6998 37.5998 21.0998 37.5998Z" fill="#272D3D"/>
<path d="M5.5 40C4.4 40 3.5 39.8 2.7 39.4C1.9 39 1.2 38.5 0.8 37.8C0.3 37.2 0 36.3 0 35.4H2.8C2.8 36.1 3.1 36.7 3.5 37.1C3.9 37.5 4.6 37.8 5.4 37.8C6.1 37.8 6.7 37.6 7.1 37.3C7.5 37 7.7 36.5 7.7 35.9C7.7 35.3 7.5 34.8 7.1 34.5C6.7 34.2 6.2 33.9 5.6 33.7C5 33.5 4.3 33.3 3.6 33C2.5 32.6 1.6 32.1 1 31.5C0.4 30.9 0.1 30.1 0.1 29.1C0.1 28.2 0.3 27.5 0.7 26.9C1.1 26.3 1.7 25.8 2.4 25.5C3.1 25.2 4 25 4.9 25C5.9 25 6.7 25.2 7.5 25.5C8.2 25.8 8.8 26.3 9.2 27C9.6 27.6 9.8 28.4 9.9 29.2H7.4C7.4 28.7 7.2 28.2 6.8 27.8C6.4 27.4 5.9 27.2 5.2 27.2C4.6 27.2 4.1 27.3 3.7 27.6C3.3 27.9 3.1 28.3 3.1 28.9C3.1 29.4 3.3 29.8 3.6 30.1C3.9 30.4 4.3 30.6 4.8 30.8C5.4 31 6 31.2 6.7 31.4C7.4 31.6 8.1 31.9 8.7 32.3C9.3 32.6 9.8 33.1 10.1 33.6C10.5 34.1 10.6 34.9 10.6 35.7C10.6 36.5 10.4 37.2 10 37.8C9.6 38.5 9 39 8.3 39.4C7.5 39.8 6.6 40 5.5 40Z" fill="#272D3D"/>
<path d="M56.7002 14.8002V0.200195H59.4002V6.2002H65.9002V0.200195H68.6002V14.8002H65.9002V8.5002H59.4002V14.8002H56.7002Z" fill="#272D3D"/>
<path d="M47.9 15.1C46.8 15.1 45.9 14.9 45.1 14.5C44.3 14.1 43.6 13.6 43.2 12.9C42.7 12.2 42.5 11.4 42.5 10.4H45.3C45.3 11.1 45.6 11.7 46 12.1C46.5 12.6 47.1 12.8 47.9 12.8C48.6 12.8 49.2 12.6 49.6 12.3C50 12 50.2 11.5 50.2 10.9C50.2 10.3 50 9.8 49.6 9.5C49.2 9.2 48.7 8.9 48.1 8.7C47.5 8.5 46.8 8.3 46.1 8C45 7.6 44.1 7.1 43.5 6.5C42.9 5.9 42.6 5.1 42.6 4.1C42.6 3.2 42.8 2.5 43.2 1.9C43.6 1.3 44.2 0.8 44.9 0.5C45.9 0.2 46.7 0 47.7 0C48.7 0 49.5 0.2 50.3 0.5C51 0.9 51.6 1.4 52 2C52.4 2.6 52.6 3.4 52.7 4.2H49.9C49.9 3.7 49.7 3.2 49.3 2.8C48.9 2.4 48.4 2.2 47.7 2.2C47.1 2.2 46.6 2.3 46.2 2.6C45.8 3 45.6 3.4 45.6 4C45.6 4.5 45.8 4.9 46.1 5.2C46.4 5.5 46.8 5.7 47.3 5.9C47.8 6.1 48.4 6.3 49.1 6.5C49.8 6.7 50.5 7 51.1 7.4C51.7 7.7 52.2 8.2 52.5 8.7C52.9 9.2 53 10 53 10.8C53 11.6 52.8 12.3 52.4 12.9C52 13.6 51.4 14.1 50.7 14.5C50 14.9 49 15.1 47.9 15.1Z" fill="#272D3D"/>
<path d="M38.5004 11.3998L35.7004 3.2998L34.3004 7.2998L35.0004 9.2998V9.3998H33.6004L32.9004 11.3998H35.7004L36.9004 14.7998H39.7004L38.5004 11.3998Z" fill="#272D3D"/>
<path d="M33.9996 0.200195L28.8996 14.8002H26.0996L31.1996 0.200195H33.9996Z" fill="#4777FB"/>
<path d="M14.2998 14.8002V0.200195H16.9998V12.7002H23.3998V14.8002H14.2998Z" fill="#272D3D"/>
<path d="M5.5 15.1C4.4 15.1 3.5 14.9 2.7 14.5C1.9 14.1 1.2 13.6 0.8 12.9C0.3 12.2 0 11.4 0 10.4H2.8C2.8 11.1 3.1 11.7 3.5 12.1C4 12.6 4.6 12.8 5.4 12.8C6.1 12.8 6.7 12.6 7.1 12.3C7.6 12 7.8 11.5 7.8 11C7.8 10.4 7.6 9.9 7.2 9.6C6.9 9.2 6.4 9 5.8 8.8C5.2 8.6 4.5 8.4 3.8 8.1C2.7 7.7 1.8 7.2 1.2 6.6C0.6 6 0.4 5.2 0.4 4.2C0.4 3.3 0.6 2.6 1 2C1.4 1.4 2 0.9 2.7 0.6C3.4 0.2 4.3 0 5.2 0C6.2 0 7 0.2 7.8 0.5C8.5 0.9 9.1 1.4 9.6 2C10 2.6 10.2 3.4 10.3 4.2H7.4C7.4 3.7 7.2 3.2 6.8 2.8C6.4 2.4 5.9 2.2 5.2 2.2C4.6 2.2 4.1 2.3 3.7 2.6C3.3 3 3.1 3.4 3.1 4C3.1 4.5 3.3 4.9 3.6 5.2C3.9 5.5 4.3 5.7 4.8 5.9C5.4 6 6 6.2 6.7 6.5C7.4 6.7 8 7 8.6 7.3C9.2 7.6 9.7 8.1 10 8.6C10.4 9.1 10.5 9.9 10.5 10.7C10.5 11.5 10.3 12.2 9.9 12.8C9.5 13.5 8.9 14 8.2 14.4C7.5 14.9 6.6 15.1 5.5 15.1Z" fill="#272D3D"/>
</g>
<defs>
<clipPath id="clip0">
<rect width="68.5" height="40" fill="white"/>
</clipPath>
</defs>
</svg>
