<svg width="553" height="454" viewBox="0 0 553 454" fill="none" xmlns="http://www.w3.org/2000/svg">
<path d="M411.8 0.799805H139.8C135.382 0.799805 131.8 4.38153 131.8 8.7998V216.8C131.8 221.218 135.382 224.8 139.8 224.8H411.8C416.218 224.8 419.8 221.218 419.8 216.8V8.7998C419.8 4.38153 416.218 0.799805 411.8 0.799805Z" fill="white"/>
<path d="M411.8 0.799805H139.8C135.382 0.799805 131.8 4.38153 131.8 8.7998V216.8C131.8 221.218 135.382 224.8 139.8 224.8H411.8C416.218 224.8 419.8 221.218 419.8 216.8V8.7998C419.8 4.38153 416.218 0.799805 411.8 0.799805Z" stroke="#272D3D" stroke-linecap="round" stroke-linejoin="round"/>
<path d="M183.3 37.2998H143.3V45.2998H183.3V37.2998Z" fill="white"/>
<path d="M183.3 37.2998H143.3V45.2998H183.3V37.2998Z" stroke="#272D3D" stroke-linecap="round" stroke-linejoin="round"/>
<path d="M143.3 44.8998L183.3 37.2998" stroke="#272D3D" stroke-linecap="round" stroke-linejoin="round"/>
<path d="M195.3 40.7998H219.3" stroke="#272D3D" stroke-linecap="round" stroke-linejoin="round"/>
<path d="M227.3 40.7998H251.3" stroke="#272D3D" stroke-linecap="round" stroke-linejoin="round"/>
<path d="M259.3 40.7998H283.3" stroke="#272D3D" stroke-linecap="round" stroke-linejoin="round"/>
<path d="M235.8 68.7998H187.8C185.591 68.7998 183.8 70.5907 183.8 72.7998V120.8C183.8 123.009 185.591 124.8 187.8 124.8H235.8C238.009 124.8 239.8 123.009 239.8 120.8V72.7998C239.8 70.5907 238.009 68.7998 235.8 68.7998Z" fill="#272D3D"/>
<path d="M307.8 68.7998H259.8C257.591 68.7998 255.8 70.5907 255.8 72.7998V120.8C255.8 123.009 257.591 124.8 259.8 124.8H307.8C310.009 124.8 311.8 123.009 311.8 120.8V72.7998C311.8 70.5907 310.009 68.7998 307.8 68.7998Z" fill="#272D3D"/>
<path d="M380.6 68.7998H332.6C330.39 68.7998 328.6 70.5907 328.6 72.7998V120.8C328.6 123.009 330.39 124.8 332.6 124.8H380.6C382.809 124.8 384.6 123.009 384.6 120.8V72.7998C384.6 70.5907 382.809 68.7998 380.6 68.7998Z" fill="#272D3D"/>
<path d="M235.8 140.7H187.8C185.591 140.7 183.8 142.491 183.8 144.7V192.7C183.8 194.909 185.591 196.7 187.8 196.7H235.8C238.009 196.7 239.8 194.909 239.8 192.7V144.7C239.8 142.491 238.009 140.7 235.8 140.7Z" fill="#272D3D"/>
<path d="M307.8 140.7H259.8C257.591 140.7 255.8 142.491 255.8 144.7V192.7C255.8 194.909 257.591 196.7 259.8 196.7H307.8C310.009 196.7 311.8 194.909 311.8 192.7V144.7C311.8 142.491 310.009 140.7 307.8 140.7Z" fill="#272D3D"/>
<path d="M384.6 144.7H336.6C334.39 144.7 332.6 146.491 332.6 148.7V196.7C332.6 198.909 334.39 200.7 336.6 200.7H384.6C386.809 200.7 388.6 198.909 388.6 196.7V148.7C388.6 146.491 386.809 144.7 384.6 144.7Z" fill="#272D3D"/>
<path d="M227.8 60.7998H179.8C177.591 60.7998 175.8 62.5907 175.8 64.7998V112.8C175.8 115.009 177.591 116.8 179.8 116.8H227.8C230.009 116.8 231.8 115.009 231.8 112.8V64.7998C231.8 62.5907 230.009 60.7998 227.8 60.7998Z" fill="white"/>
<path d="M299.8 60.7998H251.8C249.591 60.7998 247.8 62.5907 247.8 64.7998V112.8C247.8 115.009 249.591 116.8 251.8 116.8H299.8C302.009 116.8 303.8 115.009 303.8 112.8V64.7998C303.8 62.5907 302.009 60.7998 299.8 60.7998Z" fill="white"/>
<path d="M372.6 60.7998H324.6C322.39 60.7998 320.6 62.5907 320.6 64.7998V112.8C320.6 115.009 322.39 116.8 324.6 116.8H372.6C374.809 116.8 376.6 115.009 376.6 112.8V64.7998C376.6 62.5907 374.809 60.7998 372.6 60.7998Z" fill="white"/>
<path d="M227.8 132.7H179.8C177.591 132.7 175.8 134.491 175.8 136.7V184.7C175.8 186.909 177.591 188.7 179.8 188.7H227.8C230.009 188.7 231.8 186.909 231.8 184.7V136.7C231.8 134.491 230.009 132.7 227.8 132.7Z" fill="white"/>
<path d="M300.5 132.7H252.5C250.291 132.7 248.5 134.491 248.5 136.7V184.7C248.5 186.909 250.291 188.7 252.5 188.7H300.5C302.709 188.7 304.5 186.909 304.5 184.7V136.7C304.5 134.491 302.709 132.7 300.5 132.7Z" fill="white"/>
<path d="M372.6 132.7H324.6C322.39 132.7 320.6 134.491 320.6 136.7V184.7C320.6 186.909 322.39 188.7 324.6 188.7H372.6C374.809 188.7 376.6 186.909 376.6 184.7V136.7C376.6 134.491 374.809 132.7 372.6 132.7Z" stroke="#272D3D" stroke-linecap="round" stroke-linejoin="round" stroke-dasharray="4.02 4.02"/>
<path d="M376.6 136.7H328.6C326.39 136.7 324.6 138.491 324.6 140.7V188.7C324.6 190.909 326.39 192.7 328.6 192.7H376.6C378.809 192.7 380.6 190.909 380.6 188.7V140.7C380.6 138.491 378.809 136.7 376.6 136.7Z" fill="white"/>
<path d="M227.8 60.7998H179.8C177.591 60.7998 175.8 62.5907 175.8 64.7998V112.8C175.8 115.009 177.591 116.8 179.8 116.8H227.8C230.009 116.8 231.8 115.009 231.8 112.8V64.7998C231.8 62.5907 230.009 60.7998 227.8 60.7998Z" stroke="#272D3D" stroke-linecap="round" stroke-linejoin="round"/>
<path d="M299.8 60.7998H251.8C249.591 60.7998 247.8 62.5907 247.8 64.7998V112.8C247.8 115.009 249.591 116.8 251.8 116.8H299.8C302.009 116.8 303.8 115.009 303.8 112.8V64.7998C303.8 62.5907 302.009 60.7998 299.8 60.7998Z" stroke="#272D3D" stroke-linecap="round" stroke-linejoin="round"/>
<path d="M372.6 60.7998H324.6C322.39 60.7998 320.6 62.5907 320.6 64.7998V112.8C320.6 115.009 322.39 116.8 324.6 116.8H372.6C374.809 116.8 376.6 115.009 376.6 112.8V64.7998C376.6 62.5907 374.809 60.7998 372.6 60.7998Z" stroke="#272D3D" stroke-linecap="round" stroke-linejoin="round"/>
<path d="M227.8 132.7H179.8C177.591 132.7 175.8 134.491 175.8 136.7V184.7C175.8 186.909 177.591 188.7 179.8 188.7H227.8C230.009 188.7 231.8 186.909 231.8 184.7V136.7C231.8 134.491 230.009 132.7 227.8 132.7Z" stroke="#272D3D" stroke-linecap="round" stroke-linejoin="round"/>
<path d="M299.8 132.7H251.8C249.591 132.7 247.8 134.491 247.8 136.7V184.7C247.8 186.909 249.591 188.7 251.8 188.7H299.8C302.009 188.7 303.8 186.909 303.8 184.7V136.7C303.8 134.491 302.009 132.7 299.8 132.7Z" stroke="#272D3D" stroke-linecap="round" stroke-linejoin="round"/>
<path d="M376.6 136.7H328.6C326.39 136.7 324.6 138.491 324.6 140.7V188.7C324.6 190.909 326.39 192.7 328.6 192.7H376.6C378.809 192.7 380.6 190.909 380.6 188.7V140.7C380.6 138.491 378.809 136.7 376.6 136.7Z" stroke="#272D3D" stroke-linecap="round" stroke-linejoin="round"/>
<path d="M219.8 83.7998L203.8 103.8L187.8 83.7998L195.8 75.7998H211.8L219.8 83.7998Z" fill="white"/>
<path d="M195.8 75.7998H211.8L203.8 83.7998L195.8 75.7998Z" stroke="#272D3D" stroke-linecap="round" stroke-linejoin="round"/>
<path d="M187.8 83.7998L195.8 75.7998L203.8 83.7998H187.8Z" stroke="#272D3D" stroke-linecap="round" stroke-linejoin="round"/>
<path d="M211.8 75.7998L219.8 83.7998H203.8L211.8 75.7998Z" stroke="#272D3D" stroke-linecap="round" stroke-linejoin="round"/>
<path d="M187.8 83.7998L203.8 103.8L219.8 83.7998H187.8Z" stroke="#272D3D" stroke-linecap="round" stroke-linejoin="round"/>
<path d="M195.8 83.7998H211.8L203.8 103.8L195.8 83.7998Z" stroke="#272D3D" stroke-linecap="round" stroke-linejoin="round"/>
<path d="M269.3 93.1001V103.5C269.3 104.031 269.089 104.539 268.714 104.914C268.339 105.289 267.83 105.5 267.3 105.5H263.3C262.769 105.5 262.261 105.289 261.886 104.914C261.511 104.539 261.3 104.031 261.3 103.5V93.1001C261.3 92.5697 261.511 92.061 261.886 91.6859C262.261 91.3108 262.769 91.1001 263.3 91.1001H267.3C267.83 91.1001 268.339 91.3108 268.714 91.6859C269.089 92.061 269.3 92.5697 269.3 93.1001Z" fill="white"/>
<path d="M267.699 86.3V91.1H262.899V81.5C264.165 81.537 265.374 82.0348 266.299 82.9C266.745 83.3469 267.098 83.8772 267.338 84.4606C267.578 85.044 267.701 85.6691 267.699 86.3Z" fill="white"/>
<path d="M286.9 102.1C286.913 102.533 286.841 102.965 286.687 103.371C286.534 103.776 286.302 104.147 286.005 104.463C285.707 104.779 285.351 105.033 284.955 105.211C284.56 105.389 284.133 105.487 283.7 105.5H281C280.558 105.516 280.118 105.438 279.709 105.27C279.299 105.102 278.931 104.849 278.628 104.527C278.325 104.205 278.094 103.821 277.951 103.403C277.808 102.984 277.757 102.54 277.8 102.1L278.8 87.8999H285.9L286.9 102.1Z" fill="white"/>
<path d="M290.3 73.4998L285.5 83.0998H279.1L274.3 73.4998C279.446 71.5014 285.154 71.5014 290.3 73.4998Z" fill="white"/>
<path d="M285.9 87.8996H278.8L279.1 83.0996H285.5L285.9 87.8996Z" fill="white"/>
<path d="M267.3 91.1001H263.3C262.195 91.1001 261.3 91.9955 261.3 93.1001V103.5C261.3 104.605 262.195 105.5 263.3 105.5H267.3C268.404 105.5 269.3 104.605 269.3 103.5V93.1001C269.3 91.9955 268.404 91.1001 267.3 91.1001Z" stroke="#272D3D" stroke-linecap="round" stroke-linejoin="round"/>
<path d="M267.699 91.1H262.899V81.5C264.172 81.5 265.393 82.0057 266.294 82.9059C267.194 83.8061 267.699 85.027 267.699 86.3V91.1Z" stroke="#272D3D" stroke-linecap="round" stroke-linejoin="round"/>
<path d="M266.7 95.0996V99.0996" stroke="#272D3D" stroke-linecap="round" stroke-linejoin="round"/>
<path d="M283.7 105.5H280.9C280.466 105.502 280.037 105.413 279.64 105.238C279.243 105.064 278.887 104.809 278.594 104.488C278.302 104.168 278.081 103.79 277.944 103.378C277.807 102.967 277.758 102.531 277.8 102.1L279.1 83.0996H285.5L286.9 102.1C286.913 102.533 286.841 102.965 286.687 103.37C286.534 103.776 286.302 104.147 286.004 104.463C285.707 104.779 285.351 105.033 284.955 105.211C284.56 105.388 284.133 105.487 283.7 105.5Z" stroke="#272D3D" stroke-linecap="round" stroke-linejoin="round"/>
<path d="M285.5 83.0998H279.1L274.3 73.4998C279.446 71.5014 285.154 71.5014 290.3 73.4998L285.5 83.0998Z" stroke="#272D3D" stroke-linecap="round" stroke-linejoin="round"/>
<path d="M285.9 87.8996L285.5 83.0996H279.1L278.8 87.8996H285.9Z" stroke="#272D3D" stroke-linecap="round" stroke-linejoin="round"/>
<path d="M280.7 78.2998L281.5 83.0998H283.1L283.9 78.2998" stroke="#272D3D" stroke-linecap="round" stroke-linejoin="round"/>
<path d="M331.6 79.2998V101.3H365.6V79.2998H331.6ZM343.6 98.2998C342.017 98.2998 340.471 97.8306 339.155 96.9516C337.839 96.0725 336.814 94.8231 336.209 93.3613C335.603 91.8995 335.445 90.2909 335.753 88.7391C336.062 87.1872 336.824 85.7618 337.943 84.6429C339.062 83.5241 340.487 82.7622 342.039 82.4535C343.591 82.1448 345.199 82.3033 346.661 82.9088C348.123 83.5143 349.372 84.5396 350.251 85.8552C351.13 87.1708 351.6 88.7176 351.6 90.2998C351.6 92.4215 350.757 94.4564 349.256 95.9567C347.756 97.4569 345.721 98.2998 343.6 98.2998ZM361.1 85.2998C360.702 85.2998 360.32 85.1418 360.039 84.8605C359.758 84.5792 359.6 84.1976 359.6 83.7998C359.585 83.599 359.613 83.3973 359.683 83.2086C359.753 83.0198 359.863 82.8484 360.006 82.706C360.148 82.5636 360.32 82.4536 360.508 82.3835C360.697 82.3134 360.899 82.2849 361.1 82.2998C361.497 82.2998 361.879 82.4578 362.16 82.7391C362.442 83.0204 362.6 83.402 362.6 83.7998C362.6 84.1976 362.442 84.5792 362.16 84.8605C361.879 85.1418 361.497 85.2998 361.1 85.2998Z" fill="white"/>
<path d="M343.6 82.2998C341.478 82.2998 339.443 83.1427 337.943 84.6429C336.442 86.1432 335.6 88.1781 335.6 90.2998C335.6 92.4215 336.442 94.4564 337.943 95.9567C339.443 97.4569 341.478 98.2998 343.6 98.2998C345.721 98.2998 347.756 97.4569 349.256 95.9567C350.757 94.4564 351.6 92.4215 351.6 90.2998C351.6 88.1781 350.757 86.1432 349.256 84.6429C347.756 83.1427 345.721 82.2998 343.6 82.2998ZM343.6 95.2998C342.274 95.2998 341.002 94.773 340.064 93.8353C339.126 92.8977 338.6 91.6259 338.6 90.2998C338.6 88.9737 339.126 87.7019 340.064 86.7643C341.002 85.8266 342.274 85.2998 343.6 85.2998C344.926 85.2998 346.197 85.8266 347.135 86.7643C348.073 87.7019 348.6 88.9737 348.6 90.2998C348.574 91.6179 348.039 92.8748 347.107 93.807C346.175 94.7392 344.918 95.2742 343.6 95.2998Z" fill="white"/>
<path d="M343.6 95.2998C346.361 95.2998 348.6 93.0612 348.6 90.2998C348.6 87.5384 346.361 85.2998 343.6 85.2998C340.838 85.2998 338.6 87.5384 338.6 90.2998C338.6 93.0612 340.838 95.2998 343.6 95.2998Z" fill="white"/>
<path d="M361.1 85.2998C361.928 85.2998 362.6 84.6282 362.6 83.7998C362.6 82.9714 361.928 82.2998 361.1 82.2998C360.271 82.2998 359.6 82.9714 359.6 83.7998C359.6 84.6282 360.271 85.2998 361.1 85.2998Z" fill="white"/>
<path d="M351.599 78.2997V79.2997H335.599V78.2997C335.585 78.0332 335.627 77.7667 335.722 77.5175C335.818 77.2683 335.964 77.042 336.153 76.8534C336.342 76.6647 336.568 76.5179 336.817 76.4225C337.067 76.3271 337.333 76.2852 337.599 76.2997H349.599C349.866 76.2852 350.132 76.3271 350.382 76.4225C350.631 76.5179 350.857 76.6647 351.046 76.8534C351.234 77.042 351.381 77.2683 351.477 77.5175C351.572 77.7667 351.614 78.0332 351.599 78.2997Z" fill="white"/>
<path d="M365.6 79.2998H331.6V101.3H365.6V79.2998Z" stroke="#272D3D" stroke-linecap="round" stroke-linejoin="round"/>
<path d="M343.6 98.2998C348.018 98.2998 351.6 94.7181 351.6 90.2998C351.6 85.8815 348.018 82.2998 343.6 82.2998C339.181 82.2998 335.6 85.8815 335.6 90.2998C335.6 94.7181 339.181 98.2998 343.6 98.2998Z" stroke="#272D3D" stroke-linecap="round" stroke-linejoin="round"/>
<path d="M343.6 95.2998C346.361 95.2998 348.6 93.0612 348.6 90.2998C348.6 87.5384 346.361 85.2998 343.6 85.2998C340.838 85.2998 338.6 87.5384 338.6 90.2998C338.6 93.0612 340.838 95.2998 343.6 95.2998Z" stroke="#272D3D" stroke-linecap="round" stroke-linejoin="round"/>
<path d="M361.1 85.2998C361.928 85.2998 362.6 84.6282 362.6 83.7998C362.6 82.9714 361.928 82.2998 361.1 82.2998C360.271 82.2998 359.6 82.9714 359.6 83.7998C359.6 84.6282 360.271 85.2998 361.1 85.2998Z" stroke="#272D3D" stroke-linecap="round" stroke-linejoin="round"/>
<path d="M337.6 76.2998H349.6C350.13 76.2998 350.639 76.5105 351.014 76.8856C351.389 77.2607 351.6 77.7694 351.6 78.2998V79.2998H335.6V78.2998C335.6 77.7694 335.81 77.2607 336.185 76.8856C336.56 76.5105 337.069 76.2998 337.6 76.2998Z" stroke="#272D3D" stroke-linecap="round" stroke-linejoin="round"/>
<path d="M219.2 159.3V163.8C219.2 165.258 218.621 166.657 217.589 167.689C216.558 168.72 215.159 169.3 213.7 169.3C212.242 169.3 210.843 168.72 209.811 167.689C208.78 166.657 208.2 165.258 208.2 163.8V159.3H219.2Z" fill="white"/>
<path d="M219.2 155.3H208.2V159.3H219.2V155.3Z" fill="white"/>
<path d="M200.4 154.8V160.9H188.4V154.8C188.403 154.35 188.55 153.912 188.82 153.552C189.09 153.192 189.469 152.928 189.9 152.8L191.9 152.3V145.3H196.9V152.3L198.9 152.8C199.332 152.928 199.71 153.192 199.98 153.552C200.251 153.912 200.398 154.35 200.4 154.8Z" fill="white"/>
<path d="M200.4 160.899H188.4V171.899H200.4V160.899Z" fill="white"/>
<path d="M200.4 170.899V178.299C200.4 178.83 200.19 179.339 199.815 179.714C199.44 180.089 198.931 180.299 198.4 180.299H190.4C189.87 180.299 189.361 180.089 188.986 179.714C188.611 179.339 188.4 178.83 188.4 178.299V170.899H200.4Z" fill="white"/>
<path d="M196.9 141.3V145.3H191.9V141.3C191.886 141.033 191.928 140.767 192.023 140.518C192.118 140.268 192.265 140.042 192.454 139.853C192.643 139.665 192.869 139.518 193.118 139.422C193.367 139.327 193.634 139.285 193.9 139.3H194.9C195.167 139.285 195.433 139.327 195.682 139.422C195.932 139.518 196.158 139.665 196.347 139.853C196.535 140.042 196.682 140.268 196.777 140.518C196.873 140.767 196.915 141.033 196.9 141.3Z" fill="white"/>
<path d="M208.2 155.2H219.2V163.7C219.2 165.158 218.621 166.557 217.589 167.589C216.558 168.62 215.159 169.2 213.7 169.2C212.242 169.2 210.843 168.62 209.811 167.589C208.78 166.557 208.2 165.158 208.2 163.7V155.2Z" stroke="#272D3D" stroke-linecap="round" stroke-linejoin="round"/>
<path d="M219.2 155.2H208.2V159.2H219.2V155.2Z" stroke="#272D3D" stroke-linecap="round" stroke-linejoin="round"/>
<path d="M213.7 169.2V180.2" stroke="#272D3D" stroke-linecap="round" stroke-linejoin="round"/>
<path d="M209.2 180.2H218.2" stroke="#272D3D" stroke-linecap="round" stroke-linejoin="round"/>
<path d="M188.4 160.9H200.4" stroke="#272D3D" stroke-linecap="round" stroke-linejoin="round"/>
<path d="M188.4 171.9H200.4" stroke="#272D3D" stroke-linecap="round" stroke-linejoin="round"/>
<path d="M196.9 152.2V141.2C196.9 140.669 196.69 140.161 196.314 139.785C195.939 139.41 195.431 139.2 194.9 139.2H193.9C193.37 139.2 192.861 139.41 192.486 139.785C192.111 140.161 191.9 140.669 191.9 141.2V152.2L189.8 152.8C189.395 152.958 189.047 153.232 188.797 153.588C188.548 153.944 188.41 154.365 188.4 154.8V178.2C188.386 178.466 188.428 178.733 188.523 178.982C188.618 179.231 188.765 179.457 188.954 179.646C189.143 179.835 189.369 179.981 189.618 180.077C189.867 180.172 190.134 180.214 190.4 180.2H198.4C198.667 180.214 198.933 180.172 199.182 180.077C199.432 179.981 199.658 179.835 199.847 179.646C200.035 179.457 200.182 179.231 200.277 178.982C200.373 178.733 200.415 178.466 200.4 178.2V154.8C200.398 154.35 200.25 153.912 199.98 153.552C199.71 153.192 199.332 152.928 198.9 152.8L196.9 152.2Z" stroke="#272D3D" stroke-linecap="round" stroke-linejoin="round"/>
<path d="M191.9 141.2V145.2H196.9V141.2C196.9 140.669 196.69 140.161 196.315 139.785C195.94 139.41 195.431 139.2 194.9 139.2H193.9C193.37 139.2 192.861 139.41 192.486 139.785C192.111 140.161 191.9 140.669 191.9 141.2Z" stroke="#272D3D" stroke-linecap="round" stroke-linejoin="round"/>
<path d="M346.6 146.7H358.6C359.66 146.7 360.678 147.121 361.428 147.871C362.178 148.621 362.6 149.639 362.6 150.7V170.7H342.6V150.7C342.6 149.639 343.021 148.621 343.771 147.871C344.521 147.121 345.539 146.7 346.6 146.7Z" fill="white"/>
<path d="M342.6 158.7V170.7H338.6V162.7C338.6 161.639 339.021 160.621 339.771 159.871C340.521 159.121 341.539 158.7 342.6 158.7Z" fill="white"/>
<path d="M362.6 158.7C363.66 158.7 364.678 159.121 365.428 159.871C366.178 160.621 366.6 161.639 366.6 162.7V170.7H362.6V158.7Z" fill="white"/>
<path d="M366.6 170.7H338.6V174.7H366.6V170.7Z" fill="white"/>
<path d="M343.6 174.7H340.6V182.7H343.6V174.7Z" fill="white"/>
<path d="M364.6 174.7H361.6V182.7H364.6V174.7Z" fill="white"/>
<path d="M346.6 146.7H358.6C359.66 146.7 360.678 147.121 361.428 147.871C362.178 148.621 362.6 149.639 362.6 150.7V170.7H342.6V150.7C342.6 149.639 343.021 148.621 343.771 147.871C344.521 147.121 345.539 146.7 346.6 146.7Z" stroke="#272D3D" stroke-linecap="round" stroke-linejoin="round"/>
<path d="M342.6 158.7V170.7H338.6V162.7C338.6 161.639 339.021 160.621 339.771 159.871C340.521 159.121 341.539 158.7 342.6 158.7Z" stroke="#272D3D" stroke-linecap="round" stroke-linejoin="round"/>
<path d="M362.6 158.7C363.66 158.7 364.678 159.121 365.428 159.871C366.178 160.621 366.6 161.639 366.6 162.7V170.7H362.6V158.7Z" stroke="#272D3D" stroke-linecap="round" stroke-linejoin="round"/>
<path d="M366.6 170.7H338.6V174.7H366.6V170.7Z" stroke="#272D3D" stroke-linecap="round" stroke-linejoin="round"/>
<path d="M343.6 174.7H340.6V182.7H343.6V174.7Z" stroke="#272D3D" stroke-linecap="round" stroke-linejoin="round"/>
<path d="M364.6 174.7H361.6V182.7H364.6V174.7Z" stroke="#272D3D" stroke-linecap="round" stroke-linejoin="round"/>
<path d="M294.5 157.7L287 159.7V177.7H266V159.7L258.5 157.7C258.5 157.7 259.8 151.6 262.5 147.7C265.2 143.8 270.5 143.7 270.5 143.7H271.5C271.732 144.855 272.357 145.894 273.269 146.64C274.18 147.387 275.322 147.795 276.5 147.795C277.678 147.795 278.82 147.387 279.731 146.64C280.643 145.894 281.268 144.855 281.5 143.7H282.5C282.5 143.7 288 144.2 290.5 147.7C293 151.2 294.5 157.7 294.5 157.7Z" fill="white"/>
<path d="M281.5 143.7C281.268 144.855 280.643 145.894 279.731 146.64C278.82 147.387 277.678 147.795 276.5 147.795C275.322 147.795 274.18 147.387 273.269 146.64C272.357 145.894 271.732 144.855 271.5 143.7H281.5Z" fill="white"/>
<path d="M290.5 147.7C288 144.2 282.5 143.7 282.5 143.7H270.5C270.5 143.7 265 144.2 262.5 147.7C260 151.2 258.5 157.7 258.5 157.7L266 159.7V177.7H287V159.7L294.5 157.7C294.5 157.7 293.3 151.6 290.5 147.7Z" stroke="#272D3D" stroke-linecap="round" stroke-linejoin="round"/>
<path d="M266 159.7V155.7" stroke="#272D3D" stroke-linecap="round" stroke-linejoin="round"/>
<path d="M287 159.7V155.7" stroke="#272D3D" stroke-linecap="round" stroke-linejoin="round"/>
<path d="M271.5 143.7C271.732 144.855 272.357 145.894 273.269 146.64C274.18 147.387 275.322 147.795 276.5 147.795C277.678 147.795 278.82 147.387 279.731 146.64C280.643 145.894 281.268 144.855 281.5 143.7" stroke="#272D3D" stroke-linecap="round" stroke-linejoin="round"/>
<path d="M266 173.7H287" stroke="#272D3D" stroke-linecap="round" stroke-linejoin="round"/>
<path d="M407.8 34.7998L405.7 41.7998H395.7L393.6 34.7998L392.7 31.7998H388.7" fill="white"/>
<path d="M407.8 34.7998L405.7 41.7998H395.7L393.6 34.7998L392.7 31.7998H388.7" stroke="#272D3D" stroke-linecap="round" stroke-linejoin="round"/>
<path d="M407.801 34.7998H393.601" stroke="#272D3D" stroke-linecap="round" stroke-linejoin="round"/>
<path d="M395.7 45.6997H405.7" stroke="#272D3D" stroke-linecap="round" stroke-linejoin="round"/>
<path d="M395.7 45.7998C395.17 45.7998 394.661 45.5891 394.286 45.214C393.911 44.8389 393.7 44.3302 393.7 43.7998C393.7 43.2694 393.911 42.7607 394.286 42.3856C394.661 42.0105 395.17 41.7998 395.7 41.7998" fill="white"/>
<path d="M395.7 45.7998C395.17 45.7998 394.661 45.5891 394.286 45.214C393.911 44.8389 393.7 44.3302 393.7 43.7998C393.7 43.2694 393.911 42.7607 394.286 42.3856C394.661 42.0105 395.17 41.7998 395.7 41.7998" stroke="#272D3D" stroke-linecap="round" stroke-linejoin="round"/>
<path d="M395.7 49.7998C396.252 49.7998 396.7 49.3521 396.7 48.7998C396.7 48.2475 396.252 47.7998 395.7 47.7998C395.148 47.7998 394.7 48.2475 394.7 48.7998C394.7 49.3521 395.148 49.7998 395.7 49.7998Z" fill="white" stroke="#272D3D" stroke-linecap="round" stroke-linejoin="round"/>
<path d="M404.7 49.7998C405.252 49.7998 405.7 49.3521 405.7 48.7998C405.7 48.2475 405.252 47.7998 404.7 47.7998C404.148 47.7998 403.7 48.2475 403.7 48.7998C403.7 49.3521 404.148 49.7998 404.7 49.7998Z" fill="white" stroke="#272D3D" stroke-linecap="round" stroke-linejoin="round"/>
<path d="M359.8 40.7998H383.8" stroke="#272D3D" stroke-linecap="round" stroke-linejoin="round"/>
<path d="M140 0.799805H411.6C413.775 0.799805 415.86 1.66373 417.398 3.20153C418.936 4.73933 419.8 6.82503 419.8 8.9998V24.7998H131.8V8.8998C131.826 6.7424 132.702 4.6823 134.237 3.16607C135.772 1.64983 137.842 0.799644 140 0.799805Z" fill="#272D3D"/>
<path d="M169.8 15.7998C171.457 15.7998 172.8 14.4567 172.8 12.7998C172.8 11.143 171.457 9.7998 169.8 9.7998C168.143 9.7998 166.8 11.143 166.8 12.7998C166.8 14.4567 168.143 15.7998 169.8 15.7998Z" fill="white"/>
<path d="M145.8 15.7998C147.457 15.7998 148.8 14.4567 148.8 12.7998C148.8 11.143 147.457 9.7998 145.8 9.7998C144.143 9.7998 142.8 11.143 142.8 12.7998C142.8 14.4567 144.143 15.7998 145.8 15.7998Z" fill="white"/>
<path d="M157.8 15.7998C159.457 15.7998 160.8 14.4567 160.8 12.7998C160.8 11.143 159.457 9.7998 157.8 9.7998C156.143 9.7998 154.8 11.143 154.8 12.7998C154.8 14.4567 156.143 15.7998 157.8 15.7998Z" fill="white"/>
<path d="M140 0.799805H411.6C413.775 0.799805 415.86 1.66373 417.398 3.20153C418.936 4.73933 419.8 6.82503 419.8 8.9998V24.7998H131.8V8.8998C131.826 6.7424 132.702 4.6823 134.237 3.16607C135.772 1.64983 137.842 0.799644 140 0.799805V0.799805Z" stroke="#272D3D" stroke-linecap="round" stroke-linejoin="round"/>
<path d="M169.8 15.7998C171.457 15.7998 172.8 14.4567 172.8 12.7998C172.8 11.143 171.457 9.7998 169.8 9.7998C168.143 9.7998 166.8 11.143 166.8 12.7998C166.8 14.4567 168.143 15.7998 169.8 15.7998Z" stroke="white" stroke-linecap="round" stroke-linejoin="round"/>
<path d="M145.8 15.7998C147.457 15.7998 148.8 14.4567 148.8 12.7998C148.8 11.143 147.457 9.7998 145.8 9.7998C144.143 9.7998 142.8 11.143 142.8 12.7998C142.8 14.4567 144.143 15.7998 145.8 15.7998Z" stroke="white" stroke-linecap="round" stroke-linejoin="round"/>
<path d="M157.8 15.7998C159.457 15.7998 160.8 14.4567 160.8 12.7998C160.8 11.143 159.457 9.7998 157.8 9.7998C156.143 9.7998 154.8 11.143 154.8 12.7998C154.8 14.4567 156.143 15.7998 157.8 15.7998Z" stroke="white" stroke-linecap="round" stroke-linejoin="round"/>
<path d="M74.7998 116H18.7998C16.5907 116 14.7998 117.791 14.7998 120V160C14.7998 162.209 16.5907 164 18.7998 164H74.7998C77.0089 164 78.7998 162.209 78.7998 160V120C78.7998 117.791 77.0089 116 74.7998 116Z" fill="white"/>
<path d="M19.7998 121C20.3521 121 20.7998 120.552 20.7998 120C20.7998 119.448 20.3521 119 19.7998 119C19.2475 119 18.7998 119.448 18.7998 120C18.7998 120.552 19.2475 121 19.7998 121Z" fill="#272D3D"/>
<path d="M23.7998 121C24.3521 121 24.7998 120.552 24.7998 120C24.7998 119.448 24.3521 119 23.7998 119C23.2475 119 22.7998 119.448 22.7998 120C22.7998 120.552 23.2475 121 23.7998 121Z" fill="#272D3D"/>
<path d="M27.7998 121C28.3521 121 28.7998 120.552 28.7998 120C28.7998 119.448 28.3521 119 27.7998 119C27.2475 119 26.7998 119.448 26.7998 120C26.7998 120.552 27.2475 121 27.7998 121Z" fill="#272D3D"/>
<path d="M74.7998 116H18.7998C16.5907 116 14.7998 117.791 14.7998 120V160C14.7998 162.209 16.5907 164 18.7998 164H74.7998C77.0089 164 78.7998 162.209 78.7998 160V120C78.7998 117.791 77.0089 116 74.7998 116Z" stroke="#272D3D" stroke-linecap="round" stroke-linejoin="round"/>
<path d="M18.7998 116H74.7998C75.8607 116 76.8781 116.421 77.6282 117.172C78.3784 117.922 78.7998 118.939 78.7998 120V124H14.7998V120C14.7998 119.475 14.9033 118.955 15.1043 118.469C15.3053 117.984 15.5999 117.543 15.9714 117.172C16.3428 116.8 16.7838 116.506 17.2691 116.304C17.7544 116.103 18.2745 116 18.7998 116V116Z" stroke="#272D3D" stroke-linecap="round" stroke-linejoin="round"/>
<path d="M37.012 148.816C35.776 148.816 34.708 148.546 33.808 148.006C32.92 147.454 32.23 146.692 31.738 145.72C31.246 144.736 31 143.596 31 142.3C31 141.016 31.246 139.888 31.738 138.916C32.23 137.932 32.92 137.164 33.808 136.612C34.708 136.06 35.776 135.784 37.012 135.784C38.452 135.784 39.622 136.132 40.522 136.828C41.434 137.512 42.016 138.472 42.268 139.708H40.594C40.402 138.928 40.006 138.304 39.406 137.836C38.818 137.356 38.02 137.116 37.012 137.116C36.112 137.116 35.326 137.326 34.654 137.746C33.982 138.154 33.46 138.748 33.088 139.528C32.728 140.296 32.548 141.22 32.548 142.3C32.548 143.38 32.728 144.31 33.088 145.09C33.46 145.858 33.982 146.452 34.654 146.872C35.326 147.28 36.112 147.484 37.012 147.484C38.02 147.484 38.818 147.256 39.406 146.8C40.006 146.332 40.402 145.714 40.594 144.946H42.268C42.016 146.158 41.434 147.106 40.522 147.79C39.622 148.474 38.452 148.816 37.012 148.816Z" fill="#272D3D"/>
<path d="M48.4551 148.816C47.5311 148.816 46.7271 148.648 46.0431 148.312C45.3591 147.976 44.8311 147.508 44.4591 146.908C44.0871 146.308 43.9011 145.612 43.9011 144.82H45.4851C45.4851 145.312 45.5991 145.768 45.8271 146.188C46.0551 146.596 46.3851 146.926 46.8171 147.178C47.2611 147.418 47.8071 147.538 48.4551 147.538C49.3071 147.538 49.9671 147.334 50.4351 146.926C50.9031 146.518 51.1371 146.008 51.1371 145.396C51.1371 144.892 51.0291 144.49 50.8131 144.19C50.5971 143.878 50.3031 143.626 49.9311 143.434C49.5711 143.242 49.1511 143.074 48.6711 142.93C48.2031 142.786 47.7111 142.624 47.1951 142.444C46.2231 142.108 45.5031 141.694 45.0351 141.202C44.5671 140.698 44.3331 140.044 44.3331 139.24C44.3211 138.568 44.4771 137.974 44.8011 137.458C45.1251 136.93 45.5811 136.522 46.1691 136.234C46.7691 135.934 47.4771 135.784 48.2931 135.784C49.0971 135.784 49.7931 135.934 50.3811 136.234C50.9811 136.534 51.4431 136.948 51.7671 137.476C52.1031 138.004 52.2771 138.604 52.2891 139.276H50.7051C50.7051 138.928 50.6151 138.586 50.4351 138.25C50.2551 137.902 49.9791 137.62 49.6071 137.404C49.2471 137.188 48.7911 137.08 48.2391 137.08C47.5551 137.068 46.9911 137.242 46.5471 137.602C46.1151 137.962 45.8991 138.46 45.8991 139.096C45.8991 139.636 46.0491 140.05 46.3491 140.338C46.6611 140.626 47.0931 140.866 47.6451 141.058C48.1971 141.238 48.8331 141.448 49.5531 141.688C50.1531 141.904 50.6931 142.156 51.1731 142.444C51.6531 142.732 52.0251 143.104 52.2891 143.56C52.5651 144.016 52.7031 144.598 52.7031 145.306C52.7031 145.906 52.5471 146.476 52.2351 147.016C51.9231 147.544 51.4491 147.976 50.8131 148.312C50.1891 148.648 49.4031 148.816 48.4551 148.816Z" fill="#272D3D"/>
<path d="M58.8613 148.816C57.9373 148.816 57.1333 148.648 56.4493 148.312C55.7653 147.976 55.2373 147.508 54.8653 146.908C54.4933 146.308 54.3073 145.612 54.3073 144.82H55.8913C55.8913 145.312 56.0053 145.768 56.2333 146.188C56.4613 146.596 56.7913 146.926 57.2233 147.178C57.6673 147.418 58.2133 147.538 58.8613 147.538C59.7133 147.538 60.3733 147.334 60.8413 146.926C61.3093 146.518 61.5433 146.008 61.5433 145.396C61.5433 144.892 61.4353 144.49 61.2193 144.19C61.0033 143.878 60.7093 143.626 60.3373 143.434C59.9773 143.242 59.5573 143.074 59.0773 142.93C58.6093 142.786 58.1173 142.624 57.6013 142.444C56.6293 142.108 55.9093 141.694 55.4413 141.202C54.9733 140.698 54.7393 140.044 54.7393 139.24C54.7273 138.568 54.8833 137.974 55.2073 137.458C55.5313 136.93 55.9873 136.522 56.5753 136.234C57.1753 135.934 57.8833 135.784 58.6993 135.784C59.5033 135.784 60.1993 135.934 60.7873 136.234C61.3873 136.534 61.8493 136.948 62.1733 137.476C62.5093 138.004 62.6833 138.604 62.6953 139.276H61.1113C61.1113 138.928 61.0213 138.586 60.8413 138.25C60.6613 137.902 60.3853 137.62 60.0133 137.404C59.6533 137.188 59.1973 137.08 58.6453 137.08C57.9613 137.068 57.3973 137.242 56.9533 137.602C56.5213 137.962 56.3053 138.46 56.3053 139.096C56.3053 139.636 56.4553 140.05 56.7553 140.338C57.0673 140.626 57.4993 140.866 58.0513 141.058C58.6033 141.238 59.2393 141.448 59.9593 141.688C60.5593 141.904 61.0993 142.156 61.5793 142.444C62.0593 142.732 62.4313 143.104 62.6953 143.56C62.9713 144.016 63.1093 144.598 63.1093 145.306C63.1093 145.906 62.9533 146.476 62.6413 147.016C62.3293 147.544 61.8553 147.976 61.2193 148.312C60.5953 148.648 59.8093 148.816 58.8613 148.816Z" fill="#272D3D"/>
<path d="M113.8 60H76.4998C75.0086 60 73.7998 61.2088 73.7998 62.7V89.3C73.7998 90.7912 75.0086 92 76.4998 92H113.8C115.291 92 116.5 90.7912 116.5 89.3V62.7C116.5 61.2088 115.291 60 113.8 60Z" fill="white"/>
<path d="M79.7996 63.4C80.1862 63.4 80.4996 63.0866 80.4996 62.7C80.4996 62.3134 80.1862 62 79.7996 62C79.413 62 79.0996 62.3134 79.0996 62.7C79.0996 63.0866 79.413 63.4 79.7996 63.4Z" fill="#272D3D"/>
<path d="M77.0994 63.4C77.486 63.4 77.7994 63.0866 77.7994 62.7C77.7994 62.3134 77.486 62 77.0994 62C76.7128 62 76.3994 62.3134 76.3994 62.7C76.3994 63.0866 76.7128 63.4 77.0994 63.4Z" fill="#272D3D"/>
<path d="M82.4998 63.4C82.8864 63.4 83.1998 63.0866 83.1998 62.7C83.1998 62.3134 82.8864 62 82.4998 62C82.1132 62 81.7998 62.3134 81.7998 62.7C81.7998 63.0866 82.1132 63.4 82.4998 63.4Z" fill="#272D3D"/>
<path d="M113.8 60H76.4998C75.0086 60 73.7998 61.2088 73.7998 62.7V89.3C73.7998 90.7912 75.0086 92 76.4998 92H113.8C115.291 92 116.5 90.7912 116.5 89.3V62.7C116.5 61.2088 115.291 60 113.8 60Z" stroke="#272D3D" stroke-linecap="round" stroke-linejoin="round"/>
<path d="M76.4998 60H113.8C114.516 60 115.203 60.2845 115.709 60.7908C116.215 61.2972 116.5 61.9839 116.5 62.7V65.4H73.7998V62.7C73.7998 61.9839 74.0843 61.2972 74.5906 60.7908C75.097 60.2845 75.7837 60 76.4998 60V60Z" stroke="#272D3D" stroke-linecap="round" stroke-linejoin="round"/>
<path d="M81.998 81.6001V74.6001H83.058V77.6001H86.448V74.6001H87.508V81.6001H86.448V78.4701H83.058V81.6001H81.998Z" fill="#272D3D"/>
<path d="M90.5716 81.6001V75.4601H88.5016V74.6001H93.6916V75.4601H91.6316V81.6001H90.5716Z" fill="#272D3D"/>
<path d="M94.6836 81.6001V74.6001H95.9336L98.3036 79.2601L100.664 74.6001H101.914V81.6001H100.854V76.4301L98.7136 80.6001H97.8936L95.7436 76.4401V81.6001H94.6836Z" fill="#272D3D"/>
<path d="M103.336 81.6001V74.6001H104.396V80.7601H107.576V81.6001H103.336Z" fill="#272D3D"/>
<path d="M548.3 116H492.3C490.091 116 488.3 117.791 488.3 120V160C488.3 162.209 490.091 164 492.3 164H548.3C550.509 164 552.3 162.209 552.3 160V120C552.3 117.791 550.509 116 548.3 116Z" fill="white"/>
<path d="M493.3 121C493.852 121 494.3 120.552 494.3 120C494.3 119.448 493.852 119 493.3 119C492.748 119 492.3 119.448 492.3 120C492.3 120.552 492.748 121 493.3 121Z" fill="#272D3D"/>
<path d="M497.3 121C497.852 121 498.3 120.552 498.3 120C498.3 119.448 497.852 119 497.3 119C496.748 119 496.3 119.448 496.3 120C496.3 120.552 496.748 121 497.3 121Z" fill="#272D3D"/>
<path d="M501.3 121C501.852 121 502.3 120.552 502.3 120C502.3 119.448 501.852 119 501.3 119C500.748 119 500.3 119.448 500.3 120C500.3 120.552 500.748 121 501.3 121Z" fill="#272D3D"/>
<path d="M548.3 116H492.3C490.091 116 488.3 117.791 488.3 120V160C488.3 162.209 490.091 164 492.3 164H548.3C550.509 164 552.3 162.209 552.3 160V120C552.3 117.791 550.509 116 548.3 116Z" stroke="#272D3D" stroke-linecap="round" stroke-linejoin="round"/>
<path d="M492.3 116H548.3C549.361 116 550.378 116.421 551.128 117.172C551.878 117.922 552.3 118.939 552.3 120V124H488.3V120C488.3 119.475 488.403 118.955 488.604 118.469C488.805 117.984 489.1 117.543 489.471 117.172C489.843 116.8 490.284 116.506 490.769 116.304C491.254 116.103 491.775 116 492.3 116Z" stroke="#272D3D" stroke-linecap="round" stroke-linejoin="round"/>
<path d="M504.999 148.6V136H509.139C510.123 136 510.933 136.162 511.569 136.486C512.205 136.81 512.673 137.248 512.973 137.8C513.285 138.352 513.441 138.976 513.441 139.672C513.441 140.356 513.291 140.974 512.991 141.526C512.691 142.078 512.223 142.522 511.587 142.858C510.951 143.182 510.135 143.344 509.139 143.344H506.511V148.6H504.999ZM506.511 142.066H509.103C510.111 142.066 510.825 141.856 511.245 141.436C511.677 141.004 511.893 140.416 511.893 139.672C511.893 138.916 511.677 138.328 511.245 137.908C510.825 137.476 510.111 137.26 509.103 137.26H506.511V142.066Z" fill="#272D3D"/>
<path d="M515.423 148.6V136H516.935V141.562H523.469V136H524.981V148.6H523.469V142.804H516.935V148.6H515.423Z" fill="#272D3D"/>
<path d="M527.64 148.6V136H531.78C532.764 136 533.574 136.162 534.21 136.486C534.846 136.81 535.314 137.248 535.614 137.8C535.926 138.352 536.082 138.976 536.082 139.672C536.082 140.356 535.932 140.974 535.632 141.526C535.332 142.078 534.864 142.522 534.228 142.858C533.592 143.182 532.776 143.344 531.78 143.344H529.152V148.6H527.64ZM529.152 142.066H531.744C532.752 142.066 533.466 141.856 533.886 141.436C534.318 141.004 534.534 140.416 534.534 139.672C534.534 138.916 534.318 138.328 533.886 137.908C533.466 137.476 532.752 137.26 531.744 137.26H529.152V142.066Z" fill="#272D3D"/>
<path d="M137.5 412H29.5001L14.9001 313.2C14.7274 312.062 14.8024 310.9 15.12 309.793C15.4375 308.687 15.9902 307.662 16.7402 306.788C17.4902 305.915 18.4198 305.214 19.4657 304.732C20.5115 304.251 21.6489 304.001 22.8001 304H114.6C116.524 303.999 118.385 304.682 119.851 305.928C121.317 307.174 122.291 308.901 122.6 310.8L137.5 412Z" fill="white"/>
<path d="M137.5 412H29.5001L14.9001 313.2C14.7274 312.062 14.8024 310.9 15.12 309.793C15.4375 308.687 15.9902 307.662 16.7402 306.788C17.4902 305.915 18.4198 305.214 19.4657 304.732C20.5115 304.251 21.6489 304.001 22.8001 304H114.6C116.524 303.999 118.385 304.682 119.851 305.928C121.317 307.174 122.291 308.901 122.6 310.8L137.5 412Z" stroke="#272D3D" stroke-linecap="round" stroke-linejoin="round"/>
<path d="M137.5 412H41.5001L26.9001 313.2C26.7274 312.062 26.8024 310.9 27.12 309.793C27.4375 308.687 27.9902 307.662 28.7402 306.788C29.4902 305.915 30.4198 305.214 31.4657 304.732C32.5115 304.251 33.6489 304.001 34.8001 304H114.6C116.524 303.999 118.385 304.682 119.851 305.928C121.317 307.174 122.291 308.901 122.6 310.8L137.5 412Z" stroke="#272D3D" stroke-linecap="round" stroke-linejoin="round"/>
<path d="M105.5 196.6C105.5 196.6 118.1 180.5 134.8 186.8C151.5 193.1 146 203.7 150.9 214.3C155.8 224.9 165 235.3 166.4 246.8C167.8 258.3 160.9 267.3 163.4 273.6C165.9 279.9 183 285.6 182.8 302.1C182.6 318.6 154.7 328.3 120.5 326.3C99.5999 325.1 78.4999 320.5 70.7999 305.3C65.0106 293.763 63.4874 280.551 66.4999 268C69.4999 255.3 78.2999 246.3 79.7999 233.6C80.8999 224.5 81.2999 212.4 87.2999 204.8C93.2999 197.2 105.5 196.6 105.5 196.6Z" fill="#272D3D"/>
<path d="M88.5 240C84.5 244 80.5 252 84.5 260C88.5 268 92.5 276 84.5 288C76.5 300 88.5 308 88.5 308" stroke="white" stroke-linecap="round" stroke-linejoin="round"/>
<path d="M148.4 235.5C148.4 235.5 154 239.5 154 250.5C154 261.5 149.3 266.6 151 275.5C154 290.5 173 288.5 175 300.5C177 312.5 165 317.5 165 317.5" stroke="white" stroke-linecap="round" stroke-linejoin="round"/>
<path d="M96.5004 252C96.5004 252 92.5004 260 96.5004 268" stroke="white" stroke-linecap="round" stroke-linejoin="round"/>
<path d="M116.5 200.9C120.8 196.6 127.5 192.4 135 196.5C142.5 200.6 139.8 212.8 139.8 212.8" stroke="white" stroke-linecap="round" stroke-linejoin="round"/>
<path d="M176.8 412C176.8 412 176 378.5 175 355.5C174 332.5 169.9 312.3 164 303.5C158.1 294.7 146 292.5 141 289.5C136 286.5 135.6 284.5 135 282.2C134.4 279.9 135 275.5 135 275.5C135 273.8 127.9 272.5 119 272.5C110.1 272.5 103 273.8 103 275.5C103 275.6 103.1 275.7 103.1 275.8C103.1 275.9 103.8 278.9 103 280.5C102.2 282.1 101 285.5 87 288.5C79.9 290 63 292.5 57 305.5C57 305.5 54.5 312.3 58.8 324C63.1 335.7 76.9 353.6 76.9 353.6L72.3 412.1L176.8 412Z" fill="#DCDDE0"/>
<path d="M119 278.5C127.837 278.5 135 277.157 135 275.5C135 273.843 127.837 272.5 119 272.5C110.163 272.5 103 273.843 103 275.5C103 277.157 110.163 278.5 119 278.5Z" fill="#272D3D"/>
<path d="M74.8998 412.1H72.2998L76.8998 353.6L81.5998 334C80.687 360.13 78.4508 386.197 74.8998 412.1Z" fill="#272D3D"/>
<path d="M85.5996 288.8C102.3 299.3 132 351.9 132 351.9C137 340.5 147.8 304.8 151.1 293.8C149.4 293 147.8 292.4 146.2 291.8C142.1 307.7 130 340.5 130 340.5C124.6 326 101 295.8 91.4996 287.4L86.9996 288.5L85.5996 288.8Z" fill="white"/>
<path d="M146.2 291.8C142.1 307.7 130 340.5 130 340.5C124.6 326 101 295.8 91.5 287.4" stroke="#272D3D" stroke-linecap="round" stroke-linejoin="round"/>
<path d="M85.5996 288.8C102.3 299.3 132 351.9 132 351.9C137 340.5 147.8 304.8 151.1 293.8" stroke="#272D3D" stroke-linecap="round" stroke-linejoin="round"/>
<path d="M176.8 412C176.8 412 176 378.5 175 355.5C174 332.5 169.9 312.3 164 303.5C158.1 294.7 146 292.5 141 289.5C136 286.5 135.6 284.5 135 282.2C134.4 279.9 135 275.5 135 275.5C135 273.8 127.9 272.5 119 272.5C110.1 272.5 103 273.8 103 275.5C103 275.6 103.1 275.7 103.1 275.8C103.1 275.9 103.8 278.9 103 280.5C102.2 282.1 101 285.5 87 288.5C79.9 290 63 292.5 57 305.5C57 305.5 54.5 312.3 58.8 324C63.1 335.7 76.9 353.6 76.9 353.6L72.3 412.1L176.8 412Z" stroke="#272D3D" stroke-linecap="round" stroke-linejoin="round"/>
<path d="M66.7996 295.1C62.5566 297.496 59.1397 301.122 56.9996 305.5C50.9996 318.5 45.9996 338.5 40.9996 356.5C35.9996 374.5 30.9996 395.5 38.9996 403.5C46.9996 411.5 61.4996 412 61.4996 412H90.6996C90.6996 412 103 413.5 106 406.5C109 399.5 112 387.5 105 383.5C97.9996 379.5 68.9996 378.5 68.9996 378.5C68.9996 378.5 85.9996 331.5 82.9996 312.5C79.9996 293.5 66.7996 295.1 66.7996 295.1Z" fill="#DCDDE0"/>
<path d="M82.9996 312.5C79.9996 293.5 66.7996 295.1 66.7996 295.1C62.5566 297.496 59.1397 301.122 56.9996 305.5C50.9996 318.5 45.9996 338.5 40.9996 356.5C35.9996 374.5 30.9996 395.5 38.9996 403.5C46.9996 411.5 61.4996 412 61.4996 412H90.6996C90.6996 412 103 413.5 106 406.5C109 399.5 112 387.5 105 383.5C97.9996 379.5 68.9996 378.5 68.9996 378.5C73.0544 367.118 76.5255 355.536 79.3996 343.8C80.1996 340.5 80.9996 337.2 81.5996 334" stroke="#272D3D" stroke-linecap="round" stroke-linejoin="round"/>
<path d="M69.1 378.3C65.9252 381.06 63.4855 384.565 62 388.5" stroke="#272D3D" stroke-linecap="round" stroke-linejoin="round"/>
<path d="M102.999 387.5C102.999 387.5 111.999 388.5 116.999 387.5C121.999 386.5 126.999 379.5 141.999 381.5L136.999 403.5C136.999 403.5 128.999 403.5 123.999 405.5C118.999 407.5 107.199 404 99.5992 404C99.5992 404 97.0992 401.4 97.9992 395.5C98.8992 389.6 102.999 387.5 102.999 387.5Z" fill="white"/>
<path d="M103.899 404.3L99.5992 404C99.5992 404 97.0992 401.4 97.9992 395.5C98.8992 389.6 102.999 387.5 102.999 387.5L106.699 387.8C106.699 387.8 100.699 394 103.899 404.3Z" fill="white"/>
<path d="M102.999 387.5C102.999 387.5 111.999 388.5 116.999 387.5C121.999 386.5 126.999 379.5 141.999 381.5L136.999 403.5C136.999 403.5 128.999 403.5 123.999 405.5C118.999 407.5 107.199 404 99.5992 404C99.5992 404 97.0992 401.4 97.9992 395.5C98.8992 389.6 102.999 387.5 102.999 387.5Z" stroke="#272D3D" stroke-linecap="round" stroke-linejoin="round"/>
<path d="M103.899 404.3L99.5992 404C99.5992 404 97.0992 401.4 97.9992 395.5C98.8992 389.6 102.999 387.5 102.999 387.5L106.699 387.8C106.699 387.8 100.699 394 103.899 404.3Z" stroke="#272D3D" stroke-linecap="round" stroke-linejoin="round"/>
<path d="M133 245.5V277C130.3 277.9 125.1 278.5 119 278.5C112.9 278.5 107.8 277.9 105 277V245.5H133Z" fill="white"/>
<path d="M133 261.6L113.2 250.8C113.2 250.8 115.2 268.3 133 271.9V261.6Z" fill="#272D3D"/>
<path d="M133 245.5V277" stroke="#272D3D" stroke-linecap="round" stroke-linejoin="round"/>
<path d="M105 276.8V245.5" stroke="#272D3D" stroke-linecap="round" stroke-linejoin="round"/>
<path d="M107.5 209.8C116 203.3 125.8 200.5 131.5 202.5C137.2 204.5 145 219.7 147.8 230.3C151.1 242.7 149 261.6 141.5 264.8C134 268 122.1 265 114.5 259C113.602 258.267 112.796 257.428 112.1 256.5C106.1 249.1 100 237.9 100 229.3C100 220.7 102.4 214.7 107.5 209.8Z" fill="white"/>
<path d="M123 234.3C124.105 234.3 125 233.405 125 232.3C125 231.196 124.105 230.3 123 230.3C121.895 230.3 121 231.196 121 232.3C121 233.405 121.895 234.3 123 234.3Z" fill="#272D3D"/>
<path d="M141.6 229.4C142.704 229.4 143.6 228.504 143.6 227.4C143.6 226.295 142.704 225.4 141.6 225.4C140.495 225.4 139.6 226.295 139.6 227.4C139.6 228.504 140.495 229.4 141.6 229.4Z" fill="#272D3D"/>
<path d="M125.7 222.4C125.7 222.798 125.542 223.18 125.261 223.461C124.98 223.742 124.598 223.9 124.2 223.9C120.006 223.885 115.939 225.335 112.7 228L110.7 230C110.7 230 112.6 220.7 124.2 220.9C124.598 220.9 124.98 221.058 125.261 221.339C125.542 221.621 125.7 222.002 125.7 222.4Z" fill="#272D3D"/>
<path d="M142 214.9C140.112 215.248 138.289 215.889 136.6 216.8C136.259 216.991 136 217.299 135.871 217.667C135.742 218.036 135.752 218.439 135.9 218.8C136.09 219.14 136.405 219.393 136.778 219.505C137.151 219.617 137.554 219.579 137.9 219.4C139.653 218.512 141.548 217.937 143.5 217.7L142 214.9Z" fill="#272D3D"/>
<path d="M127.4 230.7C125.73 229.86 123.814 229.647 122 230.1C119.881 230.674 118.036 231.986 116.8 233.8" stroke="#272D3D" stroke-linecap="round" stroke-linejoin="round"/>
<path d="M144.6 225.3C143.466 224.788 142.183 224.717 141 225.1C138.881 225.673 137.036 226.986 135.8 228.8" stroke="#272D3D" stroke-linecap="round" stroke-linejoin="round"/>
<path d="M134.3 221.7C134.3 221.7 132.9 225.9 136.5 231.8C138.7 235.4 141 235.7 141 238.7C141 241.7 137 241.7 137 241.7" stroke="#272D3D" stroke-linecap="round" stroke-linejoin="round"/>
<path d="M138.7 253.1C137.138 253.435 135.507 253.154 134.147 252.316C132.787 251.477 131.803 250.146 131.4 248.6C131.4 248.6 141.5 247.8 143.3 244.7C143.3 244.7 144.5 252 138.7 253.1Z" stroke="#272D3D" stroke-linecap="round" stroke-linejoin="round"/>
<path d="M143.3 244.7C141.5 247.8 131.4 248.6 131.4 248.6C130.599 248.655 129.794 248.621 129 248.5" stroke="#272D3D" stroke-linecap="round" stroke-linejoin="round"/>
<path d="M138 258C138 258 139 257 142 257" stroke="#272D3D" stroke-linecap="round" stroke-linejoin="round"/>
<path d="M129.4 247C129.118 247.533 128.946 248.118 128.894 248.72C128.843 249.321 128.913 249.926 129.1 250.5" stroke="#272D3D" stroke-linecap="round" stroke-linejoin="round"/>
<path d="M132.5 250.8C132.5 250.8 141.1 250.6 143.3 247.5" stroke="#272D3D" stroke-linecap="round" stroke-linejoin="round"/>
<path d="M107.5 209.8C116 203.3 125.8 200.5 131.5 202.5C137.2 204.5 145 219.7 147.8 230.3C151.1 242.7 149 261.6 141.5 264.8C134 268 122.1 265 114.5 259" stroke="#272D3D" stroke-linecap="round" stroke-linejoin="round"/>
<path d="M110 201.5C110 201.5 121.7 222 105 240L98.9999 251.5C98.9999 251.5 88.6999 238.3 90.9999 223.5C93.9999 204.5 110 201.5 110 201.5Z" fill="#272D3D"/>
<path d="M94.5 235.5C95.8807 235.5 97 232.142 97 228C97 223.858 95.8807 220.5 94.5 220.5C93.1193 220.5 92 223.858 92 228C92 232.142 93.1193 235.5 94.5 235.5Z" fill="white"/>
<path d="M108.5 212C108.5 212 108.5 228 100.5 232" stroke="white" stroke-linecap="round" stroke-linejoin="round"/>
<path d="M102.9 247.3C106.214 247.3 108.9 244.614 108.9 241.3C108.9 237.987 106.214 235.3 102.9 235.3C99.5867 235.3 96.9004 237.987 96.9004 241.3C96.9004 244.614 99.5867 247.3 102.9 247.3Z" fill="white"/>
<path d="M106 246.4C105.293 246.814 104.512 247.086 103.7 247.2C102.671 247.356 101.619 247.242 100.648 246.869C99.6759 246.495 98.8181 245.876 98.1584 245.07C97.4987 244.265 97.0599 243.302 96.8851 242.276C96.7102 241.25 96.8053 240.196 97.161 239.218C97.5168 238.239 98.1209 237.37 98.914 236.696C99.7072 236.022 100.662 235.566 101.685 235.373C102.708 235.179 103.763 235.255 104.748 235.593C105.732 235.931 106.612 236.519 107.3 237.3" stroke="#272D3D" stroke-linecap="round" stroke-linejoin="round"/>
<path d="M100.601 240.3L105.201 242.3" stroke="#272D3D" stroke-linecap="round" stroke-linejoin="round"/>
<path d="M163 320.5C163 320.5 169 328.5 166 347.5" stroke="#272D3D" stroke-linecap="round" stroke-linejoin="round"/>
<path d="M135 275.5C135 277.2 127.9 278.5 119 278.5C112.9 278.5 103 277.2 103 275.5" stroke="#272D3D" stroke-linecap="round" stroke-linejoin="round"/>
<path d="M414.1 412H522.1L536.7 313.2C536.872 312.062 536.797 310.9 536.48 309.793C536.162 308.687 535.61 307.662 534.86 306.788C534.11 305.915 533.18 305.214 532.134 304.732C531.088 304.251 529.951 304.001 528.8 304H437C435.087 304.002 433.239 304.689 431.79 305.937C430.341 307.184 429.386 308.909 429.1 310.8L414.1 412Z" fill="white"/>
<path d="M414.1 412H522.1L536.7 313.2C536.872 312.062 536.797 310.9 536.48 309.793C536.162 308.687 535.61 307.662 534.86 306.788C534.11 305.915 533.18 305.214 532.134 304.732C531.088 304.251 529.951 304.001 528.8 304H437C435.087 304.002 433.239 304.689 431.79 305.937C430.341 307.184 429.386 308.909 429.1 310.8L414.1 412Z" stroke="#272D3D" stroke-linecap="round" stroke-linejoin="round"/>
<path d="M414.1 412H510.1L524.7 313.2C524.872 312.062 524.797 310.9 524.48 309.793C524.162 308.687 523.61 307.662 522.86 306.788C522.11 305.915 521.18 305.214 520.134 304.732C519.088 304.251 517.951 304.001 516.8 304H437C435.087 304.002 433.239 304.689 431.79 305.937C430.341 307.184 429.386 308.909 429.1 310.8L414.1 412Z" stroke="#272D3D" stroke-linecap="round" stroke-linejoin="round"/>
<path d="M502.3 289.5C512.3 302.5 526.3 340.5 526.3 340.5L483.3 350.5L477.3 317.5C477.3 317.5 472.3 298.5 483.3 290.5C494.3 282.5 502.3 289.5 502.3 289.5Z" fill="#DCDDE0"/>
<path d="M483.3 290.5C494.3 282.5 502.3 289.5 502.3 289.5C492.3 276.5 472.3 279.5 464.3 268.5C456.3 257.5 452.3 258.1 452.3 258.1C452.3 258.1 426.3 258.5 420.3 260.6C414.3 262.7 413.3 271.5 393.3 274.5C368.3 278.3 353.3 322.5 353.3 322.5L388.3 340.5L381.6 412H483.3V350.5L477.3 317.5C477.3 317.5 472.3 298.5 483.3 290.5Z" fill="#DCDDE0"/>
<path d="M428.7 279.5L414.3 282.5C416.6 278 419.4 273.5 422.3 273.2H422.9C423.825 273.347 424.672 273.805 425.3 274.5C426.67 275.993 427.815 277.678 428.7 279.5Z" fill="#272D3D"/>
<path d="M448.3 285.5L433.8 279.5C434.8 276.6 436 273.9 437.3 273.5L438.4 273.3C441.4 273.3 445.6 276.6 448.3 285.5Z" fill="#272D3D"/>
<path d="M437.535 275.174C448.663 273.808 457.225 268.967 456.66 264.363C456.095 259.758 446.615 257.133 435.488 258.499C424.36 259.866 415.797 264.706 416.363 269.311C416.928 273.915 426.407 276.54 437.535 275.174Z" fill="#272D3D"/>
<path d="M455.3 338.5H451.3L459.3 324.5H463.3L455.3 338.5Z" fill="white"/>
<path d="M418.3 299.5H414.3L422.3 285.5H426.3L418.3 299.5Z" fill="white"/>
<path d="M387.3 292.5H383.3L391.3 278.5H395.3L387.3 292.5Z" fill="white"/>
<path d="M468.4 272.4L464.3 279.5H460.3L465.7 270.1C466.505 270.972 467.411 271.744 468.4 272.4Z" fill="white"/>
<path d="M392.1 400.5H388.1L396.1 386.5H400.1L392.1 400.5Z" fill="white"/>
<path d="M466.3 384.5H462.3L470.3 370.5H474.3L466.3 384.5Z" fill="white"/>
<path d="M442 409.1H438L446 395.1H450L442 409.1Z" fill="white"/>
<path d="M519.6 323.5L513.3 334.5H509.3L517.3 320.5H518.3C518.8 321.5 519.2 322.5 519.6 323.5Z" fill="white"/>
<path d="M477 405.7L473.3 407.2L475.6 391.3L479.3 389.8L477 405.7Z" fill="white"/>
<path d="M429.5 330.4L426.1 332.6L425.1 316.6L428.5 314.4L429.5 330.4Z" fill="white"/>
<path d="M418.6 358.1L415 356.4L428 346.9L431.7 348.6L418.6 358.1Z" fill="white"/>
<path d="M412.6 395.1L409 393.4L422 383.9L425.7 385.6L412.6 395.1Z" fill="white"/>
<path d="M498 343.1L501.7 341.4L488.6 331.9L485 333.6L498 343.1Z" fill="white"/>
<path d="M512.5 307.6L503.6 314.1L500 312.4L511 304.4L512.5 307.6Z" fill="white"/>
<path d="M472.6 294.1L469 292.4L482 282.9L485.7 284.6L472.6 294.1Z" fill="white"/>
<path d="M450.6 371L447.6 373.7L444 358L447 355.3L450.6 371Z" fill="white"/>
<path d="M406.7 412H403.2L402 407.1L405 404.4L406.7 412Z" fill="white"/>
<path d="M460.6 310L457.6 312.7L454 297L457 294.3L460.6 310Z" fill="white"/>
<path d="M472.4 355.7L468.8 357.4L470.2 341.3L473.9 339.6L472.4 355.7Z" fill="white"/>
<path d="M487.4 315.7L483.8 317.4L485.2 301.3L488.9 299.6L487.4 315.7Z" fill="white"/>
<path d="M455.3 338.5H451.3L459.3 324.5H463.3L455.3 338.5Z" stroke="#272D3D" stroke-linecap="round" stroke-linejoin="round"/>
<path d="M418.3 299.5H414.3L422.3 285.5H426.3L418.3 299.5Z" stroke="#272D3D" stroke-linecap="round" stroke-linejoin="round"/>
<path d="M387.3 292.5H383.3L391.3 278.5H395.3L387.3 292.5Z" stroke="#272D3D" stroke-linecap="round" stroke-linejoin="round"/>
<path d="M468.4 272.4L464.3 279.5H460.3L465.7 270.1C466.505 270.972 467.411 271.744 468.4 272.4V272.4Z" stroke="#272D3D" stroke-linecap="round" stroke-linejoin="round"/>
<path d="M392.1 400.5H388.1L396.1 386.5H400.1L392.1 400.5Z" stroke="#272D3D" stroke-linecap="round" stroke-linejoin="round"/>
<path d="M466.3 384.5H462.3L470.3 370.5H474.3L466.3 384.5Z" stroke="#272D3D" stroke-linecap="round" stroke-linejoin="round"/>
<path d="M442 409.1H438L446 395.1H450L442 409.1Z" stroke="#272D3D" stroke-linecap="round" stroke-linejoin="round"/>
<path d="M519.6 323.5L513.3 334.5H509.3L517.3 320.5H518.3C518.8 321.5 519.2 322.5 519.6 323.5Z" stroke="#272D3D" stroke-linecap="round" stroke-linejoin="round"/>
<path d="M477 405.7L473.3 407.2L475.6 391.3L479.3 389.8L477 405.7Z" stroke="#272D3D" stroke-linecap="round" stroke-linejoin="round"/>
<path d="M429.5 330.4L426.1 332.6L425.1 316.6L428.5 314.4L429.5 330.4Z" stroke="#272D3D" stroke-linecap="round" stroke-linejoin="round"/>
<path d="M418.6 358.1L415 356.4L428 346.9L431.7 348.6L418.6 358.1Z" stroke="#272D3D" stroke-linecap="round" stroke-linejoin="round"/>
<path d="M412.6 395.1L409 393.4L422 383.9L425.7 385.6L412.6 395.1Z" stroke="#272D3D" stroke-linecap="round" stroke-linejoin="round"/>
<path d="M498 343.1L501.7 341.4L488.6 331.9L485 333.6L498 343.1Z" stroke="#272D3D" stroke-linecap="round" stroke-linejoin="round"/>
<path d="M512.5 307.6L503.6 314.1L500 312.4L511 304.4L512.5 307.6Z" stroke="#272D3D" stroke-linecap="round" stroke-linejoin="round"/>
<path d="M472.6 294.1L469 292.4L482 282.9L485.7 284.6L472.6 294.1Z" stroke="#272D3D" stroke-linecap="round" stroke-linejoin="round"/>
<path d="M450.6 371L447.6 373.7L444 358L447 355.3L450.6 371Z" stroke="#272D3D" stroke-linecap="round" stroke-linejoin="round"/>
<path d="M406.7 412H403.2L402 407.1L405 404.4L406.7 412Z" stroke="#272D3D" stroke-linecap="round" stroke-linejoin="round"/>
<path d="M460.6 310L457.6 312.7L454 297L457 294.3L460.6 310Z" stroke="#272D3D" stroke-linecap="round" stroke-linejoin="round"/>
<path d="M472.4 355.7L468.8 357.4L470.2 341.3L473.9 339.6L472.4 355.7Z" stroke="#272D3D" stroke-linecap="round" stroke-linejoin="round"/>
<path d="M487.4 315.7L483.8 317.4L485.2 301.3L488.9 299.6L487.4 315.7Z" stroke="#272D3D" stroke-linecap="round" stroke-linejoin="round"/>
<path d="M452.3 258.1C452.3 258.1 456.3 257.5 464.3 268.5C472.3 279.5 492.3 276.5 502.3 289.5C512.3 302.5 526.3 340.5 526.3 340.5L483.3 350.5V412H381.6L388.3 340.5L353.3 322.5C353.3 322.5 368.3 278.3 393.3 274.5C413.3 271.5 414.3 262.8 420.3 260.6C426.3 258.4 452.3 258.1 452.3 258.1Z" stroke="#272D3D" stroke-linecap="round" stroke-linejoin="round"/>
<path d="M476.5 302.9C477.2 298.3 479.1 293.6 483.3 290.5C494.3 282.5 502.3 289.5 502.3 289.5C512.3 302.5 526.3 340.5 526.3 340.5L483.3 350.5L478.9 326" stroke="#272D3D" stroke-linecap="round" stroke-linejoin="round"/>
<path d="M452.3 227.5V268.7C448.2 271.4 441.1 272.8 438.4 273.3L437.4 273.5H437.3C434.3 274.5 431.6 287.5 431.6 287.5C431.6 287.5 429.3 278.5 425.3 274.5C424.933 274.068 424.471 273.726 423.951 273.501C423.431 273.275 422.866 273.172 422.3 273.2L420.3 272.7V227.5H452.3Z" fill="white"/>
<path d="M420.3 263.2C436.9 261.5 444 244.6 444 244.6L420.3 247.1V263.2Z" fill="#272D3D"/>
<path d="M452.3 227.5V268.7" stroke="#272D3D" stroke-linecap="round" stroke-linejoin="round"/>
<path d="M420.3 272.7V227.5" stroke="#272D3D" stroke-linecap="round" stroke-linejoin="round"/>
<path d="M437.3 273.5C440.3 272.5 445.3 275.5 448.3 285.5C448.3 285.5 466.7 272.1 459.3 262.5C455.9 258.1 452.3 258.1 452.3 258.1V261.4C452.3 261.4 455.3 262.5 455.3 264.5C455.3 270.9 437.3 273.5 437.3 273.5Z" fill="#DCDDE0"/>
<path d="M422.3 273.2C419.4 273.5 416.6 278 414.3 282.5C414.3 282.5 411.3 278.5 411.3 271.5C411.3 264.5 420.3 260.6 420.3 260.6V264.6C420.3 264.6 417.3 266.5 417.3 269.5C417.3 272.5 422.3 273.2 422.3 273.2Z" fill="#DCDDE0"/>
<path d="M437.3 273.5C440.3 272.5 445.3 275.5 448.3 285.5C448.3 285.5 466.7 272.1 459.3 262.5C455.9 258.1 452.3 258.1 452.3 258.1V261.4C452.3 261.4 455.3 262.5 455.3 264.5C455.3 270.9 437.3 273.5 437.3 273.5Z" stroke="#272D3D" stroke-linecap="round" stroke-linejoin="round"/>
<path d="M422.3 273.2C419.4 273.5 416.6 278 414.3 282.5C414.3 282.5 411.3 278.5 411.3 271.5C411.3 264.5 420.3 260.6 420.3 260.6V264.6C420.3 264.6 417.3 266.5 417.3 269.5C417.3 272.5 422.3 273.2 422.3 273.2Z" stroke="#272D3D" stroke-linecap="round" stroke-linejoin="round"/>
<path d="M438.4 273.3L437.4 273.5H437.3C434.3 274.5 431.6 287.5 431.6 287.5C431.6 287.5 429.3 278.5 425.3 274.5C424.933 274.068 424.471 273.726 423.951 273.501C423.431 273.275 422.866 273.173 422.3 273.2" stroke="#272D3D" stroke-linecap="round" stroke-linejoin="round"/>
<path d="M431.7 287.3V310.5L440.3 311.5" stroke="#272D3D" stroke-linecap="round" stroke-linejoin="round"/>
<path d="M440.3 291.5C441.957 291.5 443.3 290.157 443.3 288.5C443.3 286.843 441.957 285.5 440.3 285.5C438.643 285.5 437.3 286.843 437.3 288.5C437.3 290.157 438.643 291.5 440.3 291.5Z" stroke="#272D3D" stroke-linecap="round" stroke-linejoin="round"/>
<path d="M440.3 304.5C441.957 304.5 443.3 303.157 443.3 301.5C443.3 299.843 441.957 298.5 440.3 298.5C438.643 298.5 437.3 299.843 437.3 301.5C437.3 303.157 438.643 304.5 440.3 304.5Z" stroke="#272D3D" stroke-linecap="round" stroke-linejoin="round"/>
<path d="M402.3 222.5C402.3 233.5 405.3 253.2 420.3 256.5C435.3 259.8 448 242.6 452 226.6C456 210.6 454.3 181.5 429.3 181.5C404.3 181.5 402.3 201.4 402.3 222.5Z" fill="white"/>
<path d="M430.3 220.5C431.404 220.5 432.3 219.605 432.3 218.5C432.3 217.395 431.404 216.5 430.3 216.5C429.195 216.5 428.3 217.395 428.3 218.5C428.3 219.605 429.195 220.5 430.3 220.5Z" fill="#272D3D"/>
<path d="M407.3 222.5C408.404 222.5 409.3 221.605 409.3 220.5C409.3 219.395 408.404 218.5 407.3 218.5C406.195 218.5 405.3 219.395 405.3 220.5C405.3 221.605 406.195 222.5 407.3 222.5Z" fill="#272D3D"/>
<path d="M440.3 234C441.128 234 441.8 233.328 441.8 232.5C441.8 231.672 441.128 231 440.3 231C439.471 231 438.8 231.672 438.8 232.5C438.8 233.328 439.471 234 440.3 234Z" fill="#272D3D"/>
<path d="M423.3 209.5V212C423.3 212 430.3 210 433.3 210C435.38 210.092 437.421 210.602 439.3 211.5C438.6 210.266 437.58 209.244 436.348 208.54C435.117 207.836 433.718 207.477 432.3 207.5C429.193 207.533 426.128 208.214 423.3 209.5Z" fill="#272D3D"/>
<path d="M412.1 211C409.188 210.271 406.154 210.169 403.2 210.7H402.8C402.683 211.528 402.617 212.363 402.6 213.2H402.8C405.6 212.7 412.6 213.3 412.6 213.3L412.1 211Z" fill="#272D3D"/>
<path d="M418.3 218.5C418.3 218.5 415.3 232.5 415.3 233.5C415.3 234.5 418.1 235.4 423.3 233.1" stroke="#272D3D" stroke-linecap="round" stroke-linejoin="round"/>
<path d="M425.3 218C426.671 216.753 428.447 216.043 430.3 216C432.479 215.9 434.617 216.613 436.3 218" stroke="#272D3D" stroke-linecap="round" stroke-linejoin="round"/>
<path d="M402.3 220C403.671 218.753 405.447 218.043 407.3 218C409.479 217.9 411.617 218.613 413.3 220" stroke="#272D3D" stroke-linecap="round" stroke-linejoin="round"/>
<path d="M416.3 241.5C416.3 241.5 423.3 245.5 430.3 236.5" stroke="#272D3D" stroke-linecap="round" stroke-linejoin="round"/>
<path d="M419.3 247.5C420.908 246.875 422.692 246.875 424.3 247.5" stroke="#272D3D" stroke-linecap="round" stroke-linejoin="round"/>
<path d="M452.3 227.5C456.3 211.5 454.3 181.5 429.3 181.5C404.3 181.5 402.3 201.4 402.3 222.5C402.3 233.5 405.3 253.2 420.3 256.5C428.8 258.4 437.6 252.9 444 244.6" stroke="#272D3D" stroke-linecap="round" stroke-linejoin="round"/>
<path d="M453.201 227.5C457.122 227.5 460.301 224.321 460.301 220.4C460.301 216.479 457.122 213.3 453.201 213.3C449.279 213.3 446.101 216.479 446.101 220.4C446.101 224.321 449.279 227.5 453.201 227.5Z" fill="white"/>
<path d="M449.501 214.4C450.607 213.694 451.889 213.312 453.201 213.3C454.133 213.3 455.057 213.483 455.918 213.84C456.779 214.197 457.562 214.72 458.221 215.379C458.881 216.039 459.404 216.821 459.761 217.683C460.117 218.544 460.301 219.467 460.301 220.4C460.301 221.332 460.117 222.255 459.761 223.117C459.404 223.978 458.881 224.761 458.221 225.42C457.562 226.08 456.779 226.603 455.918 226.959C455.057 227.316 454.133 227.5 453.201 227.5C452.312 227.489 451.431 227.319 450.601 227" stroke="#272D3D" stroke-linecap="round" stroke-linejoin="round"/>
<path d="M452.001 221.9L455.601 219.1" stroke="#272D3D" stroke-linecap="round" stroke-linejoin="round"/>
<path d="M418.3 196.5C426.3 196.5 430.3 191.5 436.3 193.5C442.3 195.5 442.3 200.5 444.3 204.5C446.3 208.5 448.4 207.3 448.3 212.3C448.2 214.7 449.4 218.1 451.3 217.2C453.2 216.3 457.3 204.5 458.3 197.5C459.3 190.5 455.3 182.5 443.3 176.5L444.3 175.5C439.1 172.2 433.1 171.7 424.3 172.5V170.5C424.3 170.5 417.3 172.5 413.3 176.5L412.3 174.5C412.3 174.5 397.6 180.1 402.3 218C402.3 218 402.3 196.3 407.3 195.5C412.3 194.7 411.3 196.5 418.3 196.5Z" fill="#272D3D"/>
<path d="M415.3 193.5C415.3 193.5 408.3 189.5 411.3 180.5" stroke="white" stroke-linecap="round" stroke-linejoin="round"/>
<path d="M418.3 186.5C418.3 186.5 416.3 177.5 426.3 174.5" stroke="white" stroke-linecap="round" stroke-linejoin="round"/>
<path d="M428.3 183.5C428.3 183.5 434.3 176.5 442.3 180.5" stroke="white" stroke-linecap="round" stroke-linejoin="round"/>
<path d="M446.3 195.5C446.3 195.5 449.3 202.5 455.3 200.5" stroke="white" stroke-linecap="round" stroke-linejoin="round"/>
<path d="M333.3 305.5C320.9 306.2 319.2 291.7 319.1 283.8C319.086 282.331 319.153 280.862 319.3 279.4C319.197 279.915 318.913 280.376 318.5 280.7C318.278 280.958 318.001 281.164 317.69 281.302C317.378 281.441 317.04 281.508 316.7 281.5L315.8 281.3C315.307 281.15 314.876 280.845 314.57 280.431C314.263 280.016 314.099 279.515 314.1 279C314 276.8 314.1 273.7 315.3 272.5C315.775 271.931 316.418 271.528 317.137 271.348C317.856 271.169 318.613 271.222 319.3 271.5C319.3 271.5 320.3 269.5 324.3 269.5C326.916 269.634 329.398 270.698 331.3 272.5C330.693 270.101 329.281 267.982 327.3 266.5H319.8C319.468 266.514 319.136 266.459 318.826 266.338C318.517 266.218 318.235 266.034 318 265.799C317.765 265.564 317.582 265.283 317.461 264.973C317.34 264.663 317.285 264.332 317.3 264C317.3 263.337 317.563 262.701 318.032 262.232C318.501 261.763 319.137 261.5 319.8 261.5H327.7C329.702 261.481 331.636 262.232 333.1 263.6C335.183 265.614 336.938 267.942 338.3 270.5C337.32 263.978 337.185 257.356 337.9 250.8C338.011 250.18 338.328 249.617 338.8 249.2C339.035 248.965 339.316 248.781 339.626 248.661C339.936 248.54 340.267 248.485 340.6 248.5C341.316 248.5 342.002 248.784 342.509 249.291C343.015 249.797 343.3 250.484 343.3 251.2L343.8 263.2C343.8 268.2 346.3 275.5 346.8 287C347.3 298.5 343.3 304.9 333.3 305.5Z" fill="white"/>
<path d="M330.1 277.8C329.3 276.9 326.4 275.4 325.7 276.9C325 278.4 325.6 279.4 325.8 281C325.88 281.117 325.915 281.259 325.9 281.4C325.959 281.98 325.796 282.56 325.443 283.025C325.09 283.489 324.575 283.801 324 283.9C323.47 284.03 322.911 283.96 322.43 283.701C321.95 283.442 321.583 283.014 321.4 282.5C321.222 282.116 321.088 281.714 321 281.3C320.977 281.468 320.943 281.635 320.9 281.8C320.816 282.257 320.601 282.68 320.282 283.017C319.962 283.354 319.552 283.591 319.1 283.7C319.086 282.231 319.153 280.762 319.3 279.3C319.197 279.815 318.913 280.276 318.5 280.6C318.278 280.858 318.001 281.064 317.69 281.202C317.379 281.341 317.041 281.408 316.7 281.4L315.8 281.2C315.6 279 315.8 276 317 274.8C317.475 274.231 318.118 273.828 318.837 273.648C319.556 273.469 320.313 273.522 321 273.8C321 273.8 322 271.8 326 271.8L330.1 277.8Z" fill="#272D3D"/>
<path d="M324.3 269.5C320.3 269.5 319.3 271.5 319.3 271.5C318.613 271.222 317.856 271.169 317.137 271.348C316.418 271.528 315.775 271.931 315.3 272.5C314.1 273.7 314 276.8 314.1 279C314.125 279.672 314.411 280.308 314.896 280.774C315.38 281.24 316.027 281.5 316.7 281.5C317.04 281.508 317.378 281.441 317.69 281.302C318.001 281.164 318.278 280.958 318.5 280.7C318.913 280.376 319.197 279.915 319.3 279.4V278.9C319.4 279.2 319.6 279.7 319.7 280.1C319.902 280.622 320.288 281.052 320.785 281.31C321.282 281.568 321.856 281.635 322.4 281.5C322.945 281.361 323.425 281.034 323.754 280.577C324.083 280.12 324.241 279.562 324.2 279V278.5C324 277 323.6 275.4 324 274.5C324.4 273.6 327.6 274.4 328.4 275.4C328.392 274.966 328.533 274.543 328.8 274.2C329.047 273.766 329.415 273.413 329.858 273.182C330.302 272.951 330.802 272.854 331.3 272.9V272.6C329.413 270.762 326.929 269.662 324.3 269.5Z" fill="white"/>
<path d="M343.3 293.5C346.3 293.5 347.1 289 346.7 285.2C346.3 281.4 341.3 279.5 338.3 277.5C336.8 276.5 334.1 274.3 332.7 273.3C332.402 273.064 332.057 272.897 331.688 272.809C331.319 272.721 330.935 272.715 330.563 272.791C330.192 272.868 329.841 273.024 329.536 273.25C329.232 273.476 328.98 273.766 328.8 274.1C328 275.3 328.7 276.7 329.7 277.8C332.3 280.5 336.8 283.1 339.3 287.5C343.3 294.5 343.3 293.5 343.3 293.5Z" fill="white"/>
<path d="M343.3 293.5C346.3 293.5 347.1 289 346.7 285.2C346.3 281.4 341.3 279.5 338.3 277.5C336.8 276.5 334.1 274.3 332.7 273.3C332.402 273.064 332.057 272.897 331.688 272.809C331.319 272.721 330.935 272.715 330.563 272.791C330.192 272.868 329.841 273.024 329.536 273.25C329.232 273.476 328.98 273.766 328.8 274.1C328 275.3 328.7 276.7 329.7 277.8C332.3 280.5 336.8 283.1 339.3 287.5C343.3 294.5 343.3 293.5 343.3 293.5Z" stroke="#272D3D" stroke-linecap="round" stroke-linejoin="round"/>
<path d="M324.299 269.5C320.299 269.5 319.299 271.5 319.299 271.5C319.299 271.5 317.799 273.5 319.299 278.9C319.399 279.2 319.6 279.7 319.7 280.1C319.902 280.622 320.288 281.052 320.785 281.31C321.282 281.568 321.856 281.635 322.399 281.5V281.5C323.899 281.2 324.3 279.6 324.2 278.5C324.1 277.4 323.599 275.4 323.999 274.5C324.399 273.6 327.599 274.4 328.399 275.4" stroke="#272D3D" stroke-linecap="round" stroke-linejoin="round"/>
<path d="M333.3 305.5C343.3 304.9 347.3 298.5 346.8 287C346.3 275.5 343.8 268.2 343.8 263.2L343.3 251.2C343.3 250.484 343.015 249.797 342.509 249.291C342.002 248.784 341.316 248.5 340.6 248.5C339.953 248.513 339.331 248.749 338.839 249.168C338.347 249.587 338.015 250.164 337.9 250.8C337.185 257.357 337.32 263.978 338.3 270.5C336.938 267.942 335.183 265.614 333.1 263.6C331.636 262.233 329.702 261.481 327.7 261.5H319.8C319.137 261.5 318.501 261.763 318.032 262.232C317.563 262.701 317.3 263.337 317.3 264C317.3 264.663 317.563 265.299 318.032 265.768C318.501 266.237 319.137 266.5 319.8 266.5H327.3C329.281 267.983 330.693 270.101 331.3 272.5C329.398 270.698 326.916 269.635 324.3 269.5C320.3 269.5 319.3 271.5 319.3 271.5C318.613 271.222 317.856 271.169 317.137 271.348C316.418 271.528 315.775 271.931 315.3 272.5C314.1 273.7 314 276.8 314.1 279C314.125 279.672 314.411 280.308 314.896 280.774C315.38 281.24 316.027 281.5 316.7 281.5V281.5C317.041 281.5 317.379 281.433 317.695 281.302C318.01 281.171 318.297 280.98 318.538 280.738C318.78 280.497 318.971 280.21 319.102 279.895C319.232 279.58 319.3 279.241 319.3 278.9C319.3 278.9 316.3 306.5 333.3 305.5Z" stroke="#272D3D" stroke-linecap="round" stroke-linejoin="round"/>
<path d="M338.6 272.7L338.3 270.5" stroke="#272D3D" stroke-linecap="round" stroke-linejoin="round"/>
<path d="M337.5 262.4C338.285 262.595 339.091 262.695 339.9 262.7" stroke="#272D3D" stroke-linecap="round" stroke-linejoin="round"/>
<path d="M327.3 266.5C327.3 266.5 328.7 266.3 328.7 265.1" stroke="#272D3D" stroke-linecap="round" stroke-linejoin="round"/>
<path d="M120.5 412H233.2C234.145 411.995 235.059 411.664 235.788 411.063C236.517 410.461 237.016 409.627 237.2 408.7L251.6 332.7C251.702 332.128 251.678 331.54 251.529 330.978C251.38 330.416 251.111 329.893 250.74 329.446C250.369 328.998 249.904 328.637 249.379 328.387C248.854 328.138 248.281 328.006 247.7 328H139.9C138.969 328 138.066 328.317 137.339 328.898C136.612 329.48 136.104 330.292 135.9 331.2L120.5 412Z" fill="#272D3D"/>
<path d="M128.8 410.5L143.9 331.3C144.084 330.373 144.583 329.539 145.312 328.937C146.041 328.336 146.955 328.005 147.9 328" stroke="white" stroke-linecap="round" stroke-linejoin="round"/>
<path d="M194.5 376.5C197.814 376.5 200.5 373.814 200.5 370.5C200.5 367.186 197.814 364.5 194.5 364.5C191.186 364.5 188.5 367.186 188.5 370.5C188.5 373.814 191.186 376.5 194.5 376.5Z" stroke="white" stroke-linecap="round" stroke-linejoin="round"/>
<path d="M84.5 404C83.4391 404 82.4217 404.421 81.6716 405.172C80.9214 405.922 80.5 406.939 80.5 408V412H120.5L122.1 404H84.5Z" fill="#272D3D"/>
<path d="M276.8 384H412.8C415.009 384 416.8 382.209 416.8 380V291C416.8 288.791 415.009 287 412.8 287H276.8C274.591 287 272.8 288.791 272.8 291V380C272.8 382.209 274.591 384 276.8 384Z" fill="#272D3D"/>
<path d="M404.8 287C405.861 287 406.878 287.421 407.628 288.172C408.378 288.922 408.8 289.939 408.8 291V380C408.8 381.061 408.378 382.078 407.628 382.828C406.878 383.579 405.861 384 404.8 384" stroke="white" stroke-linecap="round" stroke-linejoin="round"/>
<path d="M360.8 404H348.8V364C348.8 362.939 348.378 361.922 347.628 361.172C346.878 360.421 345.861 360 344.8 360H324.5C323.489 359.997 322.514 360.377 321.772 361.064C321.03 361.75 320.575 362.692 320.5 363.7L317.1 407.7C317.073 408.247 317.156 408.793 317.343 409.307C317.531 409.822 317.82 410.293 318.193 410.694C318.566 411.094 319.015 411.416 319.514 411.641C320.013 411.865 320.552 411.987 321.1 412H364.8V408C364.8 406.939 364.378 405.922 363.628 405.172C362.878 404.421 361.861 404 360.8 404Z" fill="#272D3D"/>
<path d="M340.8 410.5V364C340.8 362.939 340.378 361.922 339.628 361.172C338.878 360.421 337.861 360 336.8 360" stroke="white" stroke-linecap="round" stroke-linejoin="round"/>
<path d="M319 384L320.5 363.7C320.576 362.692 321.03 361.75 321.773 361.064C322.515 360.377 323.489 359.997 324.5 360H344.8C345.861 360 346.878 360.421 347.628 361.172C348.379 361.922 348.8 362.939 348.8 364V384" stroke="white" stroke-linecap="round" stroke-linejoin="round"/>
<path d="M329.8 390C333.114 390 335.8 387.314 335.8 384C335.8 380.686 333.114 378 329.8 378C326.486 378 323.8 380.686 323.8 384C323.8 387.314 326.486 390 329.8 390Z" stroke="white" stroke-linecap="round" stroke-linejoin="round"/>
<path d="M278.801 376H238.801V384H242.801V404C242.801 406.122 243.644 408.157 245.144 409.657C246.644 411.157 248.679 412 250.801 412H266.801C268.922 412 270.957 411.157 272.458 409.657C273.958 408.157 274.801 406.122 274.801 404V384H278.801V376Z" fill="#DCDDE0"/>
<path d="M262.801 360C262.801 360 266.801 345.7 278.801 341.7C290.801 337.7 302.801 340 306.801 344C306.801 344 303.001 355.3 288.801 361.3C274.601 367.3 262.801 360 262.801 360Z" fill="white"/>
<path d="M222.8 324C222.8 324 222.2 341.4 228.8 352C235.4 362.6 250.8 364 250.8 364C250.8 364 255.6 351.4 246.8 340C238 328.6 222.8 324 222.8 324Z" fill="white"/>
<path d="M276 297.4C276 297.4 254.2 306.2 250 323.9C246.4 339.5 258.8 352 258.8 352C258.8 352 276 342 278 329.5C280 317 276 297.4 276 297.4Z" fill="white"/>
<path d="M278.801 376H238.801V384H242.801V404C242.801 406.122 243.644 408.157 245.144 409.657C246.644 411.157 248.679 412 250.801 412H266.801C268.922 412 270.957 411.157 272.458 409.657C273.958 408.157 274.801 406.122 274.801 404V384H278.801V376Z" stroke="#272D3D" stroke-linecap="round" stroke-linejoin="round"/>
<path d="M276 297.4C276 297.4 254.2 306.2 250 323.9C246.4 339.5 258.8 352 258.8 352C258.8 352 276 342 278 329.5C280 317 276 297.4 276 297.4Z" stroke="#272D3D" stroke-linecap="round" stroke-linejoin="round"/>
<path d="M262.801 360C262.801 360 266.801 345.7 278.801 341.7C290.801 337.7 302.801 340 306.801 344C306.801 344 303.001 355.3 288.801 361.3C274.601 367.3 262.801 360 262.801 360Z" stroke="#272D3D" stroke-linecap="round" stroke-linejoin="round"/>
<path d="M222.8 324C222.8 324 222.2 341.4 228.8 352C235.4 362.6 250.8 364 250.8 364C250.8 364 255.6 351.4 246.8 340C238 328.6 222.8 324 222.8 324Z" stroke="#272D3D" stroke-linecap="round" stroke-linejoin="round"/>
<path d="M262.801 360C259.201 364.3 258.801 376 258.801 376V352" stroke="#272D3D" stroke-linecap="round" stroke-linejoin="round"/>
<path d="M250.801 364C252.401 367.8 253.901 376 253.901 376" stroke="#272D3D" stroke-linecap="round" stroke-linejoin="round"/>
<path d="M258.801 352C261.401 313.7 276.001 297.4 276.001 297.4" stroke="#272D3D" stroke-linecap="round" stroke-linejoin="round"/>
<path d="M306.801 344C306.801 344 281.901 337.5 262.801 360" stroke="#272D3D" stroke-linecap="round" stroke-linejoin="round"/>
<path d="M222.801 324C222.801 324 242.801 340.2 250.801 364" stroke="#272D3D" stroke-linecap="round" stroke-linejoin="round"/>
<path d="M265.4 318C265.4 318 272 313.5 277.8 310.1" stroke="#272D3D" stroke-linecap="round" stroke-linejoin="round"/>
<path d="M261 334.8C258.409 329.404 255.187 324.335 251.4 319.7" stroke="#272D3D" stroke-linecap="round" stroke-linejoin="round"/>
<path d="M285.301 345C285.301 345 286.601 342.9 288.401 339.7" stroke="#272D3D" stroke-linecap="round" stroke-linejoin="round"/>
<path d="M272.4 351.2C278.852 353.554 284.996 356.676 290.7 360.5" stroke="#272D3D" stroke-linecap="round" stroke-linejoin="round"/>
<path d="M245.101 351.2C245.101 351.2 240.301 348.6 225.801 345.5" stroke="#272D3D" stroke-linecap="round" stroke-linejoin="round"/>
<path d="M237.5 339.6V331.5" stroke="#272D3D" stroke-linecap="round" stroke-linejoin="round"/>
<path d="M250.801 384H274.801" stroke="#272D3D" stroke-linecap="round" stroke-linejoin="round"/>
<path d="M286.7 412C288 407.4 293.7 404 300.4 404C307.1 404 312.9 407.4 314.2 412H286.7Z" fill="#272D3D"/>
<path d="M286.7 412C288 407.4 293.7 404 300.4 404C307.1 404 312.9 407.4 314.2 412H286.7Z" stroke="#272D3D" stroke-linecap="round" stroke-linejoin="round"/>
<path d="M295 410.5C296.6 407.6 300 405.3 304.3 404.4" stroke="white" stroke-linecap="round" stroke-linejoin="round"/>
<path d="M391.1 404H462.8C463.86 404 464.878 404.421 465.628 405.172C466.378 405.922 466.8 406.939 466.8 408V412H387.1V408C387.1 406.939 387.521 405.922 388.271 405.172C389.021 404.421 390.039 404 391.1 404Z" fill="#272D3D"/>
<path d="M376.4 202.2L351.8 184L355.1 214.4L361.7 207.1L367.1 219.1L374 215.1L366.2 204.3L376.4 202.2Z" fill="#272D3D"/>
<path d="M376.4 202.2L351.8 184L355.1 214.4" stroke="white" stroke-linecap="round" stroke-linejoin="round"/>
<path d="M355.8 185H358.8" stroke="#272D3D" stroke-linecap="round" stroke-linejoin="round"/>
<path d="M354.899 182.9L356.999 180.8" stroke="#272D3D" stroke-linecap="round" stroke-linejoin="round"/>
<path d="M352.8 182V179" stroke="#272D3D" stroke-linecap="round" stroke-linejoin="round"/>
<path d="M350.6 182.9L348.5 180.8" stroke="#272D3D" stroke-linecap="round" stroke-linejoin="round"/>
<path d="M349.8 185H346.8" stroke="#272D3D" stroke-linecap="round" stroke-linejoin="round"/>
<path d="M350.6 187.2L348.5 189.3" stroke="#272D3D" stroke-linecap="round" stroke-linejoin="round"/>
<path d="M247 209H183C180.878 209 178.843 209.843 177.343 211.343C175.843 212.843 175 214.878 175 217V233C175 235.122 175.843 237.157 177.343 238.657C178.843 240.157 180.878 241 183 241V249L191 241H247C249.122 241 251.157 240.157 252.657 238.657C254.157 237.157 255 235.122 255 233V217C255 214.878 254.157 212.843 252.657 211.343C251.157 209.843 249.122 209 247 209Z" fill="white"/>
<path d="M247 209H183C180.878 209 178.843 209.843 177.343 211.343C175.843 212.843 175 214.878 175 217V233C175 235.122 175.843 237.157 177.343 238.657C178.843 240.157 180.878 241 183 241V249L191 241H247C249.122 241 251.157 240.157 252.657 238.657C254.157 237.157 255 235.122 255 233V217C255 214.878 254.157 212.843 252.657 211.343C251.157 209.843 249.122 209 247 209Z" stroke="#272D3D" stroke-linecap="round" stroke-linejoin="round"/>
<path d="M183.5 225H237.6" stroke="#272D3D" stroke-linecap="round" stroke-linejoin="round"/>
<path d="M183.5 219H241.6" stroke="#272D3D" stroke-linecap="round" stroke-linejoin="round"/>
<path d="M183.5 231H241.6" stroke="#272D3D" stroke-linecap="round" stroke-linejoin="round"/>
<path d="M434.699 378.9L426.399 373C426.122 372.802 425.888 372.551 425.712 372.26C425.535 371.969 425.42 371.645 425.373 371.308C425.327 370.971 425.349 370.628 425.439 370.3C425.53 369.971 425.686 369.665 425.899 369.4C426.699 368.3 428.199 368.8 429.299 369.5C432.099 371.3 436.899 373.8 438.299 374.5C439.699 375.2 444.799 376.2 450.999 379.8C450.999 379.8 448.299 385.5 440.299 384.5C432.299 383.5 434.699 378.9 434.699 378.9Z" fill="white"/>
<path d="M434.699 378.9L426.399 373C426.122 372.802 425.888 372.551 425.712 372.26C425.535 371.969 425.42 371.645 425.373 371.308C425.327 370.971 425.349 370.628 425.439 370.3C425.53 369.971 425.686 369.665 425.899 369.4V369.4C426.699 368.3 428.199 368.8 429.299 369.5C432.099 371.3 436.899 373.8 438.299 374.5C439.699 375.2 444.799 376.2 450.999 379.8C450.999 379.8 448.299 385.5 440.299 384.5C432.299 383.5 434.699 378.9 434.699 378.9Z" stroke="#272D3D" stroke-linecap="round" stroke-linejoin="round"/>
<path d="M530.3 394.5C528.3 404.5 518.3 403.5 518.3 403.5L456.3 399.5V399.1L459.2 381.5C467.2 379.5 495.2 373.5 495.2 373.5L487.5 349.5L517.9 342.4C522 354.8 531.9 386.5 530.3 394.5Z" fill="white"/>
<path d="M519.5 347.3C518.9 345.5 518.4 343.8 518 342.4L487.6 349.5C487.6 349.5 504.8 350.5 519.5 347.3Z" fill="#272D3D"/>
<path d="M466.3 381.5H459.3C453.3 381.5 448.3 377.5 438.3 378.5C428.3 379.5 423.3 380.5 419.3 385.5C417.017 388.302 415.008 391.315 413.3 394.5C413.3 394.5 411.3 398.5 412.3 399.5C413.3 400.5 415.3 399.5 415.3 399.5C415.3 399.5 413.3 402.5 414.3 404.5C415.3 406.5 418.3 403.5 418.3 403.5C418.3 403.5 416.3 406.5 418.3 407.5C420.3 408.5 422.3 405.5 422.3 405.5C422.282 405.863 422.358 406.224 422.522 406.548C422.685 406.873 422.93 407.149 423.232 407.351C423.534 407.553 423.884 407.672 424.246 407.698C424.609 407.724 424.971 407.656 425.3 407.5C427.2 406.9 435.3 400.5 435.3 400.5C435.3 400.5 449.3 404.5 461.3 396.5L466.3 381.5Z" fill="white"/>
<path d="M530.3 394.5C528.3 404.5 518.3 403.5 518.3 403.5L456.4 399.1C449.675 401.712 442.311 402.2 435.3 400.5C435.3 400.5 427.2 406.9 425.3 407.5C424.971 407.656 424.609 407.724 424.246 407.698C423.884 407.672 423.534 407.553 423.232 407.351C422.93 407.15 422.685 406.873 422.522 406.549C422.358 406.224 422.282 405.863 422.3 405.5C422.3 405.5 420.3 408.5 418.3 407.5C416.3 406.5 418 404 418.3 403.6C418.6 403.2 415.2 406.4 414.3 404.5C413.4 402.6 415.2 399.6 415.3 399.5C415.4 399.4 413.3 400.5 412.3 399.5C411.3 398.5 413.3 394.5 413.3 394.5C415.008 391.316 417.017 388.302 419.3 385.5C423.3 380.5 428.3 379.5 438.3 378.5C448.3 377.5 453.3 381.5 459.3 381.5C467.3 379.5 495.3 373.5 495.3 373.5L487.6 349.5L518 342.4C522 354.8 531.9 386.5 530.3 394.5Z" stroke="#272D3D" stroke-linecap="round" stroke-linejoin="round"/>
<path d="M415.3 399.5C415.3 399.5 420.7 390.8 423.3 388.6C425.818 386.436 428.909 385.046 432.2 384.6" stroke="#272D3D" stroke-linecap="round" stroke-linejoin="round"/>
<path d="M418.3 403.6C418.3 403.6 423.7 394.1 427.3 392.1C429.599 390.816 432.102 389.937 434.7 389.5" stroke="#272D3D" stroke-linecap="round" stroke-linejoin="round"/>
<path d="M422.3 405.5C422.3 405.5 426.3 398.8 430.3 396.5C434.3 394.2 437.2 394 438 394.1" stroke="#272D3D" stroke-linecap="round" stroke-linejoin="round"/>
<path d="M0.799805 412H552.3" stroke="#272D3D" stroke-linecap="round" stroke-linejoin="round"/>
</svg>
