<svg width="252" height="268" viewBox="0 0 252 268" fill="none" xmlns="http://www.w3.org/2000/svg">
<path d="M251.5 251.5H231.9H198.5H0.5" stroke="#272D3D" stroke-miterlimit="10" stroke-linecap="round" stroke-linejoin="round"/>
<path d="M148.7 105.3H108.7V148.7H148.7V105.3Z" fill="white"/>
<path d="M148.7 105.3H108.7V148.7H148.7V105.3Z" stroke="#272D3D" stroke-miterlimit="10" stroke-linecap="round" stroke-linejoin="round"/>
<path d="M148.9 108L148.8 114.4C142.9 117.7 131.1 120 127.9 119.5C133.2 120.3 142.9 113.2 148.9 108Z" fill="#272D3D"/>
<path d="M230.8 251.5H17.2002C17.2002 251.5 23.2002 180.9 40.5002 160.1C57.9002 139.4 99.1002 130.9 99.1002 130.9L108.7 118.5V121.1C108.7 133.9 114.5 134.9 121.7 137.9C128.9 140.9 129.8 148.6 129.8 148.6C129.8 148.6 130.7 140.9 137.9 137.9C145.1 134.9 148.6 133.9 148.6 121.1V118.5L158.2 130.9C158.2 130.9 199.5 139.4 216.8 160.1C234.3 180.9 230.8 251.5 230.8 251.5Z" fill="#DCDDE0"/>
<path d="M148.7 118.5L158.3 130.9C158.3 130.9 199.6 139.4 216.9 160.2C234.2 181 230.7 251.6 230.7 251.6H17.2002C17.2002 251.6 23.2002 181 40.5002 160.2C57.8002 139.4 99.1002 130.9 99.1002 130.9L108.7 118.5" stroke="#272D3D" stroke-miterlimit="10" stroke-linecap="round" stroke-linejoin="round"/>
<path d="M129.901 148.6C129.501 148.6 129.101 148.6 128.601 148.6C119.801 148.6 113.301 145.7 108.701 142.2C101.901 137.1 99.1006 130.8 99.1006 130.8L108.701 118.4V121C108.701 133.8 114.501 134.8 121.701 137.8C128.901 140.8 129.901 148.6 129.901 148.6Z" fill="#DCDDE0"/>
<path d="M158.3 130.9C158.3 130.9 155.5 137.1 148.7 142.2C144.2 145.6 138.1 148.4 129.8 148.7C129.8 148.7 130.7 141 137.9 138C145.1 135 148.6 134 148.6 121.2V118.6L158.3 130.9Z" fill="#DCDDE0"/>
<path d="M129.901 148.6C129.501 148.6 129.101 148.6 128.601 148.6C119.801 148.6 113.301 145.7 108.701 142.2C101.901 137.1 99.1006 130.8 99.1006 130.8L108.701 118.4V121C108.701 133.8 114.501 134.8 121.701 137.8C128.901 140.8 129.901 148.6 129.901 148.6Z" stroke="#272D3D" stroke-miterlimit="10" stroke-linecap="round" stroke-linejoin="round"/>
<path d="M158.3 130.9C158.3 130.9 155.5 137.1 148.7 142.2C144.2 145.6 138.1 148.4 129.8 148.7C129.8 148.7 130.7 141 137.9 138C145.1 135 148.6 134 148.6 121.2V118.6L158.3 130.9Z" stroke="#272D3D" stroke-miterlimit="10" stroke-linecap="round" stroke-linejoin="round"/>
<path d="M129.9 148.6V251.5" stroke="#272D3D" stroke-miterlimit="10" stroke-linecap="round" stroke-linejoin="round"/>
<path d="M137.5 159C138.715 159 139.7 158.015 139.7 156.8C139.7 155.585 138.715 154.6 137.5 154.6C136.285 154.6 135.3 155.585 135.3 156.8C135.3 158.015 136.285 159 137.5 159Z" stroke="#272D3D" stroke-miterlimit="10" stroke-linecap="round" stroke-linejoin="round"/>
<path d="M66.8 205.5L62.5 251.5" stroke="#272D3D" stroke-miterlimit="10" stroke-linecap="round" stroke-linejoin="round"/>
<path d="M137.5 180.6C138.715 180.6 139.7 179.615 139.7 178.4C139.7 177.185 138.715 176.2 137.5 176.2C136.285 176.2 135.3 177.185 135.3 178.4C135.3 179.615 136.285 180.6 137.5 180.6Z" stroke="#272D3D" stroke-miterlimit="10" stroke-linecap="round" stroke-linejoin="round"/>
<path d="M137.5 202.2C138.715 202.2 139.7 201.215 139.7 200C139.7 198.785 138.715 197.8 137.5 197.8C136.285 197.8 135.3 198.785 135.3 200C135.3 201.215 136.285 202.2 137.5 202.2Z" stroke="#272D3D" stroke-miterlimit="10" stroke-linecap="round" stroke-linejoin="round"/>
<path d="M137.5 223.8C138.715 223.8 139.7 222.815 139.7 221.6C139.7 220.385 138.715 219.4 137.5 219.4C136.285 219.4 135.3 220.385 135.3 221.6C135.3 222.815 136.285 223.8 137.5 223.8Z" stroke="#272D3D" stroke-miterlimit="10" stroke-linecap="round" stroke-linejoin="round"/>
<path d="M231 239C231 239 234.2 178 223 166.8C207.5 174.5 192.9 166.8 192.9 166.8C181.7 178 184.9 239 184.9 239H231Z" fill="#DCDDE0"/>
<path d="M184.9 239C184.9 239 181.8 178 192.9 166.8C192.9 166.8 207.5 174.5 223 166.8C234.2 178 231 239 231 239" stroke="#272D3D" stroke-miterlimit="10" stroke-linecap="round" stroke-linejoin="round"/>
<path d="M223.299 146.7L222.999 166.9C207.499 174.6 192.899 166.9 192.899 166.9V147.3C193.999 146.2 195.699 145.3 197.699 144.6C197.699 146.5 197.599 147.7 197.599 147.7C197.599 147.7 200.399 149.7 208.599 149.7C216.899 149.7 220.299 147.7 220.299 147.7C220.299 147.7 220.399 146.7 220.499 145C221.699 145.3 222.599 145.9 223.299 146.7Z" fill="#DCDDE0"/>
<path d="M220.599 144.8C221.699 145.3 222.599 146 223.299 146.7L222.999 166.9C207.499 174.6 192.899 166.9 192.899 166.9V147.2C193.999 146.1 195.699 145.2 197.699 144.5" stroke="#272D3D" stroke-miterlimit="10" stroke-linecap="round" stroke-linejoin="round"/>
<path d="M223.3 117.8C221.8 130.2 220.3 147.5 220.3 147.5C220.3 147.5 217.2 149.5 208.6 149.5C200 149.5 197.6 147.5 197.6 147.5C197.6 147.5 198.1 138.7 196.7 127.5C195.3 116.3 191.6 105 192.7 102C193 101.1 193.6 100.5 194.5 100C194.5 100 191.9 89 190.1 81.4C188.4 73.8 187.1 68.4 190.1 67.5C193.1 66.6 194.4 71.1 196.7 79.5C199 87.9 201.2 95.1 201.2 95.1C201.2 95.1 203.1 85 203.9 79.6C204.7 74.1 205.5 65.4 209.8 65.9C213.9 66.4 211.3 76.7 210.3 93.4C211.2 93.3 212.3 93.5 213.8 94.2C214.3 94.5 214.8 94.8 215.2 95.2C215.9 93.9 217.5 92.5 221.1 94.2C226.8 96.9 224.8 105.4 223.3 117.8Z" fill="white"/>
<path d="M215.3 95.2001C214.9 94.8001 214.4 94.5001 213.9 94.2001C207.7 91.2001 207.3 97.4001 207.3 97.4001" stroke="#272D3D" stroke-miterlimit="10" stroke-linecap="round" stroke-linejoin="round"/>
<path d="M213.3 104.3C213.3 104.3 210.7 115.7 215.7 115.7C220.7 115.7 218.1 106.6 221.5 100.9" stroke="#272D3D" stroke-miterlimit="10" stroke-linecap="round" stroke-linejoin="round"/>
<path d="M206.8 104.5C206.8 104.5 206 115.1 210.2 114.8C211.6 114.7 212.4 113.9 212.8 112.6" stroke="#272D3D" stroke-miterlimit="10" stroke-linecap="round" stroke-linejoin="round"/>
<path d="M207.399 137.7C207.399 137.7 210.299 139.1 216.199 138.6" stroke="#272D3D" stroke-miterlimit="10" stroke-linecap="round" stroke-linejoin="round"/>
<path d="M211.799 117.6C211.799 117.6 210.499 116 207.899 113.6C205.299 111.2 200.699 107.5 200.699 107.5C200.699 107.5 201.999 105.6 204.599 105.1C207.199 104.5 213.699 103.1 213.699 99.8C213.699 98 211.599 97.4 208.999 97.4C206.899 97.4 204.499 97.8 202.699 98.1C198.799 98.8 193.699 99 192.699 102.1C191.699 105.1 195.299 116.5 196.699 127.6C197.599 134.8 197.699 141 197.699 144.5C197.699 146.4 197.599 147.6 197.599 147.6C197.599 147.6 200.399 149.6 208.599 149.6C216.799 149.6 220.299 147.6 220.299 147.6C220.299 147.6 220.399 146.6 220.499 144.9C220.899 139.9 221.899 128.9 222.999 119.8C223.099 119.2 223.099 118.6 223.199 118C224.699 105.6 226.599 97.1 221.099 94.4C215.499 91.6 214.699 96.7 214.699 96.7" stroke="#272D3D" stroke-miterlimit="10" stroke-linecap="round" stroke-linejoin="round"/>
<path d="M194.5 100C194.5 100 191.9 89 190.1 81.4C188.3 73.8 187.1 68.4 190.1 67.5C193.1 66.6 194.4 71.1 196.7 79.5C199 87.9 201.2 95.1 201.2 95.1C201.2 95.1 203.1 85 203.9 79.6C204.7 74.1 205.5 65.4 209.8 65.9C213.9 66.4 211.3 76.7 210.3 93.4" stroke="#272D3D" stroke-miterlimit="10" stroke-linecap="round" stroke-linejoin="round"/>
<path d="M221.6 100.9C220.7 105.6 221.8 117.6 216.8 117.6C215.3 117.6 214.4 116.5 214 115C214.4 115.4 215 115.7 215.8 115.7C220.8 115.7 218.2 106.6 221.6 100.9Z" fill="#272D3D"/>
<path d="M213.8 114.8C213.4 115.9 212.6 116.6 211.3 116.7C211.2 116.7 211.1 116.7 211.1 116.7C210.5 116.1 209.7 115.2 208.5 114.1C208.5 114.1 208.5 114.1 208.5 114C209 114.5 209.6 114.8 210.3 114.8C211.7 114.7 212.5 113.9 212.9 112.6C213 113.5 213.3 114.2 213.8 114.8Z" fill="#272D3D"/>
<path d="M208.4 114C208.2 113.9 208 113.7 207.8 113.5C205.2 111.1 200.6 107.4 200.6 107.4C200.6 107.4 201.9 105.5 204.5 105C205.1 104.9 205.9 104.7 206.7 104.5C206.8 104.5 206.3 111.6 208.4 114Z" fill="#272D3D"/>
<path d="M170.026 79.4886C171.938 74.4839 170.435 69.2604 166.668 67.8215C162.902 66.3826 158.299 69.2732 156.387 74.2779C154.475 79.2825 155.978 84.5061 159.744 85.945C163.511 87.3839 168.114 84.4933 170.026 79.4886Z" fill="white" stroke="#272D3D" stroke-miterlimit="10" stroke-linecap="round" stroke-linejoin="round"/>
<path d="M97.0707 85.9614C100.837 84.5224 102.34 79.2989 100.428 74.2942C98.5164 69.2896 93.9132 66.399 90.1468 67.8379C86.3804 69.2768 84.8771 74.5003 86.7891 79.505C88.7011 84.5096 93.3043 87.4003 97.0707 85.9614Z" fill="white" stroke="#272D3D" stroke-miterlimit="10" stroke-linecap="round" stroke-linejoin="round"/>
<path d="M170.026 79.4886C171.938 74.4839 170.435 69.2604 166.668 67.8215C162.902 66.3826 158.299 69.2732 156.387 74.2779C154.475 79.2825 155.978 84.5061 159.744 85.945C163.511 87.3839 168.114 84.4933 170.026 79.4886Z" stroke="#272D3D" stroke-miterlimit="10" stroke-linecap="round" stroke-linejoin="round"/>
<path d="M97.0707 85.9614C100.837 84.5224 102.34 79.2989 100.428 74.2942C98.5164 69.2896 93.9132 66.399 90.1468 67.8379C86.3804 69.2768 84.8771 74.5003 86.7891 79.505C88.7011 84.5096 93.3043 87.4003 97.0707 85.9614Z" stroke="#272D3D" stroke-miterlimit="10" stroke-linecap="round" stroke-linejoin="round"/>
<path d="M166.1 74.5L159.5 81" stroke="#272D3D" stroke-miterlimit="10" stroke-linecap="round" stroke-linejoin="round"/>
<path d="M95.5996 79.3L90.5996 74.5" stroke="#272D3D" stroke-miterlimit="10" stroke-linecap="round" stroke-linejoin="round"/>
<path d="M92.1993 46.3C92.8993 59.1 95.8993 89.4 100.399 98.9C104.899 108.4 118.899 119.5 127.899 119.5C136.899 119.5 152.699 106.7 156.399 98.5C160.999 88.3 163.499 47.4 163.499 47.4C163.499 47.4 155.499 23.5 129.499 23.7C103.499 23.8 91.5993 35.9 92.1993 46.3Z" fill="white"/>
<path d="M136.1 69.9C136.1 69.9 139.1 67.5 143.1 67.5C148.4 67.5 150.8 69.9 150.8 69.9" stroke="#272D3D" stroke-miterlimit="10" stroke-linecap="round" stroke-linejoin="round"/>
<path d="M143.8 73C145.181 73 146.3 71.8807 146.3 70.5C146.3 69.1193 145.181 68 143.8 68C142.419 68 141.3 69.1193 141.3 70.5C141.3 71.8807 142.419 73 143.8 73Z" fill="#272D3D"/>
<path d="M105 69.9C105 69.9 108 67.5 112 67.5C117.3 67.5 119.7 69.9 119.7 69.9" stroke="#272D3D" stroke-miterlimit="10" stroke-linecap="round" stroke-linejoin="round"/>
<path d="M112.699 73C114.08 73 115.199 71.8807 115.199 70.5C115.199 69.1193 114.08 68 112.699 68C111.319 68 110.199 69.1193 110.199 70.5C110.199 71.8807 111.319 73 112.699 73Z" fill="#272D3D"/>
<path d="M126.3 107.9C126.3 107.9 128.1 106.1 131 105.5" stroke="#272D3D" stroke-miterlimit="10" stroke-linecap="round" stroke-linejoin="round"/>
<path d="M116.3 97.1C116.3 97.1 119.6 99.5 128.7 99.7C136.3 99.9 141.4 98.4 141.4 98.4" stroke="#272D3D" stroke-miterlimit="10" stroke-linecap="round" stroke-linejoin="round"/>
<path d="M92.1993 46.3C92.8993 59.1 95.8993 89.4 100.399 98.9C104.899 108.4 118.899 119.5 127.899 119.5C136.899 119.5 152.699 106.7 156.399 98.5C160.999 88.3 163.499 47.4 163.499 47.4C163.499 47.4 155.499 23.5 129.499 23.7C103.499 23.8 91.5993 35.9 92.1993 46.3Z" stroke="#272D3D" stroke-miterlimit="10" stroke-linecap="round" stroke-linejoin="round"/>
<path d="M167.499 45.7C163.899 40.8 152.699 29 127.799 29C103.499 29 93.2994 41.4 89.8994 47.1C89.8994 46.4 89.7994 8.5 127.799 8.5C165.599 8.6 167.499 44.7 167.499 45.7Z" fill="#272D3D"/>
<path d="M167.499 45.7C163.899 40.8 152.699 29 127.799 29C103.499 29 93.2994 41.4 89.8994 47.1C89.8994 46.4 89.7994 8.5 127.799 8.5C165.599 8.6 167.499 44.7 167.499 45.7Z" stroke="#272D3D" stroke-miterlimit="10" stroke-linecap="round" stroke-linejoin="round"/>
<path d="M140 96.1C140 96.1 141.4 97.6 142.8 100.4" stroke="#272D3D" stroke-miterlimit="10" stroke-linecap="round" stroke-linejoin="round"/>
<path d="M117.8 95C117.8 95 115.8 97.3 115 99.2" stroke="#272D3D" stroke-miterlimit="10" stroke-linecap="round" stroke-linejoin="round"/>
<path d="M123 61V63.8C123 64 122.8 64.2 122.6 64.2C120.7 64 111.9 63.5 108.1 63.3C105.4 63.2 100.6 64.3 100.6 64.3C100.6 64.3 102.8 59.9 109.2 59.9C115.2 60 121.3 60.4 122.7 60.6C122.8 60.6 123 60.8 123 61Z" fill="#272D3D"/>
<path d="M133.899 60.9V63.7C133.899 63.9 134.099 64.1 134.299 64.1C136.199 63.9 144.999 63.4 148.799 63.3C151.499 63.2 156.299 64.4 156.299 64.4C156.299 64.4 154.099 60 147.699 60C141.699 60 135.599 60.4 134.199 60.6C134.099 60.6 133.899 60.7 133.899 60.9Z" fill="#272D3D"/>
<path d="M127.5 69C127.5 69 127.8 73.3 123 87C122.4 88.9 126.8 90.6 132.7 90.3" stroke="#272D3D" stroke-miterlimit="10" stroke-linecap="round" stroke-linejoin="round"/>
<path d="M113 38.1C113 38.1 117.7 51.3 129.4 54.4C141.1 57.5 141.3 54.9 138.2 53.1C135.1 51.3 134.5 50.8 134.5 50.8C134.5 50.8 136.8 51.6 138.9 52.6C141 53.6 143.6 53.1 140.8 50.9C138 48.7 138 48.7 138 48.7C138 48.7 142 50.7 148.8 49.5C148.8 49.5 159.2 44 147.6 41.6C136 39.2 113 38.1 113 38.1Z" fill="#272D3D"/>
<path d="M166.6 67.6C168.6 57.7 168.9 44.8 168.9 44.8C168.9 44.8 159.4 26 127.8 26C96.2 26 88.5 47 88.5 47C88.5 47 88.5 58.7 89.8 68.1C89.9 68.1 90 68 90.1 68C91.1 67.6 93.1 67.8 94.1 68C96.6 60.5 103.8 44.4 127.8 44.4C152 44.4 159.7 60.9 162.6 68.4C163.5 68 165.7 67.4 166.6 67.6Z" fill="#272D3D"/>
<path d="M168.9 44.8C168.9 44.8 159.4 26 127.8 26C96.2 26 88.5 47 88.5 47" stroke="white" stroke-miterlimit="10" stroke-linecap="round" stroke-linejoin="round"/>
<path d="M141.3 33.2V39.6C137.4 38.4 133 37.7 127.8 37.7C123.8 37.7 120.3 38.1 117.1 38.9V32.9C120.3 32.3 123.9 32 127.8 32C132.9 31.9 137.3 32.4 141.3 33.2Z" stroke="white" stroke-miterlimit="10" stroke-linecap="round" stroke-linejoin="round"/>
<path d="M127.8 44.3C136.7 44.3 143.6 46.5 148.8 49.6" stroke="white" stroke-miterlimit="10" stroke-linecap="round" stroke-linejoin="round"/>
<path d="M117.1 45.5C120.3 44.7 123.8 44.3 127.8 44.3" stroke="white" stroke-miterlimit="10" stroke-linecap="round" stroke-linejoin="round"/>
</svg>
