<svg width="160" height="90" viewBox="0 0 160 90" fill="none" xmlns="http://www.w3.org/2000/svg">
<path d="M1 1H159V89H1V1Z" stroke="#DCDDE0" stroke-linejoin="round"/>
<path d="M79.5001 64C99.6585 64 116 55.4934 116 45C116 34.5066 99.6585 26 79.5001 26C59.3416 26 43 34.5066 43 45C43 55.4934 59.3416 64 79.5001 64Z" fill="#8993BE"/>
<path fill-rule="evenodd" clip-rule="evenodd" d="M53.25 56.2501L57.2502 36H66.4998C70.4997 36.2501 72.4998 38.2499 72.4998 41.7502C72.4998 47.7502 67.7499 51.2502 63.4997 51.0001H59.0002L58.0001 56.2501H53.25ZM59.9999 47.2503L61.2501 39.7501H64.5C66.25 39.7501 67.4999 40.5 67.4999 42C67.2501 46.2502 65.25 47.0002 63.0001 47.2503H60.0002H59.9999ZM71.5705 51.0001L75.5704 30.7502H80.3205L79.3205 36H83.8202C87.8204 36.2501 89.3203 38.2499 88.8205 40.7501L87.0705 51.0001H82.0705L83.8205 41.7502C84.0703 40.5 84.0703 39.7501 82.3206 39.7501H78.5705L76.3206 51.0001H71.5705ZM86.7502 56.2501L90.7501 36H100C104 36.2501 106 38.2499 106 41.7502C106 47.7502 101.25 51.2502 97.0002 51.0001H92.5001L91.5001 56.2501H86.7502ZM93.4999 47.2503L94.75 39.7501H98.0002C99.7502 39.7501 101 40.5 101 42C100.75 46.2502 98.7502 47.0002 96.5003 47.2503H93.5002H93.4999Z" fill="#232531"/>
</svg>
