<svg width="75" height="77" viewBox="0 0 75 77" fill="none" xmlns="http://www.w3.org/2000/svg">
<path d="M39.3613 20.4719H45.3613M39.3613 20.4719L38.9948 21.2051C38.5782 22.0382 38.3613 22.9569 38.3613 23.8883V26.4719C38.3613 28.6811 40.1522 30.4719 42.3613 30.4719C44.5705 30.4719 46.3613 28.6811 46.3613 26.4719V23.8883C46.3613 22.9569 46.1445 22.0382 45.7279 21.2051L45.3613 20.4719M39.3613 20.4719V19.4719C39.3613 17.8151 40.7045 16.4719 42.3613 16.4719C44.0182 16.4719 45.3613 17.8151 45.3613 19.4719V20.4719M34.8613 24.4719H38.3613M49.8613 24.4719H46.3613M35.8613 29.9719L38.8613 28.4719M48.8613 29.9719L45.8613 28.4719M35.8613 18.9719L38.8613 20.4719M48.8613 18.9719L45.8613 20.4719" stroke="#272D3D"/>
<path d="M50.8606 38.1944C42.7296 42.8888 32.3326 40.1029 27.6381 31.9719C22.9437 23.841 25.7296 13.4439 33.8606 8.74951C41.9915 4.05509 52.3886 6.84097 57.083 14.9719C61.7774 23.1029 58.9915 33.5 50.8606 38.1944Z" stroke="#272D3D" stroke-linecap="round" stroke-linejoin="round"/>
<path d="M56.083 51.2401L55.217 51.7401L69.217 75.9888L74.4132 72.9888L60.4132 48.7401L59.5471 49.2401M56.083 51.2401L59.5471 49.2401M56.083 51.2401L51.5835 43.4467M59.5471 49.2401L55.0475 41.4467M51.5835 43.4467C41.3674 48.1783 29.0456 44.4106 23.3076 34.4719C17.2324 23.9495 20.8377 10.4945 31.3601 4.41938C41.8826 -1.65576 55.3375 1.9495 61.4127 12.4719C67.1507 22.4104 64.2529 34.965 55.0475 41.4467M51.5835 43.4467C52.1835 43.1688 52.7763 42.8615 53.3601 42.5245C53.9441 42.1874 54.5067 41.8275 55.0475 41.4467" stroke="#272D3D" stroke-linecap="round" stroke-linejoin="round"/>
<path d="M27.89 65.14C28.1083 65.1246 28.3156 65.038 28.4799 64.8935C28.6443 64.749 28.7568 64.5545 28.8 64.34C29.0666 62.7914 29.0666 61.2086 28.8 59.66C28.7568 59.4454 28.6443 59.251 28.4799 59.1065C28.3156 58.962 28.1083 58.8754 27.89 58.86L25.49 58.7C25.2987 58.0834 25.0545 57.4845 24.76 56.91L26.33 55.11C26.4764 54.9441 26.5637 54.7344 26.5781 54.5136C26.5926 54.2929 26.5335 54.0735 26.41 53.89C25.4973 52.6174 24.3826 51.5027 23.11 50.59C22.9264 50.4665 22.7071 50.4073 22.4863 50.4218C22.2656 50.4363 22.0558 50.5236 21.89 50.67L20.08 52.24C19.5097 51.9438 18.914 51.6995 18.3 51.51L18.14 49.11C18.1246 48.8917 18.038 48.6844 17.8935 48.52C17.749 48.3557 17.5545 48.2432 17.34 48.2C15.7914 47.9333 14.2086 47.9333 12.66 48.2C12.4454 48.2432 12.251 48.3557 12.1065 48.52C11.962 48.6844 11.8754 48.8917 11.86 49.11L11.7 51.51C11.086 51.6995 10.4902 51.9438 9.91998 52.24L8.10999 50.67C7.94413 50.5236 7.7344 50.4363 7.51363 50.4218C7.29287 50.4073 7.07354 50.4665 6.88998 50.59C5.6174 51.5027 4.50268 52.6174 3.58998 53.89C3.46649 54.0735 3.40735 54.2929 3.42182 54.5136C3.4363 54.7344 3.52357 54.9441 3.66998 55.11L5.23999 56.91C4.94547 57.4845 4.70123 58.0834 4.50998 58.7L2.10999 58.86C1.89166 58.8754 1.68441 58.962 1.52003 59.1065C1.35565 59.251 1.24322 59.4454 1.19999 59.66C0.933338 61.2086 0.933338 62.7914 1.19999 64.34C1.24322 64.5545 1.35565 64.749 1.52003 64.8935C1.68441 65.038 1.89166 65.1246 2.10999 65.14L4.50998 65.3C4.69948 65.914 4.9438 66.5097 5.23999 67.08L3.66998 68.89C3.52357 69.0558 3.4363 69.2656 3.42182 69.4863C3.40735 69.7071 3.46649 69.9264 3.58998 70.11C4.50268 71.3826 5.6174 72.4973 6.88998 73.41C7.07354 73.5335 7.29287 73.5926 7.51363 73.5781C7.7344 73.5637 7.94413 73.4764 8.10999 73.33L9.91998 71.76C10.4902 72.0562 11.086 72.3005 11.7 72.49L11.86 74.89C11.8754 75.1083 11.962 75.3156 12.1065 75.48C12.251 75.6443 12.4454 75.7568 12.66 75.8C14.2086 76.0666 15.7914 76.0666 17.34 75.8C17.5545 75.7568 17.749 75.6443 17.8935 75.48C18.038 75.3156 18.1246 75.1083 18.14 74.89L18.3 72.49C18.914 72.3005 19.5097 72.0562 20.08 71.76L21.89 73.33C22.0558 73.4764 22.2656 73.5637 22.4863 73.5781C22.7071 73.5926 22.9264 73.5335 23.11 73.41C24.3826 72.4973 25.4973 71.3826 26.41 70.11C26.5335 69.9264 26.5926 69.7071 26.5781 69.4863C26.5637 69.2656 26.4764 69.0558 26.33 68.89L24.76 67.08C25.0562 66.5097 25.3005 65.914 25.49 65.3L27.89 65.14ZM15 68C13.8133 68 12.6533 67.6481 11.6666 66.9888C10.6799 66.3295 9.91083 65.3924 9.45671 64.2961C9.00258 63.1997 8.88376 61.9933 9.11527 60.8294C9.34678 59.6656 9.91823 58.5965 10.7573 57.7574C11.5965 56.9182 12.6656 56.3468 13.8294 56.1153C14.9933 55.8838 16.1997 56.0026 17.2961 56.4567C18.3924 56.9108 19.3295 57.6799 19.9888 58.6666C20.6481 59.6533 21 60.8133 21 62C21 63.5913 20.3678 65.1174 19.2426 66.2426C18.1174 67.3678 16.5913 68 15 68V68Z" stroke="#272D3D" stroke-linejoin="round"/>
</svg>
