<svg width="160" height="90" viewBox="0 0 160 90" fill="none" xmlns="http://www.w3.org/2000/svg">
<path d="M1 1H159V89H1V1Z" stroke="#DCDDE0" stroke-linejoin="round"/>
<path d="M51.5152 32.6435C51.1403 33.5662 50.6213 34.4602 50.0157 35.2676C44.6522 29.7022 35.7994 29.558 30.2629 34.9215C24.7263 40.2851 24.5533 49.1378 29.9168 54.6744C30.0899 54.8762 30.2917 55.0492 30.4936 55.2223L31.0126 55.6836C36.8952 60.6435 45.7191 59.8937 50.6789 54.0111C52.5821 51.7619 53.7356 48.936 53.9374 45.9947C54.3411 42.5055 53.2742 38.007 51.5152 32.6435ZM32.5121 55.3664C32.1084 55.8855 31.3587 55.9432 30.8396 55.5395C30.3205 55.1357 30.2629 54.386 30.6666 53.867C31.0703 53.3479 31.82 53.2902 32.3391 53.6939C32.8293 54.0976 32.9158 54.8474 32.5121 55.3664ZM51.4287 51.1852C47.9972 55.7701 40.6151 54.213 35.9148 54.4437C35.9148 54.4437 35.0785 54.5014 34.2423 54.6167C34.2423 54.6167 34.5595 54.4725 34.9632 54.3283C38.2794 53.1749 39.8365 52.9442 41.855 51.9061C45.6326 49.9741 49.4101 45.7351 50.1599 41.352C48.7181 45.5621 44.335 49.1955 40.3556 50.6661C37.6161 51.6754 32.6851 52.6558 32.6851 52.6558L32.4833 52.5405C29.1383 50.8968 29.0229 43.6301 35.1362 41.2943C37.818 40.2562 40.3556 40.833 43.268 40.1409C46.3535 39.42 49.9292 37.1131 51.371 34.0853C52.9858 38.9586 54.9467 46.5137 51.4287 51.1852Z" fill="#6DB33F"/>
<path d="M61.8672 50.4934C61.4924 50.2627 61.2617 49.859 61.2905 49.4265C61.2905 48.7344 61.8384 48.1577 62.5305 48.1577C62.5305 48.1577 62.5305 48.1577 62.5593 48.1577C62.79 48.1577 63.0207 48.2153 63.2225 48.3307C64.376 49.1381 65.7313 49.5706 67.1154 49.6283C68.4419 49.6283 69.2205 49.0516 69.2205 48.1577V48.1C69.2205 47.033 67.7787 46.687 66.1927 46.1968C64.203 45.6201 61.9537 44.8127 61.9537 42.2174V42.1597C61.9537 39.5933 64.0876 38.0361 66.7694 38.0361C68.2689 38.065 69.7107 38.4398 71.0372 39.1319C71.4985 39.3626 71.7869 39.7951 71.7869 40.3142C71.7869 41.0063 71.2102 41.583 70.5181 41.583H70.4893C70.2874 41.583 70.0856 41.5253 69.8837 41.4388C68.9033 40.8909 67.8363 40.5737 66.7117 40.5161C65.5006 40.5161 64.8085 41.0928 64.8085 41.8425V41.9002C64.8085 42.9095 66.2792 43.3132 67.8652 43.8322C69.8549 44.4378 72.0753 45.3605 72.0753 47.7828V47.8405C72.0753 50.6952 69.8549 52.1082 67.0578 52.1082C65.2122 52.0794 63.3956 51.5315 61.8672 50.4934Z" fill="#6DB33F"/>
<path d="M73.2294 39.6219C73.2005 38.7857 73.8926 38.0936 74.7289 38.0648H74.7577C75.6228 38.0648 76.3149 38.7568 76.3149 39.6219V40.5447C77.3241 39.1317 78.7371 38.0071 80.9287 38.0071C84.1006 38.0071 87.215 40.5158 87.215 45.0431V45.1008C87.215 49.5993 84.1295 52.1368 80.9287 52.1368C78.6794 52.1368 77.2665 51.0122 76.3149 49.7434V54.5302C76.3149 55.3953 75.6228 56.0874 74.7577 56.0874C73.9215 56.0874 73.2294 55.3953 73.2294 54.5591V54.5302V39.6219ZM84.1006 45.1008V45.0431C84.1006 42.419 82.3416 40.7177 80.2366 40.7177C78.1315 40.7177 76.286 42.4767 76.286 45.0431V45.1008C76.286 47.6961 78.1315 49.4262 80.2366 49.4262C82.3416 49.4262 84.1006 47.7826 84.1006 45.1008Z" fill="#6DB33F"/>
<path d="M88.4253 39.6219C88.3965 38.7857 89.0886 38.0936 89.9248 38.0648H89.9536C90.8187 38.0648 91.5108 38.7568 91.5108 39.6219V40.3717C91.655 39.2182 93.5582 38.0648 94.9135 38.0648C95.6921 38.0071 96.3841 38.5838 96.4418 39.3624C96.4418 39.4489 96.4418 39.5066 96.4418 39.5931C96.4418 40.3428 95.9227 40.9772 95.2018 41.0926C92.9814 41.4674 91.482 43.3995 91.482 46.0812V50.5509C91.482 51.416 90.7899 52.0792 89.9248 52.0792C89.0886 52.0792 88.3965 51.416 88.3965 50.5797C88.3965 50.5797 88.3965 50.5797 88.3965 50.5509L88.4253 39.6219Z" fill="#6DB33F"/>
<path d="M97.6825 39.6509C97.6537 38.8147 98.3457 38.1226 99.182 38.0938H99.2108C100.076 38.0938 100.768 38.7858 100.768 39.6509V50.5798C100.768 51.4449 100.076 52.1082 99.2108 52.1082C98.3457 52.1082 97.6825 51.4161 97.6825 50.5798V39.6509Z" fill="#6DB33F"/>
<path d="M102.353 39.6508C102.324 38.8146 103.016 38.1225 103.853 38.0936H103.881C104.746 38.0936 105.439 38.7857 105.439 39.6508V40.2852C106.361 38.8434 107.976 38.0071 109.677 38.0648C112.734 38.0648 114.493 40.1122 114.493 43.2553V50.5509C114.522 51.3872 113.859 52.0504 113.022 52.0792C112.994 52.0792 112.994 52.0792 112.965 52.0792C112.129 52.1081 111.436 51.416 111.408 50.5797V50.5509V44.2069C111.408 42.1019 110.37 40.8908 108.495 40.8908C106.707 40.8908 105.439 42.1596 105.439 44.2646V50.5797C105.439 51.4448 104.746 52.1369 103.881 52.1369C103.016 52.1369 102.324 51.4448 102.324 50.5797L102.353 39.6508Z" fill="#6DB33F"/>
<path d="M128.162 38.0362C127.297 38.0362 126.605 38.7283 126.605 39.5933V40.5161C125.596 39.1031 124.183 37.9785 121.991 37.9785C118.819 37.9785 115.705 40.4873 115.705 45.0146V45.0722C115.705 49.5707 118.791 52.1083 121.991 52.1083C124.241 52.1083 125.654 50.9837 126.605 49.7437C126.461 52.1948 124.962 53.4636 122.337 53.4636C120.896 53.4636 119.454 53.1175 118.185 52.3966C118.012 52.3101 117.839 52.2813 117.637 52.2813C116.916 52.2813 116.339 52.8292 116.311 53.5501C116.311 54.098 116.657 54.617 117.176 54.7901C118.819 55.5975 120.607 56.0012 122.424 56.0012C124.875 56.0012 126.778 55.4245 127.989 54.1845C129.114 53.0599 129.719 51.3585 129.719 49.0805V39.6222C129.748 38.7571 129.056 38.065 128.191 38.0362H128.162ZM122.712 49.4265C120.578 49.4265 118.848 47.754 118.848 45.0722V45.0146C118.848 42.3905 120.607 40.6891 122.712 40.6891C124.817 40.6891 126.663 42.4481 126.663 45.0146V45.0722C126.692 47.6675 124.846 49.4265 122.712 49.4265Z" fill="#6DB33F"/>
<path d="M100.797 34.3449C100.797 35.21 100.105 35.9021 99.2398 35.9021C98.3747 35.9021 97.6826 35.21 97.6826 34.3449C97.6826 33.4798 98.3747 32.7877 99.2398 32.7877C100.076 32.7589 100.768 33.451 100.797 34.2872C100.797 34.3161 100.797 34.3161 100.797 34.3449Z" fill="#6DB33F"/>
<path d="M133.266 41.2945C132.401 41.2945 131.68 40.5736 131.68 39.7086C131.68 38.8435 132.401 38.1226 133.266 38.1226C134.131 38.1226 134.852 38.8435 134.852 39.7086C134.852 40.5736 134.131 41.2945 133.266 41.2945ZM133.266 38.3532C132.516 38.3532 131.91 38.9588 131.91 39.7086C131.91 40.4583 132.516 41.0639 133.266 41.0639C134.015 41.0639 134.621 40.4583 134.621 39.7086C134.621 38.9588 134.044 38.3532 133.295 38.3532H133.266ZM133.698 40.6025L133.237 39.8816H132.92V40.6025H132.66V38.7858H133.41C133.727 38.757 133.987 39.0165 134.015 39.3337C134.015 39.5932 133.814 39.8239 133.554 39.8816L134.044 40.6025H133.698ZM133.381 39.0165H132.92V39.6509H133.41C133.583 39.6509 133.727 39.5067 133.727 39.3337C133.727 39.1607 133.583 39.0165 133.381 39.0165Z" fill="#6DB33F"/>
<path d="M50.6797 54.0114C52.5829 51.7621 53.7363 48.9362 53.9382 45.9949L50.6797 54.0114Z" fill="#6DB33F"/>
<path d="M51.4288 51.1853C47.9973 55.7703 40.6152 54.2132 35.9149 54.4438C35.9149 54.4438 35.0787 54.5015 34.2424 54.6169C34.2424 54.6169 34.5596 54.4727 34.9633 54.3285C38.2795 53.175 39.8366 52.9444 41.8552 51.9062C45.6327 49.9742 49.4103 45.7353 50.16 41.3522C48.7182 45.5623 44.3351 49.1956 40.3557 50.6663C37.6162 51.6756 32.6852 52.656 32.6852 52.656L32.4834 52.5406C29.1384 50.897 29.023 43.6302 35.1363 41.2945C37.8181 40.2564 40.3557 40.8331 43.2682 40.1411C46.3536 39.4202 49.9293 37.1133 51.3711 34.0854C52.986 38.9588 54.9468 46.5139 51.4288 51.1853Z" fill="white"/>
<path d="M32.5118 55.3666C32.1081 55.8857 31.3584 55.9434 30.8393 55.5397C30.3203 55.1359 30.2626 54.3862 30.6663 53.8672C31.07 53.3481 31.8197 53.2904 32.3388 53.6941C32.829 54.0978 32.9155 54.8476 32.5118 55.3666Z" fill="white"/>
</svg>
