<svg width="442" height="303" viewBox="0 0 442 303" fill="none" xmlns="http://www.w3.org/2000/svg">
<path d="M160.5 104.2H136.5V128.2H160.5V104.2Z" stroke="#272D3D" stroke-miterlimit="10" stroke-linecap="round" stroke-linejoin="round"/>
<path d="M140.5 111.2H156.5" stroke="#272D3D" stroke-miterlimit="10" stroke-linecap="round" stroke-linejoin="round"/>
<path d="M140.5 116.2H156.5" stroke="#272D3D" stroke-miterlimit="10" stroke-linecap="round" stroke-linejoin="round"/>
<path d="M140.5 121.2H156.5" stroke="#272D3D" stroke-miterlimit="10" stroke-linecap="round" stroke-linejoin="round"/>
<path d="M340 188.5H96C91.6 188.5 88 184.9 88 180.5V32.5C88 28.1 91.6 24.5 96 24.5H340C344.4 24.5 348 28.1 348 32.5V180.5C348 184.9 344.4 188.5 340 188.5Z" fill="white"/>
<path d="M340 188.5H96C91.6 188.5 88 184.9 88 180.5V32.5C88 28.1 91.6 24.5 96 24.5H340C344.4 24.5 348 28.1 348 32.5V180.5C348 184.9 344.4 188.5 340 188.5Z" stroke="#272D3D" stroke-miterlimit="10" stroke-linecap="round" stroke-linejoin="round"/>
<path d="M340 56.5H96" stroke="#272D3D" stroke-miterlimit="10" stroke-linecap="round" stroke-linejoin="round"/>
<path d="M174.5 32.5V180.5" stroke="#272D3D" stroke-miterlimit="10" stroke-linecap="round" stroke-linejoin="round"/>
<path d="M261.5 32.2V180.2" stroke="#272D3D" stroke-miterlimit="10" stroke-linecap="round" stroke-linejoin="round"/>
<path d="M145.3 73.4H121.3V97.4H145.3V73.4Z" stroke="#272D3D" stroke-miterlimit="10" stroke-linecap="round" stroke-linejoin="round"/>
<path d="M125.3 80.4H141.3" stroke="#272D3D" stroke-miterlimit="10" stroke-linecap="round" stroke-linejoin="round"/>
<path d="M125.3 85.4H141.3" stroke="#272D3D" stroke-miterlimit="10" stroke-linecap="round" stroke-linejoin="round"/>
<path d="M125.3 90.4H141.3" stroke="#272D3D" stroke-miterlimit="10" stroke-linecap="round" stroke-linejoin="round"/>
<path d="M310.9 100.3H286.9V124.3H310.9V100.3Z" stroke="#272D3D" stroke-miterlimit="10" stroke-linecap="round" stroke-linejoin="round"/>
<path d="M290.9 107.3H306.9" stroke="#272D3D" stroke-miterlimit="10" stroke-linecap="round" stroke-linejoin="round"/>
<path d="M290.9 112.3H306.9" stroke="#272D3D" stroke-miterlimit="10" stroke-linecap="round" stroke-linejoin="round"/>
<path d="M290.9 117.3H306.9" stroke="#272D3D" stroke-miterlimit="10" stroke-linecap="round" stroke-linejoin="round"/>
<path d="M246.9 153.653L223.265 149.486L219.098 173.121L242.733 177.288L246.9 153.653Z" stroke="#272D3D" stroke-miterlimit="10" stroke-linecap="round" stroke-linejoin="round"/>
<path d="M226 157L241.7 159.8" stroke="#272D3D" stroke-miterlimit="10" stroke-linecap="round" stroke-linejoin="round"/>
<path d="M225.1 162L240.9 164.8" stroke="#272D3D" stroke-miterlimit="10" stroke-linecap="round" stroke-linejoin="round"/>
<path d="M224.3 166.9L240 169.7" stroke="#272D3D" stroke-miterlimit="10" stroke-linecap="round" stroke-linejoin="round"/>
<path d="M297.009 70.6434L273.374 66.477L269.208 90.1122L292.843 94.2786L297.009 70.6434Z" stroke="#272D3D" stroke-miterlimit="10" stroke-linecap="round" stroke-linejoin="round"/>
<path d="M276.1 74.1L291.9 76.9" stroke="#272D3D" stroke-miterlimit="10" stroke-linecap="round" stroke-linejoin="round"/>
<path d="M275.3 79L291 81.8" stroke="#272D3D" stroke-miterlimit="10" stroke-linecap="round" stroke-linejoin="round"/>
<path d="M274.4 84L290.2 86.8" stroke="#272D3D" stroke-miterlimit="10" stroke-linecap="round" stroke-linejoin="round"/>
<path d="M209.227 69.001L185.592 73.1674L189.758 96.8026L213.393 92.6362L209.227 69.001Z" stroke="#272D3D" stroke-miterlimit="10" stroke-linecap="round" stroke-linejoin="round"/>
<path d="M190.7 79.4L206.5 76.6" stroke="#272D3D" stroke-miterlimit="10" stroke-linecap="round" stroke-linejoin="round"/>
<path d="M191.601 84.3L207.301 81.5" stroke="#272D3D" stroke-miterlimit="10" stroke-linecap="round" stroke-linejoin="round"/>
<path d="M192.4 89.2L208.2 86.4" stroke="#272D3D" stroke-miterlimit="10" stroke-linecap="round" stroke-linejoin="round"/>
<path d="M299.924 137.605L276.289 141.771L280.455 165.407L304.091 161.24L299.924 137.605Z" stroke="#272D3D" stroke-miterlimit="10" stroke-linecap="round" stroke-linejoin="round"/>
<path d="M281.4 148L297.2 145.2" stroke="#272D3D" stroke-miterlimit="10" stroke-linecap="round" stroke-linejoin="round"/>
<path d="M282.3 152.9L298 150.1" stroke="#272D3D" stroke-miterlimit="10" stroke-linecap="round" stroke-linejoin="round"/>
<path d="M283.1 157.8L298.9 155" stroke="#272D3D" stroke-miterlimit="10" stroke-linecap="round" stroke-linejoin="round"/>
<path d="M123.9 110.5H99.9004V134.5H123.9V110.5Z" stroke="#272D3D" stroke-miterlimit="10" stroke-linecap="round" stroke-linejoin="round"/>
<path d="M103.9 117.5H119.9" stroke="#272D3D" stroke-miterlimit="10" stroke-linecap="round" stroke-linejoin="round"/>
<path d="M103.9 122.5H119.9" stroke="#272D3D" stroke-miterlimit="10" stroke-linecap="round" stroke-linejoin="round"/>
<path d="M103.9 127.5H119.9" stroke="#272D3D" stroke-miterlimit="10" stroke-linecap="round" stroke-linejoin="round"/>
<path d="M245.9 105.1H185.9V145.1H245.9V105.1Z" stroke="#272D3D" stroke-miterlimit="10" stroke-linecap="round" stroke-linejoin="round"/>
<path d="M239.9 110.1H191.9V115.1H239.9V110.1Z" stroke="#272D3D" stroke-miterlimit="10" stroke-linecap="round" stroke-linejoin="round"/>
<path d="M239.9 119.1H211.9V131.1H239.9V119.1Z" stroke="#272D3D" stroke-miterlimit="10" stroke-linecap="round" stroke-linejoin="round"/>
<path d="M207.9 119.1H191.9V140.1H207.9V119.1Z" stroke="#272D3D" stroke-miterlimit="10" stroke-linecap="round" stroke-linejoin="round"/>
<path d="M224.9 133.1H211.9V140.1H224.9V133.1Z" stroke="#272D3D" stroke-miterlimit="10" stroke-linecap="round" stroke-linejoin="round"/>
<path d="M239.9 133.1H226.9V140.1H239.9V133.1Z" stroke="#272D3D" stroke-miterlimit="10" stroke-linecap="round" stroke-linejoin="round"/>
<path d="M191.9 119.1L207.9 140.1" stroke="#272D3D" stroke-miterlimit="10" stroke-linecap="round" stroke-linejoin="round"/>
<path d="M207.9 119.1L191.9 140.1" stroke="#272D3D" stroke-miterlimit="10" stroke-linecap="round" stroke-linejoin="round"/>
<path d="M111.3 44.5H151.3" stroke="#272D3D" stroke-miterlimit="10" stroke-linecap="round" stroke-linejoin="round"/>
<path d="M198 44.5H238" stroke="#272D3D" stroke-miterlimit="10" stroke-linecap="round" stroke-linejoin="round"/>
<path d="M285 44.5H325" stroke="#272D3D" stroke-miterlimit="10" stroke-linecap="round" stroke-linejoin="round"/>
<path d="M0.5 270.5H441.5" stroke="#272D3D" stroke-miterlimit="10" stroke-linecap="round" stroke-linejoin="round"/>
<path d="M100.199 243.2L99.5994 270.5H41.3994C41.5994 264.7 44.2994 238.5 44.2994 238.5L100.199 243.2Z" fill="#272D3D"/>
<path d="M54.3994 262.5C54.3994 262.5 67.2994 265.8 76.2994 246.7" stroke="white" stroke-miterlimit="10" stroke-linecap="round" stroke-linejoin="round"/>
<path d="M65.3996 270.5L65.0996 260.3" stroke="white" stroke-miterlimit="10" stroke-linecap="round" stroke-linejoin="round"/>
<path d="M111.9 158L89.6 139.2L85 163.4C85 163.4 98.9 178.1 105.7 179C112.4 179.9 116.6 181 128.1 166.7C139.5 152.3 111.9 158 111.9 158Z" fill="white"/>
<path d="M111.9 158L143.4 122.8C144.9 118.5 147.9 116.5 147.9 116.5C147.9 116.5 159.3 102.3 160.2 100.8C161.2 99.1 162.3 99.2 162.9 99.6C163.8 100.3 163.8 101.9 162.9 103.3C162.6 103.8 157.7 111.6 157.7 111.6C157.7 111.6 158.5 111.2 160.5 110.4C162.6 109.7 165.8 110.5 168.5 112.3C171.2 114.1 171.8 114.9 171.2 116C170.9 116.4 170.5 116.6 170 116.7C169.2 116.8 168.1 116.5 167.4 116.1C162 112.9 160.7 115 160.7 115L160 115.8C160 115.8 164 115.6 165.7 117.7C166 118.1 166.1 118.4 166.2 118.8C167.4 119.5 168.1 120.9 168.1 122.3C168.1 123.8 167.2 125.1 165.9 125.8C165.3 126.1 164.7 126.1 164.1 125.7C163.6 125.3 163.4 124.8 163.3 124.6L161.3 126.5C161.3 126.5 156.6 130.9 154.8 133.1L126.7 168.3C123 173.6 117.5 178 112.3 174.2C106.6 170.2 107 163.1 111.9 158Z" fill="white"/>
<path d="M163.4 124.7L161.9 126.1C161.4 126.2 160.9 126.1 160.5 125.6C159.8 124.7 160.4 123.8 161.3 122C162.1 120.4 160.7 119.8 160.3 119.8C160.5 119.6 160.6 119.3 160.6 119C160.6 118.9 160.6 118.9 160.6 118.8C161.3 118.8 162.8 119 162.4 120.5C161.9 122.5 161.2 123.7 162.1 124.5C162.5 124.7 162.9 124.8 163.4 124.7Z" fill="#272D3D"/>
<path d="M111.9 158L143.4 122.8C144.9 118.5 147.9 116.5 147.9 116.5C147.9 116.5 159.3 102.3 160.2 100.8C161.2 99.1 162.3 99.2 162.9 99.6C163.8 100.3 163.8 101.9 162.9 103.3C162.6 103.8 157.7 111.6 157.7 111.6C157.7 111.6 158.5 111.2 160.5 110.4C162.6 109.7 165.8 110.5 168.5 112.3C171.2 114.1 171.8 114.9 171.2 116C170.9 116.4 170.5 116.6 170 116.7C169.2 116.8 168.1 116.5 167.4 116.1C162 112.9 160.7 115 160.7 115L160 115.8C160 115.8 164 115.6 165.7 117.7C166 118.1 166.1 118.4 166.2 118.8C167.4 119.5 168.1 120.9 168.1 122.3C168.1 123.8 167.2 125.1 165.9 125.8C165.3 126.1 164.7 126.1 164.1 125.7C163.6 125.3 163.4 124.8 163.3 124.6L161.3 126.5C161.3 126.5 156.6 130.9 154.8 133.1L126.7 168.3" stroke="#272D3D" stroke-miterlimit="10" stroke-linecap="round" stroke-linejoin="round"/>
<path d="M164.7 114.8C164.7 114.8 163.9 114 163.8 113.3" stroke="#272D3D" stroke-miterlimit="10" stroke-linecap="round" stroke-linejoin="round"/>
<path d="M160.6 118.7C160.6 118.7 162.9 118.4 162.4 120.4C161.9 122.4 161.2 123.6 162.1 124.4C164 126.1 167 121.3 166.1 118.9" stroke="#272D3D" stroke-miterlimit="10" stroke-linecap="round" stroke-linejoin="round"/>
<path d="M128 166.6C116.5 180.9 112.3 179.8 105.6 178.9C98.9 178 85 163.4 85 163.4L89.6 139.3L111.9 158.1C111.9 158.1 109.6 161.9 110.2 166.6" stroke="#272D3D" stroke-miterlimit="10" stroke-linecap="round" stroke-linejoin="round"/>
<path d="M147.8 116.5C149.7 116 151 116.6 153.1 117.3C155.1 117.9 160.6 116.5 160.6 118.9C160.6 121.3 154.2 120.8 152 121.7" stroke="#272D3D" stroke-miterlimit="10" stroke-linecap="round" stroke-linejoin="round"/>
<path d="M152.3 121.6C152.3 121.6 152.4 125.5 151 127.1C151 127.1 152.4 126.1 154.2 127.1" stroke="#272D3D" stroke-miterlimit="10" stroke-linecap="round" stroke-linejoin="round"/>
<path d="M159.6 120.2C159.3 122 155 122 152.3 122.5C152.3 122 152.3 121.6 152.3 121.6C154.1 121 157.7 121.1 159.6 120.2Z" fill="#272D3D"/>
<path d="M108.7 152.2L85.6 132.6L85 174.5L102.7 181.9L108.7 152.2Z" fill="#DADBDE"/>
<path d="M108.7 152.2L85.6 132.6L85 174.5L102.7 181.9L108.7 152.2Z" stroke="#272D3D" stroke-miterlimit="10" stroke-linecap="round" stroke-linejoin="round"/>
<path d="M99.7002 180.6L105.8 149.7" stroke="#272D3D" stroke-miterlimit="10" stroke-linecap="round" stroke-linejoin="round"/>
<path d="M89.7002 176.5L95.4002 140.9" stroke="#272D3D" stroke-miterlimit="10" stroke-linecap="round" stroke-linejoin="round"/>
<path d="M57.7998 127.3L59.2998 99.5L82.0998 100.8L80.5998 128.8L57.7998 127.3Z" fill="white"/>
<path d="M82.0998 100.8L60.7998 99.6C61.2998 101.9 61.7998 103.8 62.3998 105.1C65.6998 111.3 75.4998 118.1 81.0998 118.4L82.0998 100.8Z" fill="#272D3D"/>
<path d="M82.0998 100.8L60.7998 99.6C61.2998 101.9 61.7998 103.8 62.3998 105.1C65.6998 111.3 75.4998 118.1 81.0998 118.4L82.0998 100.8Z" fill="#272D3D"/>
<path d="M57.7998 127.3L59.2998 99.5L82.0998 100.8L80.5998 128.8L57.7998 127.3Z" stroke="#272D3D" stroke-miterlimit="10" stroke-linecap="round" stroke-linejoin="round"/>
<path d="M55.5998 94C59.0792 94 61.8998 91.1794 61.8998 87.7C61.8998 84.2206 59.0792 81.4 55.5998 81.4C52.1204 81.4 49.2998 84.2206 49.2998 87.7C49.2998 91.1794 52.1204 94 55.5998 94Z" fill="white"/>
<path d="M55.5998 94C59.0792 94 61.8998 91.1794 61.8998 87.7C61.8998 84.2206 59.0792 81.4 55.5998 81.4C52.1204 81.4 49.2998 84.2206 49.2998 87.7C49.2998 91.1794 52.1204 94 55.5998 94Z" stroke="#272D3D" stroke-miterlimit="10" stroke-linecap="round" stroke-linejoin="round"/>
<path d="M95.2002 83.4C96.8002 83.3 97.6002 69.2 95.7002 63.7C93.8002 58.2 85.5002 51.4 81.1002 50.5C76.7002 49.6 73.5002 47.8 70.1002 48C70.1002 48 70.5002 50.6 70.2002 51C70.2002 51 67.9002 49.6 66.8002 49.8C66.8002 49.8 67.6002 50.9 67.5002 51.4C67.5002 51.4 64.7002 50.4 63.8002 50.6C63.8002 50.6 64.3002 51.4 64.3002 52.1C64.3002 52.1 59.6002 52.5 56.5002 56.4C53.4002 60.3 51.7002 64.3 51.7002 70C51.7002 75.7 53.2002 85.1 56.4002 86.1L95.2002 83.4Z" fill="#272D3D"/>
<path d="M95.3 69.1C95.5 76.8 95 95.1 92.8 101C90.6 106.9 84.2 113.7 78.8 114.1C73.4 114.5 62.8 107.4 59.3 100.8C56.2 94.9 55.5 72.7 55.5 72.7C55.5 72.7 56.2 58.4 71.8 57.2C87.4 56 95.1 62.9 95.3 69.1Z" fill="white"/>
<path d="M56 81.4C55.6 76.5 55.5 72.8 55.5 72.8C55.5 72.8 56.2 58.5 71.8 57.3C87.4 56.2 95.1 62.9 95.3 69.1C95.5 76.8 95 95.1 92.8 101C90.9 106 86.1 111.6 81.5 113.5C80.6 113.9 79.7 114.1 78.9 114.2C74.7 114.5 67.3 110.3 62.6 105.3" stroke="#272D3D" stroke-miterlimit="10" stroke-linecap="round" stroke-linejoin="round"/>
<path d="M57.2998 93.7C57.7998 96.7 58.3998 99.2 59.1998 100.8V101.8" stroke="#272D3D" stroke-miterlimit="10" stroke-linecap="round" stroke-linejoin="round"/>
<path d="M95.8003 83C95.8003 83 94.9003 83 93.9003 76.6C92.9003 70.2 91.7003 64.6 87.5003 64C82.5003 63.3 83.1003 64.4 76.5003 65.4C71.9003 66.1 67.1003 64.4 64.2003 65.4C59.5003 67 59.7003 73.8 59.4003 76.7C58.9003 81.7 56.3003 85.9 56.3003 85.9C56.3003 85.9 53.0003 78.5 53.6003 71.8C54.2003 65.1 59.2003 54.7 72.8003 54.2C86.4003 53.7 95.4003 61.5 95.7003 68.4C95.9003 75.4 95.8003 83 95.8003 83Z" fill="#272D3D"/>
<path d="M77.7002 107.7C77.7002 107.7 79.1002 108.1 80.4002 109.4" stroke="#272D3D" stroke-miterlimit="10" stroke-linecap="round" stroke-linejoin="round"/>
<path d="M83.3994 77.9V79.7C83.3994 79.8 83.4994 79.9 83.6994 79.9C84.7994 79.8 89.0994 79.2 91.3994 79.4C93.9994 79.6 96.1994 80.6 96.1994 80.6C96.1994 80.6 94.8994 76.9 91.0994 76.9C87.3994 76.9 84.2994 77.4 83.4994 77.5C83.4994 77.7 83.3994 77.8 83.3994 77.9Z" fill="#272D3D"/>
<path d="M75.1998 77.9L75.4998 79.9C75.4998 80.1 75.3998 80.2 75.1998 80.2C73.9998 80.1 69.2998 79.6 67.0998 79.8C64.4998 80.1 61.7998 81.8 61.7998 81.8C61.7998 81.8 62.8998 78 67.1998 77.4C70.8998 76.9 74.1998 77.5 74.9998 77.6C75.1998 77.7 75.1998 77.8 75.1998 77.9Z" fill="#272D3D"/>
<path d="M62.5999 84.2C62.5999 84.2 68.0999 81.7 75.9999 83.8C75.9999 83.8 76.2999 92.9 69.1999 92.9C62.1999 92.8 62.5999 84.2 62.5999 84.2Z" stroke="#272D3D" stroke-width="1.5" stroke-miterlimit="10" stroke-linecap="round" stroke-linejoin="round"/>
<path d="M82.0999 83.9C82.0999 83.9 87.5999 81.4 95.4999 83.5C95.4999 83.5 95.7999 92.6 88.6999 92.6C81.6999 92.5 82.0999 83.9 82.0999 83.9Z" stroke="#272D3D" stroke-width="1.5" stroke-miterlimit="10" stroke-linecap="round" stroke-linejoin="round"/>
<path d="M82.1 83.9C82.1 83.9 79.7 82.3 76 83.7" stroke="#272D3D" stroke-width="1.5" stroke-miterlimit="10" stroke-linecap="round" stroke-linejoin="round"/>
<path d="M80.0996 81.4C80.0996 81.4 80.1996 89.4 82.0996 95.3C82.4996 96.4 79.7996 97.9 76.5996 97.1" stroke="#272D3D" stroke-miterlimit="10" stroke-linecap="round" stroke-linejoin="round"/>
<path d="M70.7996 88.3C71.7385 88.3 72.4996 87.5389 72.4996 86.6C72.4996 85.6611 71.7385 84.9 70.7996 84.9C69.8607 84.9 69.0996 85.6611 69.0996 86.6C69.0996 87.5389 69.8607 88.3 70.7996 88.3Z" fill="#272D3D"/>
<path d="M74.4994 86.2C74.4994 86.2 72.7994 84.5 70.3994 84.5C67.0994 84.5 65.3994 86.2 65.3994 86.2" stroke="#272D3D" stroke-miterlimit="10" stroke-linecap="round" stroke-linejoin="round"/>
<path d="M89.199 88.1C90.1379 88.1 90.899 87.3389 90.899 86.4C90.899 85.4611 90.1379 84.7 89.199 84.7C88.2601 84.7 87.499 85.4611 87.499 86.4C87.499 87.3389 88.2601 88.1 89.199 88.1Z" fill="#272D3D"/>
<path d="M92.9994 86C92.9994 86 91.2994 84.3 88.8994 84.3C85.5994 84.3 83.8994 86 83.8994 86" stroke="#272D3D" stroke-miterlimit="10" stroke-linecap="round" stroke-linejoin="round"/>
<path d="M62.5996 84.2L56.0996 83.4" stroke="#272D3D" stroke-width="1.5" stroke-miterlimit="10" stroke-linecap="round" stroke-linejoin="round"/>
<path d="M56.6998 89.2L52.7998 86.8" stroke="#272D3D" stroke-miterlimit="10" stroke-linecap="round" stroke-linejoin="round"/>
<path d="M74.3 99C74.3 99 73.1 100.4 72.5 102.6" stroke="#272D3D" stroke-miterlimit="10" stroke-linecap="round" stroke-linejoin="round"/>
<path d="M74.7999 103.2C74.7999 103.2 78.4999 101.8 82.6999 103.4C83.6999 103.7 78.4999 105.4 76.0999 104.2C73.1999 102.7 73.6999 100.4 73.6999 100.4C73.6999 100.4 78.5999 102.4 83.2999 100.2" stroke="#272D3D" stroke-miterlimit="10" stroke-linecap="round" stroke-linejoin="round"/>
<path d="M67.9 61.8C67.9 61.8 66 60.9 63.8 60.9C63.8 60.9 64.3 61.8 64 62.8C64 62.8 62 61.7 59 61.8" stroke="white" stroke-miterlimit="10" stroke-linecap="round" stroke-linejoin="round"/>
<path d="M78.5994 51.8C78.5994 51.8 84.3994 54.7 83.8994 59.2C83.8994 59.2 80.9994 55.8 71.9994 54.6C71.9994 54.6 72.6994 55.3 73.6994 57.3C73.6994 57.3 70.1994 56.2 67.3994 57.1C67.3994 57.1 70.1994 58.8 70.7994 60.1" stroke="white" stroke-miterlimit="10" stroke-linecap="round" stroke-linejoin="round"/>
<path d="M58.2998 114L54.9998 122.1C54.9998 122.1 50.6998 131.3 45.7998 137.6C40.5998 144.4 39.2998 149.6 39.2998 166.5C39.2998 183.4 44.2998 234.2 44.2998 234.2L42.5998 237.5C41.7998 239 42.1998 244.5 43.8998 244.6L99.9998 247.2C101.4 247.3 102.3 242.5 102.2 241.2C102.2 241.2 99.1998 169.8 97.6998 159.4C96.1998 149 85.6998 132.7 85.6998 132.7L85.5998 127.2C85.5998 127.2 73.0998 126.7 67.3998 123.5C61.6998 120.3 59.6998 117.4 58.2998 114Z" fill="#DADBDE"/>
<path d="M101.8 231.8C76.8002 230.7 51.8002 222.3 48.5002 220C44.3002 217.1 44.4002 205.9 43.9002 190.4C43.8002 186.2 43.5002 181 43.6002 175.7C43.6002 179.4 43.8002 183 43.9002 186.1C44.4002 201.7 44.3002 212.8 48.5002 215.7C51.8002 218 76.7002 226.4 101.6 227.5C101.7 229.1 101.7 230.5 101.8 231.8Z" fill="#272D3D"/>
<path d="M58.2998 114L54.9998 122.1C54.9998 122.1 50.6998 131.3 45.7998 137.6C40.5998 144.4 39.2998 149.6 39.2998 166.5C39.2998 183.4 44.2998 234.2 44.2998 234.2L42.5998 237.5C41.7998 239 42.1998 244.5 43.8998 244.6L99.9998 247.2C101.4 247.3 102.3 242.5 102.2 241.2C102.2 241.2 99.1998 169.8 97.6998 159.4C96.1998 149 85.6998 132.7 85.6998 132.7L85.5998 127.2C85.5998 127.2 73.0998 126.7 67.3998 123.5C61.6998 120.3 59.6998 117.4 58.2998 114Z" stroke="#272D3D" stroke-miterlimit="10" stroke-linecap="round" stroke-linejoin="round"/>
<path d="M46.3994 233C46.3994 233 56.5994 237.1 65.2994 237.9C73.9994 238.7 84.1994 237.4 84.1994 237.4" stroke="#272D3D" stroke-miterlimit="10" stroke-linecap="round" stroke-linejoin="round"/>
<path d="M56.0996 119.3C56.0996 119.3 59.2996 133.6 85.6996 132.6" stroke="#272D3D" stroke-miterlimit="10" stroke-linecap="round" stroke-linejoin="round"/>
<path d="M54.7998 137L61.6998 126.9" stroke="#272D3D" stroke-miterlimit="10" stroke-linecap="round" stroke-linejoin="round"/>
<path d="M68.2998 139.6L78.0998 132.4" stroke="#272D3D" stroke-miterlimit="10" stroke-linecap="round" stroke-linejoin="round"/>
<path d="M75.7998 150.8L89.9998 140.1" stroke="#272D3D" stroke-miterlimit="10" stroke-linecap="round" stroke-linejoin="round"/>
<path d="M91.8998 157.9L76.7998 167.6" stroke="#272D3D" stroke-miterlimit="10" stroke-linecap="round" stroke-linejoin="round"/>
<path d="M98.6998 171.7L76.7998 183.3" stroke="#272D3D" stroke-miterlimit="10" stroke-linecap="round" stroke-linejoin="round"/>
<path d="M41.3994 201.4H44.3994" stroke="#272D3D" stroke-miterlimit="10" stroke-linecap="round" stroke-linejoin="round"/>
<path d="M72.0996 199.9L99.6996 188.1" stroke="#272D3D" stroke-miterlimit="10" stroke-linecap="round" stroke-linejoin="round"/>
<path d="M100.3 200.5L88.5 205.5" stroke="#272D3D" stroke-miterlimit="10" stroke-linecap="round" stroke-linejoin="round"/>
<path d="M42.5996 216.6H49.8996" stroke="#272D3D" stroke-miterlimit="10" stroke-linecap="round" stroke-linejoin="round"/>
<path d="M43.7002 228.4L101.7 230.1" stroke="#272D3D" stroke-miterlimit="10" stroke-linecap="round" stroke-linejoin="round"/>
<path d="M94.8996 150.1L91.0996 152.3L92.9996 165.1L98.4996 168.1" stroke="#272D3D" stroke-miterlimit="10" stroke-linecap="round" stroke-linejoin="round"/>
<path d="M135.699 209.5L127.099 235.8L149.899 225.5L157.299 201.4L135.699 209.5Z" fill="#272D3D"/>
<path d="M153.199 206.7C152.599 205.9 151.599 206 150.799 206.6L147.999 208.5C147.199 208.9 146.399 209.3 145.499 209.5L144.299 209.7C141.999 210.1 139.599 209.6 137.599 208.3L137.099 208C137.099 208 144.699 206.3 145.899 205.3C147.099 204.3 146.099 202.3 144.499 202.6L134.999 204C131.799 204.5 128.899 205.7 126.299 207.6C123.899 209.4 119.799 212.1 119.499 212L121.199 226.6L123.899 225.9L128.899 226.3C132.299 226.6 135.599 225.9 138.599 224.4C140.499 223.4 141.999 222.3 142.399 222.2C144.199 221.2 143.499 218.6 143.499 218.6C143.499 218.6 145.099 217.8 145.499 217.1C146.299 215.7 145.299 214.3 145.299 214.3C145.299 214.3 150.099 211.4 151.399 210.4C153.699 208.7 153.699 207.5 153.199 206.7Z" fill="white"/>
<path d="M121.199 226.6L123.899 225.9L128.899 226.3C132.299 226.6 135.599 225.9 138.599 224.4C140.499 223.4 142.099 222.4 142.399 222.2C143.699 221.3 143.499 218.6 143.499 218.6C143.499 218.6 145.099 217.8 145.499 217.1C146.299 215.7 145.299 214.3 145.299 214.3C145.299 214.3 150.099 211.4 151.399 210.4C153.599 208.6 153.699 207.4 153.099 206.6C152.499 205.8 151.499 205.9 150.699 206.5L147.899 208.4C147.099 208.8 146.299 209.2 145.399 209.4L144.199 209.6C141.899 210 139.499 209.5 137.499 208.2L136.999 207.9C136.999 207.9 144.599 206.2 145.799 205.2C146.999 204.2 145.999 202.2 144.399 202.5L134.999 204C131.799 204.5 128.899 205.7 126.299 207.6C123.899 209.4 119.799 212.1 119.499 212" stroke="#272D3D" stroke-miterlimit="10" stroke-linecap="round" stroke-linejoin="round"/>
<path d="M135.699 207.1L137.199 208" stroke="#272D3D" stroke-miterlimit="10" stroke-linecap="round" stroke-linejoin="round"/>
<path d="M145.399 214.3C145.399 214.3 141.499 216.7 139.699 217.2" stroke="#272D3D" stroke-miterlimit="10" stroke-linecap="round" stroke-linejoin="round"/>
<path d="M143.799 218.4C143.799 218.4 141.399 219.6 140.499 220" stroke="#272D3D" stroke-miterlimit="10" stroke-linecap="round" stroke-linejoin="round"/>
<path d="M119.499 212C119.499 212 111.299 212.3 103.399 210.1C96.0994 208 86.5994 204.7 71.9994 200.8C71.9994 200.8 76.6994 146.2 58.9994 144.5C41.2994 142.8 43.1994 170.6 43.7994 186.1C44.3994 201.6 44.1994 212.8 48.3994 215.7C52.5994 218.6 91.3994 231.3 121.199 226.5L120.199 217.5L119.499 212Z" fill="white"/>
<path d="M119.499 212C119.499 212 111.299 212.3 103.399 210.1C96.0994 208 86.5994 204.7 71.9994 200.8C71.9994 200.8 76.6994 146.2 58.9994 144.5C41.2994 142.8 43.1994 170.6 43.7994 186.1C44.3994 201.6 44.1994 212.8 48.3994 215.7C52.5994 218.6 91.3994 231.3 121.199 226.5" stroke="#272D3D" stroke-miterlimit="10" stroke-linecap="round" stroke-linejoin="round"/>
<path d="M57.9 137C73.7 137 76.7 149.9 76.8 159C76.8 168.1 76.8 189.8 76.8 189.8H41.6C41.6 189.8 41 169.9 41 159.6C41 149.1 44.8 137 57.9 137Z" fill="#DADBDE"/>
<path d="M57.9 137C73.7 137 76.7 149.9 76.8 159C76.8 168.1 76.8 189.8 76.8 189.8H41.6C41.6 189.8 41 169.9 41 159.6C41 149.1 44.8 137 57.9 137Z" stroke="#272D3D" stroke-miterlimit="10" stroke-linecap="round" stroke-linejoin="round"/>
<path d="M41.5 185.4H76.8" stroke="#272D3D" stroke-miterlimit="10" stroke-linecap="round" stroke-linejoin="round"/>
<path d="M41 167.6H76.8" stroke="#272D3D" stroke-miterlimit="10" stroke-linecap="round" stroke-linejoin="round"/>
<path d="M41.9004 151.2H75.9004" stroke="#272D3D" stroke-miterlimit="10" stroke-linecap="round" stroke-linejoin="round"/>
<path d="M22.0996 104.9C29.2793 104.9 35.0996 99.0797 35.0996 91.9C35.0996 84.7203 29.2793 78.9 22.0996 78.9C14.9199 78.9 9.09961 84.7203 9.09961 91.9C9.09961 99.0797 14.9199 104.9 22.0996 104.9Z" stroke="#272D3D" stroke-miterlimit="10" stroke-linecap="round" stroke-linejoin="round"/>
<path d="M29.3 111.6C26.7 112.5 23.8 111.2 22.9 108.6L21.5 104.8L30.9 101.4L32.3 105.2C33.2 107.8 31.9 110.7 29.3 111.6Z" fill="#272D3D"/>
<path d="M30.8911 101.491L21.4941 104.911L22.5201 107.73L31.9171 104.31L30.8911 101.491Z" fill="white"/>
<path d="M29.3 111.6C26.7 112.5 23.8 111.2 22.9 108.6L21.5 104.8L30.9 101.4L32.3 105.2C33.2 107.8 31.9 110.7 29.3 111.6Z" stroke="#272D3D" stroke-miterlimit="10" stroke-linecap="round" stroke-linejoin="round"/>
<path d="M27.1002 102.8C26.0002 99.8 25.0002 97.7 24.5002 95.8C24.1002 94.5 24.0002 93.2 24.1002 91.9C24.3002 90.1 27.0002 90.4 26.9002 92.1C26.9002 92.6 26.7002 93.1 26.5002 93.6C26.1002 94.6 25.4002 95.3 24.5002 95.8C24.0002 96.1 23.4002 96.3 22.8002 96.4C21.8002 96.6 20.8002 96.4 19.8002 96C19.2002 95.7 18.7002 95.3 18.3002 94.8C17.3002 93.5 19.1002 91.9 20.4002 92.9C21.5002 93.8 22.2002 95 22.8002 96.4C23.6002 98.3 24.3002 100.6 25.3002 103.5" stroke="#272D3D" stroke-miterlimit="10" stroke-linecap="round" stroke-linejoin="round"/>
<path d="M38.0996 86.1L43.6996 84" stroke="#272D3D" stroke-miterlimit="10" stroke-linecap="round" stroke-linejoin="round"/>
<path d="M29.2998 76.5L31.7998 71.1" stroke="#272D3D" stroke-miterlimit="10" stroke-linecap="round" stroke-linejoin="round"/>
<path d="M16.3002 75.9L14.2002 70.3" stroke="#272D3D" stroke-miterlimit="10" stroke-linecap="round" stroke-linejoin="round"/>
<path d="M6.6998 84.7L1.2998 82.2" stroke="#272D3D" stroke-miterlimit="10" stroke-linecap="round" stroke-linejoin="round"/>
<path d="M6.1 97.7L0.5 99.8" stroke="#272D3D" stroke-miterlimit="10" stroke-linecap="round" stroke-linejoin="round"/>
<path d="M213.5 270.5H169.5L159.5 236.5H203.5L213.5 270.5Z" fill="white"/>
<path d="M213.5 270.5H169.5L159.5 236.5H203.5L213.5 270.5Z" stroke="#272D3D" stroke-miterlimit="10" stroke-linecap="round" stroke-linejoin="round"/>
<path d="M207.5 266.5H173.2L165.5 240.5H199.7L207.5 266.5Z" stroke="#272D3D" stroke-miterlimit="10" stroke-linecap="round" stroke-linejoin="round"/>
<path d="M173.2 266.5L165.5 240.5" stroke="#272D3D" stroke-miterlimit="10" stroke-linecap="round" stroke-linejoin="round"/>
<path d="M181.8 266.5L174 240.5" stroke="#272D3D" stroke-miterlimit="10" stroke-linecap="round" stroke-linejoin="round"/>
<path d="M190.3 266.5L182.6 240.5" stroke="#272D3D" stroke-miterlimit="10" stroke-linecap="round" stroke-linejoin="round"/>
<path d="M198.9 266.5L191.1 240.5" stroke="#272D3D" stroke-miterlimit="10" stroke-linecap="round" stroke-linejoin="round"/>
<path d="M159.5 236.5L149.5 270.5H169.5L159.5 236.5Z" fill="#272D3D" stroke="#272D3D" stroke-miterlimit="10" stroke-linecap="round" stroke-linejoin="round"/>
<path d="M165.5 240.5H199.7" stroke="#272D3D" stroke-miterlimit="10" stroke-linecap="round" stroke-linejoin="round"/>
<path d="M167.4 247H201.6L195 253.5" stroke="#272D3D" stroke-miterlimit="10" stroke-linecap="round" stroke-linejoin="round"/>
<path d="M173.2 266.5H207.5" stroke="#272D3D" stroke-miterlimit="10" stroke-linecap="round" stroke-linejoin="round"/>
<path d="M203.6 253.5H177.9H169.3L176 247L182.6 240.5" stroke="#272D3D" stroke-miterlimit="10" stroke-linecap="round" stroke-linejoin="round"/>
<path d="M176 247H167.4L165.5 240.5H174L176 247Z" fill="#272D3D"/>
<path d="M197 260H188.4L186.5 253.5H195L197 260Z" fill="#272D3D"/>
<path d="M191.1 240.5L184.5 247L177.9 253.5L171.3 260H205.5" stroke="#272D3D" stroke-miterlimit="10" stroke-linecap="round" stroke-linejoin="round"/>
<path d="M165.5 240.5H199.7L193.1 247L186.5 253.5L179.8 260" stroke="#272D3D" stroke-miterlimit="10" stroke-linecap="round" stroke-linejoin="round"/>
<path d="M176.1 236.5C176.1 234.4 180.9 233 180.8 238.8" stroke="#272D3D" stroke-width="1.5" stroke-miterlimit="10" stroke-linecap="round" stroke-linejoin="round"/>
<path d="M182.199 236.5C182.199 234.4 186.999 233 186.899 238.8" stroke="#272D3D" stroke-width="1.5" stroke-miterlimit="10" stroke-linecap="round" stroke-linejoin="round"/>
<path d="M348 46.5C360.15 46.5 370 36.6503 370 24.5C370 12.3497 360.15 2.5 348 2.5C335.85 2.5 326 12.3497 326 24.5C326 36.6503 335.85 46.5 348 46.5Z" fill="white"/>
<path d="M348 46.5C360.15 46.5 370 36.6503 370 24.5C370 12.3497 360.15 2.5 348 2.5C335.85 2.5 326 12.3497 326 24.5C326 36.6503 335.85 46.5 348 46.5Z" stroke="#272D3D" stroke-miterlimit="10" stroke-linecap="round" stroke-linejoin="round"/>
<path d="M356.3 32.7L348 24.5V8.5" stroke="#272D3D" stroke-width="2" stroke-linecap="square"/>
<path d="M343.2 179.2C343.3 179.2 343.4 179.1 343.5 179.1C345.6 171.5 352.6 172 357 168.1V160.3V135.6H333.6V162.6V169C335.8 170.7 342.2 172.7 343.2 179.2Z" fill="white"/>
<path d="M343.2 179.2C343.3 179.2 343.4 179.1 343.5 179.1C345.6 171.5 352.6 172 357 168.1V160.3V135.6H333.6V162.6V169C335.8 170.7 342.2 172.7 343.2 179.2Z" stroke="#272D3D" stroke-miterlimit="10" stroke-linecap="round" stroke-linejoin="round"/>
<path d="M333.6 162.8C345.7 161.5 350.9 149.2 350.9 149.2L333.6 151V162.8Z" fill="#272D3D"/>
<path d="M329 270.5H408L418.7 198.3C419.2 194.8 416.5 191.6 412.9 191.6H345.8C342.9 191.6 340.4 193.7 340 196.6L329 270.5Z" fill="white"/>
<path d="M329 270.5H408L418.7 198.3C419.2 194.8 416.5 191.6 412.9 191.6H345.8C342.9 191.6 340.4 193.7 340 196.6L329 270.5Z" stroke="#272D3D" stroke-miterlimit="10" stroke-linecap="round" stroke-linejoin="round"/>
<path d="M329 270.5H399.2L409.9 198.3C410.4 194.8 407.7 191.6 404.1 191.6H345.8C342.9 191.6 340.4 193.7 340 196.6L329 270.5Z" stroke="#272D3D" stroke-miterlimit="10" stroke-linecap="round" stroke-linejoin="round"/>
<path d="M387.9 180.1C381.4 176.8 374.7 174.4 364.1 167.3L357 167.5V168.1C352.7 172 345.6 171.5 343.5 179.1C343.4 179.1 343.3 179.2 343.2 179.2C342.2 172.8 335.8 170.8 333.6 169.1V168L328.3 168.1C320.7 171.6 303.4 179.5 299 183.6C292.1 190.1 281.5 230.3 281.5 230.3L297.3 270.5H387L398.4 191.6C398.4 191.6 397.1 184.9 387.9 180.1Z" fill="#DCDDE0"/>
<path d="M343.301 179.8L340.101 270.5" stroke="#272D3D" stroke-miterlimit="10" stroke-linecap="round" stroke-linejoin="round"/>
<path d="M348.501 187.7C349.44 187.7 350.201 186.939 350.201 186C350.201 185.061 349.44 184.3 348.501 184.3C347.562 184.3 346.801 185.061 346.801 186C346.801 186.939 347.562 187.7 348.501 187.7Z" stroke="#272D3D" stroke-miterlimit="10" stroke-linecap="round" stroke-linejoin="round"/>
<path d="M348.501 204.5C349.44 204.5 350.201 203.739 350.201 202.8C350.201 201.861 349.44 201.1 348.501 201.1C347.562 201.1 346.801 201.861 346.801 202.8C346.801 203.739 347.562 204.5 348.501 204.5Z" stroke="#272D3D" stroke-miterlimit="10" stroke-linecap="round" stroke-linejoin="round"/>
<path d="M348.501 221.3C349.44 221.3 350.201 220.539 350.201 219.6C350.201 218.661 349.44 217.9 348.501 217.9C347.562 217.9 346.801 218.661 346.801 219.6C346.801 220.539 347.562 221.3 348.501 221.3Z" stroke="#272D3D" stroke-miterlimit="10" stroke-linecap="round" stroke-linejoin="round"/>
<path d="M348.501 238.1C349.44 238.1 350.201 237.339 350.201 236.4C350.201 235.461 349.44 234.7 348.501 234.7C347.562 234.7 346.801 235.461 346.801 236.4C346.801 237.339 347.562 238.1 348.501 238.1Z" stroke="#272D3D" stroke-miterlimit="10" stroke-linecap="round" stroke-linejoin="round"/>
<path d="M344.099 246.3L338.099 242C337.299 241.4 337.099 240.2 337.699 239.4C338.299 238.6 339.399 238.9 340.199 239.5C342.199 240.8 345.799 242.6 346.799 243.2C348.299 243.9 351.499 244.4 356.099 247.1C356.099 247.1 354.099 251.2 348.299 250.5C342.399 249.7 344.099 246.3 344.099 246.3Z" fill="white"/>
<path d="M344.099 246.3L338.099 242C337.299 241.4 337.099 240.2 337.699 239.4C338.299 238.6 339.399 238.9 340.199 239.5C342.199 240.8 345.799 242.6 346.799 243.2C348.299 243.9 351.499 244.4 356.099 247.1C356.099 247.1 354.099 251.2 348.299 250.5C342.399 249.7 344.099 246.3 344.099 246.3Z" stroke="#272D3D" stroke-miterlimit="10" stroke-linecap="round" stroke-linejoin="round"/>
<path d="M414 257.7C412.5 265 405.2 264.3 405.2 264.3L359.9 261.4V261.1L362 248.2C367.8 246.7 388.3 242.4 388.3 242.4L382.7 224.9L404.9 219.7C407.9 228.7 415.2 251.9 414 257.7Z" fill="white"/>
<path d="M367.2 248.2H362.1C357.7 248.2 354.1 245.3 346.8 246C339.5 246.7 335.8 247.5 332.9 251.1C330 254.8 328.5 257.7 328.5 257.7C328.5 257.7 327 260.6 327.8 261.4C328.5 262.1 330 261.4 330 261.4C330 261.4 328.5 263.6 329.3 265.1C330 266.6 332.2 264.4 332.2 264.4C332.2 264.4 330.7 266.6 332.2 267.3C333.7 268 335.1 265.8 335.1 265.8C335.1 265.8 335.1 268 337.3 267.3C338.7 266.8 344.6 262.2 344.6 262.2C344.6 262.2 354.8 265.1 363.6 259.3L367.2 248.2Z" fill="white"/>
<path d="M414 257.7C412.5 265 405.2 264.3 405.2 264.3L359.9 261.1C352.2 264.3 344.5 262.1 344.5 262.1C344.5 262.1 338.6 266.8 337.2 267.2C335 267.9 335 265.7 335 265.7C335 265.7 333.5 267.9 332.1 267.2C330.8 266.5 331.9 264.6 332.1 264.3C331.8 264.5 329.9 266.3 329.2 265C328.5 263.6 329.9 261.5 329.9 261.4C329.8 261.5 328.4 262.1 327.7 261.4C327 260.7 328.4 257.7 328.4 257.7C328.4 257.7 329.9 254.8 332.8 251.1C335.7 247.4 339.4 246.7 346.7 246C354 245.3 357.7 248.2 362 248.2C367.8 246.7 388.3 242.4 388.3 242.4L382.7 224.9L404.9 219.7C407.9 228.7 415.2 251.9 414 257.7Z" stroke="#272D3D" stroke-miterlimit="10" stroke-linecap="round" stroke-linejoin="round"/>
<path d="M329.9 261.4C329.9 261.4 333.8 255 335.8 253.4C337.7 251.8 339.8 250.7 342.3 250.5" stroke="#272D3D" stroke-miterlimit="10" stroke-linecap="round" stroke-linejoin="round"/>
<path d="M332.1 264.3C332.1 264.3 336 257.4 338.7 255.9C341.4 254.4 344.1 254 344.1 254" stroke="#272D3D" stroke-miterlimit="10" stroke-linecap="round" stroke-linejoin="round"/>
<path d="M335.1 265.7C335.1 265.7 338 260.8 341 259.1C343.9 257.4 346 257.3 346.6 257.3" stroke="#272D3D" stroke-miterlimit="10" stroke-linecap="round" stroke-linejoin="round"/>
<path d="M361.9 262.8L370.3 263.5L371.8 245.2L363 245.9L361.9 262.8Z" fill="#DCDDE0"/>
<path d="M370.3 263.5L371.7 245.2L387.8 242L379.5 219.7C379.5 219.7 368.6 195.7 381.4 188.5C394.2 181.3 398.9 191.3 398.9 191.3C398.9 191.3 416.7 238.7 416.2 252C415.9 261.1 414.1 265.2 404.3 265.1C396.7 265.1 370.3 263.5 370.3 263.5Z" fill="#DCDDE0"/>
<path d="M361.9 262.8L370.3 263.5L371.8 245.2L363 245.9L361.9 262.8Z" stroke="#272D3D" stroke-miterlimit="10" stroke-linecap="round" stroke-linejoin="round"/>
<path d="M381.5 188.5C394.4 181.4 399 191.3 399 191.3C399 191.3 416.8 238.7 416.3 252C416 261.1 414.2 265.2 404.4 265.1C396.7 265.1 370.4 263.5 370.4 263.5L371.8 245.2L387.9 242L379.6 219.7" stroke="#272D3D" stroke-miterlimit="10" stroke-linecap="round" stroke-linejoin="round"/>
<path d="M387.8 242C387.8 242 395 242.9 399 248.1" stroke="#272D3D" stroke-miterlimit="10" stroke-linecap="round" stroke-linejoin="round"/>
<path d="M357.001 160.3L364.101 167.3C362.101 173.7 353.801 179.9 343.301 179.8C332.801 179.7 328.101 173.4 328.201 168.1L333.501 162.7V169.1C335.701 170.8 342.501 172.9 343.201 179.9C345.001 171.5 352.401 172.1 356.901 168.1V160.3H357.001Z" fill="#DCDDE0"/>
<path d="M357.001 160.3L364.101 167.3C362.101 173.7 353.801 179.9 343.301 179.8C332.801 179.7 328.101 173.4 328.201 168.1L333.501 162.7V169.1C335.701 170.8 342.501 172.9 343.201 179.9C345.001 171.5 352.401 172.1 356.901 168.1V160.3H357.001Z" stroke="#272D3D" stroke-miterlimit="10" stroke-linecap="round" stroke-linejoin="round"/>
<path d="M297.2 270.5L281.4 230.3C281.4 230.3 292 190.1 298.9 183.6C303.3 179.4 320.7 171.6 328.2 168.1" stroke="#272D3D" stroke-miterlimit="10" stroke-linecap="round" stroke-linejoin="round"/>
<path d="M364.101 167.3C374.701 174.4 381.401 176.8 387.901 180.1C397.101 184.9 398.401 191.5 398.401 191.5" stroke="#272D3D" stroke-miterlimit="10" stroke-linecap="round" stroke-linejoin="round"/>
<path d="M387 270.5L387.8 264.7" stroke="#272D3D" stroke-miterlimit="10" stroke-linecap="round" stroke-linejoin="round"/>
<path d="M324.8 270.5H242.4C241 270.5 239.8 269.5 239.5 268.1L229 212.6C228.7 210.8 230 209.1 231.9 209.1H310.7C312.1 209.1 313.3 210.1 313.6 211.5L324.8 270.5Z" fill="#272D3D"/>
<path d="M318.799 269.4L307.799 211.5C307.499 210.1 306.299 209.1 304.899 209.1" stroke="white" stroke-miterlimit="10" stroke-linecap="round" stroke-linejoin="round"/>
<path d="M270.7 244.6C273.13 244.6 275.1 242.63 275.1 240.2C275.1 237.77 273.13 235.8 270.7 235.8C268.27 235.8 266.3 237.77 266.3 240.2C266.3 242.63 268.27 244.6 270.7 244.6Z" stroke="white" stroke-miterlimit="10" stroke-linecap="round" stroke-linejoin="round"/>
<path d="M351.1 264.7C352.7 264.7 354 266 354 267.6V270.5H324.8L323.7 264.7H351.1Z" fill="#272D3D"/>
<path d="M358.1 138.5C361.579 138.5 364.4 135.679 364.4 132.2C364.4 128.721 361.579 125.9 358.1 125.9C354.62 125.9 351.8 128.721 351.8 132.2C351.8 135.679 354.62 138.5 358.1 138.5Z" fill="white"/>
<path d="M358.9 125.9C362.3 126.4 364.8 129.5 364.3 133C363.8 136.4 360.7 138.9 357.2 138.4C357.1 138.4 357 138.4 356.9 138.4" stroke="#272D3D" stroke-miterlimit="10" stroke-linecap="round" stroke-linejoin="round"/>
<path d="M318.5 113.6C318.3 121.3 318.8 139.6 321 145.5C323.2 151.4 329.6 158.2 335 158.6C340.4 159 351 151.9 354.5 145.3C357.6 139.4 358.3 117.2 358.3 117.2C358.3 117.2 357.6 102.9 342 101.7C326.3 100.6 318.6 107.4 318.5 113.6Z" fill="white"/>
<path d="M323.3 108.6C323.3 108.6 326.3 117.1 333.8 119C341.2 121 341.4 119.3 339.4 118.2C337.4 117.1 337 116.8 337 116.8C337 116.8 338.5 117.3 339.8 117.9C341.1 118.5 342.8 118.2 341 116.8C339.2 115.4 339.2 115.4 339.2 115.4C339.2 115.4 341.8 116.7 346.1 115.9C346.1 115.9 352.8 112.4 345.3 110.8C338 109.3 323.3 108.6 323.3 108.6Z" fill="#272D3D"/>
<path d="M351.2 149.7C346.5 154.7 339.1 159 334.9 158.6C334 158.5 333.2 158.3 332.3 157.9C327.6 156 322.8 150.4 320.9 145.4C319.6 141.9 318.9 134 318.5 126.6C318.5 126 318.5 125.4 318.4 124.7C318.3 120.3 318.2 116.2 318.3 113.4C318.4 107.2 326.2 100.5 341.8 101.6C357.4 102.7 358.1 117.1 358.1 117.1C358.1 117.1 358 120.9 357.6 125.7" stroke="#272D3D" stroke-miterlimit="10" stroke-linecap="round" stroke-linejoin="round"/>
<path d="M337.1 151.4C337.1 151.4 335.7 151.8 334.4 153.1" stroke="#272D3D" stroke-miterlimit="10" stroke-linecap="round" stroke-linejoin="round"/>
<path d="M333.9 128.1C333.9 128.1 334.1 130.8 331 139.6C330.6 140.8 333.4 141.9 337.2 141.7" stroke="#272D3D" stroke-miterlimit="10" stroke-linecap="round" stroke-linejoin="round"/>
<path d="M342.801 132.5C343.739 132.5 344.501 131.739 344.501 130.8C344.501 129.861 343.739 129.1 342.801 129.1C341.862 129.1 341.101 129.861 341.101 130.8C341.101 131.739 341.862 132.5 342.801 132.5Z" fill="#272D3D"/>
<path d="M338.7 130.7C338.7 130.7 340.4 129 342.8 129C346.1 129 347.8 130.7 347.8 130.7" stroke="#272D3D" stroke-miterlimit="10" stroke-linecap="round" stroke-linejoin="round"/>
<path d="M324.4 132.3C325.339 132.3 326.1 131.539 326.1 130.6C326.1 129.661 325.339 128.9 324.4 128.9C323.461 128.9 322.7 129.661 322.7 130.6C322.7 131.539 323.461 132.3 324.4 132.3Z" fill="#272D3D"/>
<path d="M320.3 130.5C320.3 130.5 322 128.8 324.4 128.8C327.7 128.8 329.4 130.5 329.4 130.5" stroke="#272D3D" stroke-miterlimit="10" stroke-linecap="round" stroke-linejoin="round"/>
<path d="M357 133.7L360.9 131.3" stroke="#272D3D" stroke-miterlimit="10" stroke-linecap="round" stroke-linejoin="round"/>
<path d="M341.5 143.7C341.5 143.7 342.7 145.1 343.3 147.3" stroke="#272D3D" stroke-miterlimit="10" stroke-linecap="round" stroke-linejoin="round"/>
<path d="M330.4 124.7L330.3 126.5C330.3 126.7 330.2 126.8 330 126.7C328.8 126.5 323.7 125.8 321.2 126C320.4 126 319.4 126.4 318.6 126.7C318.6 126.1 318.6 125.5 318.5 124.8C319.2 124.2 320.2 123.7 321.5 123.7C325.4 123.7 329.2 124.3 330.1 124.4C330.3 124.5 330.4 124.6 330.4 124.7Z" fill="#272D3D"/>
<path d="M338 123.8V125.6C338 125.8 338.1 125.9 338.3 125.9C339.5 125.8 345.1 125.5 347.6 125.4C349.3 125.4 352.4 126.1 352.4 126.1C352.4 126.1 351 123.3 346.9 123.3C343 123.3 339.2 123.5 338.3 123.7C338.1 123.6 338 123.7 338 123.8Z" fill="#272D3D"/>
<path d="M329.7 146.8C329.7 146.8 336 149.5 342.5 145.3" stroke="#272D3D" stroke-miterlimit="10" stroke-linecap="round" stroke-linejoin="round"/>
<path d="M361.1 112.7C357.3 111.2 352.1 101 332.5 102.1C327.7 102.4 322.8 105.7 320.7 108.2C321.7 98.1 332.7 90.1 347.2 93.7C362.1 97.4 361.1 112.1 361.1 112.7Z" fill="#272D3D" stroke="#272D3D" stroke-miterlimit="10" stroke-linecap="round" stroke-linejoin="round"/>
<path d="M362.9 116.1L362.5 128.5C361.6 127.6 360.4 127 359 126.8C358.6 126.8 358.2 126.7 357.8 126.8C357.6 126.6 349.7 115.6 343.1 113.5C336.5 111.4 329.1 111.6 324.8 114.4C320.6 117.2 318.9 120.8 318.6 128.7C318.6 128.7 317.4 129 317.3 127.7C316.9 124 317.1 115.1 317.4 112.6C317.7 109.9 319.4 107.9 321.1 105.9C323.2 103.4 326.4 101.6 331.1 101.4C350.6 100.3 358.8 109.6 361.4 113.5C361.7 114 362.1 114.5 362.3 114.8C362.8 115.2 362.9 115.6 362.9 116.1Z" fill="#272D3D"/>
<path d="M347.5 115.1C346 114 344.5 113.1 343.1 112.7C336.9 110.7 330 110.8 325.7 113.1" stroke="white" stroke-miterlimit="10" stroke-linecap="round" stroke-linejoin="round"/>
<path d="M321.2 106.1C323.6 103.6 328.5 101.4 332.9 101.1C352.2 100 358.2 108.6 361.1 112.7C361.2 112.9 361.4 113.1 361.5 113.2" stroke="white" stroke-miterlimit="10" stroke-linecap="round" stroke-linejoin="round"/>
<path d="M342.7 104.7L342.8 108.8C340.3 108.1 337.5 107.6 334.2 107.7C331.7 107.7 329.4 108 327.4 108.6L327.3 104.8C329.3 104.4 331.6 104.2 334.1 104.1C337.3 103.9 340.1 104.2 342.7 104.7Z" stroke="white" stroke-miterlimit="10" stroke-linecap="round" stroke-linejoin="round"/>
<path d="M358.9 124.9H357.8" stroke="#272D3D" stroke-miterlimit="10" stroke-linecap="round" stroke-linejoin="round"/>
</svg>
