<svg width="160" height="90" viewBox="0 0 160 90" fill="none" xmlns="http://www.w3.org/2000/svg">
<path d="M1 1H159V89H1V1Z" stroke="#DCDDE0" stroke-linejoin="round"/>
<path d="M41.0525 57.5962C48.1657 57.5962 53.9321 51.8663 53.9321 44.7981C53.9321 37.7299 48.1657 32 41.0525 32C33.9393 32 28.1729 37.7299 28.1729 44.7981C28.1729 51.8663 33.9393 57.5962 41.0525 57.5962Z" fill="black"/>
<path d="M46.6831 36.7355C45.3751 36.7811 44.2322 37.4978 43.3829 38.4889C42.441 39.5758 41.8152 40.8655 41.3637 42.1813C40.5567 41.5239 39.9341 40.6731 38.6393 40.302C37.6377 40.0162 36.5871 40.1338 35.6203 40.8496C35.162 41.1897 34.8468 41.7035 34.6968 42.1863C34.3077 43.4418 35.1047 44.5593 35.4671 44.9609L36.2586 45.8025C36.4219 45.968 36.8142 46.3993 36.6228 47.017C36.415 47.6895 35.6002 48.124 34.7638 47.8682C34.3903 47.7533 33.8535 47.4775 33.9741 47.0891C34.0237 46.9295 34.1384 46.8096 34.2003 46.6733C34.2568 46.5548 34.2834 46.4663 34.3004 46.4143C34.4531 45.9183 34.2444 45.2737 33.7103 45.11C33.2116 44.9586 32.7023 45.079 32.5046 45.7159C32.2798 46.4412 32.6289 47.7547 34.4976 48.3278C36.6871 48.9966 38.5393 47.8112 38.8017 46.2666C38.9673 45.2992 38.5269 44.5798 37.7217 43.6548L37.0656 42.934C36.6678 42.5387 36.5315 41.8662 36.9426 41.3497C37.2899 40.9134 37.7841 40.7274 38.5948 40.9458C39.7771 41.264 40.3043 42.0796 41.1834 42.7375C40.8205 43.9205 40.5828 45.1082 40.3685 46.1741L40.2369 46.9673C39.6078 50.2435 39.1284 52.042 37.8814 53.0746C37.6304 53.2529 37.2707 53.5182 36.7297 53.5369C36.4457 53.546 36.3544 53.3518 36.3499 53.267C36.3434 53.0692 36.5118 52.9784 36.6233 52.8895C36.7898 52.7988 37.0417 52.6493 37.0248 52.1701C37.0059 51.6021 36.5334 51.1106 35.8507 51.1339C35.3382 51.1507 34.5587 51.629 34.588 52.5061C34.6183 53.4106 35.4671 54.0895 36.7472 54.0457C37.4317 54.0234 38.9595 53.7466 40.4649 51.9682C42.2171 49.9289 42.7075 47.5915 43.0764 45.8809L43.4875 43.6228C43.7165 43.6497 43.9605 43.6684 44.2267 43.6744C46.4092 43.7209 47.5007 42.5971 47.5177 41.7801C47.5282 41.2854 47.191 40.799 46.7184 40.8099C46.3808 40.8195 45.9559 41.0429 45.854 41.507C45.7545 41.9629 46.5487 42.3741 45.9279 42.7739C45.487 43.058 44.6965 43.2577 43.5834 43.0954L43.7862 41.9834C44.1987 39.8753 44.7089 37.2821 46.6418 37.2197C46.7827 37.2124 47.2984 37.2261 47.3103 37.5643C47.3135 37.6774 47.2855 37.7066 47.1525 37.9655C47.0162 38.167 46.9653 38.3389 46.9712 38.5368C46.9905 39.0747 47.4021 39.4285 47.9981 39.4076C48.795 39.3816 49.0244 38.6106 49.0116 38.214C48.9785 37.2817 47.9903 36.6936 46.6831 36.7355Z" fill="white"/>
<path d="M106.264 41.1973C109.234 41.1973 111.225 43.3295 111.225 46.2792C111.225 49.0589 109.195 51.3607 106.264 51.3607C103.315 51.3607 101.285 49.0589 101.285 46.2792C101.285 43.3295 103.275 41.1973 106.264 41.1973ZM106.264 49.9164C108.371 49.9164 109.309 48.0126 109.309 46.2792C109.309 44.4337 108.179 42.6448 106.264 42.6448C104.33 42.6448 103.199 44.4337 103.199 46.2792C103.199 48.0126 104.138 49.9164 106.264 49.9164Z" fill="black"/>
<path d="M101.039 42.1009V41.4257H98.4519V40.5029C98.4519 39.1895 98.6441 38.1984 100.194 38.1984C100.223 38.1984 100.253 38.2011 100.283 38.2025C100.286 38.2025 100.285 38.1974 100.289 38.1974C100.719 38.2284 101.078 37.8806 101.102 37.453L101.133 36.8667C100.769 36.8092 100.385 36.7527 99.9265 36.7527C97.264 36.7527 96.6515 38.2946 96.6515 40.6552V41.4257H94.3506V42.1793C94.4098 42.57 94.7465 42.8714 95.1572 42.8714C95.159 42.8714 95.1613 42.8732 95.1636 42.8732H96.6515V51.1337H97.6425C97.6448 51.1337 97.6434 51.1337 97.6457 51.1337C98.0587 51.1337 98.3954 50.8246 98.4514 50.4312V42.8732H100.253C100.677 42.8591 101.018 42.5221 101.039 42.1009Z" fill="black"/>
<path d="M77.0545 41.4257C77.0517 41.4257 77.0494 41.428 77.0448 41.428C76.6658 41.428 76.2983 41.6869 76.1378 42.0375L73.6607 49.4587H73.6221L71.1992 42.0412C71.0404 41.6888 70.6715 41.4275 70.2898 41.4275C70.2852 41.4275 70.2838 41.4253 70.2802 41.4253H69.0244L72.3384 50.4859C72.454 50.81 72.6843 51.3051 72.6843 51.5135C72.6843 51.705 72.1475 53.9115 70.5376 53.9115C70.4981 53.9115 70.4577 53.907 70.4187 53.9042C70.0081 53.8819 69.6979 54.1668 69.6296 54.6059L69.5805 55.2255C69.9062 55.2824 70.2329 55.359 70.8073 55.359C73.1821 55.359 73.891 53.2067 74.5622 51.3421L78.1625 41.4248H77.0545V41.4257Z" fill="black"/>
<path d="M65.6077 43.3977C64.1211 42.6418 62.4937 42.128 62.4653 40.6071C62.4699 38.9918 63.9638 38.5674 65.1144 38.5687C65.12 38.5678 65.1245 38.5678 65.1273 38.5678C65.6274 38.5678 66.027 38.6171 66.4175 38.7023C66.4225 38.7023 66.4216 38.6959 66.4276 38.6959C66.8405 38.726 67.1869 38.4055 67.2351 38.0016L67.2681 37.4148C66.5134 37.2288 65.7247 37.1335 65.0383 37.1335C62.5355 37.149 60.6769 38.4005 60.6709 40.789C60.6737 42.877 62.0895 43.6862 63.6137 44.4193C65.1076 45.1333 66.7432 45.7223 66.7574 47.4461C66.7492 49.2437 65.003 49.9061 63.7995 49.9089C63.0957 49.9061 62.3318 49.7324 61.6876 49.5305C61.2843 49.4644 60.9535 49.8181 60.9008 50.2864L60.8466 50.8088C61.7317 51.0928 62.6387 51.3413 63.5513 51.3413C63.5513 51.3413 63.5522 51.3413 63.5531 51.3413C63.5554 51.3413 63.5586 51.3413 63.5614 51.3413C66.3656 51.3208 68.545 50.2098 68.5537 47.3244C68.5505 45.0986 67.124 44.1636 65.6077 43.3977Z" fill="black"/>
<path d="M92.8409 51.1336C92.8423 51.1336 92.8423 51.1336 92.8432 51.1336C93.2318 51.1336 93.5562 50.8619 93.6374 50.5004V44.9092C93.6374 42.7961 92.7391 41.1968 90.2473 41.1968C89.3664 41.1968 87.8918 41.6928 87.221 43.0819C86.7044 41.7685 85.5739 41.1968 84.4447 41.1968C83.0073 41.1968 82.03 41.7106 81.3409 42.8344H81.3024V42.2308C81.2969 41.7863 80.9349 41.4275 80.4871 41.4275C80.483 41.4275 80.4811 41.4252 80.4784 41.4252H79.6172V51.1332H80.5917C80.5931 51.1332 80.5931 51.1332 80.594 51.1332C81.0455 51.1332 81.4107 50.7689 81.4107 50.3212C81.4107 50.3089 81.4148 50.3044 81.4189 50.2962V46.2409C81.4189 44.4332 82.1461 42.6443 83.9846 42.6443C85.4394 42.6443 85.729 44.1474 85.729 45.3469V51.1327H86.7168C86.7177 51.1327 86.7177 51.1327 86.7195 51.1327C87.1462 51.1327 87.4899 50.8068 87.5279 50.3928V46.2409C87.5279 44.4332 88.2565 42.6443 90.095 42.6443C91.5508 42.6443 91.8384 44.1474 91.8384 45.3469V51.1327H92.8409V51.1336Z" fill="black"/>
<path d="M120.667 51.1336C120.668 51.1336 120.668 51.1336 120.669 51.1336C121.108 51.1336 121.462 50.789 121.483 50.3572V45.366C121.483 42.7587 120.351 41.1968 117.823 41.1968C116.463 41.1968 115.161 41.8638 114.623 42.9684H114.586V42.2431C114.586 42.2422 114.584 42.2422 114.584 42.2403C114.584 41.7904 114.217 41.4275 113.768 41.4275C113.763 41.4275 113.762 41.4252 113.758 41.4252H112.842V51.1332H113.831C113.831 51.1332 113.831 51.1332 113.833 51.1332C114.262 51.1332 114.609 50.8017 114.642 50.3841V46.6407C114.642 44.281 115.563 42.6443 117.612 42.6443C119.184 42.7386 119.68 43.8419 119.68 46.1078V51.1327H120.667V51.1336Z" fill="black"/>
<path d="M130.361 41.4257C130.356 41.4257 130.355 41.428 130.351 41.428C129.971 41.428 129.604 41.6869 129.443 42.0375L126.967 49.4587H126.927L124.503 42.0412C124.345 41.6888 123.976 41.4275 123.595 41.4275C123.591 41.4275 123.589 41.4253 123.586 41.4253H122.33L125.644 50.4859C125.759 50.81 125.991 51.3051 125.991 51.5135C125.991 51.705 125.454 53.9115 123.843 53.9115C123.804 53.9115 123.765 53.907 123.724 53.9042C123.314 53.8819 123.005 54.1668 122.934 54.6059L122.886 55.2255C123.211 55.2824 123.539 55.359 124.113 55.359C126.488 55.359 127.197 53.2067 127.868 51.3421L131.47 41.4248H130.361V41.4257Z" fill="black"/>
</svg>
